<svg xmlns="http://www.w3.org/2000/svg" xmlns:xlink="http://www.w3.org/1999/xlink" viewBox="0 0 122.5 272.68"><defs><style>.cls-1{fill:none;}.cls-2{clip-path:url(#clip-path);}.cls-3{fill:#5051a2;}.cls-4{fill:url(#linear-gradient);}.cls-5{fill:url(#linear-gradient-2);}.cls-6{fill:url(#linear-gradient-3);}.cls-10,.cls-13,.cls-7{fill:#010101;}.cls-10,.cls-7{isolation:isolate;}.cls-7{opacity:0.1;}.cls-8{clip-path:url(#clip-path-3);}.cls-9{fill:url(#linear-gradient-4);}.cls-10,.cls-11{opacity:0.07;}.cls-12{clip-path:url(#clip-path-5);}.cls-14{clip-path:url(#clip-path-6);}.cls-15{fill:#fff;}.cls-16{clip-path:url(#clip-path-8);}.cls-17{fill:url(#linear-gradient-5);}</style><clipPath id="clip-path" transform="translate(-394.52 -130.62)"><rect class="cls-1" width="880.35" height="495.2"/></clipPath><linearGradient id="linear-gradient" x1="-5930.62" y1="2043.96" x2="-5839.8" y2="2043.96" gradientTransform="matrix(-0.62, 0, 0, 0.71, -3389.57, -1303.64)" gradientUnits="userSpaceOnUse"><stop offset="0" stop-color="#5051a2"/><stop offset="1" stop-color="#5bcae9"/></linearGradient><linearGradient id="linear-gradient-2" x1="823.53" y1="-60.92" x2="889.74" y2="-60.92" gradientTransform="matrix(0.71, 0, 0, -0.71, -152.87, 133.48)" gradientUnits="userSpaceOnUse"><stop offset="0" stop-color="#f47b59"/><stop offset="0.41" stop-color="#f79454"/><stop offset="0.71" stop-color="#f8c548"/><stop offset="1" stop-color="#f89d53"/></linearGradient><linearGradient id="linear-gradient-3" x1="787.98" y1="-267.76" x2="914.41" y2="-267.76" gradientTransform="matrix(0.71, 0, 0, -0.71, -152.87, 133.48)" xlink:href="#linear-gradient"/><clipPath id="clip-path-3" transform="translate(-394.52 -130.62)"><path class="cls-1" d="M474.61,182.13a54.15,54.15,0,0,0-9,1.46,50.3,50.3,0,0,1-3.28,5.39c-3,3.81-4.35,8.64-6.19,8.78-2.4.19-7.94-8.37-10.8-10.4-1.84-1.32-2-1.88-3.06-2.34l-16.14.75a9.09,9.09,0,0,0-6.71,4c-7.4,11.1-24,44-24.5,52.14-.37,5.94,13.07,15,16.84,15.95,1.54.37,4.22-14.24,5.11-15.55l-5.63-1.74a90.65,90.65,0,0,1,6.63-12.07c.71-1,7.2-11.1,8-14.49a74.1,74.1,0,0,1,.47,10c-.16,4.06.81,8.38.81,11.39s2.08,12.62-.12,18-5.42,18-5.42,18l55.56-.3s2.55-20.58,3.35-28.78a65.8,65.8,0,0,1-.17-7.56c.22-10.2.29-21.62-.15-23.43-.71-2.88,15.85,19.74,19.57,25.93,1.54,2.57-19.59,7.1-21.34,9.1s1.78,7.67,1.78,7.67S517,249.5,516.8,243.86s-19.76-48.47-28-55.93c-5.09-4.64-3.77-3.23-6.88-4.59-1.78-.77-1.55-.83-5.14-1.11"/></clipPath><linearGradient id="linear-gradient-4" x1="1551.87" y1="-788.48" x2="1696.38" y2="-687.9" gradientTransform="matrix(0.71, 0, 0, -0.71, -1055.02, -454.52)" gradientUnits="userSpaceOnUse"><stop offset="0" stop-color="#d4a7cd"/><stop offset="1" stop-color="#6d62ab"/></linearGradient><clipPath id="clip-path-5" transform="translate(-394.52 -130.62)"><rect class="cls-1" x="401.04" y="283.89" width="96.3" height="28.61"/></clipPath><clipPath id="clip-path-6" transform="translate(-394.52 -130.62)"><rect class="cls-1" x="425.01" y="190.02" width="18.32" height="48.06"/></clipPath><clipPath id="clip-path-8" transform="translate(-394.52 -130.62)"><path class="cls-1" d="M447.06,261.1a3.07,3.07,0,1,0,3.07-3.06h0a3.06,3.06,0,0,0-3.06,3.06h0"/></clipPath><linearGradient id="linear-gradient-5" x1="-651.3" y1="668.02" x2="-650.66" y2="668.02" gradientTransform="translate(-6121.45 6470.48) rotate(180) scale(9.49)" gradientUnits="userSpaceOnUse"><stop offset="0" stop-color="#5bc2e9"/><stop offset="1" stop-color="#66cce8"/></linearGradient></defs><g id="Layer_2" data-name="Layer 2"><g id="Layer_1-2" data-name="Layer 1"><g class="cls-2"><g class="cls-2"><path class="cls-3" d="M487.76,372.69l-9.49.09s-4.12,7.44-6.16,11.43c-.13.25-.5.89-.76,1.35a11,11,0,0,0-.71,2.17c-.75,3.9-.27,7.46,2.32,9.94,2.84,2.72,5,5.1,9.4,2.3s5.58-5,5.67-11.68-.23-15.61-.23-15.61" transform="translate(-394.52 -130.62)"/><path class="cls-3" d="M439.4,373.18l-8.66,3.87s-.81,8.48-1.08,12.94c0,.29-.1,1-.15,1.55a10.29,10.29,0,0,0,.2,2.28c.87,3.87,2.73,6.94,6.09,8.17,3.7,1.35,6.61,2.69,9.54-1.65s3.12-6.81.52-13-6.46-14.2-6.46-14.2" transform="translate(-394.52 -130.62)"/></g><path class="cls-4" d="M441.5,163.9l27.2-5.22s2.27-11.36,1.59-13.37-1.32-6.46-5.18-7.81-9-12.2-22-3.59-5.95,18.88-5.95,18.88Z" transform="translate(-394.52 -130.62)"/><path class="cls-5" d="M460.71,141.15s-13.56,5.23-16.64,6.51-4.75,5-4.75,5-1.51-.9-1.51,1.67,1.26,8.35,2.17,9.83a77,77,0,0,1,4.32,7.73c1.25,2.65,1,6.64.68,8.11-.57,2.77-13.27,22.15-13.27,22.15l4.7,5.49,5.27,4.65,37-2.84S465.82,184.22,463.8,180c-.91-1.91.06-6.54.59-8.91.48-2.16,1.54-4.88,2.57-5.68a11.62,11.62,0,0,0,2.84-5.91c0-1.55.3-6.44-1-5.14-.36.35-2.13-2.42-2.63-4.73A16.14,16.14,0,0,0,460.71,141.15Z" transform="translate(-394.52 -130.62)"/><path class="cls-6" d="M406.75,280.16s-11.22,10.06-11.22,14.31,1.94,15.48,5.61,22.06,26.27,56.6,29,60.46c.46.66,10.12-2,10.12-2s-4.47-20.52-5.25-25.16S423,317.69,423,315s1.93-6.58,8.13-7.74,19.34-2.71,24-1.16,24.68,1.35,28.23,5.81c2.25,2.87,0,6.14-2.32,17s-.78,25.95-2.71,30.6-1.8,14.65-.85,14.72c2.59.16,9.6.76,10.34.24,1.28-.92,8.71-17.5,10-20.32,2-4.43,8.39-28.69,9.16-34.88s4.64-17.42,3.87-20.51-17.8-22.06-30.57-24.77-52.23-5.8-56.88-2.7S406.75,280.16,406.75,280.16Z" transform="translate(-394.52 -130.62)"/><path class="cls-7" d="M439.1,369.64s-3.52-17.36-4.52-21.5c-1.14-4.72-10.23-26-11.57-33.16-1.31-6.88-5.22,2.51-4.06,9.09s7.74,18.57,8.12,24.37S439.1,369.64,439.1,369.64Z" transform="translate(-394.52 -130.62)"/><g class="cls-8"><rect class="cls-9" y="49.22" width="122.5" height="91.5"/></g><path class="cls-10" d="M444.81,184.43c-.65-.86-2.54.46-.84-2.13,2.84-4.32.32-10.94.32-10.94s1.42,3,6.39,2.61,5.82-1.87.34,3.92-7,5.61-6.22,6.57" transform="translate(-394.52 -130.62)"/><g class="cls-2"><g class="cls-11"><g class="cls-12"><path class="cls-13" d="M412,284.1l77.8-1.22s-16.33,8.45-13.92,12.94c3.16,5.92-3.18,12.55-12.11,11.46-7.56-.92-9.12-2.47-13.8-2.07-12.15,1-20.5.32-21.7-1.53C418.22,288.3,412,284.1,412,284.1" transform="translate(-394.52 -130.62)"/></g></g><g class="cls-11"><g class="cls-14"><path class="cls-13" d="M430.28,211.83c1.34,2.4,2.62,3.74,1.83,5.81-1.55,4.09-1.91,8.93,2.91,12.81,3.26,2.62,2.68,6.78,5.16,6.82,1.91,1.13-3.71.79-3.71.79h-5.62l-3.55-.2c0-.79-1.07-11.22-1-12.65.18-5,.27-8-.13-10.17-.71-3.72-.5-2.32,1.1-4.93.59-.94,2.37.86,3.05,1.73" transform="translate(-394.52 -130.62)"/></g></g></g><g class="cls-2"><path class="cls-15" d="M409.49,241.74s-.06-3.39,3.28-3.55,74.25-.06,74.25-.06,3.12.37,3.22,2.91.11,40,.11,40a2.89,2.89,0,0,1-2.83,3h-.19c-3.06.06-75.36.11-75.36.11a3.57,3.57,0,0,1-2.64-3.39c.05-2.67.16-39,.16-39" transform="translate(-394.52 -130.62)"/></g><g class="cls-16"><rect class="cls-17" x="52.54" y="127.42" width="6.13" height="6.13"/></g></g></g></g></svg>