<svg xmlns="http://www.w3.org/2000/svg" xmlns:xlink="http://www.w3.org/1999/xlink" viewBox="0 0 1235.53 755.29"><defs><style>.cls-1{fill:#e9edfc;}.cls-2{fill:#e1e6fc;}.cls-3{fill:#bac4f6;}.cls-4{fill:none;stroke:#fff;stroke-linecap:round;stroke-miterlimit:10;stroke-width:0.37px;}.cls-5{fill:#fff;}.cls-6{fill:#4b44be;}.cls-7{fill:url(#linear-gradient);}.cls-8{fill:url(#linear-gradient-2);}.cls-9{fill:url(#linear-gradient-3);}.cls-10{fill:url(#linear-gradient-4);}.cls-11{isolation:isolate;opacity:0.07;}.cls-12{fill:url(#linear-gradient-5);}.cls-13{fill:url(#linear-gradient-6);}.cls-14{fill:url(#linear-gradient-7);}.cls-15{fill:url(#linear-gradient-8);}.cls-16{fill:url(#linear-gradient-9);}.cls-17{fill:url(#linear-gradient-10);}.cls-18{fill:url(#linear-gradient-11);}.cls-19{fill:url(#linear-gradient-12);}.cls-20{fill:url(#linear-gradient-13);}.cls-21{fill:url(#linear-gradient-14);}.cls-22{fill:#4a41bc;}.cls-23{fill:url(#linear-gradient-15);}.cls-24{fill:url(#linear-gradient-16);}.cls-25{fill:url(#linear-gradient-17);}</style><linearGradient id="linear-gradient" x1="814.99" y1="499.72" x2="965.71" y2="499.72" gradientTransform="translate(0 10)" gradientUnits="userSpaceOnUse"><stop offset="0" stop-color="#4b45bd"/><stop offset="1" stop-color="#7a5bf5"/></linearGradient><linearGradient id="linear-gradient-2" x1="797.77" y1="213.91" x2="1009.39" y2="213.91" gradientTransform="translate(0 10)" gradientUnits="userSpaceOnUse"><stop offset="0" stop-color="#f87b58"/><stop offset="0.41" stop-color="#f89453"/><stop offset="0.71" stop-color="#f8c548"/><stop offset="1" stop-color="#f89c51"/></linearGradient><linearGradient id="linear-gradient-3" x1="784.47" y1="241.15" x2="1019.83" y2="241.15" gradientTransform="translate(0 10)" gradientUnits="userSpaceOnUse"><stop offset="0" stop-color="#4b45bd"/><stop offset="1" stop-color="#58caea"/></linearGradient><linearGradient id="linear-gradient-4" x1="867.56" y1="39.7" x2="938.34" y2="39.7" gradientTransform="translate(0 10)" gradientUnits="userSpaceOnUse"><stop offset="0" stop-color="#4b45bd"/><stop offset="1" stop-color="#339af0"/></linearGradient><linearGradient id="linear-gradient-5" x1="204.92" y1="386.96" x2="768.55" y2="386.96" xlink:href="#linear-gradient-3"/><linearGradient id="linear-gradient-6" x1="204.73" y1="400.43" x2="768.3" y2="400.43" xlink:href="#linear-gradient-3"/><linearGradient id="linear-gradient-7" x1="648.63" y1="570.39" x2="707.61" y2="570.39" xlink:href="#linear-gradient-3"/><linearGradient id="linear-gradient-8" x1="361.33" y1="571.07" x2="289.28" y2="571.07" xlink:href="#linear-gradient-3"/><linearGradient id="linear-gradient-9" x1="399.65" y1="559.12" x2="327.6" y2="559.12" xlink:href="#linear-gradient-4"/><linearGradient id="linear-gradient-10" x1="604.72" y1="557.61" x2="673.21" y2="557.61" xlink:href="#linear-gradient-3"/><linearGradient id="linear-gradient-11" x1="359.42" y1="334.6" x2="523" y2="334.6" gradientTransform="translate(0 10)" gradientUnits="userSpaceOnUse"><stop offset="0" stop-color="#cd94ef"/><stop offset="1" stop-color="#7d5df5"/></linearGradient><linearGradient id="linear-gradient-12" x1="282.17" y1="382.71" x2="361.74" y2="382.71" gradientTransform="translate(0 10)" gradientUnits="userSpaceOnUse"><stop offset="0" stop-color="#7a5bf5"/><stop offset="1" stop-color="#8260f4"/></linearGradient><linearGradient id="linear-gradient-13" x1="359.41" y1="333.23" x2="522.95" y2="333.23" gradientTransform="translate(0 10)" gradientUnits="userSpaceOnUse"><stop offset="0" stop-color="#7a5bf5"/><stop offset="0.71" stop-color="#8260f4"/></linearGradient><linearGradient id="linear-gradient-14" x1="676.46" y1="343.04" x2="585.81" y2="374.55" gradientTransform="translate(0 10)" gradientUnits="userSpaceOnUse"><stop offset="0" stop-color="#59cfee"/><stop offset="1" stop-color="#4a41bc"/></linearGradient><linearGradient id="linear-gradient-15" x1="648.74" y1="309.37" x2="640.59" y2="327.38" xlink:href="#linear-gradient-14"/><linearGradient id="linear-gradient-16" x1="639.22" y1="305.84" x2="634.17" y2="319.59" xlink:href="#linear-gradient-14"/><linearGradient id="linear-gradient-17" x1="661.3" y1="308.56" x2="656.19" y2="322.49" xlink:href="#linear-gradient-14"/></defs><g id="Layer_2" data-name="Layer 2"><g id="Layer_1-2" data-name="Layer 1"><g id="Layer_2-2" data-name="Layer 2"><g id="svg219"><path id="path2" class="cls-1" d="M455.1,617.47c8.46-102-22.9-251.27,13.69-272.17,36.33-20.4,48.53-27.11,86.11-68.66,91.59-101.5,215.53-254.75,354.15-260,133.65-5,215.53,37.07,292.19,334.12,38.33,148.52,36.09,226.89,32.35,273.91-2,25.87-4,59.46-5.22,60.7C1226.38,687.13,448.13,702.31,455.1,617.47Z"/><path id="path4" class="cls-2" d="M240.2,234.6l-11,518c0,3.74,10,2.49,12.45,2.49h14.93l-2.49-519.7L343,237.84,304.41,19.65A23.78,23.78,0,0,0,281,0H219.54a30.2,30.2,0,0,0-29.87,24.88L152.09,232.61Z"/><path id="path6" class="cls-2" d="M50,626.63s-.5,20.4,3,22.64a13.34,13.34,0,0,0,5,2.48l17.18,92.3s50,9.21,75.16-1.24l17.17-91.06,5.72-2.23,2.24-22.89S114,606.23,50,626.63Z"/><path id="path8" class="cls-3" d="M55.75,651.26s67.2,5.22,75.16,3,5.73-20.4,5.73-20.4l33.1-3.48s0,19.41-2.24,21.64a31.79,31.79,0,0,0-5.72,10.2c0,1.25-13.69,82.1-13.69,82.1S126.43,747.8,123,747.8s9.21-67.17,9.21-71.64,0-13.69-3.48-13.69S59.49,664.44,59,657A10.09,10.09,0,0,0,55.75,651.26Z"/><path id="path10" class="cls-3" d="M82.38,630.86s-18.66-13.19-28.62-14.43-21.4-2.49-31.36-4-22.65-6-22.4-11.94,1.5-8.71,7.22-12a38.7,38.7,0,0,1,16.43-6c4.48-.5,49.28,11.2,67.94,39.06l7.47,9.21Z"/><path id="path12" class="cls-3" d="M17.42,598.51s17.18-.24,26.63,2.74a139.41,139.41,0,0,1,21.41,10L93.58,630.9"/><path id="path14" class="cls-4" d="M17.42,598.51s17.18-.24,26.63,2.74a139.41,139.41,0,0,1,21.41,10L93.58,630.9"/><path id="path16" class="cls-3" d="M102,630.11S80.1,600.5,71.64,592.29,53.22,574.38,45,565.67,26.63,544.53,30.87,539.3s7.46-8.7,15.43-7.46a35.33,35.33,0,0,1,17.17,6.47c4.48,2.74,44.05,40.55,49.78,83.84l5.72,8.71Z"/><path id="path18" class="cls-4" d="M50.77,549.26s16.93,10.2,23.65,19.9c6.22,9.2,16.18,25.37,16.18,25.37l11.4,31.1"/><path id="path20" class="cls-1" d="M113,631.6s-25.39-55.23-30.12-66.17-24.14-27.37-28.37-38.56-7-19.16-2.49-25.38S68.2,490.3,75.66,494c7,3.48,16.18,13.93,20.16,19.15,3.24,4.23,23.89,79.12,22.15,96.53l4,22.14Z"/><path id="path22" class="cls-4" d="M68.2,514.43s14.68,18.9,19.16,29.85c5,12.44,10,36.07,9.21,32.34l15.18,51.25"/><path id="path24" class="cls-1" d="M99.06,631.35s-22.4-25.62-33.35-30.6-23.4-10.45-34.1-15.92-23.39-14.43-21.4-19.9,4.48-7.71,12.19-8.71a51.39,51.39,0,0,1,20.41.5c5,1.24,51.77,29.6,63.71,63.19L112,631.6Z"/><path id="path26" class="cls-4" d="M30.86,569.66S50.28,576.12,60,582.59a228.93,228.93,0,0,1,20.91,17.67l21.4,31.34"/><path id="path28" class="cls-3" d="M157.54,631.85s20.41-12.44,31.11-13.68,23.15-2.24,34.1-3.73,24.39-5.72,24.14-11.2-1.49-8.21-8-11.44a48.86,48.86,0,0,0-17.67-5.72c-4.73-.5-53.26,10.69-73.67,37.31l-8.21,8.71Z"/><path id="path30" class="cls-3" d="M227.73,600.76s-18.67-.25-28.87,2.73A154.91,154.91,0,0,0,175.71,613l-27.12,18.16"/><path id="path32" class="cls-4" d="M227.73,600.76s-18.67-.25-28.87,2.73A154.91,154.91,0,0,0,175.71,613l-27.12,18.16"/><path id="path34" class="cls-3" d="M136.14,631.11s23.64-28.37,32.85-36.33,19.91-17.16,28.87-25.37,20.16-20.15,15.43-25.13-8-8.21-16.67-7.21A41.5,41.5,0,0,0,178,543.29c-4.73,2.73-47.53,38.81-53.76,80.1L118,631.85Z"/><path id="path36" class="cls-4" d="M191.64,554s-18.42,9.71-25.63,18.91c-6.72,8.71-17.67,24.38-17.67,24.38l-12.2,29.61"/><path id="path38" class="cls-1" d="M124.44,632.6s27.63-52.74,32.61-63.19,26.13-26.12,30.86-36.82,7.71-18.41,2.74-24.13S173,497.76,165,501.24c-7.71,3.24-17.42,13.19-21.9,18.41-3.49,4-25.88,75.63-24.14,92.3l-4.23,21.15Z"/><path id="path40" class="cls-3" d="M121.71,631.85s2.24-51.5,7.46-68.17c3.49-11.19,7-29.85,11.7-40.3S138.38,499,133.65,493s-17.42-4.73-25.63-1.24c-7.72,3.23-12,13.93-12.94,19.65-.75,5.23,17.42,67.17,15.43,90.06L112,632.35Z"/><path id="path42" class="cls-4" d="M173,520.65s-15.68,17.91-20.65,28.61c-5.48,11.94-10.7,34.58-10,30.84l-17.92,50.26"/><path id="path44" class="cls-1" d="M139.62,632.1S164,607.72,175.71,603s25.39-10,36.84-15.17,25.38-13.69,23.14-18.91S231,561.7,222.5,560.7a64.69,64.69,0,0,0-21.9.5c-5.48,1.24-56,28.11-68.94,60.2l-6,11Z"/><path id="path46" class="cls-4" d="M213,573.39s-20.9,6-31.36,12.19A213,213,0,0,0,159,602.25l-23.65,26.37"/><path id="path48" class="cls-4" d="M116.73,502.49s4.23,44,1.74,56c-1,5-.5,36.07-.5,36.07l-1,34.34"/><path id="path50" class="cls-3" d="M154.33,216.37,339,219.85,342.73,233l-190.64-5Z"/><path id="path52" class="cls-3" d="M967.54,307l-1.49,362.73,230.46.49s1.74-191.06-7.47-373.92l-221-3.23Z"/><path id="path54" class="cls-3" d="M750.52,354l-6,316.7H941.41L940.16,354Z"/><path id="path56" class="cls-3" d="M464.55,539.85l283.23,1.49-3.24,129.37-279-.25Z"/><path id="path58" class="cls-5" d="M441.16,357.25l.75,314.21s1.74,19.65,20.65,20.65,763.57,1.24,763.57,1.24,6.72-20.9,4-21.64S465.55,671,465.55,671s.25-11.19.25-18.16c0-8-.5-305-.5-305A147.78,147.78,0,0,1,441.16,357.25Z"/><path id="path60" class="cls-5" d="M457.59,388.34,1211,393.07l4,16.17L457.59,413Z"/><path id="path62" class="cls-5" d="M670.13,143.79V671.21L690,672.7V130.11Z"/><path id="path64" class="cls-5" d="M1030,37.81l-.5,633.4,18.42-1.49,3-619.47Z"/><path id="path66" class="cls-5" d="M690,130.11l430.06,2.74-12.44-22.4-393-.24Z"/><path id="path68" class="cls-5" d="M762.46,234.1a43.79,43.79,0,1,0-43.8-43.79,43.79,43.79,0,0,0,43.8,43.79Z"/><path id="path70" class="cls-5" d="M805,232.86a28.61,28.61,0,1,0-28.62-28.61A28.61,28.61,0,0,0,805,232.86Z"/><path id="path72" class="cls-5" d="M1094.22,275.15a44.54,44.54,0,1,0-44.55-44.53,44.54,44.54,0,0,0,44.55,44.53Z"/><path id="path74" class="cls-5" d="M1048.18,265.45a29.11,29.11,0,1,0-29.12-29.11A29.11,29.11,0,0,0,1048.18,265.45Z"/><path id="path76" class="cls-6" d="M935.81,707.38c-3-12.82-4-29.45-6-29.7H927.5l-21.66.25s-4.59,20.65-6.8,29.21c-.26.5-.51,2-1,3a13.85,13.85,0,0,0-.51,4.53c.51,7.8,3.53,14.6,10.33,17.87,7.81,3.79,13.6,7.56,21.66,0C937.82,725,938.83,720.23,935.81,707.38Z"/><path id="path78" class="cls-6" d="M867.54,679.71l-27.49,1.51s-10.83,18.89-26.7,23.18C798.49,708.68,773.8,719,784.88,725c8.07,4.78,60.71.51,73.56,1.51,9.57.76,12.35-5,11.34-17.87C869.06,698.83,867.54,679.71,867.54,679.71Z"/><path id="path80" class="cls-7" d="M834.8,338.25S816.41,489.12,815.13,498.9s6.3,60.17,6.3,69.75S839.31,681.2,839.31,681.2l28.47-1.26s-5.8-151.58-5-158.88S894.5,425.9,894.5,425.9s2.26,23.17,2.26,30.72,8.57,221.84,8.57,221.84h24.94l35.26-315.78-.5-6.05Z"/><path id="path82" class="cls-8" d="M918.67,46.66s-27.49,10.58-33.5,13.1-9.56,10.07-9.56,10.07-3-1.77-3,3.27S875.1,89.72,877.12,93c3.27,5,6,10.33,8.81,15.58,2.52,5.29,1.52,16.36-1,17.88s-48.87,43.31-48.87,43.31L797.77,287.89l5,37.26,7.8,36.76s-1.51,2.75,1.52,5.8c3.28,3,17.13,25.94,17.13,25.94L834,359.93l-15.57-49.86L813,268l36.77-75L977,215.65l13.85,81.83-25.65,69.75-4.66,33.93,21.66-18.89c1.26-1,3.78-6.29,4.79-9.06L999.77,337l9.62-57.88S929,134.3,925,125.72c-1.76-3.77.25-13.34,1.26-17.88,1-4.27,3-9.81,5-11.32,3-3.27,4.53-8.06,5.29-12.34,0-3,1.25-14.86-1.77-12.09-.51.76-2.75-2.75-3.78-7.55C929.27,57,924.23,51.19,918.67,46.66Z"/><path id="path84" class="cls-9" d="M908.36,164.76a5.41,5.41,0,0,1-7.06-.25,46.55,46.55,0,0,1-3.78-6.8c-2-4-17.63-27.2-17.63-27.2s-37.27,9.57-43.33,13.35c-6,4-11.59,9.56-13.6,16.62s-30.74,90.89-32.25,96.21c-1.51,5-8.81,13.35-5.28,33.74,3.52,20.65,22.9,73.53,24.94,74S833,354.9,833,354.9s-16.38-65.73-16.38-72.27,14.61-25.18,20.66-37.77c5.79-12.59,10.32-23.67,12.34-29.21s-17.63,109-17.63,109-.51,20.9,3.53,22.9c3.77,1.76,47.64,18.63,57.72,22.42a2.22,2.22,0,0,0,2.75-1.27l6.54-18.63c0-.25.26-.5.51-.25a.24.24,0,0,1,.25.23v0l6,20.16a2.52,2.52,0,0,0,2.52,1.51l54.15-11.58s-.77-99.76.27-116.64c.75-16.37-1.26-25.43,1.76-20.89,3.28,4.78,16.88,49.85,16.88,57.4s-15.37,73.78-15.37,73.78l20.16,11.33s27.49-72.77,28.72-82.34c1.51-9.57,2-14.6-2.51-24.17S986.48,162,986.48,162s-2.52-10.58-20.91-16.12-32-13.6-35.26-13.34-13.39,19.38-17.92,25.16C910.37,160.22,910.88,161.23,908.36,164.76Z"/><path id="path86" class="cls-10" d="M918.43,46.91s-30.73,11.34-37,15.86c-4.78,3.53-5.79,6.8-5.79,6.8s-3.27-1.5-3,3.28-3.77-7.33-4.78-11.33c-.76-3.78-1-14.61,7.33-22.66S892.73,25,900.29,25.48s14.11,2.75,20.16,8.57,7.56,5.49,8.82,6,7.55,7.34,8.32,14.61-1.51,18.16-1.51,18.16-1.51-1.51-3-.5c-1.51,1.25-2-7.06-7.33-16.87C922.21,48.39,918.43,46.91,918.43,46.91Z"/><path id="path88" class="cls-11" d="M899,410.51c-3.53,10.33-17.14,30.24-26.21,42.31S836.31,490.09,838,521.06c1.83,30.72,20.43,110,20.43,117.34,0,7-7,40.79-12.33,51.11s-7.82,29-5,29a75.9,75.9,0,0,0,14.86-2,115.51,115.51,0,0,0,13.35-3.53c1.76-.75,2.27-6.8,2.27-6.8a23,23,0,0,0-.76-7.33,64.14,64.14,0,0,1-2.74-11.58c-1-29-3.78-96.21-3-100.72,1-8.82-6-53.15.51-74.79C871.83,489.58,899,410.51,899,410.51Z"/><path id="path90" class="cls-11" d="M832.79,355.34,828,391.63s4.79,7.55,6,1.26c1.51-6.3,11.33-18.13,5-26.7C833.29,357.64,832.79,355.34,832.79,355.34Z"/><path id="path92" class="cls-11" d="M965.53,365.42,964,382.83l-2,16.63s-7,5-6.79-1.52-11.59-16.36-2.75-22.9S965.53,365.42,965.53,365.42Z"/><path id="path94" class="cls-11" d="M879.64,131c1.25-.26-5.79,1.5.5-.51,10.83-3.52,6.3-23.92,6.3-23.92s1,7.55,11.33,10.57,12.83.76-2.52,8.07-7.33,9.56-6.29,18.88"/><path id="path96" class="cls-11" d="M848.91,223.18l-17.13,104s.25,18.63,3.52,21.15,14.36,4.53,16.63,6.29c2.52,1.77,29,10.58,21.92-4.28-1.51-3.27-37.29-23.16-21.42-44.31,15.87-20.9,13.1-49.85,5.5-70.26a88.77,88.77,0,0,1-6-37Z"/><path id="path98" class="cls-12" d="M206.29,389.53a1.31,1.31,0,0,0-1.37,1.23v.15c0,4.12.82,14.29,9.35,14.29,9.89,0,515.18-.28,545.7-.28,1.1,0,2.75-1.92,3.85-3.3a20.21,20.21,0,0,0,4.67-10.16,2.25,2.25,0,0,0-1.69-2.71l-.23,0H766Z"/><path id="path100" class="cls-13" d="M242.58,405.2s-.82,11,8.25,11c8.8,0,452.78-.83,479.45-1.1a5.33,5.33,0,0,0,2.75-.82,14.63,14.63,0,0,0,5.22-9.62Z"/><path id="path102" class="cls-14" d="M648.63,414.82h5.22l53.88,330.86-4.39.28Z"/><path id="path104" class="cls-15" d="M358.32,415.64h-6.05l-66,330.59,5.23.27Z"/><path id="path106" class="cls-16" d="M396.81,415.64h-6.05l-66,306.68,5,.28Z"/><path id="path108" class="cls-17" d="M605.19,414.27H611l62.68,306.4-4.95.28Z"/><path id="path110" class="cls-18" d="M361.9,396.4l140.2-5.77L523,292.8l-142.41,1.37-21.17,102"/><path id="path112" class="cls-5" d="M443,356.56a9.09,9.09,0,1,0-8.5-9.64c0,.19,0,.38,0,.57A8.82,8.82,0,0,0,443,356.56Z"/><path id="path114" class="cls-19" d="M360.8,389H284.37c-.55,0-.82.28-1.1.83l-1.1,4.67c0,.55.28,1.1.83,1.1h.27l76.15.82c.55,0,.83-.27,1.1-.82l1.38-5.22A1.41,1.41,0,0,0,360.8,389Z"/><path id="path116" class="cls-20" d="M378.39,291.43l142.41-1.1c.27,0,.27,0,.55.27l1.92,2.2-141.85,1.1a.59.59,0,0,0-.55.55L362.45,395.58a.59.59,0,0,1-.55.55h-1.38a.61.61,0,0,1-.55-.55l17.6-103C377.29,292,377.57,291.43,378.39,291.43Z"/><path id="path118" class="cls-21" d="M625.54,344.46c-1.1-.27-2.48-.55-3.58-.82a7.61,7.61,0,0,0-7.14,2.2,11.13,11.13,0,0,0-2.2,5.22,16.69,16.69,0,0,0,5.22,15.66,56.55,56.55,0,0,0,10.17,8,3.29,3.29,0,0,1,1.93,2.75,90.62,90.62,0,0,0,4.12,12.09c.28.55.55.55.83.83a42,42,0,0,0,22.54.27c1.65-.55,1.65-.55,2.47-2.2A109.87,109.87,0,0,0,666.22,364a129.28,129.28,0,0,0,1.38-23.09c0-1.37,0-1.37-1.38-1.92a20.36,20.36,0,0,0-7.14-1.1c-6.05-.55-12.37-.55-18.7-.55a58.15,58.15,0,0,0-11.82,1.37l-2.47.83c-.28.27-.55.27-.55.82ZM628,371.12c-6.6-3.3-10.72-8.24-11.27-15.66a10.68,10.68,0,0,1,.55-4.95,4,4,0,0,1,2.75-2.75,5.19,5.19,0,0,1,5.22,2.75v2.2a113.22,113.22,0,0,0,1.65,13.74A29.89,29.89,0,0,0,628,371.12Z"/><path id="path120" class="cls-22" d="M625.81,339.52s20.35-6,41.79,0C667.6,339.52,649.73,346.66,625.81,339.52Z"/><path id="path122" class="cls-23" d="M659.63,293.08a26,26,0,0,1-5.78,21.16c-1.92,2.74-4.12,4.94-6,7.69a32,32,0,0,0-6,14c0,.54-.55,1.64-.55,2.19,0-1.37-.55-2.19-.55-3.57a25.42,25.42,0,0,1,5.77-16.76c1.65-2.2,3.58-4.4,5.22-6.32a35.38,35.38,0,0,0,8-16.49"/><path id="path124" class="cls-24" d="M633.24,330.17a3.82,3.82,0,0,0-.55-1.92,18.55,18.55,0,0,1,4.95-13.74,51.94,51.94,0,0,0,4.94-6.59,22.6,22.6,0,0,0,3.58-9.35c.27-.55.27-2.2.27-1.1l.28.28c.27.82.27,1.92.55,2.75a20.5,20.5,0,0,1-4.4,12.36l-5,6.05a22.89,22.89,0,0,0-3.85,8.24,1.71,1.71,0,0,0-.27,1.1A6.72,6.72,0,0,1,633.24,330.17Z"/><path id="path126" class="cls-25" d="M655.5,333.2a19.27,19.27,0,0,0-.55-2.48A18.62,18.62,0,0,1,659.9,317a49.89,49.89,0,0,0,5-6.59,22.68,22.68,0,0,0,3.57-9.34c.28-.28.55-2.2.28-.83v.28c.27.82.27,1.64.55,2.47a20.5,20.5,0,0,1-4.4,12.36l-5,6a22.89,22.89,0,0,0-3.85,8.24,1.71,1.71,0,0,0-.27,1.1,6.48,6.48,0,0,1-.55,2.2Z"/></g></g></g></g></svg>