<svg xmlns="http://www.w3.org/2000/svg" xmlns:xlink="http://www.w3.org/1999/xlink" viewBox="0 0 1235.53 758.89"><defs><style>.cls-1{fill:#e9edfc;}.cls-2{fill:#e1e6fc;}.cls-3{fill:#bac4f6;}.cls-4{fill:none;stroke:#fff;stroke-linecap:round;stroke-miterlimit:10;stroke-width:0.37px;}.cls-5{fill:#fff;}.cls-6{fill:#4b44be;}.cls-7{fill:url(#linear-gradient);}.cls-8{fill:url(#linear-gradient-2);}.cls-9{fill:url(#linear-gradient-3);}.cls-10{fill:url(#linear-gradient-4);}.cls-11{isolation:isolate;opacity:0.07;}.cls-12{fill:url(#linear-gradient-5);}.cls-13{fill:url(#linear-gradient-6);}.cls-14{fill:url(#linear-gradient-7);}.cls-15{fill:url(#linear-gradient-8);}.cls-16{fill:url(#linear-gradient-9);}.cls-17{fill:url(#linear-gradient-10);}.cls-18{fill:url(#linear-gradient-11);}.cls-19{fill:url(#linear-gradient-12);}.cls-20{fill:url(#linear-gradient-13);}.cls-21{fill:url(#linear-gradient-14);}.cls-22{fill:#4a41bc;}.cls-23{fill:url(#linear-gradient-15);}.cls-24{fill:url(#linear-gradient-16);}.cls-25{fill:url(#linear-gradient-17);}</style><linearGradient id="linear-gradient" x1="832.71" y1="500.11" x2="991.47" y2="500.11" gradientTransform="translate(0 10)" gradientUnits="userSpaceOnUse"><stop offset="0" stop-color="#4b45bd"/><stop offset="1" stop-color="#7a5bf5"/></linearGradient><linearGradient id="linear-gradient-2" x1="814.57" y1="199.05" x2="1037.48" y2="199.05" gradientTransform="translate(0 10)" gradientUnits="userSpaceOnUse"><stop offset="0" stop-color="#f87b58"/><stop offset="0.41" stop-color="#f89453"/><stop offset="0.71" stop-color="#f8c548"/><stop offset="1" stop-color="#f89c51"/></linearGradient><linearGradient id="linear-gradient-3" x1="800.56" y1="227.74" x2="1048.48" y2="227.74" gradientTransform="translate(0 10)" gradientUnits="userSpaceOnUse"><stop offset="0" stop-color="#4b45bd"/><stop offset="1" stop-color="#58caea"/></linearGradient><linearGradient id="linear-gradient-4" x1="888.09" y1="15.54" x2="962.64" y2="15.54" gradientTransform="translate(0 10)" gradientUnits="userSpaceOnUse"><stop offset="0" stop-color="#4b45bd"/><stop offset="1" stop-color="#339af0"/></linearGradient><linearGradient id="linear-gradient-5" x1="204.92" y1="390.55" x2="768.55" y2="390.55" xlink:href="#linear-gradient-3"/><linearGradient id="linear-gradient-6" x1="204.73" y1="404.03" x2="768.3" y2="404.03" xlink:href="#linear-gradient-3"/><linearGradient id="linear-gradient-7" x1="648.63" y1="573.99" x2="707.61" y2="573.99" xlink:href="#linear-gradient-3"/><linearGradient id="linear-gradient-8" x1="361.33" y1="574.67" x2="289.28" y2="574.67" xlink:href="#linear-gradient-3"/><linearGradient id="linear-gradient-9" x1="399.65" y1="562.72" x2="327.6" y2="562.72" xlink:href="#linear-gradient-4"/><linearGradient id="linear-gradient-10" x1="604.72" y1="561.21" x2="673.21" y2="561.21" xlink:href="#linear-gradient-3"/><linearGradient id="linear-gradient-11" x1="359.42" y1="338.2" x2="523" y2="338.2" gradientTransform="translate(0 10)" gradientUnits="userSpaceOnUse"><stop offset="0" stop-color="#cd94ef"/><stop offset="1" stop-color="#7d5df5"/></linearGradient><linearGradient id="linear-gradient-12" x1="282.17" y1="386.31" x2="361.74" y2="386.31" gradientTransform="translate(0 10)" gradientUnits="userSpaceOnUse"><stop offset="0" stop-color="#7a5bf5"/><stop offset="1" stop-color="#8260f4"/></linearGradient><linearGradient id="linear-gradient-13" x1="359.41" y1="336.83" x2="522.95" y2="336.83" gradientTransform="translate(0 10)" gradientUnits="userSpaceOnUse"><stop offset="0" stop-color="#7a5bf5"/><stop offset="0.71" stop-color="#8260f4"/></linearGradient><linearGradient id="linear-gradient-14" x1="676.46" y1="346.64" x2="585.81" y2="378.15" gradientTransform="translate(0 10)" gradientUnits="userSpaceOnUse"><stop offset="0" stop-color="#59cfee"/><stop offset="1" stop-color="#4a41bc"/></linearGradient><linearGradient id="linear-gradient-15" x1="648.74" y1="312.96" x2="640.59" y2="330.97" xlink:href="#linear-gradient-14"/><linearGradient id="linear-gradient-16" x1="639.22" y1="309.44" x2="634.17" y2="323.19" xlink:href="#linear-gradient-14"/><linearGradient id="linear-gradient-17" x1="661.3" y1="312.16" x2="656.19" y2="326.09" xlink:href="#linear-gradient-14"/></defs><g id="Layer_2" data-name="Layer 2"><g id="Layer_1-2" data-name="Layer 1"><g id="Layer_2-2" data-name="Layer 2"><g id="svg219"><path id="path2" class="cls-1" d="M455.1,621.07c8.46-102-22.9-251.27,13.69-272.17,36.33-20.4,48.53-27.11,86.11-68.66,91.59-101.5,215.53-254.75,354.15-260,133.65-5,215.53,37.07,292.19,334.12,38.33,148.52,36.09,226.89,32.35,273.91-2,25.87-4,59.46-5.22,60.7C1226.38,690.73,448.13,705.91,455.1,621.07Z"/><path id="path4" class="cls-2" d="M240.2,238.2l-11,518c0,3.74,10,2.49,12.45,2.49h14.93L254.09,239,343,241.44,304.41,23.25A23.78,23.78,0,0,0,281,3.6H219.54a30.2,30.2,0,0,0-29.87,24.88L152.09,236.21Z"/><path id="path6" class="cls-2" d="M50,630.23s-.5,20.4,3,22.64a13.34,13.34,0,0,0,5,2.48l17.18,92.3s50,9.21,75.16-1.24l17.17-91.06,5.72-2.23,2.24-22.89S114,609.83,50,630.23Z"/><path id="path8" class="cls-3" d="M55.75,654.86s67.2,5.22,75.16,3,5.73-20.4,5.73-20.4l33.1-3.48s0,19.41-2.24,21.64a31.79,31.79,0,0,0-5.72,10.2c0,1.25-13.69,82.1-13.69,82.1S126.43,751.4,123,751.4s9.21-67.17,9.21-71.64,0-13.69-3.48-13.69S59.49,668,59,660.6A10.09,10.09,0,0,0,55.75,654.86Z"/><path id="path10" class="cls-3" d="M82.38,634.46S63.72,621.27,53.76,620s-21.4-2.49-31.36-4S-.25,610,0,604.09s1.5-8.71,7.22-12a38.7,38.7,0,0,1,16.43-6c4.48-.5,49.28,11.2,67.94,39.06l7.47,9.21Z"/><path id="path12" class="cls-3" d="M17.42,602.11s17.18-.24,26.63,2.74a139.41,139.41,0,0,1,21.41,10L93.58,634.5"/><path id="path14" class="cls-4" d="M17.42,602.11s17.18-.24,26.63,2.74a139.41,139.41,0,0,1,21.41,10L93.58,634.5"/><path id="path16" class="cls-3" d="M102,633.71S80.1,604.1,71.64,595.89,53.22,578,45,569.27,26.63,548.13,30.87,542.9s7.46-8.7,15.43-7.46a35.33,35.33,0,0,1,17.17,6.47c4.48,2.74,44.05,40.55,49.78,83.84l5.72,8.71Z"/><path id="path18" class="cls-4" d="M50.77,552.86s16.93,10.2,23.65,19.9c6.22,9.2,16.18,25.37,16.18,25.37l11.4,31.1"/><path id="path20" class="cls-1" d="M113,635.2S87.61,580,82.88,569s-24.14-27.37-28.37-38.56-7-19.16-2.49-25.38S68.2,493.9,75.66,497.6c7,3.48,16.18,13.93,20.16,19.15,3.24,4.23,23.89,79.12,22.15,96.53l4,22.14Z"/><path id="path22" class="cls-4" d="M68.2,518s14.68,18.9,19.16,29.85c5,12.44,10,36.07,9.21,32.34l15.18,51.25"/><path id="path24" class="cls-1" d="M99.06,635s-22.4-25.62-33.35-30.6-23.4-10.45-34.1-15.92S8.22,574,10.21,568.53s4.48-7.71,12.19-8.71a51.39,51.39,0,0,1,20.41.5c5,1.24,51.77,29.6,63.71,63.19L112,635.2Z"/><path id="path26" class="cls-4" d="M30.86,573.26S50.28,579.72,60,586.19a228.93,228.93,0,0,1,20.91,17.67l21.4,31.34"/><path id="path28" class="cls-3" d="M157.54,635.45S178,623,188.65,621.77s23.15-2.24,34.1-3.73,24.39-5.72,24.14-11.2-1.49-8.21-8-11.44a48.86,48.86,0,0,0-17.67-5.72c-4.73-.5-53.26,10.69-73.67,37.31l-8.21,8.71Z"/><path id="path30" class="cls-3" d="M227.73,604.36s-18.67-.25-28.87,2.73a154.91,154.91,0,0,0-23.15,9.51l-27.12,18.16"/><path id="path32" class="cls-4" d="M227.73,604.36s-18.67-.25-28.87,2.73a154.91,154.91,0,0,0-23.15,9.51l-27.12,18.16"/><path id="path34" class="cls-3" d="M136.14,634.71s23.64-28.37,32.85-36.33S188.9,581.22,197.86,573s20.16-20.15,15.43-25.13-8-8.21-16.67-7.21A41.5,41.5,0,0,0,178,546.89c-4.73,2.73-47.53,38.81-53.76,80.1L118,635.45Z"/><path id="path36" class="cls-4" d="M191.64,557.6s-18.42,9.71-25.63,18.91c-6.72,8.71-17.67,24.38-17.67,24.38l-12.2,29.61"/><path id="path38" class="cls-1" d="M124.44,636.2s27.63-52.74,32.61-63.19,26.13-26.12,30.86-36.82,7.71-18.41,2.74-24.13S173,501.36,165,504.84c-7.71,3.24-17.42,13.19-21.9,18.41-3.49,4-25.88,75.63-24.14,92.3l-4.23,21.15Z"/><path id="path40" class="cls-3" d="M121.71,635.45s2.24-51.5,7.46-68.17c3.49-11.19,7-29.85,11.7-40.3s-2.49-24.38-7.22-30.38-17.42-4.73-25.63-1.24c-7.72,3.23-12,13.93-12.94,19.65-.75,5.23,17.42,67.17,15.43,90.06L112,636Z"/><path id="path42" class="cls-4" d="M173,524.25s-15.68,17.91-20.65,28.61c-5.48,11.94-10.7,34.58-10,30.84L124.43,634"/><path id="path44" class="cls-1" d="M139.62,635.7s24.38-24.38,36.09-29.1,25.39-10,36.84-15.17,25.38-13.69,23.14-18.91S231,565.3,222.5,564.3a64.69,64.69,0,0,0-21.9.5c-5.48,1.24-56,28.11-68.94,60.2l-6,11Z"/><path id="path46" class="cls-4" d="M213,577s-20.9,6-31.36,12.19A213,213,0,0,0,159,605.85l-23.65,26.37"/><path id="path48" class="cls-4" d="M116.73,506.09s4.23,44,1.74,56c-1,5-.5,36.07-.5,36.07l-1,34.34"/><path id="path50" class="cls-3" d="M154.33,220,339,223.45l3.73,13.15-190.64-5Z"/><path id="path52" class="cls-3" d="M967.54,310.6l-1.49,362.73,230.46.49s1.74-191.06-7.47-373.92l-221-3.23Z"/><path id="path54" class="cls-3" d="M750.52,357.6l-6,316.7H941.41l-1.25-316.7Z"/><path id="path56" class="cls-3" d="M464.55,543.45l283.23,1.49-3.24,129.37-279-.25Z"/><path id="path58" class="cls-5" d="M441.16,360.85l.75,314.21s1.74,19.65,20.65,20.65S1226.13,697,1226.13,697s6.72-20.9,4-21.64-764.58-.71-764.58-.71.25-11.19.25-18.16c0-8-.5-305-.5-305A147.78,147.78,0,0,1,441.16,360.85Z"/><path id="path60" class="cls-5" d="M457.59,391.94,1211,396.67l4,16.17L457.59,416.6Z"/><path id="path62" class="cls-5" d="M670.13,147.39V674.81L690,676.3V133.71Z"/><path id="path64" class="cls-5" d="M1030,41.41l-.5,633.4,18.42-1.49,3-619.47Z"/><path id="path66" class="cls-5" d="M690,133.71l430.06,2.74-12.44-22.4-393-.24Z"/><path id="path68" class="cls-5" d="M762.46,237.7a43.79,43.79,0,1,0-43.8-43.79,43.79,43.79,0,0,0,43.8,43.79Z"/><path id="path70" class="cls-5" d="M805,236.46a28.61,28.61,0,1,0-28.62-28.61A28.61,28.61,0,0,0,805,236.46Z"/><path id="path72" class="cls-5" d="M1094.22,278.75a44.54,44.54,0,1,0-44.55-44.53,44.54,44.54,0,0,0,44.55,44.53Z"/><path id="path74" class="cls-5" d="M1048.18,269.05a29.11,29.11,0,1,0-29.12-29.11A29.11,29.11,0,0,0,1048.18,269.05Z"/><path id="path76" class="cls-6" d="M960,718.32c-3.17-13.52-4.23-31-6.36-31.29h-2.39l-22.82.26s-4.82,21.75-7.16,30.77c-.27.53-.53,2.12-1.06,3.18a14.49,14.49,0,0,0-.53,4.77c.53,8.22,3.71,15.39,10.88,18.83,8.22,4,14.32,8,22.81,0C962.1,736.89,963.16,731.85,960,718.32Z"/><path id="path78" class="cls-6" d="M888.07,689.17l-29,1.59S847.69,710.65,831,715.17c-15.66,4.51-41.67,15.38-30,21.75,8.49,5,63.94.53,77.47,1.59,10.09.79,13-5.31,11.95-18.83C889.66,709.3,888.07,689.17,888.07,689.17Z"/><path id="path80" class="cls-7" d="M853.57,329.48S834.2,488.41,832.86,498.71s6.63,63.38,6.63,73.47,18.84,118.55,18.84,118.55l30-1.32S882.21,529.74,883,522.05s33.45-100.24,33.45-100.24,2.39,24.41,2.39,32.37,9,233.67,9,233.67h26.27l37.14-332.63-.53-6.37Z"/><path id="path82" class="cls-8" d="M941.92,22.34S913,33.48,906.64,36.14s-10.08,10.6-10.08,10.6-3.18-1.86-3.18,3.45,2.65,17.51,4.77,21c3.45,5.31,6.37,10.88,9.29,16.41,2.65,5.57,1.59,17.24-1.06,18.83S854.9,152,854.9,152L814.57,276.44l5.31,39.25,8.22,38.72s-1.59,2.9,1.59,6.1c3.46,3.19,18,27.33,18,27.33l5-35.52L836.37,299.8l-5.79-44.29,38.73-79,134,23.87,14.59,86.2-27,73.47L986,395.75l22.82-19.89c1.32-1.06,4-6.63,5-9.54l13.51-38.2,10.13-61s-84.65-152.5-88.9-161.53c-1.85-4,.27-14.05,1.34-18.83,1.06-4.51,3.18-10.34,5.3-11.93,3.18-3.45,4.77-8.49,5.57-13,0-3.19,1.33-15.65-1.86-12.73-.53.8-2.89-2.9-4-8C953.08,33.21,947.77,27.11,941.92,22.34Z"/><path id="path84" class="cls-9" d="M931.06,146.74a5.7,5.7,0,0,1-7.44-.26,49.13,49.13,0,0,1-4-7.17c-2.13-4.24-18.58-28.64-18.58-28.64s-39.26,10.07-45.64,14c-6.37,4.25-12.21,10.08-14.33,17.51s-32.37,95.75-34,101.34c-1.6,5.31-9.29,14.07-5.57,35.55,3.71,21.75,24.13,77.45,26.27,78S851.72,347,851.72,347s-17.25-69.23-17.25-76.12,15.39-26.53,21.76-39.79c6.1-13.26,10.87-24.93,13-30.77S850.66,315.2,850.66,315.2s-.53,22,3.71,24.13c4,1.85,50.19,19.62,60.81,23.61a2.32,2.32,0,0,0,2.89-1.33L925,342c0-.27.27-.53.53-.27a.27.27,0,0,1,.27.25v0l6.37,21.24c.26,1.06,1.59,1.59,2.65,1.59l57-12.2s-.81-105.08.28-122.87c.8-17.24-1.33-26.78,1.86-22,3.45,5,17.78,52.51,17.78,60.46s-16.19,77.72-16.19,77.72l21.23,11.93s29-76.64,30.25-86.73c1.59-10.08,2.13-15.38-2.64-25.46s-31.05-101.82-31.05-101.82-2.66-11.14-22-17-33.69-14.32-37.14-14-14.1,20.41-18.88,26.5C933.18,142,933.71,143,931.06,146.74Z"/><path id="path86" class="cls-10" d="M941.66,22.6s-32.36,11.94-39,16.71c-5,3.72-6.1,7.16-6.1,7.16s-3.44-1.58-3.18,3.46-4-7.72-5-11.94c-.8-4-1.06-15.39,7.72-23.87S914.6-.47,922.56,0s14.87,2.89,21.24,9,8,5.79,9.29,6.36,7.95,7.73,8.76,15.39-1.59,19.13-1.59,19.13-1.59-1.59-3.18-.53c-1.59,1.32-2.13-7.43-7.72-17.77C945.65,24.16,941.66,22.6,941.66,22.6Z"/><path id="path88" class="cls-11" d="M921.24,405.61c-3.72,10.88-18,31.85-27.6,44.56S855.16,489.42,857,522.05c1.93,32.36,21.52,115.91,21.52,123.6,0,7.42-7.42,43-13,53.84S857.29,730,860.21,730a80.29,80.29,0,0,0,15.66-2.13,122.22,122.22,0,0,0,14.06-3.71c1.85-.79,2.38-7.16,2.38-7.16a24,24,0,0,0-.79-7.73,67,67,0,0,1-2.89-12.2c-1.06-30.5-4-101.34-3.19-106.09,1.06-9.28-6.37-56,.53-78.78C892.58,488.89,921.24,405.61,921.24,405.61Z"/><path id="path90" class="cls-11" d="M824.27,363.6,819,403.2s5.23,8.24,6.6,1.37c1.65-6.87,12.37-19.78,5.5-29.13C824.82,366.1,824.27,363.6,824.27,363.6Z"/><path id="path92" class="cls-11" d="M969.14,374.6l-1.65,19-2.2,18.14s-7.69,5.49-7.42-1.65-12.64-17.86-3-25S969.14,374.6,969.14,374.6Z"/><path id="path94" class="cls-11" d="M875.4,118.78c1.37-.28-6.32,1.64.55-.55,11.82-3.85,6.87-26.11,6.87-26.11s1.1,8.24,12.37,11.54,14,.83-2.75,8.8-8,10.44-6.87,20.61"/><path id="path96" class="cls-11" d="M841.86,219.36,823.17,332.85s.27,20.33,3.84,23.08,15.67,4.95,18.15,6.87c2.75,1.93,31.61,11.54,23.92-4.67-1.65-3.57-40.69-25.28-23.37-48.36,17.32-22.81,14.29-54.41,6-76.68a96.92,96.92,0,0,1-6.6-40.39Z"/><path id="path98" class="cls-12" d="M206.29,393.13a1.31,1.31,0,0,0-1.37,1.23v.15c0,4.12.82,14.29,9.35,14.29,9.89,0,515.18-.28,545.7-.28,1.1,0,2.75-1.92,3.85-3.3a20.21,20.21,0,0,0,4.67-10.16,2.25,2.25,0,0,0-1.69-2.71l-.23,0H766Z"/><path id="path100" class="cls-13" d="M242.58,408.8s-.82,11,8.25,11c8.8,0,452.78-.83,479.45-1.1a5.33,5.33,0,0,0,2.75-.82,14.63,14.63,0,0,0,5.22-9.62Z"/><path id="path102" class="cls-14" d="M648.63,418.42h5.22l53.88,330.86-4.39.28Z"/><path id="path104" class="cls-15" d="M358.32,419.24h-6.05l-66,330.59,5.23.27Z"/><path id="path106" class="cls-16" d="M396.81,419.24h-6.05l-66,306.68,5,.28Z"/><path id="path108" class="cls-17" d="M605.19,417.87H611l62.68,306.4-4.95.28Z"/><path id="path110" class="cls-18" d="M361.9,400l140.2-5.77L523,296.4l-142.41,1.37-21.17,102"/><path id="path112" class="cls-5" d="M443,360.16a9.09,9.09,0,1,0-8.5-9.64c0,.19,0,.38,0,.57A8.82,8.82,0,0,0,443,360.16Z"/><path id="path114" class="cls-19" d="M360.8,392.6H284.37c-.55,0-.82.28-1.1.83l-1.1,4.67c0,.55.28,1.1.83,1.1h.27l76.15.82c.55,0,.83-.27,1.1-.82L361.9,394A1.41,1.41,0,0,0,360.8,392.6Z"/><path id="path116" class="cls-20" d="M378.39,295l142.41-1.1c.27,0,.27,0,.55.27l1.92,2.2-141.85,1.1a.58.58,0,0,0-.55.55L362.45,399.18a.59.59,0,0,1-.55.55h-1.38a.61.61,0,0,1-.55-.55l17.6-103C377.29,295.6,377.57,295,378.39,295Z"/><path id="path118" class="cls-21" d="M625.54,348.06c-1.1-.27-2.48-.55-3.58-.82a7.61,7.61,0,0,0-7.14,2.2,11.13,11.13,0,0,0-2.2,5.22,16.69,16.69,0,0,0,5.22,15.66,56.55,56.55,0,0,0,10.17,8,3.29,3.29,0,0,1,1.93,2.75,90.62,90.62,0,0,0,4.12,12.09c.28.55.55.55.83.83a42,42,0,0,0,22.54.27c1.65-.55,1.65-.55,2.47-2.2a109.87,109.87,0,0,0,6.32-24.46,129.28,129.28,0,0,0,1.38-23.09c0-1.37,0-1.37-1.38-1.92a20.36,20.36,0,0,0-7.14-1.1c-6.05-.55-12.37-.55-18.7-.55a58.15,58.15,0,0,0-11.82,1.37l-2.47.83c-.28.27-.55.27-.55.82ZM628,374.72c-6.6-3.3-10.72-8.24-11.27-15.66a10.68,10.68,0,0,1,.55-4.95,4,4,0,0,1,2.75-2.75,5.19,5.19,0,0,1,5.22,2.75v2.2a113.22,113.22,0,0,0,1.65,13.74A29.89,29.89,0,0,0,628,374.72Z"/><path id="path120" class="cls-22" d="M625.81,343.12s20.35-6,41.79,0C667.6,343.12,649.73,350.26,625.81,343.12Z"/><path id="path122" class="cls-23" d="M659.63,296.68a26,26,0,0,1-5.78,21.16c-1.92,2.74-4.12,4.94-6,7.69a32,32,0,0,0-6,14c0,.54-.55,1.64-.55,2.19,0-1.37-.55-2.19-.55-3.57a25.42,25.42,0,0,1,5.77-16.76c1.65-2.2,3.58-4.4,5.22-6.32a35.38,35.38,0,0,0,8-16.49"/><path id="path124" class="cls-24" d="M633.24,333.77a3.82,3.82,0,0,0-.55-1.92,18.53,18.53,0,0,1,4.95-13.74,51.94,51.94,0,0,0,4.94-6.59,22.6,22.6,0,0,0,3.58-9.35c.27-.55.27-2.2.27-1.1l.28.28c.27.82.27,1.92.55,2.75a20.5,20.5,0,0,1-4.4,12.36l-5,6.05a22.89,22.89,0,0,0-3.85,8.24,1.7,1.7,0,0,0-.27,1.1A6.72,6.72,0,0,1,633.24,333.77Z"/><path id="path126" class="cls-25" d="M655.5,336.8a18.91,18.91,0,0,0-.55-2.48,18.62,18.62,0,0,1,4.95-13.72,49.89,49.89,0,0,0,5-6.59,22.68,22.68,0,0,0,3.57-9.34c.28-.28.55-2.2.28-.83v.28c.27.82.27,1.64.55,2.47A20.5,20.5,0,0,1,664.9,319l-5,6.05a22.89,22.89,0,0,0-3.85,8.24,1.7,1.7,0,0,0-.27,1.1,6.48,6.48,0,0,1-.55,2.2Z"/></g></g></g></g></svg>