<svg xmlns="http://www.w3.org/2000/svg" xmlns:xlink="http://www.w3.org/1999/xlink" viewBox="0 0 782.95 754"><defs><style>.cls-1{fill:#bac5f4;}.cls-2{fill:#fff;}.cls-3{fill:#f8f8ff;}.cls-4{fill:#fa5f5d;}.cls-5{fill:#fdbc4e;}.cls-6{fill:#37cd58;}.cls-7{fill:#e9edfb;}.cls-8{fill:url(#linear-gradient);}.cls-9{fill:#339af0;}.cls-10{fill:#4933f0;}</style><linearGradient id="linear-gradient" x1="134.02" y1="534.1" x2="639.6" y2="534.1" gradientTransform="matrix(1, 0, 0, -1, 0, 756)" gradientUnits="userSpaceOnUse"><stop offset="0" stop-color="#4b45bd"/><stop offset="1" stop-color="#58caea"/></linearGradient></defs><g id="Layer_2" data-name="Layer 2"><g id="Layer_1-2" data-name="Layer 1"><path class="cls-1" d="M29.09,610.84H755.54s27.14-1.44,27.14-33.08V515.39H.48v76.07a28.06,28.06,0,0,0,28.09,19.38"/><path class="cls-1" d="M.48,43,0,539.25l782.68-7.16V28.63S787.45,0,757,0H30S-2.86,0,.48,43.38"/><path class="cls-1" d="M329.58,744V606.06L444,610.84V732.05Z"/><path class="cls-1" d="M147.86,730.14l475.66.14.29,23.72H147.86Z"/><path class="cls-2" d="M384.57,549.28a22.89,22.89,0,1,1-16.19,6.7A22.87,22.87,0,0,1,384.57,549.28Z"/><path class="cls-3" d="M758.83,23.86H24.32v482H758.83Z"/><path class="cls-4" d="M61.19,48.68A11.45,11.45,0,1,1,53.1,52,11.41,11.41,0,0,1,61.19,48.68Z"/><path class="cls-5" d="M100.3,48.68a11.43,11.43,0,1,1-4.38.87A11.41,11.41,0,0,1,100.3,48.68Z"/><path class="cls-6" d="M141.32,48.68A11.45,11.45,0,1,1,133.23,52,11.44,11.44,0,0,1,141.32,48.68Z"/><path class="cls-7" d="M463.12,398.48a7.42,7.42,0,0,1-5.05,4.29c-.29,0-.58,0-.86-1.91H313c-3,1.91-7.35.24-7.25-2.38v-1.87c0-2.62,4.29-4.77,7.25-5.29H457.21a5.49,5.49,0,0,1,4.43,4.48c0,.29,0,.53,1.48.81Z"/><path class="cls-7" d="M463.12,417.28a7.62,7.62,0,0,1-2,3,7.7,7.7,0,0,1-3.21,1.74s-.43,0-.67-2.05H313c-3,2.1-7.35,0-7.25-2.67v-2.15c0-2.58,4.29-4.06,7.25-4.78H457.21a9.62,9.62,0,0,1,3.45,1.78,9.52,9.52,0,0,1,2.46,3Z"/><path class="cls-7" d="M463.12,436.13a8,8,0,0,1-5.86,5.15,10.48,10.48,0,0,1,0-2.24H313a4.77,4.77,0,0,1-4.38.43,4.84,4.84,0,0,1-1.84-1.32,4.72,4.72,0,0,1-1-2v-1.86c0-2.58,4.29-3.63,7.24-4.78H457.26a9.59,9.59,0,0,1,5.91,4.78Z"/><path class="cls-7" d="M463.12,454.93a24.18,24.18,0,0,1-5.91,8H313c-3-2.39-7.35-5.35-7.25-8v-1.86c0-2.63,4.29-5.39,7.25-4.49H457.21a3.7,3.7,0,0,1,1.78,0,3.68,3.68,0,0,1,2.7,4.13l1.43.34Z"/><path class="cls-7" d="M383.09,473.73c0,2.34-1.57,3.48-4.29,3.48H312.4c-2.67,0-6.62-1.14-6.62-3.48V472c0-2.34,4-4.29,6.62-4.29h66.44a4.3,4.3,0,0,1,3,1.26,4.35,4.35,0,0,1,.93,1.39,4.21,4.21,0,0,1,.33,1.64Z"/><path class="cls-7" d="M639.6,398.48c-2.72,2.62-2.25,4.29-5.2,2.38H490.12c-2.43,2.1-4.77.34-4.77-2.1l1.62-.28v-1.87c-1.48-2.53.62-4.77,3.15-5.29H634.4c3,.76,2.48,2.67,5.2,5.29Z"/><path class="cls-7" d="M639.59,417.28c-2.71,2.62-2.24,4.77-5.19,2.67H490.12c-2.63,2.1-4.77,0-3.15-2.67v-2.1c-1.62-2.58.38-4.06,3.15-4.78H634.4c3,1,2.48,2.44,5.19,4.78Z"/><path class="cls-7" d="M639.59,436.13c-2.71,2.57-2.24,5.15-5.19,2.91H490.12c-2.72,2-4.77,0-3.15-2.91v-1.86c-1.62-2.58.38-3.63,3.15-4.78H634.4c3,1.1,2.48,2.15,5.19,4.78Z"/><path class="cls-7" d="M639.59,454.93c-2.71,2.62-2.24,5.58-5.19,8H490.12c-2.82-2.72-4.77-5.16-3.15-8v-1.86a2.87,2.87,0,0,1-.71-1.71,2.83,2.83,0,0,1,.51-1.78,2.78,2.78,0,0,1,1.5-1.08,2.86,2.86,0,0,1,1.85.08H634.4c3-.9,2.48,1.86,5.19,4.49Z"/><path class="cls-7" d="M560.28,473.73c0,2.34,0,3.48-2.53,3.48H491.26c-2.67,0-4.29-1.14-4.29-3.48V472a4.3,4.3,0,0,1,4.29-4.29h66.39c2.68,0,2.53,2.1,2.53,4.29Z"/><path class="cls-8" d="M639.6,275a12.21,12.21,0,0,1-8.22,10.74,12.37,12.37,0,0,1-4.71.62H148.33C141,286.33,134,281.27,134,275V168.84c0-6.3,7-11.36,14.31-11.36H626.62a12.12,12.12,0,0,1,4.71.61,12.14,12.14,0,0,1,7,6.12,12.22,12.22,0,0,1,1.25,4.58Z"/><path class="cls-2" d="M234.31,222.26a4.48,4.48,0,0,1,2.26,1.54,4.18,4.18,0,0,1,.81,2.62,3.89,3.89,0,0,1-1.72,3.4,8.75,8.75,0,0,1-5,1.18H222V214.2h8.2a8,8,0,0,1,4.71,1.18,3.7,3.7,0,0,1,1.65,3.19,4,4,0,0,1-.6,2.18A3.91,3.91,0,0,1,234.31,222.26Zm-8.47-5.13v4h3.86a3.9,3.9,0,0,0,2.19-.51,1.68,1.68,0,0,0,.74-1.48,1.64,1.64,0,0,0-.74-1.47,4,4,0,0,0-2.19-.5Zm4.54,10.94a4.29,4.29,0,0,0,2.3-.5,1.72,1.72,0,0,0,.79-1.56c0-1.39-1-2.09-3.09-2.09h-4.54v4.15Zm14.89-10.17a6.68,6.68,0,0,1,4.61,1.44,5.41,5.41,0,0,1,1.61,4.29V231H248v-1.61q-1,1.8-3.93,1.8a6.26,6.26,0,0,1-2.59-.5,3.88,3.88,0,0,1-1.66-1.39,3.7,3.7,0,0,1-.58-2,3.37,3.37,0,0,1,1.35-2.83,7,7,0,0,1,4.2-1h3a2.36,2.36,0,0,0-.74-1.88,3.28,3.28,0,0,0-2.23-.67,6.24,6.24,0,0,0-2,.34,5.12,5.12,0,0,0-1.68.86l-1.35-2.61a8.36,8.36,0,0,1,2.52-1.16A11.61,11.61,0,0,1,245.27,217.9ZM245,228.67a3.34,3.34,0,0,0,1.71-.43,2.44,2.44,0,0,0,1.05-1.32V225.6h-2.56c-1.54,0-2.31.5-2.31,1.51a1.39,1.39,0,0,0,.55,1.15A2.62,2.62,0,0,0,245,228.67Zm.39,7.37a1.65,1.65,0,0,1-1.2-.46,1.48,1.48,0,0,1-.46-1.15,1.65,1.65,0,0,1,.46-1.2,1.63,1.63,0,0,1,1.2-.48,1.59,1.59,0,0,1,1.17.48,1.63,1.63,0,0,1,.48,1.2,1.46,1.46,0,0,1-.48,1.15A1.55,1.55,0,0,1,245.37,236Zm17.35-18.14a5.29,5.29,0,0,1,3.87,1.44,5.68,5.68,0,0,1,1.49,4.27V231h-3.75v-6.82a3.32,3.32,0,0,0-.67-2.28,2.45,2.45,0,0,0-1.94-.76,3,3,0,0,0-2.26.88,3.6,3.6,0,0,0-.84,2.6V231h-3.74V218.09h3.57v1.51a4.93,4.93,0,0,1,1.85-1.25A6.36,6.36,0,0,1,262.72,217.9Zm21.79,13.29a8.08,8.08,0,0,1-3.72-.84,6.69,6.69,0,0,1-2.57-9.24,6.35,6.35,0,0,1,2.57-2.35,7.85,7.85,0,0,1,3.72-.86,7,7,0,0,1,3.55.86,5,5,0,0,1,2.23,2.42l-2.9,1.56a3.19,3.19,0,0,0-2.91-1.77,3.29,3.29,0,0,0-2.42,1,4,4,0,0,0,0,5.23,3.29,3.29,0,0,0,2.42,1,3.15,3.15,0,0,0,2.91-1.78l2.9,1.59a5.17,5.17,0,0,1-2.23,2.4A7.1,7.1,0,0,1,284.51,231.19Zm13.14-13.29a6.68,6.68,0,0,1,4.61,1.44,5.41,5.41,0,0,1,1.61,4.29V231h-3.5v-1.61c-.71,1.2-2,1.8-3.94,1.8a6.26,6.26,0,0,1-2.59-.5,3.94,3.94,0,0,1-1.66-1.39,3.69,3.69,0,0,1-.57-2,3.36,3.36,0,0,1,1.34-2.83,7,7,0,0,1,4.2-1h3a2.36,2.36,0,0,0-.75-1.88,3.26,3.26,0,0,0-2.23-.67,6.24,6.24,0,0,0-2,.34,5.12,5.12,0,0,0-1.68.86l-1.34-2.61a8.14,8.14,0,0,1,2.52-1.16A11.48,11.48,0,0,1,297.65,217.9Zm-.28,10.77a3.31,3.31,0,0,0,1.7-.43,2.45,2.45,0,0,0,1.06-1.32V225.6h-2.57c-1.54,0-2.31.5-2.31,1.51a1.38,1.38,0,0,0,.56,1.15A2.58,2.58,0,0,0,297.37,228.67Zm.21-13.25a2.34,2.34,0,0,0,.94-.67,1.24,1.24,0,0,0,.29-.79.9.9,0,0,0-.32-.72,1.15,1.15,0,0,0-.81-.29,2.54,2.54,0,0,0-1.42.46l-.77-1.51a4,4,0,0,1,2.6-.82,3,3,0,0,1,2.06.72,2.32,2.32,0,0,1,.82,1.85,3.24,3.24,0,0,1-2.21,3Zm26.21,2.48a5.13,5.13,0,0,1,3.84,1.44,5.73,5.73,0,0,1,1.44,4.27V231h-3.74v-6.82a3.43,3.43,0,0,0-.65-2.28,2.17,2.17,0,0,0-1.8-.76,2.65,2.65,0,0,0-2.09.86,3.63,3.63,0,0,0-.76,2.52V231h-3.75v-6.82c0-2-.81-3-2.45-3a2.6,2.6,0,0,0-2.06.86,3.64,3.64,0,0,0-.77,2.52V231h-3.74V218.09h3.57v1.49a4.72,4.72,0,0,1,1.76-1.25,6,6,0,0,1,2.3-.43,5.4,5.4,0,0,1,2.47.55,4.26,4.26,0,0,1,1.78,1.56,5.37,5.37,0,0,1,2-1.56A6.37,6.37,0,0,1,323.79,217.9Zm23.77,12.48a4,4,0,0,1-1.37.62,7,7,0,0,1-1.68.19,5.1,5.1,0,0,1-3.58-1.17,4.55,4.55,0,0,1-1.25-3.46v-5.3h-2v-2.88h2v-3.15h3.75v3.15h3.21v2.88h-3.21v5.25a1.78,1.78,0,0,0,.41,1.27,1.59,1.59,0,0,0,1.2.44,2.41,2.41,0,0,0,1.51-.48Zm9.94-12.48a5.29,5.29,0,0,1,3.87,1.44,5.68,5.68,0,0,1,1.49,4.27V231h-3.75v-6.82a3.32,3.32,0,0,0-.67-2.28,2.45,2.45,0,0,0-1.94-.76,3,3,0,0,0-2.26.88,3.6,3.6,0,0,0-.84,2.6V231h-3.74V213.19h3.74v6.24a5.05,5.05,0,0,1,1.8-1.13A6.35,6.35,0,0,1,357.5,217.9Zm14,0a6.7,6.7,0,0,1,4.61,1.44,5.41,5.41,0,0,1,1.6,4.29V231h-3.5v-1.61c-.7,1.2-2,1.8-3.94,1.8a6.3,6.3,0,0,1-2.59-.5A3.85,3.85,0,0,1,366,229.3a3.61,3.61,0,0,1-.58-2,3.39,3.39,0,0,1,1.34-2.83,7,7,0,0,1,4.2-1h3a2.39,2.39,0,0,0-.74-1.88,3.29,3.29,0,0,0-2.24-.67,6.33,6.33,0,0,0-2,.34,5.33,5.33,0,0,0-1.68.86l-1.34-2.61a8.14,8.14,0,0,1,2.52-1.16A11.55,11.55,0,0,1,371.46,217.9Zm-.29,10.77a3.28,3.28,0,0,0,1.7-.43,2.45,2.45,0,0,0,1.06-1.32V225.6h-2.57c-1.53,0-2.3.5-2.3,1.51a1.37,1.37,0,0,0,.55,1.15A2.58,2.58,0,0,0,371.17,228.67Zm2.74-12.24-2.07-1.37-2.06,1.37H367l3.19-2.73h3.26l3.2,2.73Zm3.48-5.21h3.81l-3.77,2.91h-2.71Zm16.25,6.87-5.83,13.7a6.71,6.71,0,0,1-2.21,3.15,5.36,5.36,0,0,1-3.14.91,6.77,6.77,0,0,1-2-.31,4.41,4.41,0,0,1-1.61-.87l1.37-2.66a3.49,3.49,0,0,0,1,.6,3.31,3.31,0,0,0,1.13.21,1.92,1.92,0,0,0,1.25-.38,3,3,0,0,0,.86-1.22l.05-.12-5.59-13h3.86l3.63,8.76,3.64-8.76Zm16.18-.19a5.25,5.25,0,0,1,3.86,1.44,5.68,5.68,0,0,1,1.49,4.27V231h-3.74v-6.82a3.32,3.32,0,0,0-.68-2.28,2.42,2.42,0,0,0-1.94-.76,3,3,0,0,0-2.26.88,3.6,3.6,0,0,0-.84,2.6V231H402V218.09h3.58v1.51a4.89,4.89,0,0,1,1.84-1.25A6.41,6.41,0,0,1,409.82,217.9Zm16.59,0a5.29,5.29,0,0,1,3.87,1.44,5.68,5.68,0,0,1,1.48,4.27V231H428v-6.82a3.32,3.32,0,0,0-.67-2.28,2.46,2.46,0,0,0-2-.76,3,3,0,0,0-2.25.88,3.6,3.6,0,0,0-.84,2.6V231h-3.75V213.19h3.75v6.24a4.89,4.89,0,0,1,1.8-1.13A6.35,6.35,0,0,1,426.41,217.9Zm21.75.19V231h-3.55v-1.54a5.05,5.05,0,0,1-1.77,1.3,5.73,5.73,0,0,1-2.24.43,5.52,5.52,0,0,1-4-1.46,5.87,5.87,0,0,1-1.49-4.35v-7.29h3.75v6.74q0,3.12,2.61,3.12a2.84,2.84,0,0,0,2.16-.86,3.72,3.72,0,0,0,.82-2.62v-6.38Zm-2.4,0h.65a1.35,1.35,0,0,0,1-.41,1.52,1.52,0,0,0,.41-1.1,2.23,2.23,0,0,0-.48-1.44l2.21-.82a3.85,3.85,0,0,1,.77,2.4,3.73,3.73,0,0,1-1.08,2.83,4,4,0,0,1-2.95,1h-.56Zm21.35,12.29a3.94,3.94,0,0,1-1.37.62,7,7,0,0,1-1.68.19,5.07,5.07,0,0,1-3.57-1.17,4.51,4.51,0,0,1-1.25-3.46v-5.3h-2v-2.88h2v-3.15H463v3.15h3.22v2.88H463v5.25a1.83,1.83,0,0,0,.41,1.27,1.62,1.62,0,0,0,1.2.44,2.39,2.39,0,0,0,1.51-.48Zm9.95-12.48a5.25,5.25,0,0,1,3.86,1.44,5.64,5.64,0,0,1,1.49,4.27V231h-3.74v-6.82a3.37,3.37,0,0,0-.67-2.28,2.46,2.46,0,0,0-1.95-.76,3,3,0,0,0-2.25.88,3.6,3.6,0,0,0-.84,2.6V231h-3.75V213.19H473v6.24a4.89,4.89,0,0,1,1.8-1.13A6.35,6.35,0,0,1,477.06,217.9Zm21.53,6.69s0,.39-.07,1h-9.77a3.11,3.11,0,0,0,1.25,1.9,4.17,4.17,0,0,0,2.45.69,4.92,4.92,0,0,0,1.78-.29,4.3,4.3,0,0,0,1.46-1l2,2.16a6.66,6.66,0,0,1-5.33,2.09,8.53,8.53,0,0,1-3.86-.84A6.33,6.33,0,0,1,485.9,228a7,7,0,0,1,0-6.84,6.3,6.3,0,0,1,2.48-2.38,7.17,7.17,0,0,1,3.52-.86,7.28,7.28,0,0,1,3.44.81,6,6,0,0,1,2.4,2.35A6.88,6.88,0,0,1,498.59,224.59Zm-6.69-3.86a3.24,3.24,0,0,0-2.14.72,3,3,0,0,0-1.05,2h6.36a3,3,0,0,0-1.06-1.95A3.16,3.16,0,0,0,491.9,220.73Zm2-4.3-2.07-1.37-2.06,1.37H487l3.19-2.73h3.26l3.2,2.73Zm3.48-5.21h3.81l-3.77,2.91h-2.71Zm18.38,6.68a5.29,5.29,0,0,1,3.87,1.44,5.68,5.68,0,0,1,1.48,4.27V231h-3.74v-6.82a3.32,3.32,0,0,0-.67-2.28,2.46,2.46,0,0,0-1.95-.76,3,3,0,0,0-2.25.88,3.6,3.6,0,0,0-.84,2.6V231h-3.75V218.09h3.58v1.51a4.93,4.93,0,0,1,1.85-1.25A6.32,6.32,0,0,1,515.73,217.9Zm14,0a6.66,6.66,0,0,1,4.6,1.44,5.38,5.38,0,0,1,1.61,4.29V231h-3.5v-1.61c-.71,1.2-2,1.8-3.94,1.8a6.3,6.3,0,0,1-2.59-.5,3.94,3.94,0,0,1-1.66-1.39,3.69,3.69,0,0,1-.57-2,3.39,3.39,0,0,1,1.34-2.83,7,7,0,0,1,4.2-1h3a2.36,2.36,0,0,0-.75-1.88,3.26,3.26,0,0,0-2.23-.67,6.24,6.24,0,0,0-2,.34,5.33,5.33,0,0,0-1.68.86l-1.34-2.61a8.14,8.14,0,0,1,2.52-1.16A11.55,11.55,0,0,1,529.69,217.9Zm-.29,10.77a3.28,3.28,0,0,0,1.7-.43,2.45,2.45,0,0,0,1.06-1.32V225.6h-2.57c-1.54,0-2.3.5-2.3,1.51a1.37,1.37,0,0,0,.55,1.15A2.58,2.58,0,0,0,529.4,228.67ZM525,213h4l3.24,3.45h-2.92Zm20.59,18.21a7.9,7.9,0,0,1-3.67-.84,6.72,6.72,0,0,1-2.52-9.24,6.28,6.28,0,0,1,2.52-2.35,7.67,7.67,0,0,1,3.67-.86,7.54,7.54,0,0,1,3.65.86,6.28,6.28,0,0,1,2.52,2.35,6.57,6.57,0,0,1-2.52,9.24A7.76,7.76,0,0,1,545.57,231.19Zm0-3.07a3.12,3.12,0,0,0,2.36-1,3.67,3.67,0,0,0,.93-2.62,3.57,3.57,0,0,0-.93-2.59,3.1,3.1,0,0,0-2.36-1,3.14,3.14,0,0,0-2.37,1,3.54,3.54,0,0,0-.94,2.59,3.63,3.63,0,0,0,.94,2.62A3.16,3.16,0,0,0,545.57,228.12Zm12-3a3.71,3.71,0,0,1,.55-2.07,12.31,12.31,0,0,1,1.66-1.8,9.16,9.16,0,0,0,1.15-1.2,1.78,1.78,0,0,0,.39-1.12,1.62,1.62,0,0,0-.72-1.4,3.06,3.06,0,0,0-1.88-.52,4.18,4.18,0,0,0-3.48,1.77l-2.9-1.7a6.73,6.73,0,0,1,2.71-2.38,9.23,9.23,0,0,1,4.08-.84,7.46,7.46,0,0,1,4.42,1.18,3.76,3.76,0,0,1,1.68,3.26,4.08,4.08,0,0,1-.34,1.73,4.35,4.35,0,0,1-.79,1.27,15.14,15.14,0,0,1-1.2,1.18,10.3,10.3,0,0,0-1.3,1.34,2.08,2.08,0,0,0-.4,1.3Zm1.83,6a2.37,2.37,0,0,1-1.66-.62,2.13,2.13,0,0,1-.65-1.56,2,2,0,0,1,.65-1.51,2.49,2.49,0,0,1,3.31,0,2,2,0,0,1,.65,1.51,2.07,2.07,0,0,1-.67,1.56A2.28,2.28,0,0,1,559.41,231.19Z"/><path class="cls-9" d="M136.86,118.8h11.92a16.67,16.67,0,0,1,7.34,1.55,11.57,11.57,0,0,1,5,4.39,13.41,13.41,0,0,1,0,13.32,11.57,11.57,0,0,1-5,4.39,16.67,16.67,0,0,1-7.34,1.55H136.86Zm11.63,19.51a7.28,7.28,0,0,0,5.19-1.83,7.51,7.51,0,0,0,0-10.16,7.28,7.28,0,0,0-5.19-1.83H144v13.82Zm37.31-13.82V144h-6.51v-2.09a7.12,7.12,0,0,1-2.59,1.8,8.45,8.45,0,0,1-3.21.61,8.26,8.26,0,0,1-6.05-2.23c-1.48-1.49-2.23-3.72-2.23-6.69V124.49h6.84v9.79a5,5,0,0,0,.83,3.2,2.92,2.92,0,0,0,2.41,1,3.39,3.39,0,0,0,2.63-1.11,5.07,5.07,0,0,0,1-3.5v-9.39Zm24,0-8.42,20.3a10.8,10.8,0,0,1-3.6,5,8.81,8.81,0,0,1-5.18,1.48,10.21,10.21,0,0,1-3.14-.51,7.25,7.25,0,0,1-2.52-1.26l2.38-4.78a3.85,3.85,0,0,0,1.37.82,4.41,4.41,0,0,0,1.65.33,2.84,2.84,0,0,0,1.59-.4,3,3,0,0,0,1.08-1.26l-8.35-19.76h7l4.78,11.91,4.83-11.91Z"/><path class="cls-10" d="M218,124.31v5.54h11.12v5.51H218V144h-7.13V118.8h19.76v5.51Zm35.2,14.18V144H233V118.8h19.77v5.51H240v4.25h11.2v5.32H240v4.61Z"/></g></g></svg>