<svg xmlns="http://www.w3.org/2000/svg" xmlns:xlink="http://www.w3.org/1999/xlink" viewBox="0 0 782.95 754"><defs><style>.cls-1{fill:#bac5f4;}.cls-2{fill:#fff;}.cls-3{fill:#f8f8ff;}.cls-4{fill:#fa5f5d;}.cls-5{fill:#fdbc4e;}.cls-6{fill:#37cd58;}.cls-7{fill:#e9edfb;}.cls-8{fill:url(#linear-gradient);}.cls-9{fill:#339af0;}.cls-10{fill:#4933f0;}</style><linearGradient id="linear-gradient" x1="134.02" y1="534.1" x2="639.6" y2="534.1" gradientTransform="matrix(1, 0, 0, -1, 0, 756)" gradientUnits="userSpaceOnUse"><stop offset="0" stop-color="#4b45bd"/><stop offset="1" stop-color="#58caea"/></linearGradient></defs><g id="Layer_2" data-name="Layer 2"><g id="Layer_1-2" data-name="Layer 1"><path class="cls-1" d="M29.09,610.84H755.54s27.14-1.44,27.14-33.08V515.39H.48v76.07a28.06,28.06,0,0,0,28.09,19.38"/><path class="cls-1" d="M.48,43,0,539.25l782.68-7.16V28.63S787.45,0,757,0H30S-2.86,0,.48,43.38"/><path class="cls-1" d="M329.58,744V606.06L444,610.84V732.05Z"/><path class="cls-1" d="M147.86,730.14l475.66.14.29,23.72H147.86Z"/><path class="cls-2" d="M384.57,549.28a22.89,22.89,0,1,1-16.19,6.7A22.87,22.87,0,0,1,384.57,549.28Z"/><path class="cls-3" d="M758.83,23.86H24.32v482H758.83Z"/><path class="cls-4" d="M61.19,48.68A11.45,11.45,0,1,1,53.1,52,11.41,11.41,0,0,1,61.19,48.68Z"/><path class="cls-5" d="M100.3,48.68a11.43,11.43,0,1,1-4.38.87A11.41,11.41,0,0,1,100.3,48.68Z"/><path class="cls-6" d="M141.32,48.68A11.45,11.45,0,1,1,133.23,52,11.44,11.44,0,0,1,141.32,48.68Z"/><path class="cls-7" d="M463.12,398.48a7.42,7.42,0,0,1-5.05,4.29c-.29,0-.58,0-.86-1.91H313c-3,1.91-7.35.24-7.25-2.38v-1.87c0-2.62,4.29-4.77,7.25-5.29H457.21a5.49,5.49,0,0,1,4.43,4.48c0,.29,0,.53,1.48.81Z"/><path class="cls-7" d="M463.12,417.28a7.61,7.61,0,0,1-5.25,4.77s-.42,0-.66-2.05H313c-3,2.1-7.35,0-7.25-2.67v-2.15c0-2.58,4.29-4.06,7.25-4.78H457.21a9.62,9.62,0,0,1,3.45,1.78,9.52,9.52,0,0,1,2.46,3Z"/><path class="cls-7" d="M463.12,436.13a8,8,0,0,1-5.86,5.15,10.48,10.48,0,0,1,0-2.24H313a4.77,4.77,0,0,1-4.38.43,4.84,4.84,0,0,1-1.84-1.32,4.72,4.72,0,0,1-1-2v-1.86c0-2.58,4.29-3.63,7.24-4.78H457.26a9.59,9.59,0,0,1,5.91,4.78Z"/><path class="cls-7" d="M463.12,454.93a24.18,24.18,0,0,1-5.91,8H313c-3-2.39-7.35-5.35-7.25-8v-1.86c0-2.63,4.29-5.39,7.25-4.49H457.21a3.68,3.68,0,0,1,3.35.88,3.69,3.69,0,0,1,1.13,3.27l1.43.34Z"/><path class="cls-7" d="M383.09,473.73c0,2.34-1.57,3.48-4.29,3.48H312.4c-2.67,0-6.62-1.14-6.62-3.48V472c0-2.34,4-4.29,6.62-4.29h66.44a4.3,4.3,0,0,1,3,1.26,4.35,4.35,0,0,1,.93,1.39,4.21,4.21,0,0,1,.33,1.64Z"/><path class="cls-7" d="M639.6,398.48c-2.72,2.62-2.25,4.29-5.2,2.38H490.12c-2.43,2.1-4.77.34-4.77-2.1l1.62-.28v-1.87c-1.48-2.53.62-4.77,3.15-5.29H634.4c3,.76,2.48,2.67,5.2,5.29Z"/><path class="cls-7" d="M639.59,417.28c-2.71,2.62-2.24,4.77-5.19,2.67H490.12c-2.63,2.1-4.77,0-3.15-2.67v-2.1c-1.62-2.58.38-4.06,3.15-4.78H634.4c3,1,2.48,2.44,5.19,4.78Z"/><path class="cls-7" d="M639.59,436.13c-2.71,2.57-2.24,5.15-5.19,2.91H490.12c-2.72,2-4.77,0-3.15-2.91v-1.86c-1.62-2.58.38-3.63,3.15-4.78H634.4c3,1.1,2.48,2.15,5.19,4.78Z"/><path class="cls-7" d="M639.59,454.93c-2.71,2.62-2.24,5.58-5.19,8H490.12c-2.82-2.72-4.77-5.16-3.15-8v-1.86a2.87,2.87,0,0,1-.71-1.71,2.83,2.83,0,0,1,.51-1.78,2.78,2.78,0,0,1,1.5-1.08,2.86,2.86,0,0,1,1.85.08H634.4c3-.9,2.48,1.86,5.19,4.49Z"/><path class="cls-7" d="M560.28,473.73c0,2.34,0,3.48-2.53,3.48H491.26c-2.67,0-4.29-1.14-4.29-3.48V472a4.3,4.3,0,0,1,4.29-4.29h66.39c2.68,0,2.53,2.1,2.53,4.29Z"/><path class="cls-8" d="M639.6,275a12.21,12.21,0,0,1-8.22,10.74,12.37,12.37,0,0,1-4.71.62H148.33C141,286.33,134,281.27,134,275V168.84c0-6.3,7-11.36,14.31-11.36H626.62a12.12,12.12,0,0,1,4.71.61,12.14,12.14,0,0,1,7,6.12,12.22,12.22,0,0,1,1.25,4.58Z"/><path class="cls-2" d="M296.38,214.2V231H292.5v-6.89h-7.64V231H281V214.2h3.88v6.62h7.64V214.2Zm9.86,17a7.87,7.87,0,0,1-3.67-.84,6.33,6.33,0,0,1-2.52-2.37,6.87,6.87,0,0,1,0-6.87,6.15,6.15,0,0,1,2.52-2.35,7.65,7.65,0,0,1,3.67-.86,7.57,7.57,0,0,1,3.65.86,6.28,6.28,0,0,1,2.52,2.35,6.94,6.94,0,0,1,0,6.87,6.47,6.47,0,0,1-2.52,2.37A7.79,7.79,0,0,1,306.24,231.19Zm0-3.07a3.1,3.1,0,0,0,2.35-1,3.67,3.67,0,0,0,.94-2.62,3.58,3.58,0,0,0-.94-2.59,3.08,3.08,0,0,0-2.35-1,3.17,3.17,0,0,0-2.38,1,3.57,3.57,0,0,0-.93,2.59,3.67,3.67,0,0,0,.93,2.62A3.2,3.2,0,0,0,306.24,228.12Zm30-10L331.53,231h-3.6L325,223l-3,8h-3.6l-4.65-12.91h3.52l3,8.73,3.17-8.73h3.17l3.07,8.73,3.14-8.73Zm21.68-4.9V231h-3.57v-1.49a4.94,4.94,0,0,1-4,1.68,6.86,6.86,0,0,1-3.32-.81,5.93,5.93,0,0,1-2.3-2.33,7.73,7.73,0,0,1,0-7,5.93,5.93,0,0,1,2.3-2.33,6.86,6.86,0,0,1,3.32-.81,4.92,4.92,0,0,1,3.86,1.56v-6.27Zm-7,14.93a3.17,3.17,0,0,0,2.36-1,3.67,3.67,0,0,0,.93-2.62,3.57,3.57,0,0,0-.93-2.59,3.34,3.34,0,0,0-4.73,0,3.54,3.54,0,0,0-.94,2.59,3.63,3.63,0,0,0,.94,2.62A3.16,3.16,0,0,0,350.93,228.12Zm16.57,3.07a7.9,7.9,0,0,1-3.67-.84,6.72,6.72,0,0,1-2.52-9.24,6.28,6.28,0,0,1,2.52-2.35,7.67,7.67,0,0,1,3.67-.86,7.54,7.54,0,0,1,3.65.86,6.28,6.28,0,0,1,2.52,2.35,6.57,6.57,0,0,1-2.52,9.24A7.76,7.76,0,0,1,367.5,231.19Zm0-3.07a3.12,3.12,0,0,0,2.36-1,3.67,3.67,0,0,0,.93-2.62,3.57,3.57,0,0,0-.93-2.59,3.1,3.1,0,0,0-2.36-1,3.14,3.14,0,0,0-2.37,1,3.54,3.54,0,0,0-.94,2.59,3.63,3.63,0,0,0,.94,2.62A3.16,3.16,0,0,0,367.5,228.12Zm29.2-10-5.83,13.7a6.71,6.71,0,0,1-2.21,3.15,5.36,5.36,0,0,1-3.14.91,6.84,6.84,0,0,1-2-.31,4.37,4.37,0,0,1-1.6-.87l1.36-2.66a3.54,3.54,0,0,0,1,.6,3.27,3.27,0,0,0,1.13.21,1.89,1.89,0,0,0,1.24-.38,3.12,3.12,0,0,0,.87-1.22l.05-.12-5.6-13h3.87l3.62,8.76,3.65-8.76Zm7.32,13.1a7.9,7.9,0,0,1-3.67-.84,6.72,6.72,0,0,1-2.52-9.24,6.28,6.28,0,0,1,2.52-2.35,7.67,7.67,0,0,1,3.67-.86,7.54,7.54,0,0,1,3.65.86,6.28,6.28,0,0,1,2.52,2.35,6.57,6.57,0,0,1-2.52,9.24A7.76,7.76,0,0,1,404,231.19Zm0-3.07a3.1,3.1,0,0,0,2.35-1,3.63,3.63,0,0,0,.94-2.62,3.54,3.54,0,0,0-.94-2.59,3.08,3.08,0,0,0-2.35-1,3.17,3.17,0,0,0-2.38,1,3.57,3.57,0,0,0-.93,2.59,3.67,3.67,0,0,0,.93,2.62A3.2,3.2,0,0,0,404,228.12Zm22.59-10V231h-3.55v-1.54a5.09,5.09,0,0,1-1.78,1.3,5.68,5.68,0,0,1-2.23.43,5.51,5.51,0,0,1-4-1.46,5.87,5.87,0,0,1-1.49-4.35v-7.29h3.74v6.74c0,2.08.88,3.12,2.62,3.12a2.84,2.84,0,0,0,2.16-.86,3.77,3.77,0,0,0,.82-2.62v-6.38Zm14.37.29h3.31v2.88h-3.21V231h-3.75v-9.74h-2v-2.88h2v-.58a4.7,4.7,0,0,1,1.3-3.5,5,5,0,0,1,3.69-1.3,6.3,6.3,0,0,1,1.59.19,3.59,3.59,0,0,1,1.27.51l-1,2.71a2.55,2.55,0,0,0-1.52-.46c-1.13,0-1.7.63-1.7,1.87Zm17.66,6.21s0,.39-.07,1H448.8a3.07,3.07,0,0,0,1.25,1.9,4.14,4.14,0,0,0,2.45.69,4.83,4.83,0,0,0,1.77-.29,4.24,4.24,0,0,0,1.47-1l2,2.16a6.67,6.67,0,0,1-5.33,2.09,8.5,8.5,0,0,1-3.86-.84,6.36,6.36,0,0,1-2.6-2.37,6.95,6.95,0,0,1,0-6.84,6.28,6.28,0,0,1,2.47-2.38,7.67,7.67,0,0,1,7,0,5.84,5.84,0,0,1,2.4,2.35A6.88,6.88,0,0,1,458.64,224.59Zm-6.7-3.86a3.21,3.21,0,0,0-2.13.72,3,3,0,0,0-1.06,2h6.36a3.08,3.08,0,0,0-1.05-1.95A3.17,3.17,0,0,0,451.94,220.73Zm21.84,3.86s0,.39-.07,1h-9.77a3.07,3.07,0,0,0,1.25,1.9,4.17,4.17,0,0,0,2.45.69,4.83,4.83,0,0,0,1.77-.29,4.24,4.24,0,0,0,1.47-1l2,2.16a6.67,6.67,0,0,1-5.33,2.09,8.53,8.53,0,0,1-3.86-.84,6.27,6.27,0,0,1-2.59-2.37,6.92,6.92,0,0,1,0-6.84,6.28,6.28,0,0,1,2.47-2.38,7.67,7.67,0,0,1,7,0,5.84,5.84,0,0,1,2.4,2.35A6.78,6.78,0,0,1,473.78,224.59Zm-6.69-3.86a3.24,3.24,0,0,0-2.14.72,3,3,0,0,0-1.06,2h6.36a3,3,0,0,0-1.05-1.95A3.16,3.16,0,0,0,467.09,220.73Zm9.18-7.54H480V231h-3.75Zm17.5,12a3.63,3.63,0,0,1,.55-2.07,12.31,12.31,0,0,1,1.66-1.8,9.16,9.16,0,0,0,1.15-1.2,1.77,1.77,0,0,0,.38-1.12,1.62,1.62,0,0,0-.72-1.4,3,3,0,0,0-1.87-.52,4.18,4.18,0,0,0-3.48,1.77l-2.9-1.7a6.66,6.66,0,0,1,2.71-2.38,9.23,9.23,0,0,1,4.08-.84,7.46,7.46,0,0,1,4.42,1.18,3.76,3.76,0,0,1,1.68,3.26,4.24,4.24,0,0,1-.34,1.73,4.35,4.35,0,0,1-.79,1.27c-.31.34-.71.73-1.2,1.18a9.67,9.67,0,0,0-1.3,1.34,2.08,2.08,0,0,0-.41,1.3Zm1.82,6a2.36,2.36,0,0,1-1.65-.62,2.13,2.13,0,0,1-.65-1.56,2,2,0,0,1,.65-1.51,2.49,2.49,0,0,1,3.31,0,2,2,0,0,1,.65,1.51,2.11,2.11,0,0,1-.67,1.56A2.31,2.31,0,0,1,495.59,231.19Z"/><path class="cls-9" d="M136.86,118.8h11.92a16.67,16.67,0,0,1,7.34,1.55,11.57,11.57,0,0,1,5,4.39,13.41,13.41,0,0,1,0,13.32,11.57,11.57,0,0,1-5,4.39,16.67,16.67,0,0,1-7.34,1.55H136.86Zm11.63,19.51a7.28,7.28,0,0,0,5.19-1.83,7.51,7.51,0,0,0,0-10.16,7.28,7.28,0,0,0-5.19-1.83H144v13.82Zm37.31-13.82V144h-6.51v-2.09a7.12,7.12,0,0,1-2.59,1.8,8.45,8.45,0,0,1-3.21.61,8.26,8.26,0,0,1-6.05-2.23c-1.48-1.49-2.23-3.72-2.23-6.69V124.49h6.84v9.79a5,5,0,0,0,.83,3.2,2.92,2.92,0,0,0,2.41,1,3.39,3.39,0,0,0,2.63-1.11,5.07,5.07,0,0,0,1-3.5v-9.39Zm24,0-8.42,20.3a10.8,10.8,0,0,1-3.6,5,8.81,8.81,0,0,1-5.18,1.48,10.21,10.21,0,0,1-3.14-.51,7.25,7.25,0,0,1-2.52-1.26l2.38-4.78a3.85,3.85,0,0,0,1.37.82,4.41,4.41,0,0,0,1.65.33,2.84,2.84,0,0,0,1.59-.4,3,3,0,0,0,1.08-1.26l-8.35-19.76h7l4.78,11.91,4.83-11.91Z"/><path class="cls-10" d="M218,124.31v5.54h11.12v5.51H218V144h-7.13V118.8h19.76v5.51Zm35.2,14.18V144H233V118.8h19.77v5.51H240v4.25h11.2v5.32H240v4.61Z"/></g></g></svg>