<?xml version="1.0" encoding="utf-8"?>
<!-- Generator: Adobe Illustrator 25.3.1, SVG Export Plug-In . SVG Version: 6.00 Build 0)  -->
<svg version="1.1" id="Layer_1" xmlns="http://www.w3.org/2000/svg" xmlns:xlink="http://www.w3.org/1999/xlink" x="0px" y="0px"
	 viewBox="0 0 783 754" style="enable-background:new 0 0 783 754;" xml:space="preserve">
<style type="text/css">
	.st0{fill:#BAC5F4;}
	.st1{fill:#FFFFFF;}
	.st2{fill:#F8F8FF;}
	.st3{fill:#FA5F5D;}
	.st4{fill:#FDBC4E;}
	.st5{fill:#37CD58;}
	.st6{fill:url(#SVGID_1_);}
	.st7{fill:#339AF0;}
	.st8{fill:#4933F0;}
</style>
<g id="Layer_2_1_">
	<g id="Layer_1-2">
		<path class="st0" d="M29.1,610.8h726.4c0,0,27.1-1.4,27.1-33.1v-62.4H0.5v76.1c3.9,12.1,15.4,20,28.1,19.4"/>
		<path class="st0" d="M0.5,43L0,539.2l782.7-7.2V28.6c0,0,4.8-28.6-25.7-28.6H30C30,0-2.9,0,0.5,43.4"/>
		<path class="st0" d="M329.6,744V606.1l114.4,4.8V732L329.6,744z"/>
		<path class="st0" d="M147.9,730.1l475.7,0.1l0.3,23.7h-476V730.1z"/>
		<path class="st1" d="M384.6,549.3c12.6,0,22.9,10.3,22.9,22.9c0,12.6-10.3,22.9-22.9,22.9c-12.6,0-22.9-10.3-22.9-22.9
			c0-6.1,2.4-11.9,6.7-16.2C372.7,551.7,378.5,549.3,384.6,549.3"/>
		<path class="st2" d="M758.8,23.9H24.3v482h734.5V23.9z"/>
		<path class="st3" d="M61.2,48.7c6.3,0,11.4,5.2,11.4,11.5s-5.2,11.4-11.5,11.4s-11.4-5.2-11.4-11.5c0-3,1.2-6,3.4-8.1
			C55.2,49.9,58.2,48.6,61.2,48.7"/>
		<path class="st4" d="M100.3,48.7c6.3,0,11.4,5.1,11.4,11.4s-5.1,11.4-11.4,11.4c-6.3,0-11.4-5.1-11.4-11.4c0-4.6,2.8-8.8,7.1-10.6
			C97.3,49,98.8,48.7,100.3,48.7"/>
		<path class="st5" d="M141.3,48.7c6.3,0,11.4,5.2,11.4,11.5s-5.2,11.4-11.5,11.4c-6.3,0-11.4-5.2-11.4-11.5c0-3,1.2-6,3.4-8.1
			C135.4,49.9,138.3,48.6,141.3,48.7"/>
		
			<linearGradient id="SVGID_1_" gradientUnits="userSpaceOnUse" x1="134" y1="257.9178" x2="639.6" y2="257.9178" gradientTransform="matrix(1 0 0 1 0 -36)">
			<stop  offset="0" style="stop-color:#4B45BD"/>
			<stop  offset="1" style="stop-color:#58CAEA"/>
		</linearGradient>
		<path class="st6" d="M639.6,275c-0.3,4.9-3.6,9.1-8.2,10.7c-1.5,0.5-3.1,0.7-4.7,0.6H148.3c-7.3,0-14.3-5.1-14.3-11.4V168.8
			c0-6.3,7-11.4,14.3-11.4h478.3c1.6-0.1,3.2,0.1,4.7,0.6c3.1,1,5.6,3.2,7,6.1c0.7,1.4,1.1,3,1.2,4.6l0,0L639.6,275z"/>
		<path class="st1" d="M234.3,222.3c0.9,0.3,1.7,0.8,2.3,1.5c0.6,0.8,0.8,1.7,0.8,2.6c0.1,1.4-0.6,2.6-1.7,3.4
			c-1.5,0.9-3.3,1.3-5,1.2H222v-16.8h8.2c1.7-0.1,3.3,0.3,4.7,1.2c1.1,0.7,1.7,1.9,1.6,3.2c0,0.8-0.2,1.5-0.6,2.2
			C235.6,221.4,235,221.9,234.3,222.3z M225.8,217.1v4h3.9c0.8,0,1.5-0.1,2.2-0.5c0.5-0.3,0.8-0.9,0.7-1.5c0-0.6-0.2-1.1-0.7-1.5
			c-0.7-0.4-1.4-0.5-2.2-0.5L225.8,217.1z M230.4,228.1c0.8,0.1,1.6-0.1,2.3-0.5c0.5-0.3,0.8-0.9,0.8-1.6c0-1.4-1-2.1-3.1-2.1h-4.5
			v4.1H230.4z M245.3,217.9c1.7-0.1,3.3,0.4,4.6,1.4c1.1,1.1,1.7,2.7,1.6,4.3v7.4H248v-1.6c-0.7,1.2-2,1.8-3.9,1.8
			c-0.9,0-1.8-0.2-2.6-0.5c-0.7-0.3-1.2-0.8-1.7-1.4c-0.4-0.6-0.6-1.3-0.6-2c0-1.1,0.5-2.2,1.4-2.8c1.3-0.8,2.7-1.1,4.2-1h3
			c0-0.7-0.2-1.4-0.7-1.9c-0.6-0.5-1.4-0.7-2.2-0.7c-0.7,0-1.4,0.1-2,0.3c-0.6,0.2-1.2,0.5-1.7,0.9l-1.4-2.6
			c0.8-0.5,1.6-0.9,2.5-1.2C243.3,218.1,244.3,217.9,245.3,217.9L245.3,217.9z M245,228.7c0.6,0,1.2-0.1,1.7-0.4
			c0.5-0.3,0.9-0.8,1.1-1.3v-1.3h-2.6c-1.5,0-2.3,0.5-2.3,1.5c0,0.4,0.2,0.9,0.6,1.1C243.9,228.6,244.4,228.7,245,228.7z M245.4,236
			c-0.4,0-0.9-0.2-1.2-0.5c-0.3-0.3-0.5-0.7-0.5-1.1c0-0.4,0.2-0.9,0.5-1.2c0.3-0.3,0.8-0.5,1.2-0.5c0.4,0,0.9,0.2,1.2,0.5
			c0.3,0.3,0.5,0.8,0.5,1.2c0,0.4-0.2,0.9-0.5,1.1C246.2,235.9,245.8,236,245.4,236L245.4,236z M262.7,217.9
			c1.4-0.1,2.8,0.5,3.9,1.4c1.1,1.2,1.6,2.7,1.5,4.3v7.4h-3.8v-6.8c0.1-0.8-0.2-1.6-0.7-2.3c-0.5-0.5-1.2-0.8-1.9-0.8
			c-0.8,0-1.7,0.3-2.3,0.9c-0.6,0.7-0.9,1.7-0.8,2.6v6.4h-3.7v-12.9h3.6v1.5c0.5-0.6,1.1-1,1.9-1.2
			C261.1,218,261.9,217.9,262.7,217.9L262.7,217.9z M284.5,231.2c-1.3,0-2.6-0.3-3.7-0.8c-3.2-1.8-4.4-5.8-2.7-9.1
			c0-0.1,0.1-0.1,0.1-0.2c0.6-1,1.5-1.8,2.6-2.4c1.2-0.6,2.4-0.9,3.7-0.9c1.2,0,2.5,0.3,3.5,0.9c1,0.5,1.8,1.4,2.2,2.4l-2.9,1.6
			c-0.5-1.1-1.7-1.8-2.9-1.8c-0.9,0-1.8,0.3-2.4,1c-1.3,1.5-1.3,3.7,0,5.2c0.6,0.7,1.5,1,2.4,1c1.2,0,2.4-0.7,2.9-1.8l2.9,1.6
			c-0.5,1-1.2,1.9-2.2,2.4C287,231,285.7,231.2,284.5,231.2L284.5,231.2z M297.7,217.9c1.7-0.1,3.3,0.4,4.6,1.4
			c1.1,1.1,1.7,2.7,1.6,4.3v7.4h-3.5v-1.6c-0.7,1.2-2,1.8-3.9,1.8c-0.9,0-1.8-0.2-2.6-0.5c-0.7-0.3-1.2-0.8-1.7-1.4
			c-0.4-0.6-0.6-1.3-0.6-2c0-1.1,0.5-2.2,1.3-2.8c1.3-0.8,2.7-1.1,4.2-1h3c0-0.7-0.2-1.4-0.8-1.9c-0.6-0.5-1.4-0.7-2.2-0.7
			c-0.7,0-1.4,0.1-2,0.3c-0.6,0.2-1.2,0.5-1.7,0.9l-1.3-2.6c0.8-0.5,1.6-0.9,2.5-1.2C295.7,218.1,296.6,217.9,297.7,217.9
			L297.7,217.9z M297.4,228.7c0.6,0,1.2-0.1,1.7-0.4c0.5-0.3,0.9-0.8,1.1-1.3v-1.3h-2.6c-1.5,0-2.3,0.5-2.3,1.5
			c0,0.5,0.2,0.9,0.6,1.1C296.3,228.6,296.8,228.7,297.4,228.7L297.4,228.7z M297.6,215.4c0.4-0.1,0.7-0.4,0.9-0.7
			c0.2-0.2,0.3-0.5,0.3-0.8c0-0.3-0.1-0.5-0.3-0.7c-0.2-0.2-0.5-0.3-0.8-0.3c-0.5,0-1,0.2-1.4,0.5l-0.8-1.5c0.7-0.6,1.7-0.9,2.6-0.8
			c0.8,0,1.5,0.2,2.1,0.7c0.5,0.5,0.8,1.1,0.8,1.9c0,1.4-0.9,2.6-2.2,3L297.6,215.4z M323.8,217.9c1.4-0.1,2.8,0.4,3.8,1.4
			c1,1.2,1.6,2.7,1.4,4.3v7.4h-3.7v-6.8c0.1-0.8-0.2-1.6-0.6-2.3c-0.4-0.5-1.1-0.8-1.8-0.8c-0.8,0-1.6,0.3-2.1,0.9
			c-0.6,0.7-0.8,1.6-0.8,2.5v6.5h-3.8v-6.8c0-2-0.8-3-2.5-3c-0.8,0-1.5,0.3-2.1,0.9c-0.6,0.7-0.8,1.6-0.8,2.5v6.4h-3.7v-12.9h3.6
			v1.5c0.5-0.5,1.1-1,1.8-1.2c0.7-0.3,1.5-0.4,2.3-0.4c0.9,0,1.7,0.2,2.5,0.6c0.7,0.3,1.3,0.9,1.8,1.6c0.5-0.7,1.2-1.2,2-1.6
			C322,218.1,322.9,217.9,323.8,217.9L323.8,217.9z M347.6,230.4c-0.4,0.3-0.9,0.5-1.4,0.6c-0.6,0.1-1.1,0.2-1.7,0.2
			c-1.3,0.1-2.6-0.3-3.6-1.2c-0.9-0.9-1.3-2.2-1.2-3.5v-5.3h-2v-2.9h2v-3.1h3.8v3.1h3.2v2.9h-3.2v5.2c0,0.5,0.1,0.9,0.4,1.3
			c0.3,0.3,0.8,0.5,1.2,0.4c0.5,0,1.1-0.2,1.5-0.5L347.6,230.4z M357.5,217.9c1.4-0.1,2.8,0.5,3.9,1.4c1.1,1.2,1.6,2.7,1.5,4.3v7.4
			h-3.8v-6.8c0.1-0.8-0.2-1.6-0.7-2.3c-0.5-0.5-1.2-0.8-1.9-0.8c-0.8,0-1.7,0.3-2.3,0.9c-0.6,0.7-0.9,1.7-0.8,2.6v6.4h-3.7v-17.8
			h3.7v6.2c0.5-0.5,1.1-0.9,1.8-1.1C355.9,218,356.7,217.9,357.5,217.9L357.5,217.9z M371.5,217.9c1.7-0.1,3.3,0.4,4.6,1.4
			c1.1,1.1,1.7,2.7,1.6,4.3v7.4h-3.5v-1.6c-0.7,1.2-2,1.8-3.9,1.8c-0.9,0-1.8-0.2-2.6-0.5c-0.7-0.3-1.3-0.8-1.7-1.4
			c-0.4-0.6-0.6-1.3-0.6-2c0-1.1,0.5-2.2,1.3-2.8c1.3-0.8,2.7-1.1,4.2-1h3c0-0.7-0.2-1.4-0.7-1.9c-0.6-0.5-1.4-0.7-2.2-0.7
			c-0.7,0-1.4,0.1-2,0.3c-0.6,0.2-1.2,0.5-1.7,0.9l-1.3-2.6c0.8-0.5,1.6-0.9,2.5-1.2C369.4,218.1,370.5,217.9,371.5,217.9
			L371.5,217.9z M371.2,228.7c0.6,0,1.2-0.1,1.7-0.4c0.5-0.3,0.9-0.8,1.1-1.3v-1.3h-2.6c-1.5,0-2.3,0.5-2.3,1.5
			c0,0.5,0.2,0.9,0.5,1.1C370.1,228.5,370.6,228.7,371.2,228.7L371.2,228.7z M374,216.4l-2.1-1.4l-2.1,1.4H367l3.2-2.7h3.3l3.2,2.7
			H374z M377.4,211.2h3.8l-3.8,2.9h-2.7L377.4,211.2z M393.7,218.1l-5.8,13.7c-0.4,1.2-1.2,2.3-2.2,3.1c-0.9,0.6-2,0.9-3.1,0.9
			c-0.7,0-1.4-0.1-2-0.3c-0.6-0.2-1.1-0.5-1.6-0.9l1.4-2.7c0.3,0.3,0.6,0.5,1,0.6c0.4,0.1,0.7,0.2,1.1,0.2c0.4,0,0.9-0.1,1.2-0.4
			c0.4-0.3,0.7-0.7,0.9-1.2l0-0.1l-5.6-13h3.9l3.6,8.8l3.6-8.8L393.7,218.1z M409.9,217.9c1.4-0.1,2.8,0.5,3.9,1.4
			c1.1,1.2,1.6,2.7,1.5,4.3v7.4h-3.7v-6.8c0.1-0.8-0.2-1.6-0.7-2.3c-0.5-0.5-1.2-0.8-1.9-0.8c-0.8,0-1.7,0.3-2.3,0.9
			c-0.6,0.7-0.9,1.7-0.8,2.6v6.4H402v-12.9h3.6v1.5c0.5-0.6,1.1-1,1.8-1.2C408.2,218,409,217.9,409.9,217.9L409.9,217.9z
			 M426.5,217.9c1.4-0.1,2.8,0.5,3.9,1.4c1.1,1.2,1.6,2.7,1.5,4.3v7.4H428v-6.8c0.1-0.8-0.2-1.6-0.7-2.3c-0.5-0.5-1.3-0.8-2-0.8
			c-0.8,0-1.7,0.3-2.2,0.9c-0.6,0.7-0.9,1.7-0.8,2.6v6.4h-3.8v-17.8h3.8v6.2c0.5-0.5,1.1-0.9,1.8-1.1
			C424.8,218,425.6,217.9,426.5,217.9L426.5,217.9z M448.2,218.1V231h-3.5v-1.5c-0.5,0.6-1.1,1-1.8,1.3c-0.7,0.3-1.5,0.4-2.2,0.4
			c-1.5,0.1-2.9-0.5-4-1.5c-1.1-1.2-1.6-2.8-1.5-4.4v-7.3h3.8v6.7c0,2.1,0.9,3.1,2.6,3.1c0.8,0,1.6-0.3,2.2-0.9
			c0.6-0.7,0.9-1.7,0.8-2.6v-6.4L448.2,218.1z M445.8,218.1h0.6c0.4,0,0.7-0.1,1-0.4c0.3-0.3,0.4-0.7,0.4-1.1c0-0.5-0.2-1-0.5-1.4
			l2.2-0.8c0.5,0.7,0.8,1.5,0.8,2.4c0.1,1.1-0.3,2.1-1.1,2.8c-0.8,0.7-1.9,1.1-3,1h-0.6L445.8,218.1z M467.2,230.4
			c-0.4,0.3-0.9,0.5-1.4,0.6c-0.6,0.1-1.1,0.2-1.7,0.2c-1.3,0.1-2.6-0.3-3.6-1.2c-0.9-0.9-1.3-2.2-1.2-3.5v-5.3h-2v-2.9h2v-3.1h3.7
			v3.1h3.2v2.9H463v5.2c0,0.5,0.1,0.9,0.4,1.3c0.3,0.3,0.8,0.5,1.2,0.4c0.5,0,1.1-0.2,1.5-0.5L467.2,230.4z M477.1,217.9
			c1.4-0.1,2.8,0.5,3.9,1.4c1.1,1.2,1.6,2.7,1.5,4.3v7.4h-3.7v-6.8c0.1-0.8-0.2-1.6-0.7-2.3c-0.5-0.5-1.2-0.8-2-0.8
			c-0.8,0-1.7,0.3-2.2,0.9c-0.6,0.7-0.9,1.7-0.8,2.6v6.4h-3.8v-17.8h3.7v6.2c0.5-0.5,1.1-0.9,1.8-1.1
			C475.5,218,476.3,217.9,477.1,217.9L477.1,217.9z M498.6,224.6c0,0,0,0.4-0.1,1h-9.8c0.2,0.8,0.6,1.4,1.2,1.9
			c0.7,0.5,1.6,0.7,2.5,0.7c0.6,0,1.2-0.1,1.8-0.3c0.6-0.2,1-0.6,1.5-1l2,2.2c-1.4,1.5-3.3,2.2-5.3,2.1c-1.3,0-2.7-0.3-3.9-0.8
			c-1.1-0.5-2-1.3-2.7-2.3c-1.2-2.1-1.2-4.7,0-6.8c0.6-1,1.4-1.8,2.5-2.4c1.1-0.6,2.3-0.9,3.5-0.9c1.2,0,2.4,0.3,3.4,0.8
			c1,0.5,1.8,1.4,2.4,2.4C498.3,222.2,498.6,223.4,498.6,224.6L498.6,224.6z M492,220.7c-0.8,0-1.5,0.2-2.1,0.7c-0.6,0.5-1,1.2-1,2
			h6.4c-0.1-0.8-0.5-1.5-1.1-1.9C493.5,221,492.7,220.7,492,220.7L492,220.7z M494,216.4l-2.1-1.4l-2.1,1.4H487l3.2-2.7h3.3l3.2,2.7
			H494z M497.4,211.2h3.8l-3.8,2.9h-2.7L497.4,211.2z M515.8,217.9c1.4-0.1,2.8,0.5,3.9,1.4c1.1,1.2,1.6,2.7,1.5,4.3v7.4h-3.7v-6.8
			c0.1-0.8-0.2-1.6-0.7-2.3c-0.5-0.5-1.2-0.8-2-0.8c-0.8,0-1.7,0.3-2.2,0.9c-0.6,0.7-0.9,1.7-0.8,2.6v6.4H508v-12.9h3.6v1.5
			c0.5-0.6,1.1-1,1.8-1.2C514.1,218.1,514.9,217.9,515.8,217.9L515.8,217.9z M529.8,217.9c1.7-0.1,3.3,0.4,4.6,1.4
			c1.1,1.1,1.7,2.7,1.6,4.3v7.4h-3.5v-1.6c-0.7,1.2-2,1.8-3.9,1.8c-0.9,0-1.8-0.2-2.6-0.5c-0.7-0.3-1.2-0.8-1.7-1.4
			c-0.4-0.6-0.6-1.3-0.6-2c0-1.1,0.5-2.2,1.3-2.8c1.3-0.8,2.7-1.1,4.2-1h3c0-0.7-0.2-1.4-0.8-1.9c-0.6-0.5-1.4-0.7-2.2-0.7
			c-0.7,0-1.4,0.1-2,0.3c-0.6,0.2-1.2,0.5-1.7,0.9l-1.3-2.6c0.8-0.5,1.6-0.9,2.5-1.2c0.9-0.3,1.9-0.4,2.9-0.4L529.8,217.9z
			 M529.5,228.7c0.6,0,1.2-0.1,1.7-0.4c0.5-0.3,0.9-0.8,1.1-1.3v-1.3h-2.6c-1.5,0-2.3,0.5-2.3,1.5c0,0.5,0.2,0.9,0.5,1.1
			c0.4,0.3,0.9,0.4,1.4,0.4L529.5,228.7z M525,213h4l3.2,3.4h-2.9L525,213z M545.6,231.2c-1.3,0-2.5-0.3-3.7-0.8
			c-3.2-1.8-4.4-5.9-2.6-9.1c0,0,0-0.1,0.1-0.1c0.6-1,1.5-1.8,2.5-2.4c1.1-0.6,2.4-0.9,3.7-0.9c1.3,0,2.5,0.3,3.7,0.9
			c1,0.5,1.9,1.3,2.5,2.4c1.9,3.1,0.9,7.1-2.2,9c-0.1,0.1-0.2,0.1-0.4,0.2C548.1,230.9,546.8,231.2,545.6,231.2L545.6,231.2z
			 M545.6,228.1c0.9,0,1.8-0.3,2.4-1c0.6-0.7,1-1.7,0.9-2.6c0-1-0.3-1.9-0.9-2.6c-0.6-0.7-1.5-1-2.4-1c-0.9,0-1.8,0.3-2.4,1
			c-0.7,0.7-1,1.6-0.9,2.6c0,1,0.3,1.9,0.9,2.6C543.8,227.8,544.7,228.1,545.6,228.1L545.6,228.1z M557.6,225.1
			c0-0.7,0.2-1.4,0.5-2.1c0.5-0.7,1-1.3,1.7-1.8c0.4-0.4,0.8-0.8,1.2-1.2c0.3-0.3,0.4-0.7,0.4-1.1c0-0.6-0.3-1.1-0.7-1.4
			c-0.6-0.4-1.2-0.6-1.9-0.5c-1.4,0-2.7,0.6-3.5,1.8l-2.9-1.7c0.7-1,1.6-1.8,2.7-2.4c1.3-0.6,2.7-0.9,4.1-0.8
			c1.6-0.1,3.1,0.3,4.4,1.2c1.1,0.7,1.7,2,1.7,3.3c0,0.6-0.1,1.2-0.3,1.7c-0.2,0.5-0.5,0.9-0.8,1.3c-0.4,0.4-0.8,0.8-1.2,1.2
			c-0.5,0.4-0.9,0.9-1.3,1.3c-0.3,0.4-0.4,0.8-0.4,1.3L557.6,225.1z M559.4,231.1c-0.6,0-1.2-0.2-1.7-0.6c-0.4-0.4-0.7-1-0.7-1.6
			c0-0.6,0.2-1.1,0.7-1.5c0.9-0.8,2.4-0.8,3.3,0c0.4,0.4,0.7,0.9,0.7,1.5c0,0.6-0.2,1.2-0.7,1.6C560.6,231,560,231.2,559.4,231.1
			L559.4,231.1z"/>
		<path class="st7" d="M136.9,118.8h11.9c2.5,0,5,0.5,7.3,1.6c2.1,0.9,3.8,2.5,5,4.4c2.4,4.1,2.4,9.2,0,13.3c-1.2,1.9-2.9,3.4-5,4.4
			c-2.3,1.1-4.8,1.6-7.3,1.6h-11.9V118.8z M148.5,138.3c1.9,0.1,3.8-0.6,5.2-1.8c2.6-2.9,2.6-7.3,0-10.2c-1.4-1.3-3.3-1.9-5.2-1.8
			H144v13.8H148.5z M185.8,124.5V144h-6.5v-2.1c-0.7,0.8-1.6,1.4-2.6,1.8c-1,0.4-2.1,0.6-3.2,0.6c-2.2,0.1-4.4-0.7-6.1-2.2
			c-1.5-1.5-2.2-3.7-2.2-6.7v-10.9h6.8v9.8c-0.1,1.1,0.2,2.3,0.8,3.2c0.6,0.7,1.5,1.1,2.4,1c1,0,2-0.4,2.6-1.1c0.8-1,1.1-2.2,1-3.5
			v-9.4L185.8,124.5z M209.8,124.5l-8.4,20.3c-0.7,2-1.9,3.7-3.6,5c-1.5,1-3.3,1.5-5.2,1.5c-1.1,0-2.1-0.2-3.1-0.5
			c-0.9-0.3-1.8-0.7-2.5-1.3l2.4-4.8c0.4,0.4,0.9,0.6,1.4,0.8c0.5,0.2,1.1,0.3,1.6,0.3c0.6,0,1.1-0.1,1.6-0.4
			c0.5-0.3,0.8-0.7,1.1-1.3l-8.4-19.8h7l4.8,11.9l4.8-11.9L209.8,124.5z"/>
		<path class="st8" d="M218,124.3v5.5h11.1v5.5H218v8.6h-7.1v-25.2h19.8v5.5L218,124.3z M253.2,138.5v5.5H233v-25.2h19.8v5.5H240
			v4.2h11.2v5.3H240v4.6L253.2,138.5z"/>
	</g>
</g>
</svg>
