<svg width="783" height="754" viewBox="0 0 783 754" fill="none" xmlns="http://www.w3.org/2000/svg">
<path d="M29.1095 610.835H755.559C755.559 610.835 782.697 609.404 782.697 577.764V515.392H0.492188V591.46C2.39355 597.331 6.17625 602.412 11.2548 605.914C16.3334 609.417 22.4245 611.146 28.5849 610.835" fill="#BAC5F4"/>
<path d="M0.49344 42.9494L0.0166016 539.253L782.699 532.095V28.6329C782.699 28.6329 787.468 0 756.991 0H30.0169C30.0169 0 -2.84524 -1.82043e-05 0.49344 43.3788" fill="#BAC5F4"/>
<path d="M329.592 743.978V606.063L444.061 610.835V732.048L329.592 743.978Z" fill="#BAC5F4"/>
<path d="M147.872 730.139L623.539 730.282L623.825 754H147.872V730.139Z" fill="#BAC5F4"/>
<path d="M384.584 549.275C389.112 549.275 393.538 550.618 397.303 553.135C401.068 555.652 404.002 559.229 405.735 563.415C407.468 567.601 407.921 572.206 407.038 576.65C406.155 581.093 403.974 585.175 400.772 588.378C397.57 591.582 393.491 593.763 389.05 594.647C384.609 595.531 380.006 595.077 375.823 593.344C371.639 591.61 368.064 588.674 365.548 584.907C363.033 581.14 361.69 576.711 361.69 572.181C361.69 566.106 364.102 560.28 368.395 555.984C372.689 551.688 378.512 549.275 384.584 549.275" fill="white"/>
<path d="M758.851 23.8608H24.3408V505.848H758.851V23.8608Z" fill="#F8F8FF"/>
<path d="M61.208 48.676C63.4719 48.676 65.6851 49.3476 67.5676 50.6061C69.45 51.8645 70.917 53.6533 71.7834 55.7461C72.6498 57.8389 72.8766 60.1417 72.4349 62.3634C71.9932 64.5851 70.9029 66.6259 69.302 68.2277C67.7011 69.8294 65.6618 70.9203 63.4414 71.3622C61.2209 71.8041 58.9193 71.5773 56.8276 70.7105C54.736 69.8436 52.9482 68.3756 51.6904 66.4922C50.4326 64.6087 49.7612 62.3943 49.7612 60.1291C49.7612 57.0915 50.9672 54.1784 53.1139 52.0305C55.2607 49.8826 58.1721 48.676 61.208 48.676" fill="#FA5F5D"/>
<path d="M100.32 48.676C102.584 48.676 104.797 49.3476 106.679 50.6061C108.562 51.8645 110.029 53.6533 110.895 55.7461C111.761 57.8389 111.988 60.1417 111.547 62.3634C111.105 64.5851 110.014 66.6259 108.414 68.2277C106.813 69.8294 104.773 70.9203 102.552 71.3622C100.332 71.8041 98.0306 71.5773 95.939 70.7105C93.8473 69.8436 92.0593 68.3756 90.8015 66.4922C89.5437 64.6087 88.8726 62.3943 88.8726 60.1291C88.8726 58.625 89.1683 57.1356 89.7436 55.7461C90.3188 54.3565 91.162 53.094 92.225 52.0305C93.2879 50.967 94.5502 50.1233 95.939 49.5477C97.3278 48.9722 98.8164 48.676 100.32 48.676" fill="#FDBC4E"/>
<path d="M141.337 48.676C143.601 48.676 145.814 49.3476 147.697 50.6061C149.579 51.8645 151.046 53.6533 151.913 55.7461C152.779 57.8389 153.006 60.1417 152.564 62.3634C152.122 64.5851 151.032 66.6259 149.431 68.2277C147.83 69.8294 145.79 70.9203 143.57 71.3622C141.349 71.8041 139.048 71.5773 136.957 70.7105C134.865 69.8436 133.077 68.3756 131.819 66.4922C130.561 64.6087 129.89 62.3943 129.89 60.1291C129.89 57.0915 131.096 54.1784 133.243 52.0305C135.389 49.8826 138.301 48.676 141.337 48.676" fill="#37CD58"/>
<path d="M463.138 398.475C462.687 399.535 461.996 400.475 461.118 401.221C460.24 401.967 459.2 402.497 458.082 402.77C457.796 402.77 457.51 402.77 457.224 400.861H312.993C310.035 402.77 305.647 401.099 305.743 398.475V396.613C305.743 393.989 310.035 391.841 312.993 391.316H457.224C458.332 391.523 459.35 392.063 460.143 392.865C460.935 393.667 461.464 394.691 461.659 395.802C461.659 396.089 461.659 396.327 463.138 396.613V398.475Z" fill="#E9EDFB"/>
<path d="M463.138 417.277C462.714 418.438 462.016 419.478 461.102 420.31C460.188 421.141 459.086 421.738 457.891 422.049C457.891 422.049 457.462 422.049 457.224 419.997H312.993C310.035 422.097 305.647 419.997 305.743 417.325V415.177C305.743 412.6 310.035 411.121 312.993 410.405H457.224C458.483 410.753 459.659 411.356 460.676 412.177C461.693 412.997 462.531 414.019 463.138 415.177V417.277Z" fill="#E9EDFB"/>
<path d="M463.139 436.127C462.685 437.418 461.907 438.57 460.88 439.472C459.852 440.375 458.61 440.998 457.272 441.281C457.195 440.535 457.195 439.784 457.272 439.038H313.041C312.399 439.457 311.666 439.715 310.903 439.79C310.14 439.865 309.371 439.755 308.66 439.47C307.948 439.184 307.316 438.731 306.817 438.149C306.318 437.567 305.966 436.874 305.792 436.127V434.266C305.792 431.689 310.084 430.639 313.041 429.494H457.272C458.532 429.841 459.707 430.444 460.725 431.265C461.742 432.086 462.58 433.107 463.186 434.266L463.139 436.127Z" fill="#E9EDFB"/>
<path d="M463.138 454.929C461.738 457.966 459.724 460.68 457.224 462.899H312.993C310.035 460.513 305.647 457.554 305.743 454.929V453.068C305.743 450.443 310.035 447.676 312.993 448.582H457.224C457.811 448.441 458.424 448.447 459.009 448.6C459.593 448.753 460.131 449.048 460.575 449.459C461.018 449.869 461.354 450.383 461.551 450.954C461.749 451.526 461.802 452.137 461.707 452.734C461.707 452.734 461.707 452.734 463.138 453.068V454.929Z" fill="#E9EDFB"/>
<path d="M383.106 473.731C383.106 476.07 381.532 477.215 378.813 477.215H312.421C309.75 477.215 305.792 476.07 305.792 473.731V472.014C305.792 469.675 309.75 467.719 312.421 467.719H378.861C379.424 467.719 379.983 467.83 380.504 468.046C381.024 468.261 381.498 468.578 381.896 468.976C382.295 469.375 382.611 469.849 382.827 470.37C383.042 470.891 383.153 471.45 383.153 472.014L383.106 473.731Z" fill="#E9EDFB"/>
<path d="M639.612 398.475C636.893 401.099 637.37 402.77 634.413 400.861H490.134C487.702 402.96 485.365 401.195 485.365 398.761C485.365 398.761 485.365 398.761 486.986 398.475V396.613C485.508 394.084 487.606 391.841 490.134 391.316H634.413C637.37 392.08 636.893 393.989 639.612 396.613V398.475Z" fill="#E9EDFB"/>
<path d="M639.611 417.277C636.892 419.902 637.37 422.049 634.412 419.949H490.134C487.51 422.049 485.364 419.949 486.986 417.277V415.177C485.364 412.6 487.367 411.121 490.134 410.405H634.412C637.37 411.36 636.892 412.839 639.611 415.177V417.277Z" fill="#E9EDFB"/>
<path d="M639.611 436.127C636.892 438.704 637.37 441.281 634.412 439.038H490.134C487.415 441.09 485.364 439.038 486.986 436.127V434.266C485.364 431.689 487.367 430.639 490.134 429.494H634.412C637.37 430.591 636.892 431.641 639.611 434.266V436.127Z" fill="#E9EDFB"/>
<path d="M639.611 454.929C636.893 457.554 637.37 460.513 634.413 462.899H490.134C487.32 460.179 485.364 457.745 486.986 454.929V453.068C486.564 452.594 486.315 451.992 486.279 451.358C486.242 450.725 486.421 450.098 486.785 449.578C487.15 449.059 487.678 448.678 488.286 448.497C488.894 448.317 489.545 448.347 490.134 448.582H634.413C637.37 447.676 636.893 450.443 639.611 453.068V454.929Z" fill="#E9EDFB"/>
<path d="M560.295 473.731C560.295 476.07 560.295 477.215 557.767 477.215H491.28C488.609 477.215 486.987 476.07 486.987 473.731V472.014C486.987 470.874 487.439 469.782 488.244 468.976C489.049 468.171 490.141 467.719 491.28 467.719H557.671C560.342 467.719 560.199 469.818 560.199 472.014L560.295 473.731Z" fill="#E9EDFB"/>
<path d="M639.612 274.971C639.509 276.566 639.093 278.125 638.387 279.559C637.682 280.994 636.701 282.275 635.501 283.329C634.301 284.384 632.904 285.192 631.392 285.706C629.879 286.221 628.281 286.433 626.687 286.329H148.349C141.004 286.329 134.041 281.271 134.041 274.971V168.839C134.041 162.54 141.052 157.481 148.349 157.481H626.639C628.233 157.371 629.833 157.576 631.348 158.085C632.863 158.593 634.263 159.396 635.468 160.446C636.673 161.497 637.659 162.774 638.37 164.206C639.081 165.638 639.503 167.196 639.612 168.791V168.791V274.971Z" fill="url(#paint0_linear_396:78)"/>
<path d="M296.4 214.2V231H292.512V224.112H284.88V231H280.992V214.2H284.88V220.824H292.512V214.2H296.4ZM306.255 231.192C304.895 231.192 303.671 230.912 302.583 230.352C301.511 229.776 300.671 228.984 300.063 227.976C299.455 226.968 299.151 225.824 299.151 224.544C299.151 223.264 299.455 222.12 300.063 221.112C300.671 220.104 301.511 219.32 302.583 218.76C303.671 218.184 304.895 217.896 306.255 217.896C307.615 217.896 308.831 218.184 309.903 218.76C310.975 219.32 311.815 220.104 312.423 221.112C313.031 222.12 313.335 223.264 313.335 224.544C313.335 225.824 313.031 226.968 312.423 227.976C311.815 228.984 310.975 229.776 309.903 230.352C308.831 230.912 307.615 231.192 306.255 231.192ZM306.255 228.12C307.215 228.12 307.999 227.8 308.607 227.16C309.231 226.504 309.543 225.632 309.543 224.544C309.543 223.456 309.231 222.592 308.607 221.952C307.999 221.296 307.215 220.968 306.255 220.968C305.295 220.968 304.503 221.296 303.879 221.952C303.255 222.592 302.943 223.456 302.943 224.544C302.943 225.632 303.255 226.504 303.879 227.16C304.503 227.8 305.295 228.12 306.255 228.12ZM336.222 218.088L331.542 231H327.942L325.038 222.984L322.038 231H318.438L313.782 218.088H317.31L320.358 226.824L323.526 218.088H326.694L329.766 226.824L332.91 218.088H336.222ZM357.911 213.192V231H354.335V229.512C353.407 230.632 352.063 231.192 350.303 231.192C349.087 231.192 347.983 230.92 346.991 230.376C346.015 229.832 345.247 229.056 344.687 228.048C344.127 227.04 343.847 225.872 343.847 224.544C343.847 223.216 344.127 222.048 344.687 221.04C345.247 220.032 346.015 219.256 346.991 218.712C347.983 218.168 349.087 217.896 350.303 217.896C351.951 217.896 353.239 218.416 354.167 219.456V213.192H357.911ZM350.951 228.12C351.895 228.12 352.679 227.8 353.303 227.16C353.927 226.504 354.239 225.632 354.239 224.544C354.239 223.456 353.927 222.592 353.303 221.952C352.679 221.296 351.895 220.968 350.951 220.968C349.991 220.968 349.199 221.296 348.575 221.952C347.951 222.592 347.639 223.456 347.639 224.544C347.639 225.632 347.951 226.504 348.575 227.16C349.199 227.8 349.991 228.12 350.951 228.12ZM367.52 231.192C366.16 231.192 364.936 230.912 363.848 230.352C362.776 229.776 361.936 228.984 361.328 227.976C360.72 226.968 360.416 225.824 360.416 224.544C360.416 223.264 360.72 222.12 361.328 221.112C361.936 220.104 362.776 219.32 363.848 218.76C364.936 218.184 366.16 217.896 367.52 217.896C368.88 217.896 370.096 218.184 371.168 218.76C372.24 219.32 373.08 220.104 373.688 221.112C374.296 222.12 374.6 223.264 374.6 224.544C374.6 225.824 374.296 226.968 373.688 227.976C373.08 228.984 372.24 229.776 371.168 230.352C370.096 230.912 368.88 231.192 367.52 231.192ZM367.52 228.12C368.48 228.12 369.264 227.8 369.872 227.16C370.496 226.504 370.808 225.632 370.808 224.544C370.808 223.456 370.496 222.592 369.872 221.952C369.264 221.296 368.48 220.968 367.52 220.968C366.56 220.968 365.768 221.296 365.144 221.952C364.52 222.592 364.208 223.456 364.208 224.544C364.208 225.632 364.52 226.504 365.144 227.16C365.768 227.8 366.56 228.12 367.52 228.12ZM396.716 218.088L390.884 231.792C390.292 233.28 389.556 234.328 388.676 234.936C387.812 235.544 386.764 235.848 385.532 235.848C384.86 235.848 384.196 235.744 383.54 235.536C382.884 235.328 382.348 235.04 381.932 234.672L383.3 232.008C383.588 232.264 383.916 232.464 384.284 232.608C384.668 232.752 385.044 232.824 385.412 232.824C385.924 232.824 386.34 232.696 386.66 232.44C386.98 232.2 387.268 231.792 387.524 231.216L387.572 231.096L381.98 218.088H385.844L389.468 226.848L393.116 218.088H396.716ZM404.036 231.192C402.676 231.192 401.452 230.912 400.364 230.352C399.292 229.776 398.452 228.984 397.844 227.976C397.236 226.968 396.932 225.824 396.932 224.544C396.932 223.264 397.236 222.12 397.844 221.112C398.452 220.104 399.292 219.32 400.364 218.76C401.452 218.184 402.676 217.896 404.036 217.896C405.396 217.896 406.612 218.184 407.684 218.76C408.756 219.32 409.596 220.104 410.204 221.112C410.812 222.12 411.116 223.264 411.116 224.544C411.116 225.824 410.812 226.968 410.204 227.976C409.596 228.984 408.756 229.776 407.684 230.352C406.612 230.912 405.396 231.192 404.036 231.192ZM404.036 228.12C404.996 228.12 405.78 227.8 406.388 227.16C407.012 226.504 407.324 225.632 407.324 224.544C407.324 223.456 407.012 222.592 406.388 221.952C405.78 221.296 404.996 220.968 404.036 220.968C403.076 220.968 402.284 221.296 401.66 221.952C401.036 222.592 400.724 223.456 400.724 224.544C400.724 225.632 401.036 226.504 401.66 227.16C402.284 227.8 403.076 228.12 404.036 228.12ZM426.627 218.088V231H423.075V229.464C422.579 230.024 421.987 230.456 421.299 230.76C420.611 231.048 419.867 231.192 419.067 231.192C417.371 231.192 416.027 230.704 415.035 229.728C414.043 228.752 413.547 227.304 413.547 225.384V218.088H417.291V224.832C417.291 226.912 418.163 227.952 419.907 227.952C420.803 227.952 421.523 227.664 422.067 227.088C422.611 226.496 422.883 225.624 422.883 224.472V218.088H426.627ZM440.996 218.376H444.308V221.256H441.092V231H437.348V221.256H435.356V218.376H437.348V217.8C437.348 216.328 437.78 215.16 438.644 214.296C439.524 213.432 440.756 213 442.34 213C442.9 213 443.428 213.064 443.924 213.192C444.436 213.304 444.86 213.472 445.196 213.696L444.212 216.408C443.78 216.104 443.276 215.952 442.7 215.952C441.564 215.952 440.996 216.576 440.996 217.824V218.376ZM458.657 224.592C458.657 224.64 458.633 224.976 458.585 225.6H448.817C448.993 226.4 449.409 227.032 450.065 227.496C450.721 227.96 451.537 228.192 452.513 228.192C453.185 228.192 453.777 228.096 454.289 227.904C454.817 227.696 455.305 227.376 455.753 226.944L457.745 229.104C456.529 230.496 454.753 231.192 452.417 231.192C450.961 231.192 449.673 230.912 448.553 230.352C447.433 229.776 446.569 228.984 445.961 227.976C445.353 226.968 445.049 225.824 445.049 224.544C445.049 223.28 445.345 222.144 445.937 221.136C446.545 220.112 447.369 219.32 448.409 218.76C449.465 218.184 450.641 217.896 451.937 217.896C453.201 217.896 454.345 218.168 455.369 218.712C456.393 219.256 457.193 220.04 457.769 221.064C458.361 222.072 458.657 223.248 458.657 224.592ZM451.961 220.728C451.113 220.728 450.401 220.968 449.825 221.448C449.249 221.928 448.897 222.584 448.769 223.416H455.129C455.001 222.6 454.649 221.952 454.073 221.472C453.497 220.976 452.793 220.728 451.961 220.728ZM473.798 224.592C473.798 224.64 473.774 224.976 473.726 225.6H463.958C464.134 226.4 464.55 227.032 465.206 227.496C465.862 227.96 466.678 228.192 467.654 228.192C468.326 228.192 468.918 228.096 469.43 227.904C469.958 227.696 470.446 227.376 470.894 226.944L472.886 229.104C471.67 230.496 469.894 231.192 467.558 231.192C466.102 231.192 464.814 230.912 463.694 230.352C462.574 229.776 461.71 228.984 461.102 227.976C460.494 226.968 460.19 225.824 460.19 224.544C460.19 223.28 460.486 222.144 461.078 221.136C461.686 220.112 462.51 219.32 463.55 218.76C464.606 218.184 465.782 217.896 467.078 217.896C468.342 217.896 469.486 218.168 470.51 218.712C471.534 219.256 472.334 220.04 472.91 221.064C473.502 222.072 473.798 223.248 473.798 224.592ZM467.102 220.728C466.254 220.728 465.542 220.968 464.966 221.448C464.39 221.928 464.038 222.584 463.91 223.416H470.27C470.142 222.6 469.79 221.952 469.214 221.472C468.638 220.976 467.934 220.728 467.102 220.728ZM476.291 213.192H480.035V231H476.291V213.192ZM493.786 225.168C493.786 224.336 493.97 223.648 494.338 223.104C494.722 222.56 495.274 221.96 495.994 221.304C496.522 220.824 496.906 220.424 497.146 220.104C497.402 219.768 497.53 219.392 497.53 218.976C497.53 218.384 497.29 217.92 496.81 217.584C496.346 217.232 495.722 217.056 494.938 217.056C494.186 217.056 493.514 217.216 492.922 217.536C492.346 217.84 491.858 218.272 491.458 218.832L488.554 217.128C489.226 216.104 490.13 215.312 491.266 214.752C492.418 214.192 493.778 213.912 495.346 213.912C497.186 213.912 498.658 214.304 499.762 215.088C500.882 215.872 501.442 216.96 501.442 218.352C501.442 219.008 501.33 219.584 501.106 220.08C500.898 220.576 500.634 221 500.314 221.352C500.01 221.688 499.61 222.08 499.114 222.528C498.522 223.056 498.09 223.504 497.818 223.872C497.546 224.224 497.41 224.656 497.41 225.168H493.786ZM495.61 231.192C494.954 231.192 494.402 230.984 493.954 230.568C493.522 230.136 493.306 229.616 493.306 229.008C493.306 228.4 493.522 227.896 493.954 227.496C494.386 227.08 494.938 226.872 495.61 226.872C496.282 226.872 496.834 227.08 497.266 227.496C497.698 227.896 497.914 228.4 497.914 229.008C497.914 229.616 497.69 230.136 497.242 230.568C496.81 230.984 496.266 231.192 495.61 231.192Z" fill="white"/>
<path d="M136.881 118.8H148.797C151.557 118.8 154.005 119.316 156.141 120.348C158.277 121.38 159.933 122.844 161.109 124.74C162.285 126.636 162.873 128.856 162.873 131.4C162.873 133.944 162.285 136.164 161.109 138.06C159.933 139.956 158.277 141.42 156.141 142.452C154.005 143.484 151.557 144 148.797 144H136.881V118.8ZM148.509 138.312C150.669 138.312 152.397 137.7 153.693 136.476C155.013 135.252 155.673 133.56 155.673 131.4C155.673 129.24 155.013 127.548 153.693 126.324C152.397 125.1 150.669 124.488 148.509 124.488H144.009V138.312H148.509ZM185.82 124.488V144H179.304V141.912C178.584 142.704 177.72 143.304 176.712 143.712C175.704 144.12 174.636 144.324 173.508 144.324C170.988 144.324 168.972 143.58 167.46 142.092C165.972 140.604 165.228 138.372 165.228 135.396V124.488H172.068V134.28C172.068 135.744 172.344 136.812 172.896 137.484C173.448 138.156 174.252 138.492 175.308 138.492C176.388 138.492 177.264 138.12 177.936 137.376C178.632 136.608 178.98 135.444 178.98 133.884V124.488H185.82ZM209.781 124.488L201.357 144.792C200.373 147.192 199.173 148.872 197.757 149.832C196.341 150.816 194.613 151.308 192.573 151.308C191.541 151.308 190.497 151.14 189.441 150.804C188.409 150.492 187.569 150.072 186.921 149.544L189.297 144.756C189.681 145.116 190.137 145.392 190.665 145.584C191.217 145.8 191.769 145.908 192.321 145.908C192.969 145.908 193.497 145.776 193.905 145.512C194.337 145.248 194.697 144.828 194.985 144.252L186.633 124.488H193.653L198.441 136.404L203.265 124.488H209.781Z" fill="#339AF0"/>
<path d="M218.002 124.308V129.852H229.126V135.36H218.002V144H210.874V118.8H230.638V124.308H218.002ZM253.203 138.492V144H232.971V118.8H252.735V124.308H240.027V128.556H251.223V133.884H240.027V138.492H253.203Z" fill="#4933F0"/>
<defs>
<linearGradient id="paint0_linear_396:78" x1="134.041" y1="221.905" x2="639.612" y2="221.905" gradientUnits="userSpaceOnUse">
<stop stop-color="#4B45BD"/>
<stop offset="1" stop-color="#58CAEA"/>
</linearGradient>
</defs>
</svg>
