<?xml version="1.0" encoding="utf-8"?>
<!-- Generator: Adobe Illustrator 25.3.1, SVG Export Plug-In . SVG Version: 6.00 Build 0)  -->
<svg version="1.1" id="Layer_1" xmlns="http://www.w3.org/2000/svg" xmlns:xlink="http://www.w3.org/1999/xlink" x="0px" y="0px"
	 viewBox="0 0 783 754" style="enable-background:new 0 0 783 754;" xml:space="preserve">
<style type="text/css">
	.st0{fill:#BAC5F4;}
	.st1{fill:#FFFFFF;}
	.st2{fill:#F8F8FF;}
	.st3{fill:#FA5F5D;}
	.st4{fill:#FDBC4E;}
	.st5{fill:#37CD58;}
	.st6{fill:url(#SVGID_1_);}
	.st7{fill:#339AF0;}
	.st8{fill:#4933F0;}
</style>
<g id="Layer_2_1_">
	<g id="Layer_1-2">
		<path class="st0" d="M29.1,610.8h726.4c0,0,27.1-1.4,27.1-33.1v-62.4H0.5v76.1c3.9,12.1,15.4,20,28.1,19.4"/>
		<path class="st0" d="M0.5,43L0,539.2l782.7-7.2V28.6c0,0,4.8-28.6-25.7-28.6H30C30,0-2.9,0,0.5,43.4"/>
		<path class="st0" d="M329.6,744V606.1l114.4,4.8V732L329.6,744z"/>
		<path class="st0" d="M147.9,730.1l475.7,0.1l0.3,23.7h-476V730.1z"/>
		<path class="st1" d="M384.6,549.3c12.6,0,22.9,10.3,22.9,22.9c0,12.6-10.3,22.9-22.9,22.9c-12.6,0-22.9-10.3-22.9-22.9
			c0-6.1,2.4-11.9,6.7-16.2C372.7,551.7,378.5,549.3,384.6,549.3"/>
		<path class="st2" d="M758.8,23.9H24.3v482h734.5V23.9z"/>
		<path class="st3" d="M61.2,48.7c6.3,0,11.4,5.2,11.4,11.5s-5.2,11.4-11.5,11.4s-11.4-5.2-11.4-11.5c0-3,1.2-6,3.4-8.1
			C55.2,49.9,58.2,48.6,61.2,48.7"/>
		<path class="st4" d="M100.3,48.7c6.3,0,11.4,5.1,11.4,11.4s-5.1,11.4-11.4,11.4c-6.3,0-11.4-5.1-11.4-11.4c0-4.6,2.8-8.8,7.1-10.6
			C97.3,49,98.8,48.7,100.3,48.7"/>
		<path class="st5" d="M141.3,48.7c6.3,0,11.4,5.2,11.4,11.5s-5.2,11.4-11.5,11.4c-6.3,0-11.4-5.2-11.4-11.5c0-3,1.2-6,3.4-8.1
			C135.4,49.9,138.3,48.6,141.3,48.7"/>
		
			<linearGradient id="SVGID_1_" gradientUnits="userSpaceOnUse" x1="134" y1="257.9178" x2="639.6" y2="257.9178" gradientTransform="matrix(1 0 0 1 0 -36)">
			<stop  offset="0" style="stop-color:#4B45BD"/>
			<stop  offset="1" style="stop-color:#58CAEA"/>
		</linearGradient>
		<path class="st6" d="M639.6,275c-0.3,4.9-3.6,9.1-8.2,10.7c-1.5,0.5-3.1,0.7-4.7,0.6H148.3c-7.3,0-14.3-5.1-14.3-11.4V168.8
			c0-6.3,7-11.4,14.3-11.4h478.3c1.6-0.1,3.2,0.1,4.7,0.6c3.1,1,5.6,3.2,7,6.1c0.7,1.4,1.1,3,1.2,4.6l0,0L639.6,275z"/>
		<path class="st1" d="M296.4,214.2V231h-3.9v-6.9h-7.6v6.9H281v-16.8h3.9v6.6h7.6v-6.6H296.4z M306.2,231.2c-1.3,0-2.5-0.3-3.7-0.8
			c-1-0.5-1.9-1.4-2.5-2.4c-1.2-2.1-1.2-4.7,0-6.9c0.6-1,1.5-1.8,2.5-2.4c1.1-0.6,2.4-0.9,3.7-0.9c1.3,0,2.5,0.3,3.6,0.9
			c1,0.5,1.9,1.3,2.5,2.4c1.2,2.1,1.2,4.7,0,6.9c-0.6,1-1.5,1.8-2.5,2.4C308.8,230.9,307.5,231.2,306.2,231.2L306.2,231.2z
			 M306.2,228.1c0.9,0,1.7-0.3,2.4-1c0.6-0.7,1-1.7,0.9-2.6c0-1-0.3-1.9-0.9-2.6c-0.6-0.7-1.5-1-2.4-1c-0.9,0-1.8,0.3-2.4,1
			c-0.6,0.7-1,1.6-0.9,2.6c0,1,0.3,1.9,0.9,2.6C304.5,227.8,305.3,228.1,306.2,228.1L306.2,228.1z M336.2,218.1l-4.7,12.9h-3.6
			l-2.9-8l-3,8h-3.6l-4.6-12.9h3.5l3,8.7l3.2-8.7h3.2l3.1,8.7l3.1-8.7L336.2,218.1z M357.9,213.2V231h-3.6v-1.5
			c-1,1.1-2.5,1.8-4,1.7c-1.2,0-2.3-0.3-3.3-0.8c-1-0.5-1.8-1.4-2.3-2.3c-1.1-2.2-1.1-4.8,0-7c0.5-1,1.3-1.8,2.3-2.3
			c1-0.5,2.2-0.8,3.3-0.8c1.5-0.1,2.9,0.5,3.9,1.6v-6.3L357.9,213.2z M350.9,228.2c0.9,0,1.7-0.3,2.4-1c0.6-0.7,1-1.7,0.9-2.6
			c0-1-0.3-1.9-0.9-2.6c-1.3-1.3-3.4-1.3-4.7,0c0,0,0,0,0,0c-0.7,0.7-1,1.6-0.9,2.6c0,1,0.3,1.9,0.9,2.6
			C349.2,227.8,350,228.2,350.9,228.2L350.9,228.2z M367.5,231.2c-1.3,0-2.5-0.3-3.7-0.8c-3.2-1.8-4.4-5.9-2.6-9.1
			c0,0,0-0.1,0.1-0.1c0.6-1,1.5-1.8,2.5-2.4c1.1-0.6,2.4-0.9,3.7-0.9c1.3,0,2.5,0.3,3.6,0.9c1,0.5,1.9,1.3,2.5,2.4
			c1.9,3.1,0.9,7.1-2.2,9c-0.1,0.1-0.2,0.1-0.4,0.2C370,230.9,368.8,231.2,367.5,231.2L367.5,231.2z M367.5,228.2
			c0.9,0,1.8-0.3,2.4-1c0.6-0.7,1-1.7,0.9-2.6c0-1-0.3-1.9-0.9-2.6c-0.6-0.7-1.5-1-2.4-1c-0.9,0-1.8,0.3-2.4,1
			c-0.7,0.7-1,1.6-0.9,2.6c0,1,0.3,1.9,0.9,2.6C365.7,227.8,366.6,228.2,367.5,228.2L367.5,228.2z M396.7,218.2l-5.8,13.7
			c-0.4,1.2-1.2,2.3-2.2,3.1c-0.9,0.6-2,0.9-3.1,0.9c-0.7,0-1.4-0.1-2-0.3c-0.6-0.2-1.1-0.5-1.6-0.9l1.4-2.7c0.3,0.3,0.6,0.5,1,0.6
			c0.4,0.1,0.7,0.2,1.1,0.2c0.4,0,0.9-0.1,1.2-0.4c0.4-0.3,0.7-0.7,0.9-1.2l0-0.1l-5.6-13h3.9l3.6,8.8l3.6-8.8L396.7,218.2z
			 M404,231.3c-1.3,0-2.5-0.3-3.7-0.8c-3.2-1.8-4.4-5.9-2.6-9.1c0,0,0-0.1,0.1-0.1c0.6-1,1.5-1.8,2.5-2.4c1.1-0.6,2.4-0.9,3.7-0.9
			c1.3,0,2.5,0.3,3.6,0.9c1,0.5,1.9,1.3,2.5,2.4c1.9,3.1,0.9,7.1-2.2,9c-0.1,0.1-0.2,0.1-0.4,0.2C406.5,231,405.3,231.2,404,231.3
			L404,231.3z M404,228.2c0.9,0,1.7-0.3,2.4-1c0.6-0.7,1-1.7,0.9-2.6c0-1-0.3-1.9-0.9-2.6c-0.6-0.7-1.5-1-2.4-1
			c-0.9,0-1.8,0.3-2.4,1c-0.6,0.7-1,1.6-0.9,2.6c0,1,0.3,1.9,0.9,2.6C402.3,227.8,403.1,228.2,404,228.2L404,228.2z M426.6,218.2
			V231h-3.5v-1.5c-0.5,0.6-1.1,1-1.8,1.3c-0.7,0.3-1.5,0.4-2.2,0.4c-1.5,0.1-2.9-0.5-4-1.5c-1.1-1.2-1.6-2.8-1.5-4.4v-7.3h3.7v6.7
			c0,2.1,0.9,3.1,2.6,3.1c0.8,0,1.6-0.3,2.2-0.9c0.6-0.7,0.9-1.7,0.8-2.6v-6.4L426.6,218.2z M441,218.5h3.3v2.9h-3.2v9.6h-3.8v-9.7
			h-2v-2.9h2v-0.6c-0.1-1.3,0.4-2.6,1.3-3.5c1-0.9,2.3-1.4,3.7-1.3c0.5,0,1.1,0.1,1.6,0.2c0.5,0.1,0.9,0.3,1.3,0.5l-1,2.7
			c-0.4-0.3-1-0.5-1.5-0.5c-1.1,0-1.7,0.6-1.7,1.9L441,218.5z M458.6,224.7c0,0,0,0.4-0.1,1h-9.8c0.2,0.8,0.6,1.5,1.2,1.9
			c0.7,0.5,1.6,0.7,2.5,0.7c0.6,0,1.2-0.1,1.8-0.3c0.6-0.2,1.1-0.6,1.5-1l2,2.2c-1.4,1.5-3.3,2.2-5.3,2.1c-1.3,0-2.7-0.3-3.9-0.8
			c-1.1-0.5-2-1.4-2.6-2.4c-1.2-2.1-1.2-4.7,0-6.8c0.6-1,1.4-1.8,2.5-2.4c2.2-1.1,4.8-1.1,7,0c1,0.5,1.8,1.3,2.4,2.4
			c0.6,1.1,0.8,2.2,0.8,3.4L458.6,224.7z M451.9,220.8c-0.8,0-1.5,0.2-2.1,0.7c-0.6,0.5-1,1.2-1.1,2h6.4c-0.1-0.8-0.5-1.5-1-1.9
			c-0.6-0.5-1.3-0.9-2.1-0.9L451.9,220.8z M473.8,224.7c0,0,0,0.4-0.1,1h-9.8c0.2,0.8,0.6,1.5,1.2,1.9c0.7,0.5,1.6,0.7,2.5,0.7
			c0.6,0,1.2-0.1,1.8-0.3c0.6-0.2,1.1-0.6,1.5-1l2,2.2c-1.4,1.5-3.3,2.2-5.3,2.1c-1.3,0-2.7-0.3-3.9-0.8c-1.1-0.5-2-1.3-2.6-2.4
			c-1.2-2.1-1.2-4.7,0-6.8c0.6-1,1.4-1.8,2.5-2.4c2.2-1.1,4.8-1.1,7,0c1,0.5,1.8,1.3,2.4,2.4c0.6,1.1,0.9,2.2,0.8,3.4L473.8,224.7z
			 M467.1,220.8c-0.8,0-1.5,0.2-2.1,0.7c-0.6,0.5-1,1.2-1.1,2h6.4c-0.1-0.8-0.5-1.5-1-1.9c-0.6-0.5-1.3-0.9-2.1-0.9L467.1,220.8z
			 M476.3,213.3h3.7V231h-3.8L476.3,213.3z M493.8,225.3c0-0.7,0.2-1.5,0.5-2.1c0.5-0.7,1-1.3,1.7-1.8c0.4-0.4,0.8-0.8,1.1-1.2
			c0.3-0.3,0.4-0.7,0.4-1.1c0-0.6-0.3-1.1-0.7-1.4c-0.5-0.4-1.2-0.6-1.9-0.5c-1.4,0-2.7,0.6-3.5,1.8l-2.9-1.7c0.7-1,1.6-1.9,2.7-2.4
			c1.3-0.6,2.7-0.9,4.1-0.8c1.6-0.1,3.1,0.3,4.4,1.2c1.1,0.7,1.7,2,1.7,3.3c0,0.6-0.1,1.2-0.3,1.7c-0.2,0.5-0.5,0.9-0.8,1.3
			c-0.3,0.3-0.7,0.7-1.2,1.2c-0.5,0.4-0.9,0.9-1.3,1.3c-0.3,0.4-0.4,0.8-0.4,1.3L493.8,225.3z M495.6,231.3c-0.6,0-1.2-0.2-1.6-0.6
			c-0.4-0.4-0.7-1-0.6-1.6c0-0.6,0.2-1.1,0.6-1.5c0.9-0.8,2.4-0.8,3.3,0c0.4,0.4,0.7,0.9,0.6,1.5c0,0.6-0.2,1.2-0.7,1.6
			c-0.5,0.4-1,0.6-1.6,0.5L495.6,231.3z"/>
		<path class="st7" d="M136.9,118.8h11.9c2.5,0,5,0.5,7.3,1.6c2.1,0.9,3.8,2.5,5,4.4c2.4,4.1,2.4,9.2,0,13.3c-1.2,1.9-2.9,3.4-5,4.4
			c-2.3,1.1-4.8,1.6-7.3,1.6h-11.9V118.8z M148.5,138.3c1.9,0.1,3.8-0.6,5.2-1.8c2.6-2.9,2.6-7.3,0-10.2c-1.4-1.3-3.3-1.9-5.2-1.8
			H144v13.8H148.5z M185.8,124.5V144h-6.5v-2.1c-0.7,0.8-1.6,1.4-2.6,1.8c-1,0.4-2.1,0.6-3.2,0.6c-2.2,0.1-4.4-0.7-6.1-2.2
			c-1.5-1.5-2.2-3.7-2.2-6.7v-10.9h6.8v9.8c-0.1,1.1,0.2,2.3,0.8,3.2c0.6,0.7,1.5,1.1,2.4,1c1,0,2-0.4,2.6-1.1c0.8-1,1.1-2.2,1-3.5
			v-9.4L185.8,124.5z M209.8,124.5l-8.4,20.3c-0.7,2-1.9,3.7-3.6,5c-1.5,1-3.3,1.5-5.2,1.5c-1.1,0-2.1-0.2-3.1-0.5
			c-0.9-0.3-1.8-0.7-2.5-1.3l2.4-4.8c0.4,0.4,0.9,0.6,1.4,0.8c0.5,0.2,1.1,0.3,1.6,0.3c0.6,0,1.1-0.1,1.6-0.4
			c0.5-0.3,0.8-0.7,1.1-1.3l-8.4-19.8h7l4.8,11.9l4.8-11.9L209.8,124.5z"/>
		<path class="st8" d="M218,124.3v5.5h11.1v5.5H218v8.6h-7.1v-25.2h19.8v5.5L218,124.3z M253.2,138.5v5.5H233v-25.2h19.8v5.5H240
			v4.2h11.2v5.3H240v4.6L253.2,138.5z"/>
	</g>
</g>
</svg>
