<svg width="783" height="754" viewBox="0 0 783 754" fill="none" xmlns="http://www.w3.org/2000/svg">
<path d="M29.1095 610.835H755.559C755.559 610.835 782.697 609.404 782.697 577.764V515.392H0.492188V591.46C2.39355 597.331 6.17625 602.412 11.2548 605.914C16.3334 609.417 22.4245 611.146 28.5849 610.835" fill="#BAC5F4"/>
<path d="M0.49344 42.9494L0.0166016 539.253L782.699 532.095V28.6329C782.699 28.6329 787.468 0 756.991 0H30.0169C30.0169 0 -2.84524 -1.82043e-05 0.49344 43.3788" fill="#BAC5F4"/>
<path d="M329.592 743.978V606.063L444.061 610.835V732.048L329.592 743.978Z" fill="#BAC5F4"/>
<path d="M147.872 730.139L623.539 730.282L623.825 754H147.872V730.139Z" fill="#BAC5F4"/>
<path d="M384.584 549.275C389.112 549.275 393.538 550.618 397.303 553.135C401.068 555.652 404.002 559.23 405.735 563.415C407.468 567.601 407.921 572.206 407.038 576.65C406.155 581.093 403.974 585.175 400.772 588.378C397.57 591.582 393.491 593.763 389.05 594.647C384.609 595.531 380.006 595.077 375.823 593.344C371.639 591.61 368.064 588.674 365.548 584.907C363.033 581.14 361.69 576.711 361.69 572.181C361.69 566.106 364.102 560.28 368.395 555.984C372.689 551.688 378.512 549.275 384.584 549.275" fill="white"/>
<path d="M758.85 23.8607H24.3406V505.848H758.85V23.8607Z" fill="#F8F8FF"/>
<path d="M61.2082 48.6759C63.4722 48.6759 65.6854 49.3475 67.5678 50.606C69.4502 51.8645 70.9173 53.6532 71.7837 55.746C72.65 57.8388 72.8768 60.1417 72.4352 62.3634C71.9935 64.5851 70.9031 66.6259 69.3022 68.2276C67.7014 69.8294 65.6621 70.9202 63.4416 71.3621C61.2211 71.804 58.9195 71.5773 56.8279 70.7104C54.7362 69.8435 52.9485 68.3756 51.6907 66.4921C50.4329 64.6086 49.7615 62.3943 49.7615 60.129C49.7615 57.0915 50.9675 54.1783 53.1142 52.0304C55.2609 49.8826 58.1723 48.6759 61.2082 48.6759" fill="#FA5F5D"/>
<path d="M100.32 48.6759C102.584 48.6759 104.797 49.3475 106.679 50.606C108.562 51.8645 110.029 53.6532 110.895 55.746C111.761 57.8388 111.988 60.1417 111.547 62.3634C111.105 64.5851 110.014 66.6259 108.414 68.2276C106.813 69.8294 104.773 70.9202 102.552 71.3621C100.332 71.804 98.0306 71.5773 95.939 70.7104C93.8473 69.8435 92.0593 68.3756 90.8015 66.4921C89.5437 64.6086 88.8726 62.3943 88.8726 60.129C88.8726 58.625 89.1683 57.1356 89.7436 55.746C90.3188 54.3565 91.162 53.094 92.225 52.0304C93.2879 50.9669 94.5502 50.1232 95.939 49.5477C97.3278 48.9721 98.8164 48.6759 100.32 48.6759" fill="#FDBC4E"/>
<path d="M141.337 48.6759C143.601 48.6759 145.814 49.3475 147.696 50.606C149.579 51.8645 151.046 53.6532 151.912 55.746C152.779 57.8388 153.006 60.1417 152.564 62.3634C152.122 64.5851 151.032 66.6259 149.431 68.2276C147.83 69.8294 145.79 70.9202 143.57 71.3621C141.349 71.804 139.048 71.5773 136.956 70.7104C134.865 69.8435 133.077 68.3756 131.819 66.4921C130.561 64.6086 129.89 62.3943 129.89 60.129C129.89 57.0915 131.096 54.1783 133.242 52.0304C135.389 49.8826 138.301 48.6759 141.337 48.6759" fill="#37CD58"/>
<path d="M463.138 398.475C462.688 399.535 461.996 400.475 461.118 401.221C460.24 401.967 459.201 402.497 458.082 402.77C457.796 402.77 457.51 402.77 457.224 400.861H312.993C310.036 402.77 305.648 401.099 305.743 398.475V396.613C305.743 393.989 310.036 391.841 312.993 391.316H457.224C458.332 391.523 459.35 392.063 460.143 392.865C460.936 393.667 461.464 394.691 461.659 395.802C461.659 396.089 461.659 396.327 463.138 396.613V398.475Z" fill="#E9EDFB"/>
<path d="M463.138 417.277C462.715 418.438 462.016 419.478 461.102 420.31C460.189 421.141 459.087 421.738 457.892 422.049C457.892 422.049 457.462 422.049 457.224 419.997H312.993C310.036 422.097 305.648 419.997 305.743 417.325V415.177C305.743 412.6 310.036 411.121 312.993 410.405H457.224C458.484 410.753 459.659 411.356 460.676 412.177C461.694 412.997 462.531 414.019 463.138 415.177V417.277Z" fill="#E9EDFB"/>
<path d="M463.139 436.127C462.685 437.418 461.907 438.57 460.88 439.472C459.852 440.375 458.61 440.998 457.272 441.281C457.195 440.535 457.195 439.784 457.272 439.038H313.041C312.399 439.457 311.666 439.715 310.903 439.79C310.14 439.865 309.371 439.755 308.66 439.47C307.948 439.184 307.316 438.731 306.817 438.149C306.318 437.567 305.966 436.874 305.792 436.127V434.266C305.792 431.689 310.084 430.639 313.041 429.494H457.272C458.532 429.841 459.707 430.444 460.725 431.265C461.742 432.086 462.58 433.107 463.186 434.266L463.139 436.127Z" fill="#E9EDFB"/>
<path d="M463.138 454.929C461.738 457.966 459.724 460.68 457.224 462.899H312.993C310.036 460.513 305.648 457.554 305.743 454.929V453.068C305.743 450.443 310.036 447.676 312.993 448.582H457.224C457.811 448.441 458.424 448.447 459.009 448.6C459.593 448.753 460.132 449.048 460.575 449.459C461.018 449.869 461.354 450.383 461.551 450.954C461.749 451.526 461.802 452.137 461.707 452.734C461.707 452.734 461.707 452.734 463.138 453.068V454.929Z" fill="#E9EDFB"/>
<path d="M383.106 473.731C383.106 476.07 381.532 477.215 378.813 477.215H312.421C309.75 477.215 305.792 476.07 305.792 473.731V472.014C305.792 469.675 309.75 467.719 312.421 467.719H378.861C379.424 467.719 379.983 467.83 380.504 468.046C381.024 468.261 381.498 468.578 381.896 468.976C382.295 469.375 382.611 469.849 382.827 470.37C383.042 470.891 383.153 471.45 383.153 472.014L383.106 473.731Z" fill="#E9EDFB"/>
<path d="M639.612 398.475C636.893 401.099 637.37 402.77 634.413 400.861H490.134C487.702 402.96 485.365 401.195 485.365 398.761C485.365 398.761 485.365 398.761 486.986 398.475V396.613C485.508 394.084 487.606 391.841 490.134 391.316H634.413C637.37 392.08 636.893 393.989 639.612 396.613V398.475Z" fill="#E9EDFB"/>
<path d="M639.611 417.277C636.893 419.902 637.37 422.049 634.413 419.949H490.134C487.511 422.049 485.364 419.949 486.986 417.277V415.177C485.364 412.6 487.368 411.121 490.134 410.405H634.413C637.37 411.36 636.893 412.839 639.611 415.177V417.277Z" fill="#E9EDFB"/>
<path d="M639.611 436.127C636.893 438.704 637.37 441.281 634.413 439.038H490.134C487.415 441.09 485.364 439.038 486.986 436.127V434.266C485.364 431.689 487.368 430.639 490.134 429.494H634.413C637.37 430.591 636.893 431.641 639.611 434.266V436.127Z" fill="#E9EDFB"/>
<path d="M639.611 454.929C636.893 457.554 637.37 460.513 634.413 462.899H490.134C487.32 460.179 485.364 457.745 486.986 454.929V453.068C486.564 452.594 486.315 451.992 486.278 451.358C486.242 450.725 486.42 450.098 486.785 449.578C487.149 449.059 487.678 448.678 488.286 448.497C488.894 448.317 489.545 448.347 490.134 448.582H634.413C637.37 447.676 636.893 450.443 639.611 453.068V454.929Z" fill="#E9EDFB"/>
<path d="M560.295 473.731C560.295 476.07 560.295 477.215 557.767 477.215H491.28C488.609 477.215 486.987 476.07 486.987 473.731V472.014C486.987 470.874 487.439 469.782 488.244 468.976C489.049 468.171 490.141 467.719 491.28 467.719H557.671C560.342 467.719 560.199 469.818 560.199 472.014L560.295 473.731Z" fill="#E9EDFB"/>
<path d="M639.612 274.971C639.509 276.566 639.093 278.125 638.387 279.559C637.682 280.994 636.701 282.275 635.501 283.329C634.301 284.384 632.904 285.192 631.392 285.706C629.879 286.221 628.281 286.433 626.687 286.329H148.349C141.004 286.329 134.041 281.271 134.041 274.971V168.839C134.041 162.54 141.052 157.481 148.349 157.481H626.639C628.233 157.371 629.833 157.576 631.348 158.085C632.863 158.593 634.263 159.396 635.468 160.446C636.673 161.497 637.659 162.774 638.37 164.206C639.081 165.638 639.503 167.196 639.612 168.791V168.791V274.971Z" fill="url(#paint0_linear_388:48)"/>
<path d="M234.328 222.264C235.288 222.568 236.04 223.08 236.584 223.8C237.128 224.504 237.4 225.376 237.4 226.416C237.4 227.888 236.824 229.024 235.672 229.824C234.536 230.608 232.872 231 230.68 231H221.992V214.2H230.2C232.248 214.2 233.816 214.592 234.904 215.376C236.008 216.16 236.56 217.224 236.56 218.568C236.56 219.384 236.36 220.112 235.96 220.752C235.576 221.392 235.032 221.896 234.328 222.264ZM225.856 217.128V221.088H229.72C230.68 221.088 231.408 220.92 231.904 220.584C232.4 220.248 232.648 219.752 232.648 219.096C232.648 218.44 232.4 217.952 231.904 217.632C231.408 217.296 230.68 217.128 229.72 217.128H225.856ZM230.392 228.072C231.416 228.072 232.184 227.904 232.696 227.568C233.224 227.232 233.488 226.712 233.488 226.008C233.488 224.616 232.456 223.92 230.392 223.92H225.856V228.072H230.392ZM245.288 217.896C247.288 217.896 248.824 218.376 249.896 219.336C250.968 220.28 251.504 221.712 251.504 223.632V231H248V229.392C247.296 230.592 245.984 231.192 244.064 231.192C243.072 231.192 242.208 231.024 241.472 230.688C240.752 230.352 240.2 229.888 239.816 229.296C239.432 228.704 239.24 228.032 239.24 227.28C239.24 226.08 239.688 225.136 240.584 224.448C241.496 223.76 242.896 223.416 244.784 223.416H247.76C247.76 222.6 247.512 221.976 247.016 221.544C246.52 221.096 245.776 220.872 244.784 220.872C244.096 220.872 243.416 220.984 242.744 221.208C242.088 221.416 241.528 221.704 241.064 222.072L239.72 219.456C240.424 218.96 241.264 218.576 242.24 218.304C243.232 218.032 244.248 217.896 245.288 217.896ZM245 228.672C245.64 228.672 246.208 228.528 246.704 228.24C247.2 227.936 247.552 227.496 247.76 226.92V225.6H245.192C243.656 225.6 242.888 226.104 242.888 227.112C242.888 227.592 243.072 227.976 243.44 228.264C243.824 228.536 244.344 228.672 245 228.672ZM245.384 236.04C244.904 236.04 244.504 235.888 244.184 235.584C243.88 235.296 243.728 234.912 243.728 234.432C243.728 233.952 243.88 233.552 244.184 233.232C244.504 232.912 244.904 232.752 245.384 232.752C245.848 232.752 246.24 232.912 246.56 233.232C246.88 233.552 247.04 233.952 247.04 234.432C247.04 234.912 246.88 235.296 246.56 235.584C246.256 235.888 245.864 236.04 245.384 236.04ZM262.74 217.896C264.34 217.896 265.628 218.376 266.604 219.336C267.596 220.296 268.092 221.72 268.092 223.608V231H264.348V224.184C264.348 223.16 264.124 222.4 263.676 221.904C263.228 221.392 262.58 221.136 261.732 221.136C260.788 221.136 260.036 221.432 259.476 222.024C258.916 222.6 258.636 223.464 258.636 224.616V231H254.892V218.088H258.468V219.6C258.964 219.056 259.58 218.64 260.316 218.352C261.052 218.048 261.86 217.896 262.74 217.896ZM284.523 231.192C283.147 231.192 281.907 230.912 280.803 230.352C279.715 229.776 278.859 228.984 278.235 227.976C277.627 226.968 277.323 225.824 277.323 224.544C277.323 223.264 277.627 222.12 278.235 221.112C278.859 220.104 279.715 219.32 280.803 218.76C281.907 218.184 283.147 217.896 284.523 217.896C285.883 217.896 287.067 218.184 288.075 218.76C289.099 219.32 289.843 220.128 290.307 221.184L287.403 222.744C286.731 221.56 285.763 220.968 284.499 220.968C283.523 220.968 282.715 221.288 282.075 221.928C281.435 222.568 281.115 223.44 281.115 224.544C281.115 225.648 281.435 226.52 282.075 227.16C282.715 227.8 283.523 228.12 284.499 228.12C285.779 228.12 286.747 227.528 287.403 226.344L290.307 227.928C289.843 228.952 289.099 229.752 288.075 230.328C287.067 230.904 285.883 231.192 284.523 231.192ZM297.67 217.896C299.67 217.896 301.206 218.376 302.278 219.336C303.35 220.28 303.886 221.712 303.886 223.632V231H300.382V229.392C299.678 230.592 298.366 231.192 296.446 231.192C295.454 231.192 294.59 231.024 293.854 230.688C293.134 230.352 292.582 229.888 292.198 229.296C291.814 228.704 291.622 228.032 291.622 227.28C291.622 226.08 292.07 225.136 292.966 224.448C293.878 223.76 295.278 223.416 297.166 223.416H300.142C300.142 222.6 299.894 221.976 299.398 221.544C298.902 221.096 298.158 220.872 297.166 220.872C296.478 220.872 295.798 220.984 295.126 221.208C294.47 221.416 293.91 221.704 293.446 222.072L292.102 219.456C292.806 218.96 293.646 218.576 294.622 218.304C295.614 218.032 296.63 217.896 297.67 217.896ZM297.382 228.672C298.022 228.672 298.59 228.528 299.086 228.24C299.582 227.936 299.934 227.496 300.142 226.92V225.6H297.574C296.038 225.6 295.27 226.104 295.27 227.112C295.27 227.592 295.454 227.976 295.822 228.264C296.206 228.536 296.726 228.672 297.382 228.672ZM297.598 215.424C298.046 215.216 298.358 214.992 298.534 214.752C298.726 214.512 298.822 214.248 298.822 213.96C298.822 213.656 298.718 213.416 298.51 213.24C298.302 213.048 298.03 212.952 297.694 212.952C297.214 212.952 296.742 213.104 296.278 213.408L295.51 211.896C296.198 211.352 297.062 211.08 298.102 211.08C298.95 211.08 299.638 211.32 300.166 211.8C300.71 212.264 300.982 212.88 300.982 213.648C300.982 214.992 300.246 216 298.774 216.672L297.598 215.424ZM323.811 217.896C325.427 217.896 326.707 218.376 327.651 219.336C328.611 220.28 329.091 221.704 329.091 223.608V231H325.347V224.184C325.347 223.16 325.131 222.4 324.699 221.904C324.283 221.392 323.683 221.136 322.899 221.136C322.019 221.136 321.323 221.424 320.811 222C320.299 222.56 320.043 223.4 320.043 224.52V231H316.299V224.184C316.299 222.152 315.483 221.136 313.851 221.136C312.987 221.136 312.299 221.424 311.787 222C311.275 222.56 311.019 223.4 311.019 224.52V231H307.275V218.088H310.851V219.576C311.331 219.032 311.915 218.616 312.603 218.328C313.307 218.04 314.075 217.896 314.907 217.896C315.819 217.896 316.643 218.08 317.379 218.448C318.115 218.8 318.707 219.32 319.155 220.008C319.683 219.336 320.347 218.816 321.147 218.448C321.963 218.08 322.851 217.896 323.811 217.896ZM347.572 230.376C347.204 230.648 346.748 230.856 346.204 231C345.676 231.128 345.116 231.192 344.524 231.192C342.988 231.192 341.796 230.8 340.948 230.016C340.116 229.232 339.7 228.08 339.7 226.56V221.256H337.708V218.376H339.7V215.232H343.444V218.376H346.66V221.256H343.444V226.512C343.444 227.056 343.58 227.48 343.852 227.784C344.14 228.072 344.54 228.216 345.052 228.216C345.644 228.216 346.148 228.056 346.564 227.736L347.572 230.376ZM357.521 217.896C359.121 217.896 360.409 218.376 361.385 219.336C362.377 220.296 362.873 221.72 362.873 223.608V231H359.129V224.184C359.129 223.16 358.905 222.4 358.457 221.904C358.009 221.392 357.361 221.136 356.513 221.136C355.569 221.136 354.817 221.432 354.257 222.024C353.697 222.6 353.417 223.464 353.417 224.616V231H349.673V213.192H353.417V219.432C353.913 218.936 354.513 218.56 355.217 218.304C355.921 218.032 356.689 217.896 357.521 217.896ZM371.475 217.896C373.475 217.896 375.011 218.376 376.083 219.336C377.155 220.28 377.691 221.712 377.691 223.632V231H374.187V229.392C373.483 230.592 372.171 231.192 370.251 231.192C369.259 231.192 368.395 231.024 367.659 230.688C366.939 230.352 366.387 229.888 366.003 229.296C365.619 228.704 365.427 228.032 365.427 227.28C365.427 226.08 365.875 225.136 366.771 224.448C367.683 223.76 369.083 223.416 370.971 223.416H373.947C373.947 222.6 373.699 221.976 373.203 221.544C372.707 221.096 371.963 220.872 370.971 220.872C370.283 220.872 369.603 220.984 368.931 221.208C368.275 221.416 367.715 221.704 367.251 222.072L365.907 219.456C366.611 218.96 367.451 218.576 368.427 218.304C369.419 218.032 370.435 217.896 371.475 217.896ZM371.187 228.672C371.827 228.672 372.395 228.528 372.891 228.24C373.387 227.936 373.739 227.496 373.947 226.92V225.6H371.379C369.843 225.6 369.075 226.104 369.075 227.112C369.075 227.592 369.259 227.976 369.627 228.264C370.011 228.536 370.531 228.672 371.187 228.672ZM373.923 216.432L371.859 215.064L369.795 216.432H367.035L370.227 213.696H373.491L376.683 216.432H373.923ZM377.403 211.224H381.219L377.451 214.128H374.739L377.403 211.224ZM393.661 218.088L387.829 231.792C387.237 233.28 386.501 234.328 385.621 234.936C384.757 235.544 383.709 235.848 382.477 235.848C381.805 235.848 381.141 235.744 380.485 235.536C379.829 235.328 379.293 235.04 378.877 234.672L380.245 232.008C380.533 232.264 380.861 232.464 381.229 232.608C381.613 232.752 381.989 232.824 382.357 232.824C382.869 232.824 383.285 232.696 383.605 232.44C383.925 232.2 384.213 231.792 384.469 231.216L384.517 231.096L378.925 218.088H382.789L386.413 226.848L390.061 218.088H393.661ZM409.834 217.896C411.434 217.896 412.722 218.376 413.698 219.336C414.69 220.296 415.186 221.72 415.186 223.608V231H411.442V224.184C411.442 223.16 411.218 222.4 410.77 221.904C410.322 221.392 409.674 221.136 408.826 221.136C407.882 221.136 407.13 221.432 406.57 222.024C406.01 222.6 405.73 223.464 405.73 224.616V231H401.986V218.088H405.562V219.6C406.058 219.056 406.674 218.64 407.41 218.352C408.146 218.048 408.954 217.896 409.834 217.896ZM426.428 217.896C428.028 217.896 429.316 218.376 430.292 219.336C431.284 220.296 431.78 221.72 431.78 223.608V231H428.036V224.184C428.036 223.16 427.812 222.4 427.364 221.904C426.916 221.392 426.268 221.136 425.42 221.136C424.476 221.136 423.724 221.432 423.164 222.024C422.604 222.6 422.324 223.464 422.324 224.616V231H418.58V213.192H422.324V219.432C422.82 218.936 423.42 218.56 424.124 218.304C424.828 218.032 425.596 217.896 426.428 217.896ZM448.181 218.088V231H444.629V229.464C444.133 230.024 443.541 230.456 442.853 230.76C442.165 231.048 441.421 231.192 440.621 231.192C438.925 231.192 437.581 230.704 436.589 229.728C435.597 228.752 435.101 227.304 435.101 225.384V218.088H438.845V224.832C438.845 226.912 439.717 227.952 441.461 227.952C442.357 227.952 443.077 227.664 443.621 227.088C444.165 226.496 444.437 225.624 444.437 224.472V218.088H448.181ZM445.781 218.088H446.429C446.861 218.088 447.205 217.952 447.461 217.68C447.733 217.392 447.869 217.024 447.869 216.576C447.869 216.016 447.709 215.536 447.389 215.136L449.597 214.32C450.109 214.992 450.365 215.792 450.365 216.72C450.365 217.92 450.005 218.864 449.285 219.552C448.581 220.24 447.597 220.584 446.333 220.584H445.781V218.088ZM467.126 230.376C466.758 230.648 466.302 230.856 465.758 231C465.23 231.128 464.67 231.192 464.078 231.192C462.542 231.192 461.35 230.8 460.502 230.016C459.67 229.232 459.254 228.08 459.254 226.56V221.256H457.262V218.376H459.254V215.232H462.998V218.376H466.214V221.256H462.998V226.512C462.998 227.056 463.134 227.48 463.406 227.784C463.694 228.072 464.094 228.216 464.606 228.216C465.198 228.216 465.702 228.056 466.118 227.736L467.126 230.376ZM477.076 217.896C478.676 217.896 479.964 218.376 480.94 219.336C481.932 220.296 482.428 221.72 482.428 223.608V231H478.684V224.184C478.684 223.16 478.46 222.4 478.012 221.904C477.564 221.392 476.916 221.136 476.068 221.136C475.124 221.136 474.372 221.432 473.812 222.024C473.252 222.6 472.972 223.464 472.972 224.616V231H469.228V213.192H472.972V219.432C473.468 218.936 474.068 218.56 474.772 218.304C475.476 218.032 476.244 217.896 477.076 217.896ZM498.61 224.592C498.61 224.64 498.586 224.976 498.538 225.6H488.77C488.946 226.4 489.362 227.032 490.018 227.496C490.674 227.96 491.49 228.192 492.466 228.192C493.138 228.192 493.73 228.096 494.242 227.904C494.77 227.696 495.258 227.376 495.706 226.944L497.698 229.104C496.482 230.496 494.706 231.192 492.37 231.192C490.914 231.192 489.626 230.912 488.506 230.352C487.386 229.776 486.522 228.984 485.914 227.976C485.306 226.968 485.002 225.824 485.002 224.544C485.002 223.28 485.298 222.144 485.89 221.136C486.498 220.112 487.322 219.32 488.362 218.76C489.418 218.184 490.594 217.896 491.89 217.896C493.154 217.896 494.298 218.168 495.322 218.712C496.346 219.256 497.146 220.04 497.722 221.064C498.314 222.072 498.61 223.248 498.61 224.592ZM491.914 220.728C491.066 220.728 490.354 220.968 489.778 221.448C489.202 221.928 488.85 222.584 488.722 223.416H495.082C494.954 222.6 494.602 221.952 494.026 221.472C493.45 220.976 492.746 220.728 491.914 220.728ZM493.882 216.432L491.818 215.064L489.754 216.432H486.994L490.186 213.696H493.45L496.642 216.432H493.882ZM497.362 211.224H501.178L497.41 214.128H494.698L497.362 211.224ZM515.748 217.896C517.348 217.896 518.636 218.376 519.612 219.336C520.604 220.296 521.1 221.72 521.1 223.608V231H517.356V224.184C517.356 223.16 517.132 222.4 516.684 221.904C516.236 221.392 515.588 221.136 514.74 221.136C513.796 221.136 513.044 221.432 512.484 222.024C511.924 222.6 511.644 223.464 511.644 224.616V231H507.9V218.088H511.476V219.6C511.972 219.056 512.588 218.64 513.324 218.352C514.06 218.048 514.868 217.896 515.748 217.896ZM529.702 217.896C531.702 217.896 533.238 218.376 534.31 219.336C535.382 220.28 535.918 221.712 535.918 223.632V231H532.414V229.392C531.71 230.592 530.398 231.192 528.478 231.192C527.486 231.192 526.622 231.024 525.886 230.688C525.166 230.352 524.614 229.888 524.23 229.296C523.846 228.704 523.654 228.032 523.654 227.28C523.654 226.08 524.102 225.136 524.998 224.448C525.91 223.76 527.31 223.416 529.198 223.416H532.174C532.174 222.6 531.926 221.976 531.43 221.544C530.934 221.096 530.19 220.872 529.198 220.872C528.51 220.872 527.83 220.984 527.158 221.208C526.502 221.416 525.942 221.704 525.478 222.072L524.134 219.456C524.838 218.96 525.678 218.576 526.654 218.304C527.646 218.032 528.662 217.896 529.702 217.896ZM529.414 228.672C530.054 228.672 530.622 228.528 531.118 228.24C531.614 227.936 531.966 227.496 532.174 226.92V225.6H529.606C528.07 225.6 527.302 226.104 527.302 227.112C527.302 227.592 527.486 227.976 527.854 228.264C528.238 228.536 528.758 228.672 529.414 228.672ZM524.998 212.976H529.03L532.27 216.432H529.342L524.998 212.976ZM545.591 231.192C544.231 231.192 543.007 230.912 541.919 230.352C540.847 229.776 540.007 228.984 539.399 227.976C538.791 226.968 538.487 225.824 538.487 224.544C538.487 223.264 538.791 222.12 539.399 221.112C540.007 220.104 540.847 219.32 541.919 218.76C543.007 218.184 544.231 217.896 545.591 217.896C546.951 217.896 548.167 218.184 549.239 218.76C550.311 219.32 551.151 220.104 551.759 221.112C552.367 222.12 552.671 223.264 552.671 224.544C552.671 225.824 552.367 226.968 551.759 227.976C551.151 228.984 550.311 229.776 549.239 230.352C548.167 230.912 546.951 231.192 545.591 231.192ZM545.591 228.12C546.551 228.12 547.335 227.8 547.943 227.16C548.567 226.504 548.879 225.632 548.879 224.544C548.879 223.456 548.567 222.592 547.943 221.952C547.335 221.296 546.551 220.968 545.591 220.968C544.631 220.968 543.839 221.296 543.215 221.952C542.591 222.592 542.279 223.456 542.279 224.544C542.279 225.632 542.591 226.504 543.215 227.16C543.839 227.8 544.631 228.12 545.591 228.12ZM557.599 225.168C557.599 224.336 557.783 223.648 558.151 223.104C558.535 222.56 559.087 221.96 559.807 221.304C560.335 220.824 560.719 220.424 560.959 220.104C561.215 219.768 561.343 219.392 561.343 218.976C561.343 218.384 561.103 217.92 560.623 217.584C560.159 217.232 559.535 217.056 558.751 217.056C557.999 217.056 557.327 217.216 556.735 217.536C556.159 217.84 555.671 218.272 555.271 218.832L552.367 217.128C553.039 216.104 553.943 215.312 555.079 214.752C556.231 214.192 557.591 213.912 559.159 213.912C560.999 213.912 562.471 214.304 563.575 215.088C564.695 215.872 565.255 216.96 565.255 218.352C565.255 219.008 565.143 219.584 564.919 220.08C564.711 220.576 564.447 221 564.127 221.352C563.823 221.688 563.423 222.08 562.927 222.528C562.335 223.056 561.903 223.504 561.631 223.872C561.359 224.224 561.223 224.656 561.223 225.168H557.599ZM559.423 231.192C558.767 231.192 558.215 230.984 557.767 230.568C557.335 230.136 557.119 229.616 557.119 229.008C557.119 228.4 557.335 227.896 557.767 227.496C558.199 227.08 558.751 226.872 559.423 226.872C560.095 226.872 560.647 227.08 561.079 227.496C561.511 227.896 561.727 228.4 561.727 229.008C561.727 229.616 561.503 230.136 561.055 230.568C560.623 230.984 560.079 231.192 559.423 231.192Z" fill="white"/>
<path d="M136.881 118.8H148.797C151.557 118.8 154.005 119.316 156.141 120.348C158.277 121.38 159.933 122.844 161.109 124.74C162.285 126.636 162.873 128.856 162.873 131.4C162.873 133.944 162.285 136.164 161.109 138.06C159.933 139.956 158.277 141.42 156.141 142.452C154.005 143.484 151.557 144 148.797 144H136.881V118.8ZM148.509 138.312C150.669 138.312 152.397 137.7 153.693 136.476C155.013 135.252 155.673 133.56 155.673 131.4C155.673 129.24 155.013 127.548 153.693 126.324C152.397 125.1 150.669 124.488 148.509 124.488H144.009V138.312H148.509ZM185.82 124.488V144H179.304V141.912C178.584 142.704 177.72 143.304 176.712 143.712C175.704 144.12 174.636 144.324 173.508 144.324C170.988 144.324 168.972 143.58 167.46 142.092C165.972 140.604 165.228 138.372 165.228 135.396V124.488H172.068V134.28C172.068 135.744 172.344 136.812 172.896 137.484C173.448 138.156 174.252 138.492 175.308 138.492C176.388 138.492 177.264 138.12 177.936 137.376C178.632 136.608 178.98 135.444 178.98 133.884V124.488H185.82ZM209.781 124.488L201.357 144.792C200.373 147.192 199.173 148.872 197.757 149.832C196.341 150.816 194.613 151.308 192.573 151.308C191.541 151.308 190.497 151.14 189.441 150.804C188.409 150.492 187.569 150.072 186.921 149.544L189.297 144.756C189.681 145.116 190.137 145.392 190.665 145.584C191.217 145.8 191.769 145.908 192.321 145.908C192.969 145.908 193.497 145.776 193.905 145.512C194.337 145.248 194.697 144.828 194.985 144.252L186.633 124.488H193.653L198.441 136.404L203.265 124.488H209.781Z" fill="#339AF0"/>
<path d="M218.002 124.308V129.852H229.126V135.36H218.002V144H210.874V118.8H230.638V124.308H218.002ZM253.203 138.492V144H232.971V118.8H252.735V124.308H240.027V128.556H251.223V133.884H240.027V138.492H253.203Z" fill="#4933F0"/>
<defs>
<linearGradient id="paint0_linear_388:48" x1="134.041" y1="221.905" x2="639.612" y2="221.905" gradientUnits="userSpaceOnUse">
<stop stop-color="#4B45BD"/>
<stop offset="1" stop-color="#58CAEA"/>
</linearGradient>
</defs>
</svg>
