<svg width="370" height="489" viewBox="0 0 370 489" fill="none" xmlns="http://www.w3.org/2000/svg">
<g clip-path="url(#clip0_431_138)">
<path d="M298.063 102.72L324.463 97.6663C324.463 97.6663 326.662 86.6814 326.002 84.7081C325.342 82.7349 324.722 78.4499 320.985 77.1305C317.249 75.8112 312.216 65.3024 299.687 73.6544C287.158 82.0064 293.868 91.9588 293.868 91.9588L298.063 102.72Z" fill="url(#paint0_linear_431_138)"/>
<path d="M316.658 80.675C316.658 80.675 303.521 85.7459 300.531 86.9849C297.541 88.224 295.94 91.8321 295.94 91.8321C295.94 91.8321 294.47 90.9602 294.47 93.4497C294.47 95.9392 295.693 101.549 296.582 102.978C298.112 105.399 299.505 107.904 300.755 110.481C301.972 113.051 301.53 118.385 300.284 119.131C299.039 119.877 276.851 139.816 276.851 139.816L258.399 120.685L236.297 98.8877L226.942 79.4131C226.942 79.4131 218.024 64.82 216.841 63.0991C207.658 49.573 205.518 55.9346 205.024 61.1546C204.881 62.6747 205.357 68.474 206.31 69.6729L249.394 124.167L259.151 127.609L276.822 139.787L283.302 150.749L344.631 161.763L352.603 193.714L360.064 151.495L362.469 142.988C362.498 142.886 362.558 142.795 362.642 142.73C362.726 142.664 362.829 142.627 362.935 142.624C363.041 142.621 363.146 142.651 363.233 142.712C363.321 142.772 363.387 142.859 363.422 142.959L364.793 146.889C365.367 146.401 364.179 148.26 364.793 146.889L367.6 149.143C368.559 149.915 369.274 150.946 369.661 152.115C370.048 153.283 370.09 154.537 369.781 155.728L360.363 192.165C360.363 192.165 321.617 122.435 319.654 118.305C318.77 116.452 319.712 111.995 320.228 109.701C320.699 107.595 321.726 104.968 322.725 104.217C323.723 103.465 325.462 99.9833 325.462 98.4804C325.462 96.9775 325.755 92.2394 324.469 93.4956C324.119 93.8398 322.409 91.1495 321.91 88.9066C321.088 85.6706 319.247 82.7846 316.658 80.675Z" fill="url(#paint1_linear_431_138)"/>
<path d="M276.157 221.03C276.157 221.03 267.301 293.743 266.756 298.389C266.21 303.036 269.763 327.346 269.763 331.992C269.763 336.639 278.446 386.154 278.446 386.154L292.175 385.535C292.175 385.535 289.443 312.592 289.713 309.042C289.982 305.491 305.019 263.152 305.019 263.152C305.019 263.152 306.115 274.355 306.115 277.905C306.115 281.456 310.276 384.6 310.276 384.6H322.243L339.26 232.692L338.932 229.767L276.157 221.03Z" fill="url(#paint2_linear_431_138)"/>
<path d="M311.59 137.55C311.393 137.818 311.134 138.034 310.834 138.178C310.535 138.323 310.205 138.392 309.872 138.379C309.54 138.367 309.216 138.273 308.928 138.107C308.64 137.94 308.398 137.706 308.221 137.424C307.52 136.373 306.887 135.277 306.327 134.143C305.352 132.198 297.833 121.07 297.833 121.07C297.833 121.07 283.101 120.009 279.881 118.598C276.564 117.147 273.493 117.99 269.705 116.848C266.308 115.827 257.274 110.665 254.984 109.557C248.981 106.643 245.417 103.058 236.32 92.3487C229.766 84.6162 227.51 78.3293 226.397 77.4344C222.454 74.2393 212.772 80.6983 212.772 80.6983C212.772 80.6983 229.841 113.263 235.54 118.621C241.79 124.477 254.031 132.652 263.45 134.803C270.733 136.472 278.372 151.254 279.066 154.025C281.035 162.125 274.762 214.829 274.762 214.829C274.762 214.829 274.521 224.816 276.483 225.791C278.205 226.652 299.377 234.751 304.25 236.616C304.379 236.665 304.517 236.687 304.656 236.682C304.794 236.676 304.93 236.643 305.055 236.584C305.18 236.526 305.293 236.442 305.385 236.339C305.477 236.236 305.548 236.116 305.593 235.985L308.704 227.07C308.716 227.032 308.74 226.998 308.772 226.974C308.805 226.951 308.844 226.938 308.884 226.938C308.925 226.938 308.964 226.951 308.997 226.974C309.029 226.998 309.053 227.032 309.065 227.07L312.038 236.822C312.12 237.055 312.284 237.25 312.5 237.372C312.715 237.493 312.967 237.532 313.209 237.482L339.259 231.877C339.259 231.877 338.898 183.836 339.345 175.811C339.782 167.947 338.771 163.57 340.189 165.693C341.744 168.073 345.211 192.429 346.973 195.63C348.39 198.217 352.586 199.439 355.909 200.013C357.195 200.239 358.519 200.121 359.744 199.668C360.97 199.215 362.052 198.445 362.882 197.437L366.492 193.037C367.508 191.798 367.066 185.477 366.928 183.859C366.498 178.542 366.544 170.976 367.106 167.385C367.841 162.756 356.006 168.956 356.006 163.834C356.006 155.413 349.337 136.329 349.337 136.329C349.337 136.329 348.115 131.212 339.345 128.533C330.576 125.854 323.97 121.988 322.306 122.005C320.744 122.005 315.837 131.327 313.645 134.005C312.675 135.227 312.847 135.789 311.59 137.55Z" fill="url(#paint3_linear_431_138)"/>
<path d="M320.842 384.439L310.425 384.542C310.425 384.542 308.279 394.489 307.16 398.636C307.085 398.9 306.867 399.577 306.718 400.065C306.556 400.777 306.487 401.508 306.511 402.239C306.724 406.007 308.13 409.197 311.481 410.9C315.172 412.77 318.018 414.491 321.944 410.9C325.87 407.309 326.392 405.049 324.883 398.814C323.373 392.579 322.891 384.686 321.961 384.473" fill="#4B44BE"/>
<path d="M265.958 397.306C273.643 395.172 278.785 386.091 278.785 386.091L291.928 385.409C291.928 385.409 292.611 394.587 292.99 399.302C293.483 405.508 292.249 408.279 287.532 407.946C281.333 407.505 256.035 409.495 252.069 407.281C246.903 404.413 258.761 399.302 265.958 397.306Z" fill="#4B44BE"/>
<path opacity="0.07" d="M307.114 255.758C305.421 260.714 298.815 270.316 294.585 276.035C290.355 281.755 277.035 293.973 277.878 308.83C278.722 323.687 287.732 361.827 287.732 365.257C287.732 368.688 284.364 384.904 281.815 389.872C279.267 394.839 278.068 403.862 279.336 403.862C281.74 403.79 284.13 403.473 286.47 402.916C288.656 402.342 291.67 401.769 292.898 401.195C293.764 400.793 293.948 397.988 293.948 397.988C294.034 396.786 293.896 395.578 293.541 394.426C293.254 393.686 292.18 389.906 292.14 388.816C291.606 374.848 290.418 342.542 290.659 340.282C291.096 336.048 287.738 314.738 290.803 304.235C293.868 293.732 307.114 255.758 307.114 255.758Z" fill="black"/>
<path opacity="0.07" d="M275.273 229.233L273.023 246.66C273.023 246.66 275.319 250.257 275.893 247.234C276.467 244.211 281.31 238.457 278.389 234.367C275.468 230.277 275.273 229.233 275.273 229.233Z" fill="black"/>
<path opacity="0.07" d="M339.093 234.121L338.307 242.427L337.279 250.457C337.279 250.457 333.962 252.861 334.014 249.746C334.065 246.631 328.424 241.882 332.711 238.715C336.998 235.549 339.093 234.121 339.093 234.121Z" fill="black"/>
<path opacity="0.07" d="M297.77 121.237C298.344 121.11 294.901 122.051 297.925 121.053C303.09 119.332 300.944 109.581 300.944 109.581C300.944 109.581 301.478 113.235 306.385 114.703C311.194 116.137 312.618 115.076 305.237 118.558C297.977 122 301.719 123.187 302.212 127.661" fill="black"/>
<path opacity="0.07" d="M279.416 162.142L274.762 215.741C274.762 215.741 274.819 224.65 276.483 225.992C278.148 227.334 283.371 228.195 284.576 229.055C285.781 229.916 298.511 234.126 295.188 227.019C294.442 225.436 277.224 215.787 284.909 205.749C292.594 195.71 291.222 181.685 287.532 171.934C283.841 162.182 279.359 147.618 279.359 147.618L279.416 162.142Z" fill="black"/>
<path opacity="0.07" d="M356.672 165.36C356.672 165.36 360.621 166.731 363.99 165.326C369.029 163.226 365.786 181.175 366.79 187.049C367.554 191.466 362.836 201.183 355.886 200.03C348.936 198.877 346.623 198.171 345.159 188.982C344.046 181.949 354.836 179.924 354.836 173.23C354.836 166.536 356.672 165.36 356.672 165.36Z" fill="black"/>
<path opacity="0.07" d="M339.208 179.781C339.208 179.781 341.222 160.714 339.208 154.031C337.193 147.348 335.42 146 335.42 146L339.208 179.781Z" fill="black"/>
</g>
<path d="M151.5 17.1665C132.569 17.1665 117.167 32.5687 117.167 51.4998C117.167 70.431 132.569 85.8332 151.5 85.8332C157.537 85.8332 163.474 84.2447 168.671 81.2377L164.375 73.8068C160.481 76.0595 156.028 77.2499 151.5 77.2499C137.301 77.2499 125.75 65.6992 125.75 51.4998C125.75 37.3005 137.301 25.7498 151.5 25.7498C165.699 25.7498 177.25 37.3005 177.25 51.4998V55.2383C177.25 58.0463 175.446 60.0831 172.958 60.0831C170.592 60.0831 168.666 58.1573 168.666 55.7914V38.6248H162.734C159.715 35.9873 155.814 34.3331 151.5 34.3331C142.034 34.3331 134.333 42.0343 134.333 51.4998C134.333 60.9654 142.034 68.6666 151.5 68.6666C156.007 68.6666 160.083 66.884 163.149 64.0323C165.513 66.8411 169.008 68.6666 172.958 68.6666C180.177 68.6666 185.833 62.7677 185.833 55.2383V51.4998C185.833 32.5687 170.431 17.1665 151.5 17.1665ZM151.5 60.0831C146.766 60.0831 142.917 56.2336 142.917 51.4998C142.917 46.7659 146.766 42.9165 151.5 42.9165C156.234 42.9165 160.083 46.7661 160.083 51.4998C160.083 56.2337 156.234 60.0831 151.5 60.0831Z" fill="#1F2937"/>
<path d="M108.844 185.462L6.76734 198.654C2.85043 199.16 0.120468 202.528 0.654602 206.233L15.7288 310.65C16.2629 314.355 19.8237 316.937 23.7406 316.432L125.818 303.239C129.734 302.734 132.464 299.366 131.93 295.661L116.856 191.244C116.322 187.595 112.761 184.957 108.844 185.462Z" fill="#1F2937"/>
<path d="M157.212 470.643C160.239 471.204 170.803 468.117 172.583 466.545C173.176 466.039 173.651 464.58 174.126 463.962C174.541 461.998 175.55 463.008 176.559 462.84C179.586 462.222 187.776 460.201 191.633 462.166C192.346 463.682 192.405 465.141 192.88 465.983C193.889 469.801 194.541 473.73 194.957 477.66C195.254 480.074 193.414 482.207 190.921 482.488C190.921 482.488 190.921 482.488 190.862 482.488H190.803C189.972 482.544 189.081 482.488 188.191 482.376C181.663 480.86 168.429 480.467 163.325 478.558C154.779 476.425 149.912 472.158 157.212 470.643Z" fill="#494DB4"/>
<path d="M55.6695 475.19C58.6369 475.92 69.438 473.45 71.2778 471.99C71.9306 471.541 72.4647 470.138 72.9989 469.52C73.533 467.611 74.4825 468.622 75.4914 468.51C78.5775 468.06 86.8861 466.489 90.6249 468.678C91.2778 470.194 91.1591 471.709 91.5745 472.552C92.2867 476.425 92.7614 480.411 92.8801 484.34C92.9988 486.754 91.0404 488.775 88.4884 488.944C88.4884 488.944 88.4884 488.944 88.4291 488.944H88.3698C87.5389 489 86.6487 488.888 85.8178 488.719C79.4083 486.811 66.2333 485.688 61.2481 483.442C52.8802 480.804 48.2511 476.257 55.6695 475.19Z" fill="#494DB4"/>
<path d="M191.989 462.278C186.826 462.952 174.423 463.12 174.423 463.12C174.423 463.12 173.651 457.394 169.853 446.391C165.995 435.22 146.589 400.19 146.589 400.19C142.612 394.464 138.458 382.618 138.458 382.618L132.642 337.259C132.642 337.259 101.96 382.562 102.375 392.836C102.791 403.109 95.1941 443.304 95.1941 443.304C94.4226 449.31 90.6244 469.183 90.6244 469.183C84.9271 468.51 79.1704 468.397 73.4138 468.734C74.1853 460.482 77.3307 426.631 77.3307 426.631C77.3307 426.631 79.2891 400.358 79.7046 384.359C80.12 368.359 92.1674 334.62 100.298 319.183C101.366 316.544 102.256 313.906 102.969 311.155L174.719 319.744C173.117 324.067 171.811 328.445 170.862 332.936C166.648 352.978 163.681 386.66 163.681 386.66C174.897 398.674 181.96 421.297 181.96 421.297C186.529 434.883 191.989 462.278 191.989 462.278Z" fill="url(#paint4_linear_431_138)"/>
<path d="M112.227 184.283C123.265 182.318 134.601 186.023 134.601 186.023L136.5 186.585L148.25 200.844L137.39 198.093C134.482 197.139 128.785 195.679 126.173 195.847C124.215 195.735 119.586 196.633 117.39 194.949C115.728 194.219 115.432 192.928 112.049 189.785C109.616 187.258 110.328 186.529 109.378 186.192C108.132 185.686 109.2 184.508 112.227 184.283Z" fill="url(#paint5_linear_431_138)"/>
<path d="M73.236 310.93C73.3547 310.369 75.4912 310.706 75.8472 310.201C78.1618 307.113 80.8917 303.183 86.7078 301.331C88.3695 300.826 90.0905 300.489 91.8116 300.32L95.7285 306.776C95.2537 307.899 94.6009 308.966 93.8888 309.92C91.5149 312.951 86.5297 317.049 77.3903 315.927C75.2538 315.702 72.9392 313.008 73.236 310.93Z" fill="url(#paint6_linear_431_138)"/>
<path d="M154.838 167.386C156.144 167.386 183.681 187.483 183.918 189.729C183.978 190.908 184.037 196.016 184.987 199.384C185.877 202.528 188.547 207.019 188.547 207.019C188.547 207.019 186.173 211.23 180.001 212.072C174.067 212.858 166.114 211.005 166.114 211.005C166.114 211.005 167.954 199.89 165.699 198.655C163.74 197.588 163.147 198.711 156.381 193.321C149.616 187.932 151.812 174.347 151.99 173.449C152.168 172.55 153.533 167.386 154.838 167.386Z" fill="url(#paint7_linear_431_138)"/>
<path d="M123.384 261.417C132.346 253.726 138.043 229.755 140.892 223.748C143.741 217.742 148.31 216.057 150.091 215.384C150.981 215.047 155.907 213.756 159.586 212.745L132.88 196.858C129.26 190.402 136.381 186.529 136.381 186.529L166.767 200.788V210.5L176.619 208.984L188.37 206.795C191.99 206.009 195.669 205.447 199.349 205.167C200.892 205.054 202.435 205.223 203.918 205.728L204.69 206.009C206.53 206.626 208.073 207.861 208.963 209.545C210.862 213.475 212.168 217.685 212.761 221.952C213.889 228.857 208.251 244.519 202.494 255.915C200.002 260.743 190.269 285.556 187.835 291.788C175.966 317.836 175.135 319.857 175.135 319.857C138.696 319.52 103.206 311.829 103.206 311.829C101.545 308.966 107.539 300.657 107.539 300.657L96.5002 309.303C91.6931 310.762 87.7169 300.601 87.7169 300.601C87.7169 300.601 115.847 267.873 123.384 261.417Z" fill="url(#paint8_linear_431_138)"/>
<path d="M189.082 168.565C188.488 167.554 187.183 165.252 186.411 164.41C185.105 163.119 183.681 161.884 182.197 160.705C180.833 159.919 177.45 158.291 176.144 157.618C171.515 156.27 165.343 157.618 160.833 157.842C156.738 157.562 153.711 162.389 152.109 165.589C150.506 168.789 153.592 168.396 153.295 170.866C153.236 171.315 154.601 171.989 155.788 172.607C156.975 173.224 160.358 178.333 161.545 180.747C162.791 174.852 166.945 185.35 166.174 186.641C167.835 187.651 169.853 191.918 172.821 193.265C174.898 192.423 178.755 189.167 183.919 190.065C184.275 189.167 189.378 185.574 189.913 179.511C190.328 177.715 190.743 171.259 189.082 168.565Z" fill="url(#paint9_linear_431_138)"/>
<path opacity="0.07" d="M173.354 195.062C173.354 195.062 168.725 198.991 165.936 198.879L166.648 202.191L166.47 206.963C166.47 206.963 168.251 204.268 170.506 201.517C171.93 199.609 172.939 197.419 173.354 195.062Z" fill="black"/>
<path opacity="0.07" d="M156.559 243.284C156.559 243.284 150.743 259.845 132.821 277.079C114.898 294.314 110.565 297.906 110.565 297.906C110.565 297.906 106.886 302.285 108.073 305.204C109.26 308.124 117.094 298.356 134.66 290.777C144.69 286.454 148.132 278.988 152.761 268.546C158.577 255.354 159.883 252.547 160.654 247.831C162.613 235.481 156.559 243.284 156.559 243.284Z" fill="black"/>
<path opacity="0.07" d="M132.702 337.203C132.702 337.203 141.188 354.55 143.621 363.027C146.114 371.784 146.114 384.527 153.592 390.703C162.078 397.72 172.049 421.298 174.363 426.294C177.627 433.424 184.334 472.72 182.375 475.471C180.476 478.166 172.82 474.124 172.82 474.124C172.82 474.124 175.61 464.131 173.236 455.093C170.862 446.055 159.705 421.915 152.702 409.958C146.351 399.236 139.883 386.829 138.458 379.643C137.034 372.458 132.702 337.203 132.702 337.203Z" fill="black"/>
<defs>
<linearGradient id="paint0_linear_431_138" x1="192.809" y1="5.37782" x2="146.94" y2="5.37782" gradientUnits="userSpaceOnUse">
<stop stop-color="#4B45BD"/>
<stop offset="1" stop-color="#58CAEA"/>
</linearGradient>
<linearGradient id="paint1_linear_431_138" x1="205.001" y1="124.351" x2="369.999" y2="124.351" gradientUnits="userSpaceOnUse">
<stop stop-color="#F87B58"/>
<stop offset="0.41" stop-color="#F89453"/>
<stop offset="0.71" stop-color="#F8C548"/>
<stop offset="1" stop-color="#F89C51"/>
</linearGradient>
<linearGradient id="paint2_linear_431_138" x1="266.698" y1="303.592" x2="339.26" y2="303.592" gradientUnits="userSpaceOnUse">
<stop stop-color="#4B45BD"/>
<stop offset="1" stop-color="#58CAEA"/>
</linearGradient>
<linearGradient id="paint3_linear_431_138" x1="160.623" y1="103.638" x2="243.532" y2="45.9017" gradientUnits="userSpaceOnUse">
<stop stop-color="#E5A4ED"/>
<stop offset="1" stop-color="#7A5BF5"/>
</linearGradient>
<linearGradient id="paint4_linear_431_138" x1="191.989" y1="390.169" x2="73.4138" y2="390.169" gradientUnits="userSpaceOnUse">
<stop stop-color="#4B45BD"/>
<stop offset="1" stop-color="#58CAEA"/>
</linearGradient>
<linearGradient id="paint5_linear_431_138" x1="148.25" y1="192.276" x2="108.812" y2="192.276" gradientUnits="userSpaceOnUse">
<stop stop-color="#F87B58"/>
<stop offset="0.41" stop-color="#F89453"/>
<stop offset="0.94" stop-color="#F8C548"/>
</linearGradient>
<linearGradient id="paint6_linear_431_138" x1="95.7285" y1="308.218" x2="73.1785" y2="308.218" gradientUnits="userSpaceOnUse">
<stop stop-color="#F87B58"/>
<stop offset="0.41" stop-color="#F89453"/>
<stop offset="0.94" stop-color="#F8C548"/>
</linearGradient>
<linearGradient id="paint7_linear_431_138" x1="188.547" y1="189.826" x2="151.458" y2="189.826" gradientUnits="userSpaceOnUse">
<stop stop-color="#F87B58"/>
<stop offset="0.41" stop-color="#F89453"/>
<stop offset="0.94" stop-color="#F8C548"/>
</linearGradient>
<linearGradient id="paint8_linear_431_138" x1="212.906" y1="253.193" x2="87.7169" y2="253.193" gradientUnits="userSpaceOnUse">
<stop stop-color="#E5A4ED"/>
<stop offset="1" stop-color="#7A5BF5"/>
</linearGradient>
<linearGradient id="paint9_linear_431_138" x1="192.927" y1="183.097" x2="158.256" y2="167.015" gradientUnits="userSpaceOnUse">
<stop stop-color="#4B45BD"/>
<stop offset="1" stop-color="#58CAEA"/>
</linearGradient>
<clipPath id="clip0_431_138">
<rect width="165" height="358" fill="white" transform="translate(205 55)"/>
</clipPath>
</defs>
</svg>
