<svg xmlns="http://www.w3.org/2000/svg" xmlns:xlink="http://www.w3.org/1999/xlink" viewBox="0 0 369.4 471.79"><defs><style>.cls-1{fill:none;}.cls-2{clip-path:url(#clip-path);}.cls-3{fill:url(#linear-gradient);}.cls-4{fill:url(#linear-gradient-2);}.cls-5{fill:url(#linear-gradient-3);}.cls-6{fill:url(#linear-gradient-4);}.cls-7{fill:#4b44be;}.cls-8{isolation:isolate;opacity:0.07;}.cls-9{fill:#fff;}.cls-10{fill:#494db4;}.cls-11{fill:url(#linear-gradient-5);}.cls-12{fill:url(#linear-gradient-6);}.cls-13{fill:url(#linear-gradient-7);}.cls-14{fill:url(#linear-gradient-8);}.cls-15{fill:url(#linear-gradient-9);}.cls-16{fill:url(#linear-gradient-10);}</style><clipPath id="clip-path"><rect class="cls-1" x="204.41" y="37.83" width="165" height="358"/></clipPath><linearGradient id="linear-gradient" x1="192.22" y1="386.24" x2="146.35" y2="386.24" gradientTransform="matrix(1, 0, 0, -1, 0, 455.67)" gradientUnits="userSpaceOnUse"><stop offset="0" stop-color="#4b45bd"/><stop offset="1" stop-color="#58caea"/></linearGradient><linearGradient id="linear-gradient-2" x1="204.41" y1="348.47" x2="369.4" y2="348.47" gradientTransform="matrix(1, 0, 0, -1, 0, 455.67)" gradientUnits="userSpaceOnUse"><stop offset="0" stop-color="#f87b58"/><stop offset="0.41" stop-color="#f89453"/><stop offset="0.71" stop-color="#f8c548"/><stop offset="1" stop-color="#f89c51"/></linearGradient><linearGradient id="linear-gradient-3" x1="266.11" y1="169.24" x2="338.67" y2="169.24" xlink:href="#linear-gradient"/><linearGradient id="linear-gradient-4" x1="222.41" y1="279.62" x2="305.32" y2="337.36" gradientTransform="matrix(1, 0, 0, -1, 0, 455.67)" gradientUnits="userSpaceOnUse"><stop offset="0" stop-color="#e5a4ed"/><stop offset="1" stop-color="#7a5bf5"/></linearGradient><linearGradient id="linear-gradient-5" x1="191.4" y1="82.66" x2="72.83" y2="82.66" xlink:href="#linear-gradient"/><linearGradient id="linear-gradient-6" x1="147.66" y1="280.56" x2="108.22" y2="280.56" gradientTransform="matrix(1, 0, 0, -1, 0, 455.67)" gradientUnits="userSpaceOnUse"><stop offset="0" stop-color="#f87b58"/><stop offset="0.41" stop-color="#f89453"/><stop offset="0.94" stop-color="#f8c548"/></linearGradient><linearGradient id="linear-gradient-7" x1="95.14" y1="164.62" x2="72.59" y2="164.62" xlink:href="#linear-gradient-6"/><linearGradient id="linear-gradient-8" x1="187.96" y1="283.01" x2="150.87" y2="283.01" xlink:href="#linear-gradient-6"/><linearGradient id="linear-gradient-9" x1="212.32" y1="219.64" x2="87.13" y2="219.64" xlink:href="#linear-gradient-4"/><linearGradient id="linear-gradient-10" x1="192" y1="289" x2="157.32" y2="305.08" xlink:href="#linear-gradient"/></defs><g id="Layer_2" data-name="Layer 2"><g id="Layer_1-2" data-name="Layer 1"><g class="cls-2"><path class="cls-3" d="M297.48,85.55l26.4-5s2.19-11,1.53-13-1.28-6.26-5-7.58-8.77-11.82-21.3-3.47-5.82,18.3-5.82,18.3Z"/><path class="cls-4" d="M316.07,63.51s-13.14,5.07-16.13,6.31-4.59,4.85-4.59,4.85-1.47-.88-1.47,1.61,1.23,8.1,2.11,9.53a77.43,77.43,0,0,1,4.18,7.5c1.21,2.57.77,7.91-.47,8.65s-23.44,20.69-23.44,20.69l-18.45-19.13-22.1-21.8-9.36-19.47s-8.91-14.6-10.1-16.32c-9.18-13.52-11.32-7.16-11.81-1.94-.15,1.52.33,7.32,1.28,8.52L248.81,107l9.75,3.44,17.67,12.18,6.48,11,61.33,11,8,32,7.46-42.22,2.4-8.51a.56.56,0,0,1,.17-.26.54.54,0,0,1,.3-.1.43.43,0,0,1,.3.09.48.48,0,0,1,.18.24l1.38,3.93c.57-.49-.62,1.37,0,0L367,132a6.39,6.39,0,0,1,2.18,6.58L359.78,175S321,105.27,319.07,101.14c-.89-1.85.05-6.31.57-8.61.47-2.1,1.5-4.73,2.5-5.48a11.17,11.17,0,0,0,2.73-5.74c0-1.5.3-6.24-1-5-.35.34-2.06-2.35-2.56-4.59A15.52,15.52,0,0,0,316.07,63.51Z"/><path class="cls-5" d="M275.57,203.86s-8.86,72.72-9.4,77.36,3,29,3,33.61S277.86,369,277.86,369l13.73-.62s-2.73-72.94-2.46-76.49S304.43,246,304.43,246s1.1,11.2,1.1,14.75,4.16,106.69,4.16,106.69h12l17-151.9-.33-2.93Z"/><path class="cls-6" d="M311,120.38a2,2,0,0,1-1.72.83,2,2,0,0,1-.94-.27,2.1,2.1,0,0,1-.71-.68,29.66,29.66,0,0,1-1.89-3.28c-1-2-8.49-13.08-8.49-13.08s-14.74-1.06-18-2.47-6.38-.61-10.17-1.75c-3.4-1-12.43-6.18-14.72-7.29-6-2.91-9.57-6.5-18.67-17.21-6.55-7.73-8.81-14-9.92-14.91-3.94-3.2-13.63,3.26-13.63,3.26S229.25,96.1,235,101.45c6.25,5.86,18.49,14,27.91,16.19,7.29,1.67,14.92,16.45,15.62,19.22,2,8.1-4.31,60.8-4.31,60.8s-.24,10,1.73,11c1.72.87,22.89,9,27.76,10.83a1.14,1.14,0,0,0,.41.07,1.12,1.12,0,0,0,.4-.1,1,1,0,0,0,.33-.25,1.13,1.13,0,0,0,.21-.35l3.11-8.92a.18.18,0,0,1,.06-.09.19.19,0,0,1,.12,0,.15.15,0,0,1,.11,0,.2.2,0,0,1,.07.09l3,9.76a1.08,1.08,0,0,0,.46.55,1,1,0,0,0,.71.11l26.05-5.61s-.36-48,.09-56.07c.43-7.86-.58-12.24.84-10.11,1.56,2.38,5,26.73,6.79,29.93,1.41,2.59,5.61,3.81,8.93,4.39a7.49,7.49,0,0,0,3.84-.35,7.34,7.34,0,0,0,3.13-2.23l3.61-4.4c1-1.24.58-7.56.44-9.18a89.3,89.3,0,0,1,.18-16.47c.73-4.63-11.1,1.57-11.1-3.55,0-8.42-6.67-27.51-6.67-27.51s-1.22-5.11-10-7.79-15.38-6.55-17-6.53-6.47,9.32-8.66,12C312.09,118.06,312.26,118.62,311,120.38Z"/><path class="cls-7" d="M320.25,367.27l-10.41.11s-2.15,9.94-3.27,14.09c-.07.26-.29.94-.44,1.43a8.78,8.78,0,0,0-.21,2.17c.22,3.77,1.62,7,5,8.66,3.69,1.87,6.54,3.59,10.47,0s4.44-5.85,2.94-12.08-2-14.13-2.93-14.34"/><path class="cls-7" d="M265.37,380.14c7.69-2.13,12.83-11.22,12.83-11.22l13.14-.68s.68,9.18,1.06,13.9c.5,6.2-.74,9-5.46,8.64-6.19-.44-31.49,1.55-35.46-.67C246.32,387.25,258.17,382.14,265.37,380.14Z"/><path class="cls-8" d="M306.53,238.59c-1.7,5-8.3,14.56-12.53,20.28s-17.55,17.94-16.71,32.79,9.85,53,9.85,56.43-3.36,19.65-5.91,24.61-3.75,14-2.48,14a35.74,35.74,0,0,0,7.13-.95,58.93,58.93,0,0,0,6.43-1.72c.87-.4,1.05-3.21,1.05-3.21a9.54,9.54,0,0,0-.41-3.56,35.1,35.1,0,0,1-1.4-5.61c-.53-14-1.72-46.27-1.48-48.54.44-4.23-2.92-25.54.15-36S306.53,238.59,306.53,238.59Z"/><path class="cls-8" d="M274.69,212.07l-2.25,17.42s2.29,3.6,2.87.58,5.41-8.78,2.49-12.87S274.69,212.07,274.69,212.07Z"/><path class="cls-8" d="M338.51,217l-.79,8.31-1,8s-3.32,2.4-3.26-.71-5.59-7.86-1.31-11S338.51,217,338.51,217Z"/><path class="cls-8" d="M297.18,104.07c.58-.13-2.87.81.16-.18,5.16-1.72,3-11.48,3-11.48s.53,3.66,5.44,5.13,6.23.37-1.15,3.85-3.52,4.63-3,9.1"/><path class="cls-8" d="M278.83,145l-4.66,53.59s.06,8.91,1.73,10.26,6.88,2.2,8.09,3.06,13.93,5.07,10.61-2c-.75-1.58-18-11.23-10.28-21.27s6.31-24.06,2.62-33.81-8.17-24.32-8.17-24.32Z"/><path class="cls-8" d="M356.08,148.19s3.95,1.37,7.32,0c5-2.1,1.8,15.85,2.8,21.72.77,4.42-3.95,14.14-10.9,13s-9.26-1.86-10.73-11c-1.11-7,9.68-9.06,9.68-15.76S356.08,148.19,356.08,148.19Z"/><path class="cls-8" d="M338.62,162.61s2-19.06,0-25.75-3.79-8-3.79-8Z"/></g><path class="cls-9" d="M150.91,0a34.34,34.34,0,1,0,17.17,64.07l-4.29-7.43a25.76,25.76,0,1,1,12.87-22.31v3.74c0,2.81-1.8,4.85-4.29,4.85a4.3,4.3,0,0,1-4.29-4.3V21.46h-5.93a17.08,17.08,0,0,0-28.4,12.87,17.11,17.11,0,0,0,28.81,12.54,12.83,12.83,0,0,0,9.81,4.63c7.22,0,12.88-5.9,12.88-13.43V34.33A34.38,34.38,0,0,0,150.91,0Zm0,42.92a8.59,8.59,0,1,1,8.59-8.59A8.59,8.59,0,0,1,150.91,42.92Z"/><path class="cls-9" d="M108.26,168.3,6.18,181.49a6.79,6.79,0,0,0-6.11,7.58L15.14,293.48a7.05,7.05,0,0,0,8,5.79l102.08-13.2a6.79,6.79,0,0,0,6.11-7.58L116.27,174.08A7.08,7.08,0,0,0,108.26,168.3Z"/><path class="cls-10" d="M156.62,453.48c3,.56,13.6-2.53,15.38-4.1.59-.51,1.06-2,1.54-2.58.41-2,1.42-1,2.43-1.13,3-.61,11.22-2.64,15.08-.67.71,1.52.77,3,1.24,3.82a77.93,77.93,0,0,1,2.08,11.67,4.41,4.41,0,0,1-4,4.83h-.11a13.69,13.69,0,0,1-2.62-.11c-6.52-1.52-19.76-1.91-24.86-3.82C154.19,459.26,149.32,455,156.62,453.48Z"/><path class="cls-10" d="M55.08,458c3,.73,13.77-1.74,15.61-3.2.65-.45,1.19-1.85,1.72-2.47.54-1.91,1.48-.89,2.49-1,3.09-.45,11.4-2,15.14.17.65,1.52.53,3,.95,3.88a79.06,79.06,0,0,1,1.3,11.78,4.53,4.53,0,0,1-4.39,4.61h-.12a10,10,0,0,1-2.55-.23c-6.41-1.91-19.58-3-24.57-5.27C52.29,463.64,47.66,459.09,55.08,458Z"/><path class="cls-11" d="M191.4,445.11c-5.16.68-17.56.84-17.56.84s-.78-5.72-4.57-16.73C165.41,418.05,146,383,146,383c-4-5.72-8.13-17.57-8.13-17.57l-5.82-45.36s-30.68,45.31-30.26,55.58-7.18,50.47-7.18,50.47C93.83,432.14,90,452,90,452a97,97,0,0,0-17.21-.45c.77-8.25,3.91-42.11,3.91-42.11s2-26.27,2.38-42.27S91.58,317.45,99.71,302a63.5,63.5,0,0,0,2.67-8l71.75,8.59a93.87,93.87,0,0,0-3.86,13.19c-4.21,20-7.18,53.72-7.18,53.72,11.22,12,18.28,34.64,18.28,34.64C185.94,417.72,191.4,445.11,191.4,445.11Z"/><path class="cls-12" d="M111.64,167.12c11-2,22.37,1.74,22.37,1.74l1.9.56,11.75,14.26-10.86-2.75c-2.91-1-8.6-2.42-11.21-2.25-2-.11-6.59.79-8.79-.9-1.66-.73-2-2-5.34-5.16-2.43-2.53-1.72-3.26-2.67-3.59C107.54,168.52,108.61,167.34,111.64,167.12Z"/><path class="cls-13" d="M72.65,293.76c.12-.56,2.25-.22,2.61-.73,2.31-3.08,5-7,10.86-8.87a26.93,26.93,0,0,1,5.1-1l3.92,6.46a15.12,15.12,0,0,1-1.84,3.14c-2.37,3-7.36,7.13-16.5,6C74.67,298.54,72.35,295.84,72.65,293.76Z"/><path class="cls-14" d="M154.25,150.22c1.31,0,28.84,20.1,29.08,22.34.06,1.18.12,6.29,1.07,9.66a41.72,41.72,0,0,0,3.56,7.63s-2.37,4.21-8.55,5.05c-5.93.79-13.88-1.06-13.88-1.06s1.84-11.12-.42-12.35c-2-1.07-2.55,0-9.32-5.34s-4.57-19-4.39-19.87S153,150.22,154.25,150.22Z"/><path class="cls-15" d="M122.8,244.25c9-7.69,14.66-31.66,17.5-37.67a15.51,15.51,0,0,1,9.2-8.36c.89-.34,5.82-1.63,9.5-2.64l-26.71-15.89c-3.62-6.45,3.5-10.33,3.5-10.33l30.39,14.26v9.71l9.85-1.51,11.75-2.19a80.12,80.12,0,0,1,11-1.63,11.65,11.65,0,0,1,4.57.56l.77.28a7.46,7.46,0,0,1,4.28,3.54,42.05,42.05,0,0,1,3.79,12.41c1.13,6.9-4.51,22.56-10.26,34-2.5,4.83-12.23,29.64-14.66,35.87-11.87,26.05-12.7,28.07-12.7,28.07-36.44-.34-71.93-8-71.93-8C101,291.8,107,283.49,107,283.49l-11,8.65c-4.8,1.46-8.78-8.71-8.78-8.71S115.26,250.71,122.8,244.25Z"/><path class="cls-16" d="M188.49,151.4a33.11,33.11,0,0,0-2.67-4.16,52,52,0,0,0-4.21-3.7c-1.36-.79-4.75-2.42-6.05-3.09-4.63-1.35-10.8,0-15.31.23-4.1-.29-7.13,4.54-8.73,7.74s1.48,2.81,1.19,5.28c-.06.45,1.3,1.12,2.49,1.74s4.57,5.73,5.76,8.14c1.24-5.89,5.4,4.6,4.63,5.89,1.66,1,3.68,5.28,6.64,6.63,2.08-.84,5.94-4.1,11.1-3.2.36-.9,5.46-4.49,6-10.56C189.74,160.55,190.16,154.09,188.49,151.4Z"/><path class="cls-8" d="M172.77,177.9s-4.63,3.92-7.42,3.81l.71,3.31-.18,4.78s1.78-2.7,4-5.45A15.38,15.38,0,0,0,172.77,177.9Z"/><path class="cls-8" d="M156,226.12s-5.81,16.56-23.74,33.79S110,280.74,110,280.74s-3.68,4.38-2.49,7.3,9-6.85,26.58-14.43c10-4.32,13.47-11.79,18.1-22.23,5.82-13.19,7.13-16,7.9-20.72C162,218.31,156,226.12,156,226.12Z"/><path class="cls-8" d="M132.11,320s8.49,17.34,10.92,25.82c2.5,8.76,2.5,21.5,10,27.68,8.49,7,18.46,30.59,20.78,35.59,3.26,7.13,10,46.42,8,49.17s-9.56-1.34-9.56-1.34,2.79-10,.42-19-13.53-33.18-20.54-45.14c-6.35-10.72-12.81-23.13-14.24-30.31S132.11,320,132.11,320Z"/></g></g></svg>