<?xml version="1.0" encoding="utf-8"?>
<!-- Generator: Adobe Illustrator 25.3.1, SVG Export Plug-In . SVG Version: 6.00 Build 0)  -->
<svg version="1.1" id="Layer_1" xmlns="http://www.w3.org/2000/svg" xmlns:xlink="http://www.w3.org/1999/xlink" x="0px" y="0px"
	 viewBox="0 0 369.4 471.8" style="enable-background:new 0 0 369.4 471.8;" xml:space="preserve">
<style type="text/css">
	.st0{clip-path:url(#SVGID_2_);}
	.st1{fill:url(#SVGID_3_);}
	.st2{fill:url(#SVGID_4_);}
	.st3{fill:url(#SVGID_5_);}
	.st4{fill:url(#SVGID_6_);}
	.st5{fill:#4B44BE;}
	.st6{opacity:7.000000e-02;enable-background:new    ;}
	.st7{fill:#FFFFFF;}
	.st8{fill:#494DB4;}
	.st9{fill:url(#SVGID_7_);}
	.st10{fill:url(#SVGID_8_);}
	.st11{fill:url(#SVGID_9_);}
	.st12{fill:url(#SVGID_10_);}
	.st13{fill:url(#SVGID_11_);}
	.st14{fill:url(#SVGID_12_);}
</style>
<g id="Layer_2_1_">
	<g id="Layer_1-2">
		<g>
			<defs>
				<rect id="SVGID_1_" x="211.1" y="65.4" width="165" height="358"/>
			</defs>
			<clipPath id="SVGID_2_">
				<use xlink:href="#SVGID_1_"  style="overflow:visible;"/>
			</clipPath>
			<g class="st0">
				
					<linearGradient id="SVGID_3_" gradientUnits="userSpaceOnUse" x1="198.8951" y1="483.2134" x2="153.0251" y2="483.2134" gradientTransform="matrix(1 0 0 1 0 -386.2198)">
					<stop  offset="0" style="stop-color:#4B45BD"/>
					<stop  offset="1" style="stop-color:#58CAEA"/>
				</linearGradient>
				<path class="st1" d="M304.2,113.1l26.4-5c0,0,2.2-11,1.5-13s-1.3-6.3-5-7.6s-8.8-11.8-21.3-3.5s-5.8,18.3-5.8,18.3L304.2,113.1z
					"/>
				
					<linearGradient id="SVGID_4_" gradientUnits="userSpaceOnUse" x1="211.088" y1="521.0157" x2="376.0593" y2="521.0157" gradientTransform="matrix(1 0 0 1 0 -386.2198)">
					<stop  offset="0" style="stop-color:#F87B58"/>
					<stop  offset="0.41" style="stop-color:#F89453"/>
					<stop  offset="0.71" style="stop-color:#F8C548"/>
					<stop  offset="1" style="stop-color:#F89C51"/>
				</linearGradient>
				<path class="st2" d="M322.7,91.1c0,0-13.1,5.1-16.1,6.3s-4.6,4.8-4.6,4.8s-1.5-0.9-1.5,1.6s1.2,8.1,2.1,9.5
					c1.5,2.4,2.9,4.9,4.2,7.5c1.2,2.6,0.8,7.9-0.5,8.7c-1.2,0.7-23.4,20.7-23.4,20.7l-18.5-19.1l-22.1-21.8L233,89.8
					c0,0-8.9-14.6-10.1-16.3c-9.2-13.5-11.3-7.2-11.8-1.9c-0.1,1.5,0.3,7.3,1.3,8.5l43.1,54.5l9.7,3.4l17.7,12.2l6.5,11l61.3,11
					l8,32l7.5-42.2l2.4-8.5c0-0.1,0.1-0.2,0.2-0.3c0.1-0.1,0.2-0.1,0.3-0.1c0.1,0,0.2,0,0.3,0.1c0.1,0.1,0.1,0.1,0.2,0.2l1.4,3.9
					c0.6-0.5-0.6,1.4,0,0l2.8,2.2c2,1.6,2.8,4.1,2.2,6.6l-9.4,36.4c0,0-38.8-69.7-40.7-73.9c-0.9-1.8,0-6.3,0.6-8.6
					c0.5-2.1,1.5-4.7,2.5-5.5c1.4-1.6,2.4-3.6,2.7-5.7c0-1.5,0.3-6.2-1-5c-0.4,0.3-2.1-2.3-2.6-4.6
					C327.2,96.1,325.3,93.2,322.7,91.1z"/>
				
					<linearGradient id="SVGID_5_" gradientUnits="userSpaceOnUse" x1="272.789" y1="700.2163" x2="345.3651" y2="700.2163" gradientTransform="matrix(1 0 0 1 0 -386.2198)">
					<stop  offset="0" style="stop-color:#4B45BD"/>
					<stop  offset="1" style="stop-color:#58CAEA"/>
				</linearGradient>
				<path class="st3" d="M282.2,231.4c0,0-8.9,72.7-9.4,77.4s3,29,3,33.6s8.7,54.2,8.7,54.2l13.7-0.6c0,0-2.7-72.9-2.5-76.5
					s15.3-45.9,15.3-45.9s1.1,11.2,1.1,14.8s4.2,106.7,4.2,106.7h12l17-151.9l-0.3-2.9L282.2,231.4z"/>
				
					<linearGradient id="SVGID_6_" gradientUnits="userSpaceOnUse" x1="229.0965" y1="589.8528" x2="312.0065" y2="532.1128" gradientTransform="matrix(1 0 0 1 0 -386.2198)">
					<stop  offset="0" style="stop-color:#E5A4ED"/>
					<stop  offset="1" style="stop-color:#7A5BF5"/>
				</linearGradient>
				<path class="st4" d="M317.7,147.9c-0.4,0.6-1,0.9-1.7,0.8c-0.3,0-0.7-0.1-0.9-0.3c-0.3-0.2-0.5-0.4-0.7-0.7
					c-0.7-1.1-1.3-2.1-1.9-3.3c-1-2-8.5-13.1-8.5-13.1s-14.7-1.1-18-2.5c-3.3-1.4-6.4-0.6-10.2-1.8c-3.4-1-12.4-6.2-14.7-7.3
					c-6-2.9-9.6-6.5-18.7-17.2c-6.6-7.7-8.8-14-9.9-14.9c-3.9-3.2-13.6,3.3-13.6,3.3s17.1,32.6,22.9,37.9c6.2,5.9,18.5,14,27.9,16.2
					c7.3,1.7,14.9,16.4,15.6,19.2c2,8.1-4.3,60.8-4.3,60.8s-0.2,10,1.7,11c1.7,0.9,22.9,9,27.8,10.8c0.1,0,0.3,0.1,0.4,0.1
					c0.1,0,0.3,0,0.4-0.1c0.1-0.1,0.2-0.1,0.3-0.2c0.1-0.1,0.2-0.2,0.2-0.4l3.1-8.9c0,0,0-0.1,0.1-0.1c0,0,0.1,0,0.1,0
					c0,0,0.1,0,0.1,0c0,0,0.1,0.1,0.1,0.1l3,9.8c0.1,0.2,0.2,0.4,0.5,0.6c0.2,0.1,0.5,0.2,0.7,0.1l26-5.6c0,0-0.4-48,0.1-56.1
					c0.4-7.9-0.6-12.2,0.8-10.1c1.6,2.4,5,26.7,6.8,29.9c1.4,2.6,5.6,3.8,8.9,4.4c1.3,0.2,2.6,0.1,3.8-0.4c1.2-0.5,2.3-1.2,3.1-2.2
					l3.6-4.4c1-1.2,0.6-7.6,0.4-9.2c-0.4-5.5-0.4-11,0.2-16.5c0.7-4.6-11.1,1.6-11.1-3.6c0-8.4-6.7-27.5-6.7-27.5s-1.2-5.1-10-7.8
					c-8.8-2.7-15.4-6.6-17-6.5s-6.5,9.3-8.7,12C318.8,145.6,318.9,146.2,317.7,147.9z"/>
				<path class="st5" d="M326.9,394.8l-10.4,0.1c0,0-2.1,9.9-3.3,14.1c-0.1,0.3-0.3,0.9-0.4,1.4c-0.2,0.7-0.2,1.4-0.2,2.2
					c0.2,3.8,1.6,7,5,8.7c3.7,1.9,6.5,3.6,10.5,0s4.4-5.9,2.9-12.1s-2-14.1-2.9-14.3"/>
				<path class="st5" d="M272,407.7c7.7-2.1,12.8-11.2,12.8-11.2l13.1-0.7c0,0,0.7,9.2,1.1,13.9c0.5,6.2-0.7,9-5.5,8.6
					c-6.2-0.4-31.5,1.5-35.5-0.7C253,414.8,264.8,409.7,272,407.7z"/>
				<path class="st6" d="M313.2,266.2c-1.7,5-8.3,14.6-12.5,20.3s-17.5,17.9-16.7,32.8s9.9,53,9.9,56.4s-3.4,19.6-5.9,24.6
					s-3.8,14-2.5,14c2.4-0.1,4.8-0.4,7.1-1c2.2-0.5,4.3-1,6.4-1.7c0.9-0.4,1-3.2,1-3.2c0.1-1.2,0-2.4-0.4-3.6
					c-0.6-1.8-1.1-3.7-1.4-5.6c-0.5-14-1.7-46.3-1.5-48.5c0.4-4.2-2.9-25.5,0.1-36S313.2,266.2,313.2,266.2z"/>
				<path class="st6" d="M281.4,239.6l-2.2,17.4c0,0,2.3,3.6,2.9,0.6c0.6-3,5.4-8.8,2.5-12.9S281.4,239.6,281.4,239.6z"/>
				<path class="st6" d="M345.2,244.6l-0.8,8.3l-1,8c0,0-3.3,2.4-3.3-0.7c0.1-3.1-5.6-7.9-1.3-11S345.2,244.6,345.2,244.6z"/>
				<path class="st6" d="M303.9,131.6c0.6-0.1-2.9,0.8,0.2-0.2c5.2-1.7,3-11.5,3-11.5s0.5,3.7,5.4,5.1s6.2,0.4-1.1,3.8
					s-3.5,4.6-3,9.1"/>
				<path class="st6" d="M285.5,172.6l-4.7,53.6c0,0,0.1,8.9,1.7,10.3s6.9,2.2,8.1,3.1s13.9,5.1,10.6-2c-0.8-1.6-18-11.2-10.3-21.3
					s6.3-24.1,2.6-33.8s-8.2-24.3-8.2-24.3L285.5,172.6z"/>
				<path class="st6" d="M362.8,175.8c0,0,4,1.4,7.3,0c5-2.1,1.8,15.9,2.8,21.7c0.8,4.4-4,14.1-10.9,13s-9.3-1.9-10.7-11
					c-1.1-7,9.7-9.1,9.7-15.8S362.8,175.8,362.8,175.8z"/>
				<path class="st6" d="M345.3,190.2c0,0,2-19.1,0-25.8s-3.8-8-3.8-8L345.3,190.2z"/>
			</g>
		</g>
		<path class="st7" d="M157.6,27.6c-19,0-34.3,15.4-34.4,34.3c0,19,15.4,34.3,34.3,34.4c6,0,12-1.6,17.2-4.6l-4.3-7.4
			c-12.3,7.1-28.1,2.9-35.2-9.4s-2.9-28.1,9.4-35.2s28.1-2.9,35.2,9.4c2.3,3.9,3.5,8.4,3.5,12.9v3.7c0,2.8-1.8,4.8-4.3,4.8
			c-2.4,0-4.3-1.9-4.3-4.3V49h-5.9c-7.1-6.3-17.9-5.6-24.1,1.5c-2.8,3.1-4.3,7.2-4.3,11.4c0,9.4,7.6,17.1,17.1,17.2
			c4.4,0,8.6-1.6,11.8-4.6c2.4,2.9,6,4.6,9.8,4.6c7.2,0,12.9-5.9,12.9-13.4v-3.7C191.9,42.9,176.5,27.6,157.6,27.6z M157.6,70.5
			c-4.7,0-8.6-3.8-8.6-8.6c0-4.7,3.8-8.6,8.6-8.6c4.7,0,8.6,3.8,8.6,8.6v0C166.2,66.6,162.3,70.5,157.6,70.5z"/>
		<path class="st7" d="M114.9,210.5L12.8,223.7c-3.7,0.3-6.5,3.7-6.1,7.4c0,0.1,0,0.1,0,0.2l15.1,104.4c0.6,3.8,4.2,6.4,8,5.8
			l102.1-13.2c3.7-0.3,6.5-3.7,6.1-7.4c0-0.1,0-0.1,0-0.2l-15.1-104.4C122.3,212.5,118.7,210,114.9,210.5z"/>
		<path class="st8" d="M163.3,495.7c3,0.6,13.6-2.5,15.4-4.1c0.6-0.5,1.1-2,1.5-2.6c0.4-2,1.4-1,2.4-1.1c3-0.6,11.2-2.6,15.1-0.7
			c0.7,1.5,0.8,3,1.2,3.8c1,3.8,1.7,7.7,2.1,11.7c0.2,2.4-1.5,4.6-4,4.8c0,0,0,0,0,0h-0.1c-0.9,0-1.8,0-2.6-0.1
			c-6.5-1.5-19.8-1.9-24.9-3.8C160.8,501.5,156,497.2,163.3,495.7z"/>
		<path class="st8" d="M61.7,500.2c3,0.7,13.8-1.7,15.6-3.2c0.7-0.5,1.2-1.9,1.7-2.5c0.5-1.9,1.5-0.9,2.5-1c3.1-0.5,11.4-2,15.1,0.2
			c0.7,1.5,0.5,3,0.9,3.9c0.7,3.9,1.2,7.8,1.3,11.8c0,2.5-1.9,4.5-4.4,4.6h-0.1c-0.9,0-1.7,0-2.6-0.2c-6.4-1.9-19.6-3-24.6-5.3
			C58.9,505.9,54.3,501.3,61.7,500.2z"/>
		
			<linearGradient id="SVGID_7_" gradientUnits="userSpaceOnUse" x1="198.0551" y1="801.4432" x2="79.4451" y2="801.4432" gradientTransform="matrix(1 0 0 1 0 -386.2198)">
			<stop  offset="0" style="stop-color:#4B45BD"/>
			<stop  offset="1" style="stop-color:#58CAEA"/>
		</linearGradient>
		<path class="st9" d="M198.1,487.3c-5.2,0.7-17.6,0.8-17.6,0.8s-0.8-5.7-4.6-16.7c-3.9-11.2-23.3-46.2-23.3-46.2
			c-4-5.7-8.1-17.6-8.1-17.6l-5.8-45.4c0,0-30.7,45.3-30.3,55.6s-7.2,50.5-7.2,50.5c-0.8,6-4.6,25.9-4.6,25.9
			c-5.7-0.7-11.5-0.8-17.2-0.5c0.8-8.2,3.9-42.1,3.9-42.1s2-26.3,2.4-42.3s12.5-49.7,20.6-65.2c1.1-2.6,2-5.3,2.7-8l71.8,8.6
			c-1.6,4.3-2.9,8.7-3.9,13.2c-4.2,20-7.2,53.7-7.2,53.7c11.2,12,18.3,34.6,18.3,34.6C192.6,459.9,198.1,487.3,198.1,487.3z"/>
		
			<linearGradient id="SVGID_8_" gradientUnits="userSpaceOnUse" x1="154.3151" y1="603.549" x2="114.8751" y2="603.549" gradientTransform="matrix(1 0 0 1 0 -386.2198)">
			<stop  offset="0" style="stop-color:#F87B58"/>
			<stop  offset="0.41" style="stop-color:#F89453"/>
			<stop  offset="0.94" style="stop-color:#F8C548"/>
		</linearGradient>
		<path class="st10" d="M118.3,209.3c11-2,22.4,1.7,22.4,1.7l1.9,0.6l11.8,14.3l-10.9-2.8c-2.9-1-8.6-2.4-11.2-2.2
			c-2-0.1-6.6,0.8-8.8-0.9c-1.7-0.7-2-2-5.3-5.2c-2.4-2.5-1.7-3.3-2.7-3.6C114.2,210.7,115.3,209.6,118.3,209.3z"/>
		
			<linearGradient id="SVGID_9_" gradientUnits="userSpaceOnUse" x1="101.7951" y1="719.4987" x2="79.2451" y2="719.4987" gradientTransform="matrix(1 0 0 1 0 -386.2198)">
			<stop  offset="0" style="stop-color:#F87B58"/>
			<stop  offset="0.41" style="stop-color:#F89453"/>
			<stop  offset="0.94" style="stop-color:#F8C548"/>
		</linearGradient>
		<path class="st11" d="M79.3,336c0.1-0.6,2.2-0.2,2.6-0.7c2.3-3.1,5-7,10.9-8.9c1.7-0.5,3.4-0.8,5.1-1l3.9,6.5
			c-0.5,1.1-1.1,2.2-1.8,3.1c-2.4,3-7.4,7.1-16.5,6C81.3,340.8,79,338.1,79.3,336z"/>
		
			<linearGradient id="SVGID_10_" gradientUnits="userSpaceOnUse" x1="194.6151" y1="601.1013" x2="157.5251" y2="601.1013" gradientTransform="matrix(1 0 0 1 0 -386.2198)">
			<stop  offset="0" style="stop-color:#F87B58"/>
			<stop  offset="0.41" style="stop-color:#F89453"/>
			<stop  offset="0.94" style="stop-color:#F8C548"/>
		</linearGradient>
		<path class="st12" d="M160.9,192.4c1.3,0,28.8,20.1,29.1,22.3c0.1,1.2,0.1,6.3,1.1,9.7c0.9,2.7,2.1,5.2,3.6,7.6
			c0,0-2.4,4.2-8.6,5.1c-5.9,0.8-13.9-1.1-13.9-1.1s1.8-11.1-0.4-12.4c-2-1.1-2.6,0-9.3-5.3s-4.6-19-4.4-19.9
			S159.7,192.4,160.9,192.4z"/>
		
			<linearGradient id="SVGID_11_" gradientUnits="userSpaceOnUse" x1="218.9907" y1="664.4882" x2="93.8751" y2="664.4882" gradientTransform="matrix(1 0 0 1 0 -386.2198)">
			<stop  offset="0" style="stop-color:#E5A4ED"/>
			<stop  offset="1" style="stop-color:#7A5BF5"/>
		</linearGradient>
		<path class="st13" d="M129.5,286.5c9-7.7,14.7-31.7,17.5-37.7c1.8-3.9,5.1-7,9.2-8.4c0.9-0.3,5.8-1.6,9.5-2.6l-26.7-15.9
			c-3.6-6.4,3.5-10.3,3.5-10.3l30.4,14.3v9.7l9.9-1.5l11.8-2.2c3.6-0.8,7.3-1.3,11-1.6c1.5-0.1,3.1,0.1,4.6,0.6l0.8,0.3
			c1.8,0.6,3.4,1.9,4.3,3.5c1.9,3.9,3.2,8.1,3.8,12.4c1.1,6.9-4.5,22.6-10.3,34c-2.5,4.8-12.2,29.6-14.7,35.9
			c-11.9,26-12.7,28.1-12.7,28.1c-36.4-0.3-71.9-8-71.9-8c-1.6-2.9,4.4-11.2,4.4-11.2l-11,8.6c-4.8,1.5-8.8-8.7-8.8-8.7
			S121.9,292.9,129.5,286.5z"/>
		
			<linearGradient id="SVGID_12_" gradientUnits="userSpaceOnUse" x1="198.6552" y1="595.113" x2="163.9752" y2="579.033" gradientTransform="matrix(1 0 0 1 0 -386.2198)">
			<stop  offset="0" style="stop-color:#4B45BD"/>
			<stop  offset="1" style="stop-color:#58CAEA"/>
		</linearGradient>
		<path class="st14" d="M195.1,193.6c-0.8-1.5-1.7-2.8-2.7-4.2c-1.3-1.3-2.7-2.5-4.2-3.7c-1.4-0.8-4.8-2.4-6.1-3.1
			c-4.6-1.4-10.8,0-15.3,0.2c-4.1-0.3-7.1,4.5-8.7,7.7s1.5,2.8,1.2,5.3c-0.1,0.4,1.3,1.1,2.5,1.7s4.6,5.7,5.8,8.1
			c1.2-5.9,5.4,4.6,4.6,5.9c1.7,1,3.7,5.3,6.6,6.6c2.1-0.8,5.9-4.1,11.1-3.2c0.4-0.9,5.5-4.5,6-10.6
			C196.4,202.8,196.8,196.3,195.1,193.6z"/>
		<path class="st6" d="M179.4,220.1c0,0-4.6,3.9-7.4,3.8l0.7,3.3l-0.2,4.8c0,0,1.8-2.7,4-5.4C178,224.7,179,222.5,179.4,220.1z"/>
		<path class="st6" d="M162.7,268.3c0,0-5.8,16.6-23.7,33.8S116.7,323,116.7,323s-3.7,4.4-2.5,7.3s9-6.9,26.6-14.4
			c10-4.3,13.5-11.8,18.1-22.2c5.8-13.2,7.1-16,7.9-20.7C168.7,260.5,162.7,268.3,162.7,268.3z"/>
		<path class="st6" d="M138.8,362.2c0,0,8.5,17.3,10.9,25.8c2.5,8.8,2.5,21.5,10,27.7c8.5,7,18.5,30.6,20.8,35.6
			c3.3,7.1,10,46.4,8,49.2s-9.6-1.3-9.6-1.3s2.8-10,0.4-19S165.8,447,158.8,435c-6.4-10.7-12.8-23.1-14.2-30.3
			S138.8,362.2,138.8,362.2z"/>
	</g>
</g>
</svg>
