<svg width="2712" height="2477" viewBox="0 0 2712 2477" fill="none" xmlns="http://www.w3.org/2000/svg">
<path d="M1253.23 1556.07C1271.02 1533.05 1282.53 1506.36 1286.72 1477.58C1291.43 1442.53 1303.99 1398.57 1335.9 1368.23C1384.56 1322.18 1391.36 1127.54 1392.41 1055.33C1392.93 1028.12 1397.12 1000.91 1404.96 975.276C1419.61 929.754 1448.91 866.443 1506.47 836.095C1565.07 805.224 1752.37 792.143 1806.79 837.665C1917.71 930.278 1902.53 1052.19 1904.1 1071.55C1912.47 1162.59 1907.24 1229.05 1953.81 1286.6C2000.37 1344.16 2052.69 1413.75 2039.09 1484.38C2025.49 1555.02 2147.39 1659.67 2013.97 1703.1C1880.56 1746.53 1744 1776.87 1595.41 1764.84C1463.56 1754.37 1283.58 1732.92 1248 1645.54C1231.26 1602.64 1240.15 1573.86 1253.23 1556.07Z" fill="#E9EDFA"/>
<path d="M1286.72 1545.08C1293 1536.19 1300.85 1523.1 1314.97 1515.78C1329.1 1508.45 1357.88 1488.57 1498.62 1546.13C1699.53 1628.8 1864.86 1527.81 1880.56 1525.72C1896.25 1523.63 2038.04 1479.15 2034.38 1572.29C2030.72 1665.42 1862.77 1715.65 1812.02 1717.75C1761.27 1719.84 1549.89 1739.72 1445.77 1709.9C1341.66 1680.07 1301.89 1639.79 1294.57 1629.84C1286.72 1618.86 1260.56 1582.23 1286.72 1545.08Z" fill="#BAC5F4"/>
<path d="M1300.32 2221.1H1310.26C1328.05 2221.62 1343.23 2206.97 1343.23 2189.18C1343.23 2188.66 1343.23 2188.66 1343.23 2188.14L1342.18 2141.05C1342.18 2135.81 1338.52 2131.1 1333.81 2129.01L1330.67 2127.96C1323.87 2125.35 1320.2 2117.5 1323.34 2110.7C1324.39 2108.08 1325.96 2105.99 1328.05 2104.94C1330.15 2103.37 1332.76 2102.33 1334.85 2101.28C1356.83 2092.91 1403.39 2066.22 1525.82 2053.67C1592.79 2046.86 1626.8 2044.77 1644.59 2044.25C1651.92 2043.72 1657.67 2037.97 1657.67 2030.12C1657.67 2029.07 1657.67 2028.03 1657.15 2026.98C1655.58 2020.7 1649.3 2016.52 1642.5 2017.56C1599.6 2022.79 1446.82 2041.11 1396.59 2053.14C1367.29 2060.47 1339.04 2072.5 1312.88 2088.2C1302.94 2094.48 1296.14 2104.94 1295.09 2116.98C1294.57 2121.16 1292.48 2124.83 1289.34 2126.92C1284.1 2130.58 1278.87 2133.2 1273.12 2135.29C1264.75 2137.91 1264.75 2166.68 1266.84 2190.75C1267.36 2206.97 1282.01 2220.58 1300.32 2221.1Z" fill="#A2B7ED"/>
<path d="M2041.7 2221.1H2034.38C2015.02 2221.62 1998.8 2205.93 1998.8 2186.57C1998.8 2186.04 1998.8 2185.52 1998.8 2185L1999.85 2140.52C1999.85 2135.29 2002.99 2130.58 2008.22 2128.49L2011.36 2127.44C2018.16 2124.83 2021.82 2116.98 2018.68 2110.18C2017.64 2108.08 2016.07 2105.99 2013.97 2104.42C2011.88 2102.85 2009.27 2101.8 2007.17 2100.76C1985.2 2092.39 1939.16 2065.7 1817.77 2053.14C1751.85 2046.34 1717.84 2044.25 1700.57 2043.72C1693.25 2043.2 1687.49 2037.45 1687.49 2029.6C1687.49 2028.55 1687.49 2027.5 1688.02 2026.46C1689.59 2020.18 1695.87 2015.99 1702.67 2017.04C1745.57 2022.27 1896.78 2040.58 1945.96 2052.62C1975.26 2059.94 2002.99 2071.98 2028.62 2087.68C2038.57 2093.95 2045.37 2104.42 2046.41 2116.45C2046.94 2120.64 2049.03 2124.3 2052.17 2126.4C2056.88 2129.53 2062.11 2132.67 2067.86 2134.77C2076.24 2137.38 2075.71 2166.68 2074.14 2190.75C2073.62 2206.97 2059.49 2220.58 2041.7 2221.1Z" fill="#A2B7ED"/>
<path d="M1651.39 1786.29L1650.35 2182.38C1650.35 2187.61 1646.16 2191.8 1640.93 2191.8H1638.84C1633.6 2191.8 1629.42 2195.99 1629.42 2201.22C1629.42 2201.22 1629.42 2201.22 1629.42 2201.74L1630.99 2268.72C1631.51 2284.94 1644.59 2298.54 1661.33 2298.54L1682.26 2299.06C1699.53 2299.59 1714.18 2285.46 1714.18 2268.19C1714.18 2267.67 1714.18 2267.15 1714.18 2266.1L1711.56 2201.22C1711.56 2195.99 1707.38 2192.32 1702.14 2192.32C1696.91 2192.32 1692.73 2188.14 1692.73 2182.91L1693.77 1776.87C1693.77 1771.64 1689.59 1767.46 1684.36 1767.46H1660.29C1655.06 1767.46 1650.87 1771.64 1650.87 1776.87C1650.87 1776.87 1650.87 1776.87 1650.87 1777.4L1651.39 1786.29Z" fill="#A2B7ED"/>
<path d="M1651.92 2073.55C1651.92 2073.55 1331.72 2202.26 1281.49 2245.17C1231.26 2288.08 1222.89 2314.76 1224.98 2326.27C1224.98 2327.32 1227.07 2328.36 1229.17 2328.89C1241.72 2332.55 1250.1 2344.06 1249.57 2356.62L1248.53 2424.12C1248.53 2434.58 1239.63 2442.95 1229.69 2442.95H1193.59C1183.13 2442.95 1174.75 2434.58 1174.23 2424.12L1173.18 2357.14C1172.66 2343.02 1183.13 2330.46 1197.25 2328.36H1197.78C1197.78 2328.36 1210.33 2277.61 1229.69 2260.34C1249.05 2243.08 1283.06 2204.36 1417 2145.76C1550.94 2087.15 1651.39 2050.53 1651.39 2050.53L1651.92 2073.55Z" fill="#BAC5F4"/>
<path d="M1692.2 2068.84C1692.2 2073.03 1694.82 2077.21 1698.48 2078.78C1742.43 2097.62 1997.76 2208.02 2041.7 2247.26C2089.32 2290.17 2097.16 2316.85 2095.07 2328.36C2094.55 2330.98 2087.75 2332.03 2080.94 2332.55C2075.19 2333.07 2071 2337.78 2071 2343.54L2072.05 2415.22C2072.05 2431.97 2086.18 2445.57 2102.92 2445.57H2111.81C2128.56 2445.57 2142.16 2431.97 2142.68 2415.22L2143.73 2344.06C2143.73 2338.83 2140.07 2334.12 2134.84 2333.6L2126.99 2332.55C2122.8 2332.03 2119.66 2328.89 2118.62 2324.7C2114.95 2310.57 2104.49 2276.56 2089.84 2262.96C2071.53 2245.69 2039.09 2206.97 1912.47 2148.37C1815.16 2103.9 1737.2 2071.98 1706.33 2059.42C1701.1 2057.33 1694.82 2059.42 1692.73 2064.65C1692.73 2066.22 1692.73 2067.27 1692.2 2068.84Z" fill="#BAC5F4"/>
<path d="M275.93 2466.4L279.872 1555.97H370.535V2471.63L275.93 2466.4Z" fill="white"/>
<path d="M2369.06 1539.75L2373 2476.87H2451.84L2453.41 1543.94L2369.06 1539.75Z" fill="white"/>
<path d="M0 1446.09V1555.97L2712 1545.51V1451.32L0 1446.09Z" fill="white"/>
<path d="M0 1446.09L193.151 1367.61L2491.26 1372.84L2712 1451.32L0 1446.09Z" fill="#BAC5F4"/>
<path d="M1629.84 1429.32L1675.17 1392.69L1884.48 1391.12L1852.95 1426.7L1629.84 1429.32Z" fill="#F8F8FF"/>
<path d="M1749.76 864.308H1174.75V1315.86H1749.76V864.308Z" fill="white"/>
<path d="M1449.96 1128.02C1469.03 1128.02 1484.49 1112.56 1484.49 1093.49C1484.49 1074.41 1469.03 1058.95 1449.96 1058.95C1430.89 1058.95 1415.43 1074.41 1415.43 1093.49C1415.43 1112.56 1430.89 1128.02 1449.96 1128.02Z" fill="#F5F5FC"/>
<path d="M1413.86 1304.87C1413.86 1304.87 1428.51 1343.07 1411.77 1353.53C1395.02 1364 1293.52 1404.29 1293.52 1404.29C1293.52 1404.29 1286.2 1416.32 1303.98 1419.98C1320.2 1423.65 1526.35 1420.51 1570.82 1419.98C1577.1 1420.51 1582.85 1416.85 1585.47 1411.09C1586.52 1407.43 1584.95 1403.24 1577.1 1400.63C1563.49 1395.92 1513.27 1368.18 1491.29 1356.67C1483.44 1352.49 1481.35 1344.64 1479.78 1336.79C1477.17 1324.76 1475.6 1311.68 1483.97 1309.06C1497.05 1304.87 1414.38 1310.11 1414.38 1310.11" fill="white"/>
<path d="M74.8009 636.19L1378.34 634.097L1376.06 383.99L0.912123 396.025L0 636.19H74.8009Z" fill="#E9EDFA"/>
<path d="M727.028 428.988V601.133L1340.49 598.517V431.081L727.028 428.988Z" fill="#BAC5F4"/>
<path d="M71.1521 428.988V601.133L684.611 598.517V431.081L71.1521 428.988Z" fill="#BAC5F4"/>
<path d="M71.1521 470.324H103.535V601.657L71.1521 601.133V470.324Z" fill="white"/>
<path d="M103.992 493.347H125.428L126.341 601.133L103.535 601.657L103.992 493.347Z" fill="#F5F5FC"/>
<path d="M644.929 469.277H663.63V600.61L644.929 600.086V469.277Z" fill="white"/>
<path d="M664.086 492.3H685.523L686.435 600.086L663.63 600.61L664.086 492.3Z" fill="#F5F5FC"/>
<path d="M127.253 476.603H148.69L149.602 601.133L126.797 601.656L127.253 476.603Z" fill="#F5F5FC"/>
<path d="M148.234 506.427L159.18 496.485L215.281 589.621L202.966 601.133L148.234 506.427Z" fill="white"/>
<path d="M409.124 600.609H543.675L542.763 582.819L409.124 583.866V600.609Z" fill="white"/>
<path d="M431.474 583.343H566.024L565.568 566.076L431.474 567.123V583.343Z" fill="#E9EDFA"/>
<path d="M748.465 464.045H767.165L767.621 602.179L748.465 601.656V464.045Z" fill="white"/>
<path d="M767.621 493.347H789.058L789.97 601.133L767.621 601.657V493.347Z" fill="#F5F5FC"/>
<path d="M1299.44 468.754H1318.14L1318.59 599.563H1299.44V468.754Z" fill="white"/>
<path d="M1318.14 489.684H1340.49L1341.4 598.517L1318.59 599.04L1318.14 489.684Z" fill="#F5F5FC"/>
<path d="M1278 500.672H1299.44L1300.35 599.563L1277.54 600.087L1278 500.672Z" fill="#F5F5FC"/>
<path d="M726.572 476.603H748.465L748.921 601.656L726.572 602.179V476.603Z" fill="#F5F5FC"/>
<path d="M950.062 506.95L961.009 496.485L1016.65 590.145L1004.79 601.133L950.062 506.95Z" fill="white"/>
<path d="M858.842 600.61H993.392L992.48 583.343L858.842 584.389V600.61Z" fill="white"/>
<path d="M851.544 584.389H985.638L985.182 567.122L851.544 568.169V584.389Z" fill="#E9EDFA"/>
<path d="M1377.43 370.909L1376.06 170.51H2598.42L2601.16 649.794L1378.34 661.305L1377.43 389.222" fill="#E9EDFA"/>
<path d="M506.731 254.751C506.731 254.751 494.872 250.041 493.96 246.902C493.047 243.763 488.942 224.403 496.696 224.403H563.287C563.287 224.403 574.234 244.809 560.551 248.995C546.868 253.181 558.726 261.553 562.375 261.553C566.024 261.553 575.146 261.553 576.97 267.308C578.795 273.064 578.795 390.792 578.795 390.792H479.82V276.203C479.82 269.401 484.381 264.169 490.311 263.646H490.767C501.713 263.646 509.467 260.506 506.731 254.751Z" fill="#E9EDFA"/>
<path d="M564.199 300.272H494.872V349.457H564.199V300.272Z" fill="white"/>
<path d="M619.844 254.751C619.844 254.751 607.985 250.041 607.073 246.902C606.161 243.763 602.056 224.403 609.81 224.403H676.401C676.401 224.403 687.347 244.809 673.664 248.995C659.981 253.181 671.84 261.553 675.489 261.553C679.137 261.553 688.259 261.553 690.084 267.308C691.908 273.064 691.908 390.792 691.908 390.792H592.934V276.203C592.934 269.401 597.495 264.169 603.424 263.646H603.88C615.283 263.646 623.037 260.506 619.844 254.751Z" fill="#BAC5F4"/>
<path d="M677.313 300.272H607.985V349.457H677.313V300.272Z" fill="white"/>
<path d="M736.606 253.181C736.606 253.181 724.748 248.472 723.835 245.333C722.923 242.193 718.818 222.833 726.572 222.833H793.163C793.163 222.833 804.11 243.24 790.427 247.426C776.743 251.611 788.602 259.983 792.251 259.983C795.9 259.983 805.022 259.983 806.846 265.739C808.671 271.494 808.671 389.223 808.671 389.223H709.696V274.634C709.696 267.832 714.257 262.599 720.187 262.076H720.643C731.589 262.076 739.799 258.937 736.606 253.181Z" fill="#E9EDFA"/>
<path d="M794.075 298.703H724.748V347.887H794.075V298.703Z" fill="white"/>
<path d="M1984.05 219.171H1419.39V614.737H1984.05V219.171Z" fill="#BAC5F4"/>
<path d="M2044.71 455.673C2058.31 455.673 2069.34 443.023 2069.34 427.418C2069.34 411.814 2058.31 399.164 2044.71 399.164C2031.11 399.164 2020.08 411.814 2020.08 427.418C2020.08 443.023 2031.11 455.673 2044.71 455.673Z" fill="#BAC5F4"/>
<path d="M1796.59 479.219C1796.59 479.219 1784.73 474.51 1783.82 471.371C1782.91 468.231 1778.8 448.872 1786.56 448.872H1853.15C1853.15 448.872 1864.09 469.278 1850.41 473.464C1836.73 477.65 1848.59 486.021 1852.23 486.021C1855.88 486.021 1865.01 486.021 1866.83 491.777C1868.65 497.533 1868.65 615.261 1868.65 615.261H1769.68V500.672C1769.68 493.87 1774.24 488.638 1780.17 488.114H1780.63C1791.57 488.114 1799.33 484.975 1796.59 479.219Z" fill="white"/>
<path d="M1853.6 524.741H1784.28V573.925H1853.6V524.741Z" fill="#F5F5FC"/>
<path d="M715.088 2271.75L701.484 2271.23L631.898 2271.75C631.898 2271.75 616.725 2342.91 608.354 2372.74C607.83 2374.83 606.261 2379.54 605.214 2383.2C604.168 2388.43 603.645 2393.67 603.645 2398.9C605.214 2426.11 615.155 2448.61 639.223 2461.16C665.383 2474.77 685.788 2486.8 714.041 2461.16C742.294 2435.53 745.957 2419.3 734.969 2374.83C725.028 2329.83 721.366 2273.32 715.088 2271.75Z" fill="#4B44BE"/>
<path d="M1005.99 2360.7C957.854 2345.53 925.939 2280.65 925.939 2280.65L844.319 2275.94C844.319 2275.94 839.61 2341.87 837.517 2375.35C834.378 2419.83 842.226 2439.71 871.526 2437.62C910.243 2434.48 1067.2 2448.61 1092.32 2432.91C1124.23 2411.46 1050.46 2374.83 1005.99 2360.7Z" fill="#4B44BE"/>
<path d="M514.7 1097.09V1194.93L632.944 2272.8H716.657C716.657 2272.8 745.433 1533.47 745.433 1507.83C745.433 1482.19 752.758 1402.13 752.758 1402.13C752.758 1402.13 857.922 1705.61 860.015 1731.25C862.108 1756.36 842.749 2279.6 842.749 2279.6L926.462 2282.74C926.462 2282.74 999.711 1929.03 999.711 1895.55C999.711 1862.06 1024.82 1688.34 1020.64 1654.86C1016.98 1621.37 954.715 1100.23 954.715 1100.23L826.53 1097.09H514.7Z" fill="url(#paint0_linear_520_434)"/>
<path d="M1057.26 984.068L1056.22 982.498C1056.22 983.545 1056.74 984.591 1057.26 984.068ZM811.357 889.362L764.792 908.722L762.176 973.603L813.973 994.01C813.973 993.486 870.479 991.917 870.479 991.393C871.002 988.777 892.977 989.3 902.918 996.103L1078.19 935.93L1084.47 894.071C1084.47 894.071 1097.55 946.918 1038.95 840.701L811.357 889.362ZM1020.64 675.882L1016.98 654.953L1008.08 653.383L1020.64 675.882ZM696.775 112.88C675.324 121.775 664.86 153.169 664.86 153.169C664.86 153.169 654.396 146.891 654.396 164.681C654.396 182.471 663.29 222.76 669.568 233.224C680.556 250.491 690.497 268.281 699.914 287.118C708.286 305.954 705.67 343.627 696.775 349.383C687.881 355.138 528.826 497.459 528.826 497.459L397.502 900.35V916.571L417.384 923.373L438.312 941.163C440.405 941.686 466.565 955.813 470.227 958.429C491.156 968.894 513.13 976.743 536.151 981.975C550.801 985.114 616.725 983.545 616.725 983.545L683.172 981.975L671.661 897.211L573.299 896.164L438.835 889.362L575.392 575.944L1005.47 652.86C929.078 514.725 843.272 359.324 835.424 343.104C829.146 329.5 835.948 297.582 839.61 280.839C842.749 265.665 850.597 246.829 857.399 241.596C864.201 236.364 877.281 211.249 877.281 200.784C877.281 190.319 880.42 147.937 871.525 156.832C868.909 159.448 858.445 143.228 854.783 127.531C849.028 104.508 832.808 88.2881 814.496 73.1143C814.496 73.1143 719.796 104.508 698.345 113.403" fill="url(#paint1_linear_520_434)"/>
<path d="M532.489 411.125C511.561 425.253 492.202 444.089 485.4 468.681C478.599 493.273 428.371 684.254 421.569 708.323C405.35 767.449 395.409 784.716 376.051 853.783C352.506 939.07 406.92 952.151 462.379 964.709C520.455 977.79 520.978 983.545 534.582 983.545C536.674 983.545 605.737 997.673 607.83 958.43C609.4 933.838 604.691 895.118 595.797 896.165C574.868 899.304 506.329 880.991 502.666 878.898C497.957 875.759 517.316 822.389 528.826 789.425C537.198 764.833 568.59 663.325 575.392 643.965C579.054 633.501 557.603 742.857 544.523 849.597C543.999 853.783 538.767 895.119 540.337 895.119C556.033 895.119 598.936 895.642 612.016 897.211C672.185 904.014 683.695 932.791 680.033 955.814C673.231 996.103 526.734 977.267 527.78 982.499C527.78 982.499 502.666 1096.04 516.793 1103.37C528.826 1109.65 693.113 1178.19 728.167 1191.27C731.83 1192.84 736.539 1190.75 737.585 1186.56C737.585 1186.56 737.585 1186.56 737.585 1186.04L760.083 1122.2C760.606 1121.68 761.129 1121.16 762.176 1121.68C762.699 1121.68 762.699 1122.2 762.699 1122.2L783.627 1192.32C784.15 1194.41 785.72 1195.46 786.766 1196.5H796.184L978.783 1157.26C978.783 1157.26 978.259 1085.05 977.736 992.964C977.736 983.545 976.166 949.535 969.365 955.814C962.563 962.093 810.311 981.976 793.568 975.174C758.513 960.523 767.408 923.373 779.965 908.199C794.091 890.933 974.074 882.038 974.597 868.957C977.736 812.447 973.027 664.371 969.888 682.161C965.179 709.893 860.015 862.155 860.015 888.84C860.015 915.525 857.922 981.976 857.922 981.976L1030.58 968.372C1030.58 968.372 1088.66 948.489 1093.89 915.001C1099.12 881.514 1092.84 866.864 1090.75 816.633C1089.18 785.239 1044.71 595.304 1032.15 541.411C1030.06 533.039 1029.01 525.191 1028.49 516.819C1026.92 494.32 1018.02 442.519 969.888 420.02C910.243 391.765 864.201 369.266 852.167 369.266C841.18 369.266 810.311 436.241 794.614 455.077C787.813 463.449 788.859 467.635 779.965 480.192C775.256 486.994 766.361 488.041 759.56 483.332C757.99 482.285 756.944 480.716 755.897 479.146C750.665 471.821 746.48 463.449 742.294 455.6C735.492 441.473 680.556 360.895 680.556 360.895C680.556 360.895 553.417 396.475 532.489 411.125Z" fill="url(#paint2_linear_520_434)"/>
<path d="M813.45 73.6374C813.45 73.6374 696.775 117.066 688.404 123.345C680.033 129.624 664.86 153.693 664.86 153.693C664.86 153.693 656.488 148.983 654.919 161.541C654.919 161.541 642.885 136.949 641.316 123.345C639.746 109.741 641.316 74.1607 663.813 50.6151C686.311 27.0695 731.307 -3.80149 759.037 0.384401C786.767 4.57029 798.8 7.70972 816.066 25.4997C833.332 42.7665 848.505 47.9989 853.737 50.6151C858.969 53.2313 878.851 67.8819 882.513 95.0902C885.652 122.298 876.758 176.715 876.758 176.715C876.758 176.715 879.374 155.786 871.002 162.064C865.247 166.774 856.353 147.414 853.737 135.903C850.074 123.868 820.252 76.2536 813.45 73.6374Z" fill="url(#paint3_linear_520_434)"/>
<g opacity="0.07">
<path d="M852.69 370.835C852.167 368.743 865.247 378.684 849.551 367.696C827.576 351.476 838.04 286.071 838.04 286.071C829.669 303.338 815.543 316.419 798.277 323.221C770.547 333.686 761.652 325.837 805.078 350.952C847.458 375.545 825.483 383.916 822.344 416.357" fill="black"/>
</g>
<g opacity="0.07">
<path d="M937.973 602.106L996.048 821.865C996.048 821.865 995.525 861.108 984.015 866.863C972.504 872.619 935.88 876.282 927.508 880.468C919.137 884.654 830.192 902.967 853.213 871.573C858.445 864.771 978.783 822.388 924.892 778.437C871.002 734.485 880.42 672.743 906.58 630.361C932.741 587.979 926.985 551.875 926.985 551.875L937.973 602.106Z" fill="black"/>
</g>
<g opacity="0.07">
<path d="M692.589 1180.81C692.589 1180.81 642.362 1447.13 668.522 1553.35C707.762 1714.51 651.256 1932.7 651.256 2037.34C651.256 2105.36 677.94 2293.21 680.032 2370.12C680.556 2393.14 697.298 2437.62 684.741 2448.08C679.509 2452.79 647.594 2442.33 630.328 2433.96C620.91 2429.25 615.678 2419.83 616.725 2410.41L627.189 2364.89L641.839 2304.72L537.721 1330.97C537.721 1330.97 504.236 1114.36 523.071 1113.31C541.906 1112.26 693.113 1180.81 692.589 1180.81Z" fill="black"/>
</g>
<path d="M644.978 822.912L841.703 847.504C845.888 848.55 848.505 852.213 847.981 856.922L842.226 1034.82C841.703 1040.58 838.564 1047.9 833.332 1046.33L637.653 1008.66C633.991 1007.61 631.375 1003.95 631.375 1000.29L630.851 980.929L652.303 975.173C658.058 973.604 663.29 970.464 667.476 967.325C668.522 966.802 669.569 965.755 670.092 964.709L674.801 957.907C676.37 955.814 676.893 953.197 676.37 951.105C675.847 946.919 674.277 941.686 673.754 938.547C673.231 937.5 673.231 936.454 672.708 935.407L667.999 924.943C665.906 920.234 662.244 916.571 657.012 913.955L653.872 912.385L632.944 900.874L635.037 831.283C635.037 826.574 639.223 822.912 643.932 822.912C644.455 822.912 644.455 822.912 644.978 822.912Z" fill="white"/>
<defs>
<linearGradient id="paint0_linear_520_434" x1="514.927" y1="1689.53" x2="1021.44" y2="1689.53" gradientUnits="userSpaceOnUse">
<stop stop-color="#4B45BD"/>
<stop offset="1" stop-color="#7A5BF5"/>
</linearGradient>
<linearGradient id="paint1_linear_520_434" x1="397.497" y1="534.296" x2="1085.09" y2="534.296" gradientUnits="userSpaceOnUse">
<stop stop-color="#F87B58"/>
<stop offset="0.41" stop-color="#F89453"/>
<stop offset="0.71" stop-color="#F8C548"/>
<stop offset="1" stop-color="#F89C51"/>
</linearGradient>
<linearGradient id="paint2_linear_520_434" x1="370.227" y1="779.761" x2="1097.02" y2="779.761" gradientUnits="userSpaceOnUse">
<stop stop-color="#4B45BD"/>
<stop offset="1" stop-color="#58CAEA"/>
</linearGradient>
<linearGradient id="paint3_linear_520_434" x1="641.234" y1="87.9621" x2="883.18" y2="87.9621" gradientUnits="userSpaceOnUse">
<stop stop-color="#4B45BD"/>
<stop offset="1" stop-color="#58CAEA"/>
</linearGradient>
</defs>
</svg>
