<svg width="704" height="852" viewBox="0 0 704 852" fill="none" xmlns="http://www.w3.org/2000/svg">
<path d="M0.00142903 533.277C0.00127811 487.277 0.00135798 354.777 0.00135798 315.277C0.000963907 219.777 0.00126648 57.7769 255.501 57.7769C505.042 57.7769 587.501 53.277 703.001 53.277C802.501 53.2768 969.009 38.4633 1023.53 109.748C1056.58 152.949 1168.34 346.743 1097.01 413.923C1025.68 481.103 1131.55 613.969 1134.82 684.508C1138.09 755.046 1036.23 764.19 908.137 766.336C780.044 768.482 742.001 829.777 742.001 829.777C742.001 829.777 114.001 917 0.00134234 700C0.000960731 641.5 0.00161604 590.277 0.00142903 533.277Z" fill="#F8F8FF"/>
<path d="M83.2753 670.598C66.9369 670.038 5.59756 678.435 1.95641 681.608C1.02278 682.447 -12.4214 722.382 46.6772 773.886C141.16 856.368 634.154 866.352 716.5 835.001C836.004 789.468 728.132 867.658 999.537 835.001C1086.27 824.551 1144.25 691.778 1104.85 674.516C1081.23 664.253 1052.94 691.498 1029.23 679.555C1001.87 665.746 946.507 657.162 912.243 667.705C910.843 668.078 910.002 669.571 910.376 670.971C910.749 672.277 912.056 673.117 913.457 672.837L895.438 678.622C875.365 693.551 879.846 673.677 832.791 671.157L694.054 667.705C644.479 669.198 453.552 677.596 378.862 674.61H337.782C310.333 671.157 239.284 669.571 236.67 669.478L83.2753 670.598Z" fill="#F5F5F5"/>
<g clip-path="url(#clip0_463_212)">
<path d="M106.486 417H148.499C148.499 417 161.57 418.866 162.503 428.197C163.437 437.527 162.223 558.917 162.223 558.917L246.53 557.891C246.53 557.891 254.932 560.69 254.932 570.02C254.932 579.351 248.397 583.083 248.397 583.083L120.303 582.523L106.486 417Z" fill="#BAC6F2"/>
<path d="M106.486 417C106.486 417 94.3486 418.866 93.4149 437.527C92.4813 456.188 93.4149 582.15 93.4149 582.15L221.415 583.083C223.283 583.083 225.056 582.337 226.27 580.937C228.137 578.884 230.658 575.712 230.658 572.82C230.658 567.781 228.791 559.757 218.521 559.757C208.251 559.757 121.424 558.824 121.424 558.824L119.557 428.197C119.557 428.29 119.557 418.866 106.486 417Z" fill="#B1C1F2"/>
<path d="M160.076 582.803C160.076 582.803 157.835 593.347 165.304 593.347H177.441C178.375 593.347 182.389 587.748 179.869 583.083C177.348 578.418 160.076 582.803 160.076 582.803Z" fill="#BAC6F2"/>
<path d="M165.304 593.44L166.238 698.781H174.641L175.108 592.787L165.304 593.44Z" fill="#E9EDFA"/>
<path d="M130.76 696.915L211.052 697.848V705.313L130.76 704.38V696.915Z" fill="#E9EDFA"/>
<path d="M237.615 699.326L233.881 504.318H253.487L252.553 699.326H237.615Z" fill="white"/>
<path d="M664.283 505.251H685.756L678.287 700.259L664.283 701.192V505.251Z" fill="white"/>
<path d="M218.942 470.728L219.876 502.452L695.092 505.251L695.653 469.795L218.942 470.728Z" fill="#E9EDFA"/>
<path d="M190 453L724.035 454.866V472.594L190.934 471.661L190 453Z" fill="#BAC6F2"/>
<path d="M346.029 174L346.683 352.959L844.773 352.213V175.4L346.029 174Z" fill="white"/>
<path d="M435.097 229.983V252.003L639.095 251.07V229.983H435.097Z" fill="#BAC6F2"/>
<path d="M435.097 291.284V313.304L639.095 312.371V291.284H435.097Z" fill="#BAC6F2"/>
<path d="M400.646 259.654C409.103 259.654 415.958 252.803 415.958 244.352C415.958 235.901 409.103 229.05 400.646 229.05C392.19 229.05 385.335 235.901 385.335 244.352C385.335 252.803 392.19 259.654 400.646 259.654Z" fill="#BAC6F2"/>
<path d="M400.646 316.85C409.103 316.85 415.958 309.999 415.958 301.548C415.958 293.097 409.103 286.246 400.646 286.246C392.19 286.246 385.335 293.097 385.335 301.548C385.335 309.999 392.19 316.85 400.646 316.85Z" fill="#BAC6F2"/>
<path d="M815.924 254.056H694.832V313.118H815.924V254.056Z" fill="#E9EDFA"/>
<path d="M692.872 310.319C692.872 310.319 702.301 289.698 711.264 291.938C720.227 294.177 722.468 303.601 729.19 299.589C735.912 295.577 740.3 279.342 746.835 276.729C756.171 273.09 759.252 277.102 771.856 284.287C784.46 291.471 789.782 289.885 794.917 284.567C799.679 279.715 808.455 266.559 818.164 260.681" stroke="#BAC6F2" stroke-width="0.679216" stroke-linecap="round" stroke-linejoin="round"/>
<path d="M307.19 176.333H127V347.548H307.19V176.333Z" fill="white"/>
<path d="M214.761 326.554C240.49 326.554 261.349 305.709 261.349 279.995C261.349 254.281 240.49 233.435 214.761 233.435C189.031 233.435 168.173 254.281 168.173 279.995C168.173 305.709 189.031 326.554 214.761 326.554Z" stroke="#BAC6F2" stroke-width="1.35843" stroke-linecap="round" stroke-linejoin="round"/>
<path d="M184.698 191.168H138.857V201.992H184.698V191.168Z" fill="#BAC6F2"/>
<path d="M184.698 208.15H138.857V218.973H184.698V208.15Z" fill="#BAC6F2"/>
<path d="M249.695 429.431H391.887C391.887 429.431 397.208 429.151 397.208 422.993V410.77H244.094V425.605C244.84 427.938 247.081 429.524 249.695 429.431Z" fill="#BAC5F4"/>
<path d="M244.093 318.397L244 415.435L397.208 414.035V315.598C397.208 315.598 398.142 310 392.167 310H249.882C249.882 310 243.44 310 244.093 318.397Z" fill="#BAC5F4"/>
<path d="M308.513 455.463V428.497L330.921 429.43V453.13L308.513 455.463Z" fill="#BAC5F4"/>
<path d="M272.942 452.757H366.025L366.118 457.422H272.942V452.757Z" fill="#BAC5F4"/>
<path d="M319.25 417.394C321.771 417.394 323.732 419.354 323.732 421.873C323.732 424.392 321.771 426.351 319.25 426.351C316.73 426.351 314.769 424.392 314.769 421.873C314.769 419.354 316.823 417.394 319.25 417.394Z" fill="white"/>
<path d="M392.54 314.665H248.762V408.903H392.54V314.665Z" fill="#F8F8FF"/>
<path d="M255.95 319.517C257.164 319.517 258.191 320.543 258.191 321.756C258.191 322.969 257.164 323.996 255.95 323.996C254.736 323.996 253.709 322.969 253.709 321.756C253.709 320.543 254.736 319.517 255.95 319.517Z" fill="#FA5F5D"/>
<path d="M263.606 319.517C264.82 319.517 265.847 320.543 265.847 321.756C265.847 322.969 264.82 323.996 263.606 323.996C262.393 323.996 261.366 322.969 261.366 321.756C261.366 320.543 262.393 319.517 263.606 319.517Z" fill="#FDBC4E"/>
<path d="M271.635 319.517C272.849 319.517 273.876 320.543 273.876 321.756C273.876 322.969 272.849 323.996 271.635 323.996C270.422 323.996 269.395 322.969 269.395 321.756C269.395 320.543 270.422 319.517 271.635 319.517Z" fill="#37CD58"/>
<path d="M302.912 335.939C302.819 337.152 301.792 338.085 300.578 337.991H273.036C271.636 337.991 270.235 337.058 270.235 335.939V331.74C270.235 330.62 271.542 329.594 273.036 329.594H300.485C301.698 329.501 302.819 330.434 302.912 331.647V331.74V335.939Z" fill="url(#paint0_linear_463_212)"/>
<path d="M369.2 363.744C369.106 365.05 367.986 366.076 366.679 365.983H273.036C271.636 365.983 270.235 364.957 270.235 363.744V343.03C270.235 341.817 271.636 340.791 273.036 340.791H366.679C367.986 340.697 369.106 341.724 369.2 343.03V363.744Z" fill="url(#paint1_linear_463_212)"/>
<path d="M301.045 381.472C301.045 382.685 300.018 383.711 298.804 383.711H273.036C271.542 383.711 270.235 382.685 270.235 381.472V370.089C270.235 368.876 271.636 367.849 273.036 367.849H298.617C299.831 367.756 300.951 368.689 301.045 369.995V370.089V381.472Z" fill="url(#paint2_linear_463_212)"/>
<path d="M334.655 381.472C334.655 382.685 333.628 383.711 332.415 383.711H306.647C305.153 383.711 303.846 382.685 303.846 381.472V370.089C303.846 368.876 305.246 367.849 306.647 367.849H332.228C333.442 367.756 334.562 368.689 334.655 369.995V370.089V381.472Z" fill="url(#paint3_linear_463_212)"/>
<path d="M369.2 381.472C369.106 382.778 367.986 383.804 366.679 383.711H341.097C339.697 383.804 338.577 382.778 338.39 381.472V370.089C338.483 368.689 339.697 367.756 341.097 367.849H366.679C367.986 367.756 369.2 368.782 369.293 370.089L369.2 381.472Z" fill="url(#paint4_linear_463_212)"/>
<path d="M334.655 387.91C334.469 388.376 334.095 388.656 333.628 388.749C333.535 388.749 333.535 388.749 333.442 388.376H305.246C304.686 388.749 303.846 388.376 303.846 387.91V387.537C303.846 387.07 304.686 386.604 305.246 386.51H333.442C333.909 386.604 334.189 386.977 334.282 387.35C334.282 387.443 334.282 387.443 334.562 387.537L334.655 387.91Z" fill="#E9EDFB"/>
<path d="M334.655 391.549C334.469 392.015 334.095 392.388 333.628 392.482C333.628 392.482 333.535 392.482 333.535 392.109H305.246C304.686 392.482 303.846 392.109 303.846 391.549V391.175C303.846 390.709 304.686 390.336 305.246 390.242H333.442C333.909 390.336 334.375 390.709 334.562 391.175L334.655 391.549Z" fill="#E9EDFB"/>
<path d="M334.655 395.281C334.469 395.841 334.002 396.214 333.535 396.307C333.535 396.121 333.535 396.027 333.535 395.841H305.246C304.779 396.121 304.219 396.027 303.939 395.561C303.846 395.467 303.846 395.374 303.846 395.281V394.908C303.846 394.441 304.686 394.161 305.246 393.974H333.442C333.909 394.068 334.375 394.441 334.562 394.908L334.655 395.281Z" fill="#E9EDFB"/>
<path d="M334.655 398.92C334.375 399.48 334.002 400.039 333.535 400.506H305.246C304.686 400.039 303.846 399.48 303.846 398.92V398.547C303.846 398.08 304.686 397.52 305.246 397.707H333.442C333.815 397.613 334.189 397.893 334.282 398.267C334.282 398.36 334.282 398.453 334.282 398.547C334.282 398.547 334.282 398.547 334.562 398.64L334.655 398.92Z" fill="#E9EDFB"/>
<path d="M318.97 402.652C318.97 403.119 318.69 403.305 318.13 403.305H305.153C304.593 403.305 303.846 403.119 303.846 402.652V402.279C303.846 401.812 304.593 401.439 305.153 401.439H318.13C318.597 401.439 318.97 401.812 318.97 402.279V402.652Z" fill="#E9EDFB"/>
<path d="M369.199 387.91C368.639 388.376 368.733 388.75 368.172 388.376H339.977C339.51 388.75 339.043 388.47 339.043 388.003C339.043 388.003 339.043 388.003 339.323 387.91V387.537C339.043 387.07 339.417 386.604 339.977 386.51H368.172C368.733 386.697 368.639 387.07 369.199 387.537V387.91Z" fill="#E9EDFB"/>
<path d="M369.199 391.549C368.639 392.015 368.732 392.482 368.172 392.109H339.977C339.416 392.482 339.043 392.109 339.323 391.549V391.175C339.043 390.709 339.416 390.336 339.977 390.242H368.172C368.732 390.429 368.639 390.709 369.199 391.175V391.549Z" fill="#E9EDFB"/>
<path d="M369.199 395.281C368.639 395.747 368.732 396.307 368.172 395.841H339.977C339.416 396.214 339.043 395.841 339.323 395.281V394.908C339.043 394.441 339.416 394.161 339.977 393.974H368.172C368.732 394.161 368.639 394.441 369.199 394.908V395.281Z" fill="#E9EDFB"/>
<path d="M369.199 398.92C368.639 399.386 368.733 400.04 368.172 400.506H339.977C339.417 399.946 339.043 399.48 339.323 398.92V398.547C339.137 398.36 339.137 397.987 339.323 397.8C339.51 397.707 339.697 397.614 339.884 397.707H368.172C368.733 397.52 368.639 398.08 369.199 398.547V398.92V398.92Z" fill="#E9EDFB"/>
<path d="M353.701 402.652C353.701 403.119 353.701 403.305 353.234 403.305H340.163C339.603 403.305 339.323 403.119 339.323 402.652V402.279C339.323 401.812 339.697 401.439 340.163 401.439H353.141C353.701 401.439 353.608 401.812 353.608 402.279L353.701 402.652Z" fill="#E9EDFB"/>
<path d="M300.111 387.91C300.485 388.376 300.298 388.75 299.738 388.376H271.449C271.075 388.656 270.609 388.563 270.422 388.283C270.328 388.19 270.328 388.096 270.235 387.91V387.537C270.422 386.977 270.889 386.604 271.449 386.51H299.644C300.205 386.697 300.391 387.07 300.018 387.537L300.111 387.91Z" fill="#E9EDFB"/>
<path d="M300.111 391.549C300.485 392.015 300.298 392.482 299.738 392.109H271.449C270.889 392.575 270.422 392.109 270.235 391.549V391.175C270.328 390.709 270.889 390.336 271.449 390.242H299.644C300.205 390.429 300.391 390.709 300.018 391.175L300.111 391.549Z" fill="#E9EDFB"/>
<path d="M300.111 395.281C300.485 395.747 300.298 396.307 299.738 395.841H271.449C270.889 396.307 270.422 395.841 270.235 395.281V394.908C270.328 394.441 270.889 394.161 271.449 393.974H299.644C300.205 394.161 300.391 394.441 300.018 394.908L300.111 395.281Z" fill="#E9EDFB"/>
<path d="M291.709 397.707H299.738C300.298 397.52 300.485 398.08 300.111 398.547V398.92C300.485 399.386 300.298 400.039 299.738 400.506H271.449C270.889 400.133 270.515 399.573 270.235 398.92V398.547C270.328 397.987 270.889 397.613 271.449 397.707H291.709Z" fill="#E9EDFB"/>
<path d="M286.107 402.652C286.107 403.119 285.827 403.305 285.266 403.305H271.262C270.702 403.305 270.235 403.119 270.235 402.652V402.279C270.328 401.812 270.795 401.439 271.262 401.439H285.266C285.733 401.439 286.107 401.812 286.107 402.185C286.107 402.185 286.107 402.185 286.107 402.279V402.652Z" fill="#E9EDFB"/>
<path d="M98.8238 700.255C98.8238 700.255 107.04 655.655 63.7194 631.769C20.4924 607.883 18.4384 608.163 9.84907 605.457C4.90084 603.777 -0.140748 607.323 5.55438 614.414C11.2495 621.599 7.98181 623.371 19.3721 626.544C30.7623 629.716 32.4428 643.525 38.138 646.978C43.8331 650.43 48.7813 651.363 66.1468 658.827C81.9251 665.639 95.3693 684.859 95.3693 691.577C95.3693 698.295 110.774 700.628 110.774 700.628L98.8238 700.255Z" fill="url(#paint5_linear_463_212)"/>
<path d="M97.3299 694.004C97.3299 694.004 108.347 652.949 70.4415 630.743C32.5362 608.536 19.372 608.816 11.8097 606.11C7.51497 604.524 19.2787 609.936 24.2269 616.467C29.1751 623.092 27.9614 621.599 36.8309 626.451C47.1008 632.142 51.3955 637.647 57.464 638.767C66.2401 640.446 63.626 649.59 78.8441 656.402C92.5684 662.653 94.3423 679.355 94.3423 685.606C94.3423 691.951 107.787 694.004 107.787 694.004H97.3299Z" fill="url(#paint6_linear_463_212)"/>
<path d="M135.422 687.939L139.716 683.833C141.77 681.967 144.291 680.567 146.999 679.821C160.35 676.275 202.456 663.119 219.915 631.302C220.102 631.022 219.915 630.649 219.635 630.556H219.542C219.448 630.556 219.355 630.463 219.355 630.463C213.566 629.996 183.597 629.53 143.544 663.679C142.797 664.239 142.144 664.986 141.584 665.639C140.557 667.038 138.876 669.464 138.129 670.677C137.102 672.543 139.156 675.622 136.355 678.328C133.554 681.034 127.486 687.845 127.486 687.845L132.434 691.484L135.422 687.939Z" fill="url(#paint7_linear_463_212)"/>
<path d="M112.642 685.326C112.642 685.326 124.125 582.597 92.7554 550.314C63.9063 520.643 63.4395 547.888 63.5329 552.553C63.5329 553.019 63.7196 553.299 63.813 553.673C70.6284 566.362 72.9625 581.011 70.5351 595.193C67.5475 610.029 88.8342 608.07 90.7014 622.718C92.5687 637.367 99.9443 659.947 99.1974 670.304C98.4505 680.661 98.3572 690.738 98.3572 690.738L109.934 691.111L112.642 685.326Z" fill="url(#paint8_linear_463_212)"/>
<path d="M112.548 685.606C112.642 685.419 112.735 685.139 112.735 684.86C113.482 678.142 123.098 581.384 92.8488 550.22C64.1865 520.643 63.7196 547.421 63.9064 552.273C63.9997 552.833 64.2798 553.393 64.5599 553.859C66.7073 556.938 76.1369 570.374 84.5395 568.881C107.787 564.776 87.2471 592.674 99.851 607.603C109.934 619.359 106.573 660.04 105.826 670.491C105.359 676.369 104.332 682.154 102.839 687.845C102.559 689.338 103.586 690.738 104.986 691.018C105.079 691.018 105.173 691.018 105.173 691.018C105.359 691.018 105.546 691.111 105.733 691.111H107.88C109.187 691.204 110.308 690.551 110.868 689.432L112.548 685.606Z" fill="url(#paint9_linear_463_212)"/>
<path d="M123.845 691.577C123.845 691.577 125.899 663.119 142.517 645.765C147.185 641.006 153.067 637.74 159.509 636.248C164.457 635.128 172.58 631.116 179.676 617.773C179.676 617.773 193.026 598.832 206.471 593.141C219.821 587.356 206.471 586.703 206.471 586.703C206.471 586.703 168.192 593.98 143.638 616.374C142.05 617.773 140.463 619.079 138.689 620.199C132.341 624.584 114.695 640.913 115.442 688.778L123.845 691.577Z" fill="url(#paint10_linear_463_212)"/>
<path d="M157.082 689.338C157.082 689.338 157.642 685.886 153.067 685.979C149.053 686.166 81.4582 685.606 81.4582 685.606C81.4582 685.606 78.2838 685.606 78.4706 688.032C78.6573 690.458 88.9272 746.721 89.8608 747.841C90.3276 748.587 90.9812 749.147 91.8215 749.333C93.1285 749.707 140.557 749.427 140.557 749.427C141.677 749.24 142.517 748.4 142.611 747.281C142.611 747.281 157.175 689.991 157.082 689.338Z" fill="url(#paint11_linear_463_212)"/>
<path d="M561.986 764.836C559.466 754.199 558.625 740.577 556.945 740.297H555.077L537.245 740.483C537.245 740.483 533.511 757.465 531.643 764.556C531.457 765.023 531.177 766.236 530.803 767.075C530.43 768.288 530.43 769.595 530.43 770.808C530.803 777.246 533.324 782.751 539.019 785.643C545.461 788.816 550.316 791.895 556.851 785.643C563.48 779.298 564.507 775.473 561.986 764.836Z" fill="#4B44BE"/>
<path d="M505.502 741.976L482.908 743.189C482.908 743.189 473.945 758.678 460.874 762.41C448.55 765.956 428.197 774.54 437.253 779.392C443.976 783.311 487.483 779.765 498.033 780.605C505.968 781.258 508.116 776.406 507.275 765.769C506.715 757.745 505.502 741.976 505.502 741.976Z" fill="#4B44BE"/>
<path d="M478.426 460.102C478.426 460.102 463.302 584.664 462.275 592.782C461.248 600.899 467.503 642.42 467.503 650.351C467.503 658.282 482.348 743.283 482.348 743.283L505.968 742.256C505.968 742.256 501.207 617.134 501.767 611.069C502.234 605.005 528.095 532.413 528.095 532.413C528.095 532.413 529.963 551.634 529.963 557.699C529.963 563.764 537.058 740.763 537.058 740.763H557.598L586.727 480.069L586.26 475.03L478.426 460.102Z" fill="url(#paint12_linear_463_212)"/>
<path d="M547.795 219.468C547.795 219.468 525.201 228.239 520.16 230.198C515.118 232.251 512.224 238.409 512.224 238.409C512.224 238.409 509.703 236.916 509.703 241.115C509.703 245.313 511.757 254.924 513.437 257.443C516.145 261.642 518.479 265.841 520.72 270.226C522.774 274.611 522.027 283.662 519.879 285.061C517.732 286.368 479.64 320.797 479.64 320.797L447.897 418.301L452.098 449.092L458.54 479.416C458.54 479.416 457.233 481.562 459.847 484.174C462.555 486.694 474.038 505.541 474.038 505.541L477.96 477.736L464.982 436.496L460.407 401.786L490.75 339.831L595.877 358.492L607.36 426.045L586.074 483.615L582.339 511.699L600.171 496.024C601.198 495.184 603.159 490.799 604.186 488.466L614.829 458.516L622.765 410.65C622.765 410.65 556.384 291.126 553.023 284.035C551.529 280.863 553.21 273.118 554.05 269.2C554.89 265.654 556.571 261.082 558.252 259.776C560.772 257.07 561.986 253.244 562.64 249.699C562.64 247.18 563.667 237.382 561.146 239.808C560.679 240.462 558.812 237.476 557.971 233.557C556.384 227.865 552.37 223.107 547.795 219.468Z" fill="url(#paint13_linear_463_212)"/>
<path d="M539.206 316.972C537.525 318.464 535.005 318.278 533.511 316.785C532.297 314.919 531.177 313.053 530.336 311.187C528.656 307.828 515.678 288.793 515.678 288.793C515.678 288.793 484.869 296.724 479.92 299.897C474.879 303.256 470.304 307.828 468.624 313.706C466.943 319.584 443.136 388.817 442.015 393.015C440.801 397.214 434.733 403.932 437.627 421.007C440.521 438.082 456.486 481.655 458.167 482.122C459.847 482.588 476.839 474.191 476.839 474.191C476.839 474.191 463.395 419.98 463.395 414.569C463.395 409.157 475.532 393.855 480.387 383.405C485.242 372.955 488.79 363.904 490.47 359.332C492.151 354.76 475.999 449.465 475.999 449.465C475.999 449.465 475.626 466.633 478.893 468.313C481.881 469.805 518.106 483.615 526.602 486.88C527.442 487.253 528.469 486.694 528.936 485.854L534.351 470.552C534.351 470.365 534.538 470.179 534.724 470.365C534.911 470.365 534.911 470.552 534.911 470.552L539.953 487.253C540.139 488.093 541.166 488.56 542.007 488.466L586.634 478.856C586.634 478.856 585.981 396.561 586.821 382.752C587.474 369.316 585.794 361.665 588.315 365.397C591.022 369.409 602.319 406.451 602.319 412.703C602.319 418.954 589.715 473.631 589.715 473.631L606.427 482.868C606.427 482.868 629.021 422.78 630.141 414.849C631.355 406.918 631.822 402.719 628.087 394.788C624.353 386.857 603.813 315.012 603.813 315.012C603.813 315.012 601.759 306.242 586.634 301.67C571.509 297.098 560.213 290.38 557.505 290.566C554.797 290.753 546.395 306.521 542.66 311.28C540.886 313.053 541.26 313.893 539.206 316.972Z" fill="url(#paint14_linear_463_212)"/>
<path d="M547.608 219.561C547.608 219.561 522.12 228.798 516.985 232.717C513.064 235.61 512.224 238.315 512.224 238.315C512.224 238.315 509.516 237.103 509.703 241.021C509.889 244.94 506.715 234.957 505.781 231.784C505.128 228.612 504.941 219.654 511.85 213.123C518.759 206.592 526.321 201.647 532.763 202.02C539.205 202.393 544.434 204.166 549.475 209.111C554.517 213.963 555.73 213.683 556.757 214.149C557.784 214.616 563.013 220.214 563.666 226.279C564.32 232.344 562.453 241.301 562.453 241.301C562.453 241.301 561.239 239.995 559.932 240.928C558.625 241.861 558.251 235.236 553.863 226.932C550.689 220.774 547.608 219.561 547.608 219.561Z" fill="url(#paint15_linear_463_212)"/>
<path opacity="0.07" d="M531.456 519.63C528.562 528.028 517.265 544.543 509.89 554.526C502.514 564.417 479.734 585.317 481.227 610.789C482.721 636.262 498.033 701.762 498.033 707.64C498.033 713.518 492.338 741.323 487.949 749.907C483.561 758.492 481.507 773.794 483.748 773.794C487.763 773.607 491.964 773.14 496.072 772.114C499.806 771.274 503.448 770.435 506.995 769.222C508.489 768.568 508.863 763.623 508.863 763.623C509.049 761.571 508.676 759.425 508.209 757.558C507.182 754.386 506.342 751.12 505.875 747.948C505.035 724.062 502.888 668.639 503.354 664.72C504.195 657.442 498.313 620.96 503.728 602.952C509.049 585.037 531.456 519.63 531.456 519.63Z" fill="black"/>
<path opacity="0.07" d="M476.839 474.191L472.918 504.142C472.918 504.142 476.839 510.393 477.959 505.168C479.173 499.943 487.202 490.146 482.161 483.148C477.119 476.15 476.839 474.191 476.839 474.191Z" fill="black"/>
<path opacity="0.07" d="M586.354 482.495L585.047 496.771L583.366 510.58C583.366 510.58 577.671 514.779 577.764 509.367C577.951 503.955 568.148 495.931 575.617 490.519C583.086 485.108 586.354 482.495 586.354 482.495Z" fill="black"/>
<path opacity="0.07" d="M515.492 288.98C516.519 288.794 510.637 290.287 515.865 288.607C524.828 285.715 521.093 268.92 521.093 268.92C521.093 268.92 521.934 275.171 530.336 277.69C538.739 280.21 540.979 278.343 528.282 284.222C515.678 290.1 522.214 292.153 523.054 299.897" fill="black"/>
<path opacity="0.07" d="M490.19 365.117L475.999 450.958C475.999 450.958 476.186 466.26 478.893 468.499C481.601 470.645 490.657 472.231 492.711 473.724C494.765 475.217 516.612 482.495 510.917 470.179C509.61 467.473 480.107 450.958 493.271 433.603C506.435 416.248 504.008 392.362 497.846 375.661C494.112 365.864 492.244 355.413 492.804 345.057L490.19 365.117Z" fill="black"/>
</g>
<defs>
<linearGradient id="paint0_linear_463_212" x1="270.212" y1="333.776" x2="302.889" y2="333.776" gradientUnits="userSpaceOnUse">
<stop stop-color="#F71D69"/>
<stop offset="1" stop-color="#F8C648"/>
</linearGradient>
<linearGradient id="paint1_linear_463_212" x1="270.212" y1="353.37" x2="369.177" y2="353.37" gradientUnits="userSpaceOnUse">
<stop stop-color="#E5A4ED"/>
<stop offset="1" stop-color="#7A5BF5"/>
</linearGradient>
<linearGradient id="paint2_linear_463_212" x1="270.212" y1="375.761" x2="301.022" y2="375.761" gradientUnits="userSpaceOnUse">
<stop stop-color="#E5A4ED"/>
<stop offset="1" stop-color="#7A5BF5"/>
</linearGradient>
<linearGradient id="paint3_linear_463_212" x1="303.823" y1="375.761" x2="334.633" y2="375.761" gradientUnits="userSpaceOnUse">
<stop stop-color="#E5A4ED"/>
<stop offset="1" stop-color="#7A5BF5"/>
</linearGradient>
<linearGradient id="paint4_linear_463_212" x1="338.367" y1="375.764" x2="369.177" y2="375.764" gradientUnits="userSpaceOnUse">
<stop stop-color="#E5A4ED"/>
<stop offset="1" stop-color="#7A5BF5"/>
</linearGradient>
<linearGradient id="paint5_linear_463_212" x1="3.15664" y1="652.751" x2="110.986" y2="652.751" gradientUnits="userSpaceOnUse">
<stop stop-color="#93FD93"/>
<stop offset="0.51" stop-color="#21C2C1"/>
<stop offset="1" stop-color="#84F599"/>
</linearGradient>
<linearGradient id="paint6_linear_463_212" x1="43.5594" y1="618.718" x2="104.783" y2="693.826" gradientUnits="userSpaceOnUse">
<stop stop-color="#93FD93"/>
<stop offset="0.51" stop-color="#21C2C1"/>
<stop offset="1" stop-color="#84F599"/>
</linearGradient>
<linearGradient id="paint7_linear_463_212" x1="114.109" y1="703.606" x2="198.302" y2="638.422" gradientUnits="userSpaceOnUse">
<stop stop-color="#93FD93"/>
<stop offset="0.51" stop-color="#21C2C1"/>
<stop offset="1" stop-color="#84F599"/>
</linearGradient>
<linearGradient id="paint8_linear_463_212" x1="135.285" y1="670.527" x2="62.9927" y2="578.953" gradientUnits="userSpaceOnUse">
<stop stop-color="#93FD93"/>
<stop offset="0.51" stop-color="#21C2C1"/>
<stop offset="1" stop-color="#84F599"/>
</linearGradient>
<linearGradient id="paint9_linear_463_212" x1="63.8544" y1="613.806" x2="114.757" y2="613.806" gradientUnits="userSpaceOnUse">
<stop stop-color="#93FD93"/>
<stop offset="0.51" stop-color="#21C2C1"/>
<stop offset="1" stop-color="#84F599"/>
</linearGradient>
<linearGradient id="paint10_linear_463_212" x1="110.393" y1="696.92" x2="165.487" y2="617.193" gradientUnits="userSpaceOnUse">
<stop stop-color="#93FD93"/>
<stop offset="0.51" stop-color="#21C2C1"/>
<stop offset="1" stop-color="#84F599"/>
</linearGradient>
<linearGradient id="paint11_linear_463_212" x1="78.6047" y1="717.516" x2="157.168" y2="717.516" gradientUnits="userSpaceOnUse">
<stop stop-color="#E5A4ED"/>
<stop offset="1" stop-color="#7A5BF5"/>
</linearGradient>
<linearGradient id="paint12_linear_463_212" x1="462.11" y1="601.673" x2="586.566" y2="601.673" gradientUnits="userSpaceOnUse">
<stop stop-color="#4B45BD"/>
<stop offset="1" stop-color="#58CAEA"/>
</linearGradient>
<linearGradient id="paint13_linear_463_212" x1="447.899" y1="365.596" x2="622.792" y2="365.596" gradientUnits="userSpaceOnUse">
<stop stop-color="#F87B58"/>
<stop offset="0.41" stop-color="#F89453"/>
<stop offset="0.71" stop-color="#F8C548"/>
<stop offset="1" stop-color="#F89C51"/>
</linearGradient>
<linearGradient id="paint14_linear_463_212" x1="436.861" y1="388.597" x2="631.194" y2="388.597" gradientUnits="userSpaceOnUse">
<stop stop-color="#E5A4ED"/>
<stop offset="1" stop-color="#7A5BF5"/>
</linearGradient>
<linearGradient id="paint15_linear_463_212" x1="505.551" y1="221.891" x2="563.988" y2="221.891" gradientUnits="userSpaceOnUse">
<stop stop-color="#4B45BD"/>
<stop offset="1" stop-color="#58CAEA"/>
</linearGradient>
<clipPath id="clip0_463_212">
<rect width="1148" height="793" fill="white" transform="translate(21)"/>
</clipPath>
</defs>
</svg>
