<svg width="30" height="30" viewBox="0 0 30 30" fill="none" xmlns="http://www.w3.org/2000/svg">
<path d="M14.9992 4.08492e-07C7.64323 -0.000968746 1.37257 5.47092 0.194815 12.9186C-0.982936 20.3663 3.27999 27.5906 10.2592 29.9745C11.0108 30.1133 11.2799 29.6399 11.2799 29.2328C11.2799 28.8674 11.2679 27.899 11.2634 26.6115C7.0916 27.5366 6.21064 24.5483 6.21064 24.5483C5.936 23.6184 5.34557 22.8202 4.54642 22.2986C3.19341 21.3441 4.65016 21.3657 4.65016 21.3657C5.61332 21.5011 6.46102 22.0865 6.94578 22.9508C7.35609 23.716 8.04737 24.2815 8.86602 24.5215C9.68467 24.7615 10.5629 24.6563 11.3055 24.2291C11.3753 23.4489 11.7137 22.7196 12.2601 22.1721C8.93171 21.7851 5.4319 20.4651 5.4319 14.5702C5.41343 13.0454 5.96544 11.5715 6.97434 10.4515C6.51785 9.12437 6.57161 7.66865 7.12468 6.38071C7.12468 6.38071 8.38298 5.96592 11.2469 7.95507C13.7031 7.26427 16.2954 7.26427 18.7516 7.95507C21.617 5.96437 22.8738 6.38071 22.8738 6.38071C23.4294 7.66804 23.4832 9.12477 23.0241 10.4515C24.0367 11.5714 24.5883 13.0492 24.5636 14.5763C24.5636 20.4867 21.0608 21.7851 17.7203 22.1659C18.4409 22.9216 18.8105 23.9582 18.7351 25.0124C18.7351 27.0694 18.717 28.7286 18.717 29.2328C18.717 29.6445 18.9846 30.1225 19.7498 29.9714C26.7261 27.5835 30.9845 20.3587 29.8043 12.913C28.6241 5.46732 22.3537 -0.00172574 14.9992 4.08492e-07Z" fill="#3239F0"/>
</svg>
