<svg id="Layer_1" data-name="Layer 1" xmlns="http://www.w3.org/2000/svg" xmlns:xlink="http://www.w3.org/1999/xlink" viewBox="0 0 1235.52 776.44"><defs><style>.cls-1,.cls-6{fill:none;}.cls-2{clip-path:url(#clip-path);}.cls-3{fill:#e9edfc;}.cls-4{fill:#e1e6fc;}.cls-5{fill:#bac4f6;}.cls-6{stroke:#fff;stroke-linecap:round;stroke-miterlimit:10;stroke-width:0.37px;}.cls-7{fill:#fff;}.cls-8{fill:#4b44be;}.cls-9{fill:url(#linear-gradient);}.cls-10{fill:url(#linear-gradient-2);}.cls-11{fill:url(#linear-gradient-3);}.cls-12{fill:url(#linear-gradient-4);}.cls-13{isolation:isolate;opacity:0.07;}.cls-14{fill:url(#linear-gradient-5);}.cls-15{fill:url(#linear-gradient-6);}.cls-16{fill:url(#linear-gradient-7);}.cls-17{fill:url(#linear-gradient-8);}.cls-18{fill:url(#linear-gradient-9);}.cls-19{fill:url(#linear-gradient-10);}.cls-20{fill:url(#linear-gradient-11);}.cls-21{fill:url(#linear-gradient-12);}.cls-22{fill:url(#linear-gradient-13);}.cls-23{fill:url(#linear-gradient-14);}.cls-24{fill:#4a41bc;}.cls-25{fill:url(#linear-gradient-15);}.cls-26{fill:url(#linear-gradient-16);}.cls-27{fill:url(#linear-gradient-17);}</style><clipPath id="clip-path" transform="translate(-191 -126)"><rect class="cls-1" width="1555" height="878"/></clipPath><linearGradient id="linear-gradient" x1="995.87" y1="223.52" x2="1160.36" y2="223.52" gradientTransform="matrix(1, 0, 0, -1, 0, 878)" gradientUnits="userSpaceOnUse"><stop offset="0" stop-color="#4b45bd"/><stop offset="1" stop-color="#7a5bf5"/></linearGradient><linearGradient id="linear-gradient-2" x1="977.05" y1="535.42" x2="1207.98" y2="535.42" gradientTransform="matrix(1, 0, 0, -1, 0, 878)" gradientUnits="userSpaceOnUse"><stop offset="0" stop-color="#f87b58"/><stop offset="0.41" stop-color="#f89453"/><stop offset="0.71" stop-color="#f8c548"/><stop offset="1" stop-color="#f89c51"/></linearGradient><linearGradient id="linear-gradient-3" x1="962.54" y1="505.74" x2="1219.4" y2="505.74" gradientTransform="matrix(1, 0, 0, -1, 0, 878)" gradientUnits="userSpaceOnUse"><stop offset="0" stop-color="#4b45bd"/><stop offset="1" stop-color="#58caea"/></linearGradient><linearGradient id="linear-gradient-4" x1="1053.22" y1="725.55" x2="1130.46" y2="725.55" gradientTransform="matrix(1, 0, 0, -1, 0, 878)" gradientUnits="userSpaceOnUse"><stop offset="0" stop-color="#4b45bd"/><stop offset="1" stop-color="#339af0"/></linearGradient><linearGradient id="linear-gradient-5" x1="395.92" y1="355.05" x2="959.54" y2="355.05" xlink:href="#linear-gradient-3"/><linearGradient id="linear-gradient-6" x1="395.73" y1="341.58" x2="959.3" y2="341.58" xlink:href="#linear-gradient-3"/><linearGradient id="linear-gradient-7" x1="839.63" y1="171.61" x2="898.61" y2="171.61" xlink:href="#linear-gradient-3"/><linearGradient id="linear-gradient-8" x1="552.33" y1="170.93" x2="480.3" y2="170.93" xlink:href="#linear-gradient-3"/><linearGradient id="linear-gradient-9" x1="590.65" y1="182.88" x2="518.62" y2="182.88" xlink:href="#linear-gradient-4"/><linearGradient id="linear-gradient-10" x1="795.72" y1="184.39" x2="864.18" y2="184.39" xlink:href="#linear-gradient-3"/><linearGradient id="linear-gradient-11" x1="550.42" y1="407.4" x2="714" y2="407.4" gradientTransform="matrix(1, 0, 0, -1, 0, 878)" gradientUnits="userSpaceOnUse"><stop offset="0" stop-color="#cd94ef"/><stop offset="1" stop-color="#7d5df5"/></linearGradient><linearGradient id="linear-gradient-12" x1="473.17" y1="359.31" x2="552.74" y2="359.31" gradientTransform="matrix(1, 0, 0, -1, 0, 878)" gradientUnits="userSpaceOnUse"><stop offset="0" stop-color="#7a5bf5"/><stop offset="1" stop-color="#8260f4"/></linearGradient><linearGradient id="linear-gradient-13" x1="550.41" y1="408.77" x2="713.95" y2="408.77" gradientTransform="matrix(1, 0, 0, -1, 0, 878)" gradientUnits="userSpaceOnUse"><stop offset="0" stop-color="#7a5bf5"/><stop offset="0.71" stop-color="#8260f4"/></linearGradient><linearGradient id="linear-gradient-14" x1="867.45" y1="398.98" x2="776.8" y2="367.47" gradientTransform="matrix(1, 0, 0, -1, 0, 878)" gradientUnits="userSpaceOnUse"><stop offset="0" stop-color="#59cfee"/><stop offset="1" stop-color="#4a41bc"/></linearGradient><linearGradient id="linear-gradient-15" x1="839.7" y1="432.65" x2="831.55" y2="414.64" xlink:href="#linear-gradient-14"/><linearGradient id="linear-gradient-16" x1="830.22" y1="436.16" x2="825.17" y2="422.41" xlink:href="#linear-gradient-14"/><linearGradient id="linear-gradient-17" x1="852.26" y1="433.45" x2="847.15" y2="419.52" xlink:href="#linear-gradient-14"/></defs><g class="cls-2"><path class="cls-3" d="M646.1,743.47c8.46-102-22.9-251.27,13.69-272.17,36.33-20.4,48.53-27.11,86.11-68.66,91.59-101.5,215.53-254.75,354.15-260,133.65-5,215.53,37.07,292.19,334.12,38.33,148.52,36.09,226.89,32.35,273.91-2,25.87-4,59.46-5.22,60.7C1417.38,813.13,639.13,828.31,646.1,743.47Z" transform="translate(-191 -126)"/><path class="cls-4" d="M431.19,360.6l-10.95,518c0,3.74,10,2.49,12.45,2.49h14.93l-2.49-519.7L534,363.83,495.4,145.65A23.78,23.78,0,0,0,472,126H410.54a30.2,30.2,0,0,0-29.87,24.88L343.09,358.61Z" transform="translate(-191 -126)"/><path class="cls-4" d="M241,752.63s-.5,20.4,3,22.64a13.4,13.4,0,0,0,5,2.48l17.18,92.3s50,9.21,75.16-1.24l17.17-91.06,5.72-2.23,2.24-22.89S305,732.23,241,752.63Z" transform="translate(-191 -126)"/><path class="cls-5" d="M246.75,777.26s67.2,5.22,75.17,3,5.72-20.4,5.72-20.4l33.1-3.48s0,19.41-2.24,21.64a31.66,31.66,0,0,0-5.72,10.2c0,1.25-13.69,82.1-13.69,82.1s-21.66,3.48-25.14,3.48,9.21-67.17,9.21-71.64,0-13.69-3.49-13.69-69.18,2-69.68-5.47A10.22,10.22,0,0,0,246.75,777.26Z" transform="translate(-191 -126)"/><path class="cls-5" d="M273.38,756.86s-18.66-13.19-28.62-14.43-21.4-2.49-31.36-4-22.64-6-22.4-12,1.5-8.7,7.22-11.94a38.62,38.62,0,0,1,16.43-6c4.48-.5,49.27,11.2,67.94,39.06l7.47,9.21Z" transform="translate(-191 -126)"/><path class="cls-5" d="M208.43,724.51s17.17-.24,26.62,2.74a139.4,139.4,0,0,1,21.41,10l28.12,19.65" transform="translate(-191 -126)"/><path class="cls-6" d="M208.43,724.51s17.17-.24,26.62,2.74a139.4,139.4,0,0,1,21.41,10l28.12,19.65" transform="translate(-191 -126)"/><path class="cls-5" d="M293.05,756.11s-21.91-29.61-30.37-37.82-18.42-17.91-26.63-26.62-18.42-21.14-14.18-26.37,7.46-8.7,15.43-7.46a35.39,35.39,0,0,1,17.17,6.47c4.48,2.74,44,40.55,49.77,83.84l5.73,8.71Z" transform="translate(-191 -126)"/><path class="cls-6" d="M241.77,675.26s16.93,10.2,23.65,19.9c6.22,9.2,16.18,25.37,16.18,25.37L293,751.63" transform="translate(-191 -126)"/><path class="cls-3" d="M304,757.6s-25.38-55.23-30.11-66.17-24.14-27.37-28.37-38.56-7-19.16-2.49-25.38,16.18-11.2,23.64-7.46c7,3.48,16.18,13.93,20.16,19.15,3.24,4.23,23.89,79.12,22.15,96.53l4,22.14Z" transform="translate(-191 -126)"/><path class="cls-6" d="M259.2,640.43s14.68,18.9,19.16,29.85c5,12.44,10,36.07,9.21,32.34l15.18,51.25" transform="translate(-191 -126)"/><path class="cls-3" d="M290.06,757.35s-22.4-25.62-33.35-30.6-23.4-10.45-34.1-15.92-23.39-14.43-21.4-19.9,4.48-7.71,12.19-8.71a51.42,51.42,0,0,1,20.41.5c5,1.24,51.77,29.6,63.71,63.19L303,757.6Z" transform="translate(-191 -126)"/><path class="cls-6" d="M221.86,695.66s19.42,6.46,29.12,12.93a231.74,231.74,0,0,1,20.91,17.67l21.4,31.34" transform="translate(-191 -126)"/><path class="cls-5" d="M348.54,757.85s20.41-12.44,31.11-13.68,23.15-2.24,34.1-3.73,24.39-5.73,24.14-11.2-1.49-8.21-8-11.44a49,49,0,0,0-17.67-5.72c-4.73-.5-53.26,10.69-73.67,37.31l-8.21,8.71Z" transform="translate(-191 -126)"/><path class="cls-5" d="M418.73,726.76s-18.67-.25-28.87,2.73A155.54,155.54,0,0,0,366.71,739l-27.12,18.16" transform="translate(-191 -126)"/><path class="cls-6" d="M418.73,726.76s-18.67-.25-28.87,2.73A155.54,155.54,0,0,0,366.71,739l-27.12,18.16" transform="translate(-191 -126)"/><path class="cls-5" d="M327.14,757.11s23.64-28.37,32.85-36.33,19.91-17.16,28.87-25.37,20.16-20.15,15.43-25.13-8-8.21-16.67-7.21A41.45,41.45,0,0,0,369,669.29c-4.73,2.73-47.53,38.81-53.76,80.1L309,757.85Z" transform="translate(-191 -126)"/><path class="cls-6" d="M382.64,680s-18.41,9.71-25.63,18.91c-6.72,8.71-17.67,24.38-17.67,24.38l-12.2,29.61" transform="translate(-191 -126)"/><path class="cls-3" d="M315.44,758.6s27.63-52.74,32.61-63.19,26.13-26.12,30.86-36.82,7.71-18.41,2.74-24.13S364,623.76,356,627.24c-7.71,3.24-17.42,13.19-21.9,18.41-3.49,4-25.88,75.63-24.14,92.3l-4.23,21.15Z" transform="translate(-191 -126)"/><path class="cls-5" d="M312.71,757.85s2.24-51.5,7.46-68.17c3.49-11.19,7-29.85,11.7-40.3S329.38,625,324.65,619s-17.42-4.73-25.63-1.24c-7.72,3.23-11.95,13.93-12.94,19.65-.75,5.23,17.42,67.17,15.43,90.06L303,758.35Z" transform="translate(-191 -126)"/><path class="cls-6" d="M364,646.65s-15.68,17.91-20.66,28.61c-5.48,11.94-10.7,34.58-10,30.84l-17.92,50.26" transform="translate(-191 -126)"/><path class="cls-3" d="M330.62,758.1S355,733.72,366.71,729s25.39-10,36.84-15.17,25.38-13.69,23.14-18.91S422,687.7,413.5,686.7a64.47,64.47,0,0,0-21.9.5c-5.48,1.24-56,28.11-68.94,60.2l-6,11Z" transform="translate(-191 -126)"/><path class="cls-6" d="M404,699.39s-20.9,6-31.36,12.19A212,212,0,0,0,350,728.25l-23.65,26.37" transform="translate(-191 -126)"/><path class="cls-6" d="M307.73,628.49s4.23,44,1.74,56c-1,5-.5,36.07-.5,36.07l-1,34.34" transform="translate(-191 -126)"/><path class="cls-5" d="M345.33,342.37,530,345.85,533.73,359l-190.64-5Z" transform="translate(-191 -126)"/><path class="cls-5" d="M1158.54,433l-1.49,362.73,230.46.49s1.74-191.06-7.47-373.92l-221-3.23Z" transform="translate(-191 -126)"/><path class="cls-5" d="M941.52,480l-6,316.7h196.87L1131.16,480Z" transform="translate(-191 -126)"/><path class="cls-5" d="M655.55,665.85l283.23,1.49-3.24,129.37-279-.25Z" transform="translate(-191 -126)"/><path class="cls-7" d="M632.16,483.25l.75,314.21s1.74,19.65,20.65,20.65,763.57,1.24,763.57,1.24,6.72-20.9,4-21.64S656.55,797,656.55,797s.25-11.19.25-18.16c0-8-.5-305-.5-305A147.74,147.74,0,0,1,632.16,483.25Z" transform="translate(-191 -126)"/><path class="cls-7" d="M648.59,514.34,1402,519.07l4,16.17L648.59,539Z" transform="translate(-191 -126)"/><path class="cls-7" d="M861.13,269.79V797.21L881,798.7V256.11Z" transform="translate(-191 -126)"/><path class="cls-7" d="M1221,163.81l-.5,633.4,18.42-1.49,3-619.47Z" transform="translate(-191 -126)"/><path class="cls-7" d="M881,256.11l430.06,2.73-12.44-22.39-393-.24Z" transform="translate(-191 -126)"/><path class="cls-7" d="M953.46,360.1a43.79,43.79,0,1,0-43.8-43.79A43.79,43.79,0,0,0,953.46,360.1Z" transform="translate(-191 -126)"/><path class="cls-7" d="M996,358.86a28.61,28.61,0,1,0-28.62-28.61A28.61,28.61,0,0,0,996,358.86Z" transform="translate(-191 -126)"/><path class="cls-7" d="M1285.22,401.15a44.54,44.54,0,1,0-44.55-44.54A44.54,44.54,0,0,0,1285.22,401.15Z" transform="translate(-191 -126)"/><path class="cls-7" d="M1239.18,391.45a29.11,29.11,0,1,0-29.12-29.11A29.12,29.12,0,0,0,1239.18,391.45Z" transform="translate(-191 -126)"/><path class="cls-8" d="M1127.7,870.2c-3.29-14-4.39-32.15-6.59-32.42h-2.48l-23.64.27s-5,22.54-7.42,31.88c-.28.55-.55,2.2-1.1,3.3a15.2,15.2,0,0,0-.55,4.94c.55,8.52,3.85,15.94,11.27,19.51,8.52,4.13,14.84,8.25,23.64,0C1129.9,889.44,1131,884.22,1127.7,870.2Z" transform="translate(-191 -126)"/><path class="cls-8" d="M1053.2,840l-30,1.65s-11.82,20.61-29.14,25.29c-16.22,4.67-43.17,15.93-31.07,22.53,8.8,5.22,66.25.55,80.28,1.65,10.44.82,13.47-5.5,12.37-19.51C1054.85,860.86,1053.2,840,1053.2,840Z" transform="translate(-191 -126)"/><path class="cls-9" d="M1017.46,467.34S997.39,632,996,642.67s6.87,65.67,6.87,76.12,19.52,122.83,19.52,122.83l31.07-1.37s-6.33-165.43-5.5-173.4S1082.62,563,1082.62,563s2.47,25.29,2.47,33.53,9.35,242.1,9.35,242.1h27.21L1160.14,494l-.55-6.6Z" transform="translate(-191 -126)"/><path class="cls-10" d="M1109,149.12s-30,11.54-36.56,14.29-10.45,11-10.45,11-3.3-1.92-3.3,3.57,2.75,18.14,5,21.71c3.57,5.5,6.6,11.27,9.62,17,2.75,5.77,1.65,17.86-1.1,19.51s-53.33,47.27-53.33,47.27L977.05,412.38l5.5,40.67,8.52,40.12s-1.65,3,1.65,6.32c3.58,3.3,18.7,28.31,18.7,28.31l5.22-36.83-17-54.41-6-45.89,40.13-81.89,138.83,24.73,15.13,89.31-28.05,76.12-4.94,37.1,23.64-20.61c1.37-1.1,4.12-6.87,5.22-9.89l14-39.57L1208,402.76s-87.7-158-92.1-167.36c-1.92-4.12.28-14.56,1.38-19.51,1.1-4.67,3.3-10.71,5.5-12.36,3.29-3.57,4.94-8.8,5.77-13.47,0-3.3,1.37-16.21-1.93-13.19-.55.83-3-3-4.12-8.24C1120.56,160.38,1115.06,154.06,1109,149.12Z" transform="translate(-191 -126)"/><path class="cls-11" d="M1097.74,278a5.88,5.88,0,0,1-7.7-.27,50.5,50.5,0,0,1-4.12-7.42c-2.2-4.4-19.25-29.68-19.25-29.68s-40.68,10.44-47.28,14.56c-6.6,4.4-12.65,10.44-14.85,18.14s-33.54,99.2-35.19,105c-1.65,5.5-9.62,14.57-5.77,36.83,3.85,22.53,25,80.24,27.22,80.79s24.74-10.44,24.74-10.44-17.87-71.73-17.87-78.87,15.94-27.48,22.54-41.22c6.33-13.74,11.27-25.83,13.47-31.88s-19.24,119-19.24,119-.55,22.81,3.85,25c4.12,1.92,52,20.33,63,24.46,1.1.55,2.48-.28,3-1.38l7.14-20.33c0-.28.28-.55.55-.28a.27.27,0,0,1,.28.28l6.6,22c.27,1.1,1.65,1.65,2.75,1.65l59.1-12.64s-.82-108.82.28-127.24c.82-17.86-1.38-27.75,1.92-22.8,3.58,5.22,18.42,54.41,18.42,62.65s-16.77,80.52-16.77,80.52l22,12.36s30-79.41,31.34-89.86c1.65-10.44,2.2-15.93-2.74-26.38S1183,275,1183,275s-2.75-11.54-22.82-17.59-34.91-14.84-38.49-14.56-14.57,21.16-19.51,27.48C1099.94,273.05,1100.49,274.15,1097.74,278Z" transform="translate(-191 -126)"/><path class="cls-12" d="M1108.74,149.39s-33.54,12.37-40.42,17.31c-5.22,3.85-6.32,7.42-6.32,7.42s-3.57-1.64-3.3,3.58-4.12-8-5.22-12.37c-.83-4.12-1.1-15.94,8-24.73s19.24-15.12,27.49-14.57,15.4,3,22,9.35,8.25,6,9.63,6.59,8.24,8,9.07,15.94S1128,177.7,1128,177.7s-1.65-1.65-3.3-.55c-1.65,1.37-2.2-7.7-8-18.41C1112.86,151,1108.74,149.39,1108.74,149.39Z" transform="translate(-191 -126)"/><path class="cls-13" d="M1087.57,546.21c-3.85,11.27-18.7,33-28.59,46.17s-39.87,40.67-37.94,74.47c1.92,33.53,22.27,120.09,22.27,128.06,0,7.69-7.7,44.52-13.47,55.78s-8.53,31.61-5.5,31.61a83,83,0,0,0,16.22-2.2,126.13,126.13,0,0,0,14.57-3.85c1.92-.82,2.47-7.42,2.47-7.42a25.2,25.2,0,0,0-.82-8,69.92,69.92,0,0,1-3-12.64c-1.1-31.6-4.12-105-3.3-109.92,1.1-9.62-6.59-58,.55-81.62C1057.88,632.5,1087.57,546.21,1087.57,546.21Z" transform="translate(-191 -126)"/><path class="cls-13" d="M1015.27,486,1010,525.6s5.23,8.24,6.6,1.37c1.65-6.87,12.37-19.78,5.5-29.13C1015.82,488.5,1015.27,486,1015.27,486Z" transform="translate(-191 -126)"/><path class="cls-13" d="M1160.14,497l-1.65,19-2.19,18.14s-7.7,5.49-7.43-1.65-12.64-17.86-3-25S1160.14,497,1160.14,497Z" transform="translate(-191 -126)"/><path class="cls-13" d="M1066.4,241.18c1.37-.28-6.32,1.64.55-.55,11.82-3.85,6.87-26.11,6.87-26.11s1.1,8.24,12.37,11.54,14,.83-2.75,8.8-8,10.44-6.87,20.61" transform="translate(-191 -126)"/><path class="cls-13" d="M1032.86,341.76l-18.69,113.49s.27,20.33,3.84,23.08,15.67,4.95,18.15,6.87c2.75,1.93,31.61,11.54,23.92-4.67-1.65-3.57-40.69-25.28-23.37-48.36,17.32-22.81,14.29-54.42,6-76.68a96.72,96.72,0,0,1-6.6-40.39Z" transform="translate(-191 -126)"/><path class="cls-14" d="M397.29,515.53a1.3,1.3,0,0,0-1.37,1.38c0,4.12.82,14.29,9.35,14.29,9.89,0,515.18-.28,545.7-.28,1.1,0,2.75-1.92,3.85-3.3a20.31,20.31,0,0,0,4.67-10.16,2.26,2.26,0,0,0-1.92-2.75H957Z" transform="translate(-191 -126)"/><path class="cls-15" d="M433.58,531.2s-.82,11,8.25,11c8.8,0,452.78-.83,479.45-1.1a5.33,5.33,0,0,0,2.75-.82,14.68,14.68,0,0,0,5.22-9.62Z" transform="translate(-191 -126)"/><path class="cls-16" d="M839.63,540.82h5.22l53.88,330.86-4.39.28Z" transform="translate(-191 -126)"/><path class="cls-17" d="M549.32,541.64h-6.05l-66,330.59,5.23.27Z" transform="translate(-191 -126)"/><path class="cls-18" d="M587.81,541.64h-6l-66,306.68,5,.28Z" transform="translate(-191 -126)"/><path class="cls-19" d="M796.19,540.27H802l62.68,306.4-4.95.28Z" transform="translate(-191 -126)"/><path class="cls-20" d="M552.9,522.4l140.2-5.77L714,418.8l-142.41,1.37-21.17,102" transform="translate(-191 -126)"/><path class="cls-7" d="M634,482.56a9.09,9.09,0,1,0-8.53-9.07A8.81,8.81,0,0,0,634,482.56Z" transform="translate(-191 -126)"/><path class="cls-21" d="M551.8,515H475.37c-.55,0-.82.28-1.1.83l-1.1,4.67c0,.55.28,1.1.83,1.1h.27l76.15.82c.55,0,.83-.27,1.1-.82l1.38-5.22A1.42,1.42,0,0,0,551.8,515Z" transform="translate(-191 -126)"/><path class="cls-22" d="M569.39,417.43l142.41-1.1c.27,0,.27,0,.55.27l1.92,2.2-141.85,1.1a.58.58,0,0,0-.55.55L553.45,521.58a.6.6,0,0,1-.55.55h-1.38a.6.6,0,0,1-.55-.55l17.6-103.05C568.29,418,568.57,417.43,569.39,417.43Z" transform="translate(-191 -126)"/><path class="cls-23" d="M816.54,470.46c-1.1-.27-2.48-.55-3.58-.82a7.61,7.61,0,0,0-7.14,2.2,11.11,11.11,0,0,0-2.2,5.22,16.68,16.68,0,0,0,5.22,15.66,56.25,56.25,0,0,0,10.17,8,3.32,3.32,0,0,1,1.93,2.75,89.6,89.6,0,0,0,4.12,12.09c.28.55.55.55.83.83a42,42,0,0,0,22.54.27c1.65-.55,1.65-.55,2.47-2.2A110.15,110.15,0,0,0,857.22,490a130.67,130.67,0,0,0,1.38-23.09c0-1.37,0-1.37-1.38-1.92a20.32,20.32,0,0,0-7.14-1.1c-6.05-.55-12.37-.55-18.7-.55a58.09,58.09,0,0,0-11.82,1.37l-2.47.83c-.28.27-.55.27-.55.82ZM819,497.12c-6.6-3.3-10.72-8.24-11.27-15.66a10.65,10.65,0,0,1,.55-4.95,4,4,0,0,1,2.75-2.75,5.19,5.19,0,0,1,5.22,2.75v2.2a112.41,112.41,0,0,0,1.65,13.74A29.24,29.24,0,0,0,819,497.12Z" transform="translate(-191 -126)"/><path class="cls-24" d="M816.81,465.52s20.35-6,41.79,0C858.6,465.52,840.73,472.66,816.81,465.52Z" transform="translate(-191 -126)"/><path class="cls-25" d="M850.63,419.08a26,26,0,0,1-5.78,21.16c-1.92,2.74-4.12,4.94-6,7.69a31.94,31.94,0,0,0-6,14c0,.54-.55,1.64-.55,2.19,0-1.37-.55-2.19-.55-3.57a25.38,25.38,0,0,1,5.77-16.76c1.65-2.2,3.58-4.4,5.22-6.32a35.48,35.48,0,0,0,8-16.49" transform="translate(-191 -126)"/><path class="cls-26" d="M824.24,456.17a4,4,0,0,0-.55-1.92,18.5,18.5,0,0,1,4.95-13.74,52.12,52.12,0,0,0,4.94-6.59,22.77,22.77,0,0,0,3.58-9.35c.27-.55.27-2.2.27-1.1l.28.28c.27.82.27,1.92.55,2.75a20.56,20.56,0,0,1-4.4,12.36l-5,6.05a22.82,22.82,0,0,0-3.85,8.24,1.69,1.69,0,0,0-.27,1.1A7.1,7.1,0,0,1,824.24,456.17Z" transform="translate(-191 -126)"/><path class="cls-27" d="M846.5,459.2a21,21,0,0,0-.55-2.48A18.6,18.6,0,0,1,850.9,443a50.84,50.84,0,0,0,5-6.59,22.91,22.91,0,0,0,3.57-9.34c.28-.28.55-2.2.28-.83v.28c.27.82.27,1.64.55,2.47a20.53,20.53,0,0,1-4.4,12.36l-5,6.05a22.82,22.82,0,0,0-3.85,8.24,1.69,1.69,0,0,0-.27,1.1,6.53,6.53,0,0,1-.55,2.2Z" transform="translate(-191 -126)"/></g></svg>