<?xml version="1.0" encoding="utf-8"?>
<!-- Generator: Adobe Illustrator 25.3.1, SVG Export Plug-In . SVG Version: 6.00 Build 0)  -->
<svg version="1.1" id="Layer_1" xmlns="http://www.w3.org/2000/svg" xmlns:xlink="http://www.w3.org/1999/xlink" x="0px" y="0px"
	 viewBox="0 0 1235.5 776.4" style="enable-background:new 0 0 1235.5 776.4;" xml:space="preserve">
<style type="text/css">
	.st0{fill:#E9EDFC;}
	.st1{fill:#E1E6FC;}
	.st2{fill:#BAC4F6;}
	.st3{fill:none;stroke:#FFFFFF;stroke-width:0.37;stroke-linecap:round;stroke-miterlimit:10;}
	.st4{fill:#FFFFFF;}
	.st5{fill:#4B44BE;}
	.st6{fill:url(#path80_1_);}
	.st7{fill:url(#path82_1_);}
	.st8{fill:url(#path84_1_);}
	.st9{fill:url(#path86_1_);}
	.st10{opacity:7.000000e-02;enable-background:new    ;}
	.st11{fill:url(#path98_1_);}
	.st12{fill:url(#path100_1_);}
	.st13{fill:url(#path102_1_);}
	.st14{fill:url(#path104_1_);}
	.st15{fill:url(#path106_1_);}
	.st16{fill:url(#path108_1_);}
	.st17{fill:url(#path110_1_);}
	.st18{fill:url(#path114_1_);}
	.st19{fill:url(#path116_1_);}
	.st20{fill:url(#path118_1_);}
	.st21{fill:#4A41BC;}
	.st22{fill:url(#path122_1_);}
	.st23{fill:url(#path124_1_);}
	.st24{fill:url(#path126_1_);}
</style>
<g id="Layer_2_1_">
	<g id="svg219">
		<path id="path2" class="st0" d="M455.1,617.5c8.5-102-22.9-251.3,13.7-272.2c36.3-20.4,48.5-27.1,86.1-68.7
			c91.6-101.5,215.5-254.8,354.2-260c133.7-5,215.5,37.1,292.2,334.1c38.3,148.5,36.1,226.9,32.3,273.9c-2,25.9-4,59.5-5.2,60.7
			C1226.4,687.1,448.1,702.3,455.1,617.5z"/>
		<path id="path4" class="st1" d="M240.2,234.6l-11,518c0,3.7,10,2.5,12.4,2.5h14.9l-2.5-519.7l88.9,2.5L304.4,19.6
			C302.4,8.3,292.5,0,281,0h-61.5c-14.7-0.1-27.3,10.4-29.9,24.9l-37.6,207.7L240.2,234.6z"/>
		<path id="path6" class="st1" d="M50,626.6c0,0-0.5,20.4,3,22.6c1.5,1.2,3.2,2,5,2.5L75.2,744c0,0,50,9.2,75.2-1.2l17.2-91.1
			l5.7-2.2l2.2-22.9C175.5,626.6,114,606.2,50,626.6z"/>
		<path id="path8" class="st2" d="M55.8,651.3c0,0,67.2,5.2,75.2,3s5.7-20.4,5.7-20.4l33.1-3.5c0,0,0,19.4-2.2,21.6
			c-2.5,3-4.5,6.5-5.7,10.2c0,1.2-13.7,82.1-13.7,82.1s-21.7,3.5-25.1,3.5s9.2-67.2,9.2-71.6s0-13.7-3.5-13.7s-69.2,2-69.7-5.5
			C58.6,654.8,57.4,652.8,55.8,651.3z"/>
		<path id="path10" class="st2" d="M82.4,630.9c0,0-18.7-13.2-28.6-14.4s-21.4-2.5-31.4-4s-22.6-6-22.4-11.9s1.5-8.7,7.2-12
			c4.9-3.2,10.6-5.3,16.4-6c4.5-0.5,49.3,11.2,67.9,39.1l7.5,9.2L82.4,630.9z"/>
		<path id="path12" class="st2" d="M17.4,598.5c0,0,17.2-0.2,26.6,2.7c7.4,2.7,14.6,6.1,21.4,10l28.1,19.7"/>
		<path id="path14" class="st3" d="M17.4,598.5c0,0,17.2-0.2,26.6,2.7c7.4,2.7,14.6,6.1,21.4,10l28.1,19.7"/>
		<path id="path16" class="st2" d="M102,630.1c0,0-21.9-29.6-30.4-37.8S53.2,574.4,45,565.7s-18.4-21.1-14.1-26.4s7.5-8.7,15.4-7.5
			c6.2,0.6,12.1,2.8,17.2,6.5c4.5,2.7,44.1,40.5,49.8,83.8l5.7,8.7L102,630.1z"/>
		<path id="path18" class="st3" d="M50.8,549.3c0,0,16.9,10.2,23.6,19.9c6.2,9.2,16.2,25.4,16.2,25.4l11.4,31.1"/>
		<path id="path20" class="st0" d="M113,631.6c0,0-25.4-55.2-30.1-66.2s-24.1-27.4-28.4-38.6s-7-19.2-2.5-25.4s16.2-11.2,23.6-7.5
			c7,3.5,16.2,13.9,20.2,19.2c3.2,4.2,23.9,79.1,22.2,96.5l4,22.1L113,631.6z"/>
		<path id="path22" class="st3" d="M68.2,514.4c0,0,14.7,18.9,19.2,29.8c5,12.4,10,36.1,9.2,32.3l15.2,51.2"/>
		<path id="path24" class="st0" d="M99.1,631.3c0,0-22.4-25.6-33.3-30.6s-23.4-10.5-34.1-15.9s-23.4-14.4-21.4-19.9
			s4.5-7.7,12.2-8.7c6.8-1.2,13.7-1,20.4,0.5c5,1.2,51.8,29.6,63.7,63.2l5.5,11.7L99.1,631.3z"/>
		<path id="path26" class="st3" d="M30.9,569.7c0,0,19.4,6.5,29.1,12.9c7.3,5.5,14.3,11.4,20.9,17.7l21.4,31.3"/>
		<path id="path28" class="st2" d="M157.5,631.8c0,0,20.4-12.4,31.1-13.7s23.1-2.2,34.1-3.7s24.4-5.7,24.1-11.2s-1.5-8.2-8-11.4
			c-5.5-3-11.5-5-17.7-5.7c-4.7-0.5-53.3,10.7-73.7,37.3l-8.2,8.7L157.5,631.8z"/>
		<path id="path30" class="st2" d="M227.7,600.8c0,0-18.7-0.2-28.9,2.7c-8,2.5-15.7,5.7-23.1,9.5l-27.1,18.2"/>
		<path id="path32" class="st3" d="M227.7,600.8c0,0-18.7-0.2-28.9,2.7c-8,2.5-15.7,5.7-23.1,9.5l-27.1,18.2"/>
		<path id="path34" class="st2" d="M136.1,631.1c0,0,23.6-28.4,32.8-36.3s19.9-17.2,28.9-25.4s20.2-20.2,15.4-25.1s-8-8.2-16.7-7.2
			c-6.6,0.6-13,2.7-18.6,6.2c-4.7,2.7-47.5,38.8-53.8,80.1l-6.2,8.5L136.1,631.1z"/>
		<path id="path36" class="st3" d="M191.6,554c0,0-18.4,9.7-25.6,18.9c-6.7,8.7-17.7,24.4-17.7,24.4l-12.2,29.6"/>
		<path id="path38" class="st0" d="M124.4,632.6c0,0,27.6-52.7,32.6-63.2s26.1-26.1,30.9-36.8s7.7-18.4,2.7-24.1
			s-17.7-10.7-25.7-7.2c-7.7,3.2-17.4,13.2-21.9,18.4c-3.5,4-25.9,75.6-24.1,92.3l-4.2,21.2L124.4,632.6z"/>
		<path id="path40" class="st2" d="M121.7,631.8c0,0,2.2-51.5,7.5-68.2c3.5-11.2,7-29.8,11.7-40.3s-2.5-24.4-7.2-30.4
			s-17.4-4.7-25.6-1.2c-7.7,3.2-12,13.9-12.9,19.6c-0.8,5.2,17.4,67.2,15.4,90.1l1.5,30.9L121.7,631.8z"/>
		<path id="path42" class="st3" d="M173,520.7c0,0-15.7,17.9-20.6,28.6c-5.5,11.9-10.7,34.6-10,30.8l-17.9,50.3"/>
		<path id="path44" class="st0" d="M139.6,632.1c0,0,24.4-24.4,36.1-29.1s25.4-10,36.8-15.2s25.4-13.7,23.1-18.9s-4.7-7.2-13.2-8.2
			c-7.3-1.1-14.7-0.9-21.9,0.5c-5.5,1.2-56,28.1-68.9,60.2l-6,11L139.6,632.1z"/>
		<path id="path46" class="st3" d="M213,573.4c0,0-20.9,6-31.4,12.2c-7.9,5-15.5,10.6-22.6,16.7l-23.6,26.4"/>
		<path id="path48" class="st3" d="M116.7,502.5c0,0,4.2,44,1.7,56c-1,5-0.5,36.1-0.5,36.1l-1,34.3"/>
		<path id="path50" class="st2" d="M154.3,216.4l184.7,3.5l3.7,13.1l-190.6-5L154.3,216.4z"/>
		<path id="path52" class="st2" d="M967.5,307L966,669.7l230.5,0.5c0,0,1.7-191.1-7.5-373.9l-221-3.2L967.5,307z"/>
		<path id="path54" class="st2" d="M750.5,354l-6,316.7h196.9L940.2,354H750.5z"/>
		<path id="path56" class="st2" d="M464.5,539.8l283.2,1.5l-3.2,129.4l-279-0.2L464.5,539.8z"/>
		<path id="path58" class="st4" d="M441.2,357.2l0.8,314.2c0,0,1.7,19.7,20.6,20.7s763.6,1.2,763.6,1.2s6.7-20.9,4-21.6
			S465.5,671,465.5,671s0.2-11.2,0.2-18.2c0-8-0.5-305-0.5-305C457.5,351.7,449.5,354.8,441.2,357.2z"/>
		<path id="path60" class="st4" d="M457.6,388.3l753.4,4.7l4,16.2L457.6,413V388.3z"/>
		<path id="path62" class="st4" d="M670.1,143.8v527.4l19.9,1.5V130.1L670.1,143.8z"/>
		<path id="path64" class="st4" d="M1030,37.8l-0.5,633.4l18.4-1.5l3-619.5L1030,37.8z"/>
		<path id="path66" class="st4" d="M690,130.1l430.1,2.7l-12.4-22.4l-393-0.2L690,130.1z"/>
		<path id="path68" class="st4" d="M762.5,234.1c24.2,0,43.8-19.6,43.8-43.8c0-24.2-19.6-43.8-43.8-43.8
			c-24.2,0-43.8,19.6-43.8,43.8C718.7,214.5,738.3,234.1,762.5,234.1C762.5,234.1,762.5,234.1,762.5,234.1z"/>
		<path id="path70" class="st4" d="M805,232.9c15.8,0,28.6-12.8,28.6-28.6c0-15.8-12.8-28.6-28.6-28.6c-15.8,0-28.6,12.8-28.6,28.6
			C776.4,220.1,789.2,232.9,805,232.9C805,232.9,805,232.9,805,232.9z"/>
		<path id="path72" class="st4" d="M1094.2,275.1c24.6,0,44.5-20,44.5-44.6c0-24.6-20-44.5-44.6-44.5s-44.5,20-44.5,44.6
			C1049.7,255.2,1069.6,275.2,1094.2,275.1L1094.2,275.1z"/>
		<path id="path74" class="st4" d="M1048.2,265.5c16.1,0,29.1-13,29.1-29.1s-13-29.1-29.1-29.1c-16.1,0-29.1,13-29.1,29.1
			C1019.1,252.4,1032.1,265.5,1048.2,265.5z"/>
		<path id="path76" class="st5" d="M935.8,707.4c-3-12.8-4-29.5-6-29.7h-2.3l-21.7,0.2c0,0-4.6,20.7-6.8,29.2c-0.3,0.5-0.5,2-1,3
			c-0.4,1.5-0.6,3-0.5,4.5c0.5,7.8,3.5,14.6,10.3,17.9c7.8,3.8,13.6,7.6,21.7,0C937.8,725,938.8,720.2,935.8,707.4z"/>
		<path id="path78" class="st5" d="M867.5,679.7l-27.5,1.5c0,0-10.8,18.9-26.7,23.2c-14.9,4.3-39.6,14.6-28.5,20.6
			c8.1,4.8,60.7,0.5,73.6,1.5c9.6,0.8,12.4-5,11.3-17.9C869.1,698.8,867.5,679.7,867.5,679.7z"/>
		
			<linearGradient id="path80_1_" gradientUnits="userSpaceOnUse" x1="814.9837" y1="499.7216" x2="965.7048" y2="499.7216" gradientTransform="matrix(1 0 0 1 0 10)">
			<stop  offset="0" style="stop-color:#4B45BD"/>
			<stop  offset="1" style="stop-color:#7A5BF5"/>
		</linearGradient>
		<path id="path80" class="st6" d="M834.8,338.2c0,0-18.4,150.9-19.7,160.7c-1.3,9.8,6.3,60.2,6.3,69.7s17.9,112.5,17.9,112.5
			l28.5-1.3c0,0-5.8-151.6-5-158.9c0.8-7.3,31.8-95.2,31.8-95.2s2.3,23.2,2.3,30.7c0,7.6,8.6,221.8,8.6,221.8h24.9l35.3-315.8
			l-0.5-6L834.8,338.2z"/>
		
			<linearGradient id="path82_1_" gradientUnits="userSpaceOnUse" x1="797.7643" y1="213.9113" x2="1009.3824" y2="213.9113" gradientTransform="matrix(1 0 0 1 0 10)">
			<stop  offset="0" style="stop-color:#F87B58"/>
			<stop  offset="0.41" style="stop-color:#F89453"/>
			<stop  offset="0.71" style="stop-color:#F8C548"/>
			<stop  offset="1" style="stop-color:#F89C51"/>
		</linearGradient>
		<path id="path82" class="st7" d="M918.7,46.7c0,0-27.5,10.6-33.5,13.1c-6,2.5-9.6,10.1-9.6,10.1s-3-1.8-3,3.3
			c0,5,2.5,16.6,4.5,19.9c3.3,5,6,10.3,8.8,15.6c2.5,5.3,1.5,16.4-1,17.9c-2.5,1.5-48.9,43.3-48.9,43.3l-38.3,118.1l5,37.3l7.8,36.8
			c0,0-1.5,2.7,1.5,5.8c3.3,3,17.1,25.9,17.1,25.9l4.8-33.7l-15.6-49.9l-5.5-42l36.8-75L977,215.6l13.9,81.8l-25.7,69.7l-4.7,33.9
			l21.7-18.9c1.3-1,3.8-6.3,4.8-9.1l12.8-36.3l9.6-57.9c0,0-80.4-144.8-84.4-153.4c-1.8-3.8,0.3-13.3,1.3-17.9c1-4.3,3-9.8,5-11.3
			c3-3.3,4.5-8.1,5.3-12.3c0-3,1.3-14.9-1.8-12.1c-0.5,0.8-2.7-2.7-3.8-7.6C929.3,57,924.2,51.2,918.7,46.7z"/>
		
			<linearGradient id="path84_1_" gradientUnits="userSpaceOnUse" x1="784.47" y1="241.1481" x2="1019.8292" y2="241.1481" gradientTransform="matrix(1 0 0 1 0 10)">
			<stop  offset="0" style="stop-color:#4B45BD"/>
			<stop  offset="1" style="stop-color:#58CAEA"/>
		</linearGradient>
		<path id="path84" class="st8" d="M908.4,164.8c-2.1,1.7-5.1,1.6-7.1-0.2c-1.4-2.2-2.7-4.4-3.8-6.8c-2-4-17.6-27.2-17.6-27.2
			s-37.3,9.6-43.3,13.3c-6,4-11.6,9.6-13.6,16.6c-2,7.1-30.7,90.9-32.2,96.2c-1.5,5-8.8,13.4-5.3,33.7c3.5,20.6,22.9,73.5,24.9,74
			c2,0.5,22.7-9.6,22.7-9.6s-16.4-65.7-16.4-72.3s14.6-25.2,20.7-37.8c5.8-12.6,10.3-23.7,12.3-29.2s-17.6,109-17.6,109
			s-0.5,20.9,3.5,22.9c3.8,1.8,47.6,18.6,57.7,22.4c1,0.5,2.3-0.3,2.7-1.3l6.5-18.6c0-0.3,0.3-0.5,0.5-0.3c0.1,0,0.3,0.1,0.3,0.2
			c0,0,0,0,0,0l6,20.2c0.2,1,1.5,1.5,2.5,1.5l54.2-11.6c0,0-0.8-99.8,0.3-116.6c0.8-16.4-1.3-25.4,1.8-20.9
			c3.3,4.8,16.9,49.9,16.9,57.4c0,7.6-15.4,73.8-15.4,73.8l20.2,11.3c0,0,27.5-72.8,28.7-82.3c1.5-9.6,2-14.6-2.5-24.2
			c-4.5-9.6-29.5-96.7-29.5-96.7s-2.5-10.6-20.9-16.1s-32-13.6-35.3-13.3s-13.4,19.4-17.9,25.2C910.4,160.2,910.9,161.2,908.4,164.8
			z"/>
		
			<linearGradient id="path86_1_" gradientUnits="userSpaceOnUse" x1="867.5584" y1="39.7016" x2="938.3329" y2="39.7016" gradientTransform="matrix(1 0 0 1 0 10)">
			<stop  offset="0" style="stop-color:#4B45BD"/>
			<stop  offset="1" style="stop-color:#339AF0"/>
		</linearGradient>
		<path id="path86" class="st9" d="M918.4,46.9c0,0-30.7,11.3-37,15.9c-4.8,3.5-5.8,6.8-5.8,6.8s-3.3-1.5-3,3.3
			c0.2,4.8-3.8-7.3-4.8-11.3c-0.8-3.8-1-14.6,7.3-22.7s17.6-13.9,25.2-13.4c7.6,0.5,14.1,2.7,20.2,8.6c6,5.8,7.6,5.5,8.8,6
			c1.3,0.5,7.6,7.3,8.3,14.6s-1.5,18.2-1.5,18.2s-1.5-1.5-3-0.5c-1.5,1.3-2-7.1-7.3-16.9C922.2,48.4,918.4,46.9,918.4,46.9z"/>
		<path id="path88" class="st10" d="M899,410.5c-3.5,10.3-17.1,30.2-26.2,42.3s-36.5,37.3-34.8,68.2c1.8,30.7,20.4,110,20.4,117.3
			c0,7-7,40.8-12.3,51.1c-5.3,10.3-7.8,29-5,29c5-0.2,10-0.9,14.9-2c4.5-0.9,9-2.1,13.4-3.5c1.8-0.8,2.3-6.8,2.3-6.8
			c0.1-2.5-0.1-4.9-0.8-7.3c-1.3-3.8-2.2-7.6-2.7-11.6c-1-29-3.8-96.2-3-100.7c1-8.8-6-53.1,0.5-74.8
			C871.8,489.6,899,410.5,899,410.5z"/>
		<path id="path90" class="st10" d="M832.8,355.3l-4.8,36.3c0,0,4.8,7.6,6,1.3c1.5-6.3,11.3-18.1,5-26.7
			C833.3,357.6,832.8,355.3,832.8,355.3z"/>
		<path id="path92" class="st10" d="M965.5,365.4l-1.5,17.4l-2,16.6c0,0-7,5-6.8-1.5s-11.6-16.4-2.7-22.9
			C961.3,368.5,965.5,365.4,965.5,365.4z"/>
		<path id="path94" class="st10" d="M879.6,131c1.3-0.3-5.8,1.5,0.5-0.5c10.8-3.5,6.3-23.9,6.3-23.9s1,7.6,11.3,10.6
			c10.3,3,12.8,0.8-2.5,8.1c-15.3,7.3-7.3,9.6-6.3,18.9"/>
		<path id="path96" class="st10" d="M848.9,223.2l-17.1,104c0,0,0.2,18.6,3.5,21.1s14.4,4.5,16.6,6.3c2.5,1.8,29,10.6,21.9-4.3
			c-1.5-3.3-37.3-23.2-21.4-44.3c15.9-20.9,13.1-49.9,5.5-70.3c-4.6-11.8-6.7-24.4-6-37L848.9,223.2z"/>
		
			<linearGradient id="path98_1_" gradientUnits="userSpaceOnUse" x1="204.9174" y1="386.955" x2="768.5483" y2="386.955" gradientTransform="matrix(1 0 0 1 0 10)">
			<stop  offset="0" style="stop-color:#4B45BD"/>
			<stop  offset="1" style="stop-color:#58CAEA"/>
		</linearGradient>
		<path id="path98" class="st11" d="M206.3,389.5c-0.7,0-1.3,0.5-1.4,1.2c0,0.1,0,0.1,0,0.2c0,4.1,0.8,14.3,9.4,14.3
			c9.9,0,515.2-0.3,545.7-0.3c1.1,0,2.8-1.9,3.8-3.3c2.5-2.9,4.1-6.4,4.7-10.2c0.3-1.2-0.5-2.4-1.7-2.7c-0.1,0-0.1,0-0.2,0H766
			L206.3,389.5z"/>
		
			<linearGradient id="path100_1_" gradientUnits="userSpaceOnUse" x1="204.73" y1="400.43" x2="768.3" y2="400.43" gradientTransform="matrix(1 0 0 1 0 10)">
			<stop  offset="0" style="stop-color:#4B45BD"/>
			<stop  offset="1" style="stop-color:#58CAEA"/>
		</linearGradient>
		<path id="path100" class="st12" d="M242.6,405.2c0,0-0.8,11,8.2,11c8.8,0,452.8-0.8,479.5-1.1c1,0,1.9-0.3,2.8-0.8
			c2.9-2.4,4.8-5.9,5.2-9.6L242.6,405.2z"/>
		
			<linearGradient id="path102_1_" gradientUnits="userSpaceOnUse" x1="648.63" y1="570.39" x2="707.61" y2="570.39" gradientTransform="matrix(1 0 0 1 0 10)">
			<stop  offset="0" style="stop-color:#4B45BD"/>
			<stop  offset="1" style="stop-color:#58CAEA"/>
		</linearGradient>
		<path id="path102" class="st13" d="M648.6,414.8h5.2l53.9,330.9l-4.4,0.3L648.6,414.8z"/>
		
			<linearGradient id="path104_1_" gradientUnits="userSpaceOnUse" x1="361.33" y1="571.07" x2="289.28" y2="571.07" gradientTransform="matrix(1 0 0 1 0 10)">
			<stop  offset="0" style="stop-color:#4B45BD"/>
			<stop  offset="1" style="stop-color:#58CAEA"/>
		</linearGradient>
		<path id="path104" class="st14" d="M358.3,415.6h-6l-66,330.6l5.2,0.3L358.3,415.6z"/>
		
			<linearGradient id="path106_1_" gradientUnits="userSpaceOnUse" x1="399.65" y1="559.12" x2="327.6" y2="559.12" gradientTransform="matrix(1 0 0 1 0 10)">
			<stop  offset="0" style="stop-color:#4B45BD"/>
			<stop  offset="1" style="stop-color:#339AF0"/>
		</linearGradient>
		<path id="path106" class="st15" d="M396.8,415.6h-6l-66,306.7l5,0.3L396.8,415.6z"/>
		
			<linearGradient id="path108_1_" gradientUnits="userSpaceOnUse" x1="604.72" y1="557.61" x2="673.21" y2="557.61" gradientTransform="matrix(1 0 0 1 0 10)">
			<stop  offset="0" style="stop-color:#4B45BD"/>
			<stop  offset="1" style="stop-color:#58CAEA"/>
		</linearGradient>
		<path id="path108" class="st16" d="M605.2,414.3h5.8l62.7,306.4l-5,0.3L605.2,414.3z"/>
		
			<linearGradient id="path110_1_" gradientUnits="userSpaceOnUse" x1="359.42" y1="334.6" x2="523" y2="334.6" gradientTransform="matrix(1 0 0 1 0 10)">
			<stop  offset="0" style="stop-color:#CD94EF"/>
			<stop  offset="1" style="stop-color:#7D5DF5"/>
		</linearGradient>
		<path id="path110" class="st17" d="M361.9,396.4l140.2-5.8l20.9-97.8l-142.4,1.4l-21.2,102"/>
		<path id="path112" class="st4" d="M443,356.6c5,0.3,9.3-3.5,9.6-8.5c0.3-5-3.5-9.3-8.5-9.6c-5-0.3-9.3,3.5-9.6,8.5
			c0,0.2,0,0.4,0,0.6C434.3,352.3,438.1,356.4,443,356.6z"/>
		
			<linearGradient id="path114_1_" gradientUnits="userSpaceOnUse" x1="282.17" y1="382.71" x2="361.74" y2="382.71" gradientTransform="matrix(1 0 0 1 0 10)">
			<stop  offset="0" style="stop-color:#7A5BF5"/>
			<stop  offset="1" style="stop-color:#8260F4"/>
		</linearGradient>
		<path id="path114" class="st18" d="M360.8,389h-76.4c-0.5,0-0.8,0.3-1.1,0.8l-1.1,4.7c0,0.5,0.3,1.1,0.8,1.1h0.3l76.1,0.8
			c0.5,0,0.8-0.3,1.1-0.8l1.4-5.2C361.9,389.7,361.4,389.1,360.8,389z"/>
		
			<linearGradient id="path116_1_" gradientUnits="userSpaceOnUse" x1="359.41" y1="333.23" x2="522.95" y2="333.23" gradientTransform="matrix(1 0 0 1 0 10)">
			<stop  offset="0" style="stop-color:#7A5BF5"/>
			<stop  offset="0.71" style="stop-color:#8260F4"/>
		</linearGradient>
		<path id="path116" class="st19" d="M378.4,291.4l142.4-1.1c0.3,0,0.3,0,0.5,0.3l1.9,2.2l-141.9,1.1c-0.3,0-0.5,0.3-0.5,0.5
			l-18.4,101.1c0,0.3-0.3,0.5-0.5,0.5h-1.4c-0.3,0-0.5-0.3-0.5-0.5l17.6-103C377.3,292,377.6,291.4,378.4,291.4z"/>
		
			<linearGradient id="path118_1_" gradientUnits="userSpaceOnUse" x1="676.4575" y1="343.0416" x2="585.8075" y2="374.5516" gradientTransform="matrix(1 0 0 1 0 10)">
			<stop  offset="0" style="stop-color:#59CFEE"/>
			<stop  offset="1" style="stop-color:#4A41BC"/>
		</linearGradient>
		<path id="path118" class="st20" d="M625.5,344.5c-1.1-0.3-2.5-0.5-3.6-0.8c-2.6-0.6-5.3,0.3-7.1,2.2c-1.2,1.5-1.9,3.3-2.2,5.2
			c-1.1,5.8,0.8,11.7,5.2,15.7c3.1,3,6.5,5.7,10.2,8c1.1,0.5,1.8,1.6,1.9,2.8c1.1,4.1,2.5,8.2,4.1,12.1c0.3,0.5,0.5,0.5,0.8,0.8
			c7.3,2.1,15.1,2.2,22.5,0.3c1.7-0.5,1.7-0.5,2.5-2.2c3-7.9,5.2-16.1,6.3-24.5c1.1-7.6,1.6-15.4,1.4-23.1c0-1.4,0-1.4-1.4-1.9
			c-2.3-0.8-4.7-1.2-7.1-1.1c-6-0.5-12.4-0.5-18.7-0.5c-4,0.1-7.9,0.5-11.8,1.4l-2.5,0.8c-0.3,0.3-0.5,0.3-0.5,0.8V344.5z
			 M628,371.1c-6.6-3.3-10.7-8.2-11.3-15.7c-0.2-1.7,0-3.4,0.5-5c0.4-1.3,1.4-2.4,2.8-2.8c2.1-0.3,4.2,0.8,5.2,2.8v2.2
			c0.3,4.6,0.8,9.2,1.7,13.7C627.1,368,627.5,369.6,628,371.1z"/>
		<path id="path120" class="st21" d="M625.8,339.5c0,0,20.3-6,41.8,0C667.6,339.5,649.7,346.7,625.8,339.5z"/>
		
			<linearGradient id="path122_1_" gradientUnits="userSpaceOnUse" x1="648.7335" y1="309.3651" x2="640.5834" y2="327.3751" gradientTransform="matrix(1 0 0 1 0 10)">
			<stop  offset="0" style="stop-color:#59CFEE"/>
			<stop  offset="1" style="stop-color:#4A41BC"/>
		</linearGradient>
		<path id="path122" class="st22" d="M659.6,293.1c1.3,7.6-0.8,15.3-5.8,21.2c-1.9,2.7-4.1,4.9-6,7.7c-3.1,4.1-5.2,8.9-6,14
			c0,0.5-0.5,1.6-0.5,2.2c0-1.4-0.5-2.2-0.5-3.6c-0.2-6.1,1.9-12,5.8-16.8c1.7-2.2,3.6-4.4,5.2-6.3c4.1-4.7,6.8-10.4,8-16.5"/>
		
			<linearGradient id="path124_1_" gradientUnits="userSpaceOnUse" x1="639.2203" y1="305.8401" x2="634.1703" y2="319.5901" gradientTransform="matrix(1 0 0 1 0 10)">
			<stop  offset="0" style="stop-color:#59CFEE"/>
			<stop  offset="1" style="stop-color:#4A41BC"/>
		</linearGradient>
		<path id="path124" class="st23" d="M633.2,330.2c0-0.7-0.2-1.3-0.5-1.9c-0.3-5.1,1.5-10,5-13.7c1.8-2.1,3.5-4.3,4.9-6.6
			c1.9-2.8,3.1-6,3.6-9.4c0.3-0.5,0.3-2.2,0.3-1.1l0.3,0.3c0.3,0.8,0.3,1.9,0.5,2.8c-0.1,4.5-1.6,8.8-4.4,12.4l-5,6
			c-1.8,2.5-3.1,5.3-3.8,8.2c-0.2,0.3-0.3,0.7-0.3,1.1C633.7,328.9,633.5,329.6,633.2,330.2z"/>
		
			<linearGradient id="path126_1_" gradientUnits="userSpaceOnUse" x1="661.2921" y1="308.5617" x2="656.1821" y2="322.4918" gradientTransform="matrix(1 0 0 1 0 10)">
			<stop  offset="0" style="stop-color:#59CFEE"/>
			<stop  offset="1" style="stop-color:#4A41BC"/>
		</linearGradient>
		<path id="path126" class="st24" d="M655.5,333.2c-0.1-0.8-0.3-1.7-0.5-2.5c-0.3-5.1,1.5-10,5-13.7c1.8-2.1,3.5-4.3,5-6.6
			c1.9-2.8,3.1-6,3.6-9.3c0.3-0.3,0.5-2.2,0.3-0.8v0.3c0.3,0.8,0.3,1.6,0.5,2.5c-0.1,4.5-1.6,8.8-4.4,12.4l-5,6
			c-1.8,2.5-3.1,5.3-3.8,8.2c-0.2,0.3-0.3,0.7-0.3,1.1c-0.1,0.8-0.2,1.5-0.5,2.2L655.5,333.2z"/>
	</g>
</g>
</svg>
