<svg xmlns="http://www.w3.org/2000/svg"
  xmlns:xlink="http://www.w3.org/1999/xlink" viewBox="0 0 1235.52 776.44">
  <defs>
    <style>.cls-1{fill:#e9edfc;}.cls-2{fill:#e1e6fc;}.cls-3{fill:#bac4f6;}.cls-4{fill:none;stroke:#fff;stroke-linecap:round;stroke-miterlimit:10;stroke-width:0.37px;}.cls-5{fill:#fff;}.cls-6{fill:#4b44be;}.cls-7{fill:url(#linear-gradient);}.cls-8{fill:url(#linear-gradient-2);}.cls-9{fill:url(#linear-gradient-3);}.cls-10{fill:url(#linear-gradient-4);}.cls-11{isolation:isolate;opacity:0.07;}.cls-12{fill:url(#linear-gradient-5);}.cls-13{fill:url(#linear-gradient-6);}.cls-14{fill:url(#linear-gradient-7);}.cls-15{fill:url(#linear-gradient-8);}.cls-16{fill:url(#linear-gradient-9);}.cls-17{fill:url(#linear-gradient-10);}.cls-18{fill:url(#linear-gradient-11);}.cls-19{fill:url(#linear-gradient-12);}.cls-20{fill:url(#linear-gradient-13);}.cls-21{fill:url(#linear-gradient-14);}.cls-22{fill:#4a41bc;}.cls-23{fill:url(#linear-gradient-15);}.cls-24{fill:url(#linear-gradient-16);}.cls-25{fill:url(#linear-gradient-17);}</style>
    <linearGradient id="linear-gradient" x1="804.87" y1="249.52" x2="969.36" y2="249.52" gradientTransform="matrix(1, 0, 0, -1, 0, 778)" gradientUnits="userSpaceOnUse">
      <stop offset="0" stop-color="#4b45bd"/>
      <stop offset="1" stop-color="#7a5bf5"/>
    </linearGradient>
    <linearGradient id="linear-gradient-2" x1="786.05" y1="561.42" x2="1016.98" y2="561.42" gradientTransform="matrix(1, 0, 0, -1, 0, 778)" gradientUnits="userSpaceOnUse">
      <stop offset="0" stop-color="#f87b58"/>
      <stop offset="0.41" stop-color="#f89453"/>
      <stop offset="0.71" stop-color="#f8c548"/>
      <stop offset="1" stop-color="#f89c51"/>
    </linearGradient>
    <linearGradient id="linear-gradient-3" x1="771.54" y1="531.74" x2="1028.4" y2="531.74" gradientTransform="matrix(1, 0, 0, -1, 0, 778)" gradientUnits="userSpaceOnUse">
      <stop offset="0" stop-color="#4b45bd"/>
      <stop offset="1" stop-color="#58caea"/>
    </linearGradient>
    <linearGradient id="linear-gradient-4" x1="862.22" y1="751.55" x2="939.46" y2="751.55" gradientTransform="matrix(1, 0, 0, -1, 0, 778)" gradientUnits="userSpaceOnUse">
      <stop offset="0" stop-color="#4b45bd"/>
      <stop offset="1" stop-color="#339af0"/>
    </linearGradient>
    <linearGradient id="linear-gradient-5" x1="204.92" y1="381.05" x2="768.54" y2="381.05" xlink:href="#linear-gradient-3"/>
    <linearGradient id="linear-gradient-6" x1="204.73" y1="367.58" x2="768.3" y2="367.58" xlink:href="#linear-gradient-3"/>
    <linearGradient id="linear-gradient-7" x1="648.63" y1="197.61" x2="707.61" y2="197.61" xlink:href="#linear-gradient-3"/>
    <linearGradient id="linear-gradient-8" x1="361.33" y1="196.93" x2="289.3" y2="196.93" xlink:href="#linear-gradient-3"/>
    <linearGradient id="linear-gradient-9" x1="399.65" y1="208.88" x2="327.62" y2="208.88" xlink:href="#linear-gradient-4"/>
    <linearGradient id="linear-gradient-10" x1="604.72" y1="210.39" x2="673.18" y2="210.39" xlink:href="#linear-gradient-3"/>
    <linearGradient id="linear-gradient-11" x1="359.42" y1="433.4" x2="523" y2="433.4" gradientTransform="matrix(1, 0, 0, -1, 0, 778)" gradientUnits="userSpaceOnUse">
      <stop offset="0" stop-color="#cd94ef"/>
      <stop offset="1" stop-color="#7d5df5"/>
    </linearGradient>
    <linearGradient id="linear-gradient-12" x1="282.17" y1="385.31" x2="361.74" y2="385.31" gradientTransform="matrix(1, 0, 0, -1, 0, 778)" gradientUnits="userSpaceOnUse">
      <stop offset="0" stop-color="#7a5bf5"/>
      <stop offset="1" stop-color="#8260f4"/>
    </linearGradient>
    <linearGradient id="linear-gradient-13" x1="359.41" y1="434.77" x2="522.95" y2="434.77" gradientTransform="matrix(1, 0, 0, -1, 0, 778)" gradientUnits="userSpaceOnUse">
      <stop offset="0" stop-color="#7a5bf5"/>
      <stop offset="0.71" stop-color="#8260f4"/>
    </linearGradient>
    <linearGradient id="linear-gradient-14" x1="676.45" y1="424.98" x2="585.8" y2="393.47" gradientTransform="matrix(1, 0, 0, -1, 0, 778)" gradientUnits="userSpaceOnUse">
      <stop offset="0" stop-color="#59cfee"/>
      <stop offset="1" stop-color="#4a41bc"/>
    </linearGradient>
    <linearGradient id="linear-gradient-15" x1="648.7" y1="458.65" x2="640.55" y2="440.64" xlink:href="#linear-gradient-14"/>
    <linearGradient id="linear-gradient-16" x1="639.22" y1="462.16" x2="634.17" y2="448.41" xlink:href="#linear-gradient-14"/>
    <linearGradient id="linear-gradient-17" x1="661.26" y1="459.45" x2="656.15" y2="445.52" xlink:href="#linear-gradient-14"/>
  </defs>
  <g id="Layer_2" data-name="Layer 2">
    <g id="svg219">
      <path id="path2" class="cls-1" d="M455.1,617.47c8.46-102-22.9-251.27,13.69-272.17,36.33-20.4,48.53-27.11,86.11-68.66,91.59-101.5,215.53-254.75,354.15-260,133.65-5,215.53,37.07,292.19,334.12,38.33,148.52,36.09,226.89,32.35,273.91-2,25.87-4,59.46-5.22,60.7C1226.38,687.13,448.13,702.31,455.1,617.47Z"/>
      <path id="path4" class="cls-2" d="M240.2,234.6l-11,518c0,3.74,10,2.49,12.45,2.49h14.93l-2.49-519.7L343,237.84,304.41,19.65A23.79,23.79,0,0,0,281,0H219.54a30.2,30.2,0,0,0-29.87,24.88L152.09,232.61Z"/>
      <path id="path6" class="cls-2" d="M50,626.63s-.5,20.4,3,22.64a13.28,13.28,0,0,0,5,2.48l17.18,92.3s50,9.21,75.16-1.24l17.17-91.06,5.72-2.23,2.24-22.89S114,606.23,50,626.63Z"/>
      <path id="path8" class="cls-3" d="M55.75,651.26s67.2,5.22,75.16,3,5.73-20.4,5.73-20.4l33.1-3.48s0,19.41-2.24,21.64a31.66,31.66,0,0,0-5.72,10.2c0,1.25-13.69,82.1-13.69,82.1s-21.66,3.48-25.14,3.48,9.21-67.17,9.21-71.64,0-13.69-3.48-13.69S59.49,664.44,59,657A10.16,10.16,0,0,0,55.75,651.26Z"/>
      <path id="path10" class="cls-3" d="M82.38,630.86s-18.66-13.19-28.62-14.43-21.4-2.49-31.36-4-22.65-6-22.4-11.94,1.5-8.71,7.22-12a38.62,38.62,0,0,1,16.43-6c4.48-.5,49.28,11.2,67.94,39.06l7.47,9.21Z"/>
      <path id="path12" class="cls-3" d="M17.42,598.51s17.18-.24,26.63,2.74a139.4,139.4,0,0,1,21.41,10l28.12,19.65"/>
      <path id="path14" class="cls-4" d="M17.42,598.51s17.18-.24,26.63,2.74a139.4,139.4,0,0,1,21.41,10l28.12,19.65"/>
      <path id="path16" class="cls-3" d="M102,630.11s-21.9-29.61-30.36-37.82-18.42-17.91-26.63-26.62S26.63,544.53,30.87,539.3s7.46-8.7,15.43-7.46a35.39,35.39,0,0,1,17.17,6.47c4.48,2.74,44.05,40.55,49.78,83.84l5.72,8.71Z"/>
      <path id="path18" class="cls-4" d="M50.77,549.26s16.93,10.2,23.65,19.9c6.22,9.2,16.18,25.37,16.18,25.37L102,625.63"/>
      <path id="path20" class="cls-1" d="M113,631.6s-25.39-55.23-30.12-66.17-24.14-27.37-28.37-38.56-7-19.16-2.49-25.38S68.2,490.3,75.66,494c7,3.48,16.18,13.93,20.16,19.15,3.24,4.23,23.89,79.12,22.15,96.53l4,22.14Z"/>
      <path id="path22" class="cls-4" d="M68.2,514.43s14.68,18.9,19.16,29.85c5,12.44,10,36.07,9.21,32.34l15.18,51.25"/>
      <path id="path24" class="cls-1" d="M99.06,631.35s-22.4-25.62-33.35-30.6-23.4-10.45-34.1-15.92-23.39-14.43-21.4-19.9,4.48-7.71,12.19-8.71a51.42,51.42,0,0,1,20.41.5c5,1.24,51.77,29.6,63.71,63.19L112,631.6Z"/>
      <path id="path26" class="cls-4" d="M30.86,569.66S50.28,576.12,60,582.59a231.74,231.74,0,0,1,20.91,17.67l21.4,31.34"/>
      <path id="path28" class="cls-3" d="M157.54,631.85s20.41-12.44,31.11-13.68,23.15-2.24,34.1-3.73,24.39-5.72,24.14-11.2-1.49-8.21-8-11.44a49,49,0,0,0-17.67-5.72c-4.73-.5-53.26,10.69-73.67,37.31l-8.21,8.71Z"/>
      <path id="path30" class="cls-3" d="M227.73,600.76s-18.67-.25-28.87,2.73A155.54,155.54,0,0,0,175.71,613l-27.12,18.16"/>
      <path id="path32" class="cls-4" d="M227.73,600.76s-18.67-.25-28.87,2.73A155.54,155.54,0,0,0,175.71,613l-27.12,18.16"/>
      <path id="path34" class="cls-3" d="M136.14,631.11s23.64-28.37,32.85-36.33,19.91-17.16,28.87-25.37,20.16-20.15,15.43-25.13-8-8.21-16.67-7.21A41.45,41.45,0,0,0,178,543.29c-4.73,2.73-47.53,38.81-53.76,80.1L118,631.85Z"/>
      <path id="path36" class="cls-4" d="M191.64,554s-18.42,9.71-25.63,18.91c-6.72,8.71-17.67,24.38-17.67,24.38l-12.2,29.61"/>
      <path id="path38" class="cls-1" d="M124.44,632.6s27.63-52.74,32.61-63.19,26.13-26.12,30.86-36.82,7.71-18.41,2.74-24.13S173,497.76,165,501.24c-7.71,3.24-17.42,13.19-21.9,18.41-3.49,4-25.88,75.63-24.14,92.3l-4.23,21.15Z"/>
      <path id="path40" class="cls-3" d="M121.71,631.85s2.24-51.5,7.46-68.17c3.49-11.19,7-29.85,11.7-40.3S138.38,499,133.65,493s-17.42-4.73-25.63-1.24c-7.72,3.23-12,13.93-12.94,19.65-.75,5.23,17.42,67.17,15.43,90.06L112,632.35Z"/>
      <path id="path42" class="cls-4" d="M173,520.65s-15.68,17.91-20.65,28.61c-5.48,11.94-10.7,34.58-10,30.84l-17.92,50.26"/>
      <path id="path44" class="cls-1" d="M139.62,632.1S164,607.72,175.71,603s25.39-10,36.84-15.17,25.38-13.69,23.14-18.91S231,561.7,222.5,560.7a64.47,64.47,0,0,0-21.9.5c-5.48,1.24-56,28.11-68.94,60.2l-6,11Z"/>
      <path id="path46" class="cls-4" d="M213,573.39s-20.9,6-31.36,12.19A212,212,0,0,0,159,602.25l-23.65,26.37"/>
      <path id="path48" class="cls-4" d="M116.73,502.49s4.23,44,1.74,56c-1,5-.5,36.07-.5,36.07l-1,34.34"/>
      <path id="path50" class="cls-3" d="M154.33,216.37,339,219.85,342.73,233l-190.64-5Z"/>
      <path id="path52" class="cls-3" d="M967.54,307l-1.49,362.73,230.46.49s1.74-191.06-7.47-373.92l-221-3.23Z"/>
      <path id="path54" class="cls-3" d="M750.52,354l-6,316.7H941.41L940.16,354Z"/>
      <path id="path56" class="cls-3" d="M464.55,539.85l283.23,1.49-3.24,129.37-279-.25Z"/>
      <path id="path58" class="cls-5" d="M441.16,357.25l.75,314.21s1.74,19.65,20.65,20.65,763.57,1.24,763.57,1.24,6.72-20.9,4-21.64S465.55,671,465.55,671s.25-11.19.25-18.16c0-8-.5-305-.5-305A148.09,148.09,0,0,1,441.16,357.25Z"/>
      <path id="path60" class="cls-5" d="M457.59,388.34,1211,393.07l4,16.17L457.59,413Z"/>
      <path id="path62" class="cls-5" d="M670.13,143.79V671.21L690,672.7V130.11Z"/>
      <path id="path64" class="cls-5" d="M1030,37.81l-.5,633.4,18.42-1.49,3-619.47Z"/>
      <path id="path66" class="cls-5" d="M690,130.11l430.06,2.74-12.44-22.4-393-.24Z"/>
      <path id="path68" class="cls-5" d="M762.46,234.1a43.79,43.79,0,1,0-43.8-43.79A43.79,43.79,0,0,0,762.46,234.1Z"/>
      <path id="path70" class="cls-5" d="M805,232.86a28.61,28.61,0,1,0-28.62-28.61A28.61,28.61,0,0,0,805,232.86Z"/>
      <path id="path72" class="cls-5" d="M1094.22,275.15a44.54,44.54,0,1,0-44.55-44.53A44.54,44.54,0,0,0,1094.22,275.15Z"/>
      <path id="path74" class="cls-5" d="M1048.18,265.45a29.11,29.11,0,1,0-29.12-29.11A29.12,29.12,0,0,0,1048.18,265.45Z"/>
      <path id="path76" class="cls-6" d="M936.7,744.2c-3.29-14-4.39-32.15-6.59-32.42h-2.48l-23.64.27s-5,22.54-7.42,31.88c-.28.55-.55,2.2-1.1,3.3a15.2,15.2,0,0,0-.55,4.94c.55,8.52,3.85,15.94,11.27,19.51,8.52,4.13,14.84,8.25,23.64,0C938.9,763.44,940,758.22,936.7,744.2Z"/>
      <path id="path78" class="cls-6" d="M862.2,714l-30,1.65s-11.83,20.61-29.14,25.29c-16.22,4.67-43.17,15.93-31.07,22.53,8.8,5.22,66.25.55,80.27,1.65,10.45.82,13.48-5.5,12.38-19.51C863.85,734.86,862.2,714,862.2,714Z"/>
      <path id="path80" class="cls-7" d="M826.46,341.34S806.39,506,805,516.67s6.87,65.67,6.87,76.12,19.52,122.83,19.52,122.83l31.07-1.37s-6.33-165.43-5.5-173.4S891.62,437,891.62,437s2.47,25.29,2.47,33.53,9.35,242.1,9.35,242.1h27.22L969.14,368l-.55-6.6Z"/>
      <path id="path82" class="cls-8" d="M918,23.12s-30,11.54-36.56,14.29S871,48.4,871,48.4s-3.3-1.93-3.3,3.57,2.75,18.14,4.95,21.71c3.57,5.5,6.6,11.27,9.62,17,2.75,5.77,1.65,17.86-1.1,19.51s-53.33,47.27-53.33,47.27L786.05,286.38l5.5,40.67,8.52,40.12s-1.65,3,1.65,6.32c3.58,3.3,18.7,28.31,18.7,28.31L825.64,365l-17-54.41-6-45.89,40.13-81.89,138.84,24.73,15.12,89.31-28,76.12L963.65,410l23.64-20.61c1.37-1.1,4.12-6.87,5.22-9.89l14-39.57L1017,276.76s-87.7-158-92.1-167.36c-1.92-4.12.28-14.56,1.38-19.51,1.1-4.67,3.3-10.71,5.5-12.36,3.29-3.57,4.94-8.8,5.77-13.47,0-3.3,1.37-16.21-1.93-13.19-.55.83-3-3-4.12-8.24C929.56,34.38,924.06,28.06,918,23.12Z"/>
      <path id="path84" class="cls-9" d="M906.74,152a5.88,5.88,0,0,1-7.7-.27,50.5,50.5,0,0,1-4.12-7.42c-2.2-4.4-19.25-29.68-19.25-29.68S835,125.07,828.39,129.19c-6.6,4.4-12.65,10.44-14.85,18.14s-33.54,99.2-35.19,105c-1.65,5.5-9.62,14.57-5.77,36.83,3.85,22.53,25,80.24,27.22,80.79s24.74-10.44,24.74-10.44-17.87-71.73-17.87-78.87,15.94-27.48,22.54-41.22c6.32-13.74,11.27-25.83,13.47-31.88s-19.24,119-19.24,119-.55,22.81,3.85,25c4.12,1.92,52,20.33,63,24.46,1.1.55,2.48-.28,3-1.38l7.14-20.33c0-.28.28-.55.55-.28a.27.27,0,0,1,.28.28l6.6,22c.27,1.1,1.65,1.65,2.75,1.65l59.1-12.64S968.87,256.43,970,238c.82-17.86-1.38-27.75,1.92-22.8,3.58,5.22,18.42,54.41,18.42,62.65s-16.77,80.52-16.77,80.52l22,12.36s30-79.41,31.34-89.86c1.65-10.44,2.2-15.93-2.74-26.38S992,149,992,149s-2.75-11.54-22.82-17.59-34.91-14.84-38.48-14.56S916.09,138,911.14,144.31C908.94,147.05,909.49,148.15,906.74,152Z"/>
      <path id="path86" class="cls-10" d="M917.73,23.39S884.2,35.76,877.32,40.7c-5.22,3.85-6.32,7.42-6.32,7.42s-3.57-1.64-3.3,3.58-4.12-8-5.22-12.37c-.83-4.12-1.1-15.94,8-24.73S889.69-.52,897.94,0s15.4,3,22,9.35,8.25,6,9.63,6.59,8.24,8,9.07,15.94S937,51.7,937,51.7s-1.65-1.65-3.3-.55c-1.65,1.37-2.2-7.7-8-18.41C921.86,25,917.73,23.39,917.73,23.39Z"/>
      <path id="path88" class="cls-11" d="M896.57,420.21c-3.85,11.27-18.7,33-28.6,46.17S828.11,507.05,830,540.85C832,574.38,852.3,660.94,852.3,668.91c0,7.69-7.69,44.52-13.46,55.78s-8.53,31.61-5.5,31.61a83,83,0,0,0,16.22-2.2,126.13,126.13,0,0,0,14.57-3.85c1.92-.82,2.47-7.42,2.47-7.42a25.2,25.2,0,0,0-.82-8,69.92,69.92,0,0,1-3-12.64c-1.1-31.6-4.12-105-3.3-109.92,1.1-9.62-6.6-58,.55-81.62C866.88,506.5,896.57,420.21,896.57,420.21Z"/>
      <path id="path90" class="cls-11" d="M824.27,360,819,399.6s5.23,8.24,6.6,1.37c1.65-6.87,12.37-19.78,5.5-29.13C824.82,362.5,824.27,360,824.27,360Z"/>
      <path id="path92" class="cls-11" d="M969.14,371l-1.65,19-2.2,18.14s-7.69,5.49-7.42-1.65-12.64-17.86-3-25S969.14,371,969.14,371Z"/>
      <path id="path94" class="cls-11" d="M875.4,115.18c1.37-.28-6.32,1.64.55-.55,11.82-3.85,6.87-26.11,6.87-26.11s1.1,8.24,12.37,11.54,14,.83-2.75,8.8-8,10.44-6.87,20.61"/>
      <path id="path96" class="cls-11" d="M841.86,215.76,823.17,329.25s.27,20.33,3.84,23.08,15.67,4.95,18.15,6.87c2.75,1.93,31.61,11.54,23.92-4.67-1.65-3.57-40.69-25.28-23.37-48.36,17.32-22.81,14.29-54.41,6-76.68a96.72,96.72,0,0,1-6.6-40.39Z"/>
      <path id="path98" class="cls-12" d="M206.29,389.53a1.3,1.3,0,0,0-1.37,1.38c0,4.12.82,14.29,9.35,14.29,9.89,0,515.18-.28,545.7-.28,1.1,0,2.75-1.92,3.85-3.3a20.31,20.31,0,0,0,4.67-10.16,2.26,2.26,0,0,0-1.92-2.75H766Z"/>
      <path id="path100" class="cls-13" d="M242.58,405.2s-.82,11,8.25,11c8.8,0,452.78-.83,479.45-1.1a5.33,5.33,0,0,0,2.75-.82,14.68,14.68,0,0,0,5.22-9.62Z"/>
      <path id="path102" class="cls-14" d="M648.63,414.82h5.22l53.88,330.86-4.39.28Z"/>
      <path id="path104" class="cls-15" d="M358.32,415.64h-6.05l-66,330.59,5.23.27Z"/>
      <path id="path106" class="cls-16" d="M396.81,415.64h-6.05l-66,306.68,5,.28Z"/>
      <path id="path108" class="cls-17" d="M605.19,414.27H611l62.68,306.4-4.95.28Z"/>
      <path id="path110" class="cls-18" d="M361.9,396.4l140.2-5.77L523,292.8l-142.41,1.37-21.17,102"/>
      <path id="path112" class="cls-5" d="M443,356.56a9.09,9.09,0,1,0-8.52-9.07A8.81,8.81,0,0,0,443,356.56Z"/>
      <path id="path114" class="cls-19" d="M360.8,389H284.37c-.55,0-.82.28-1.1.83l-1.1,4.67c0,.55.28,1.1.83,1.1h.27l76.15.82c.55,0,.83-.27,1.1-.82l1.38-5.22A1.42,1.42,0,0,0,360.8,389Z"/>
      <path id="path116" class="cls-20" d="M378.39,291.43l142.41-1.1c.27,0,.27,0,.55.27l1.92,2.2-141.85,1.1a.58.58,0,0,0-.55.55L362.45,395.58a.6.6,0,0,1-.55.55h-1.38a.6.6,0,0,1-.55-.55l17.6-103C377.29,292,377.57,291.43,378.39,291.43Z"/>
      <path id="path118" class="cls-21" d="M625.54,344.46c-1.1-.27-2.48-.55-3.58-.82a7.61,7.61,0,0,0-7.14,2.2,11.11,11.11,0,0,0-2.2,5.22,16.68,16.68,0,0,0,5.22,15.66,56.25,56.25,0,0,0,10.17,8,3.32,3.32,0,0,1,1.93,2.75,89.6,89.6,0,0,0,4.12,12.09c.28.55.55.55.83.83a42,42,0,0,0,22.54.27c1.65-.55,1.65-.55,2.47-2.2A110.15,110.15,0,0,0,666.22,364a130.67,130.67,0,0,0,1.38-23.09c0-1.37,0-1.37-1.38-1.92a20.32,20.32,0,0,0-7.14-1.1c-6.05-.55-12.37-.55-18.7-.55a58.09,58.09,0,0,0-11.82,1.37l-2.47.83c-.28.27-.55.27-.55.82ZM628,371.12c-6.6-3.3-10.72-8.24-11.27-15.66a10.65,10.65,0,0,1,.55-4.95,4,4,0,0,1,2.75-2.75,5.19,5.19,0,0,1,5.22,2.75v2.2a112.41,112.41,0,0,0,1.65,13.74A29.24,29.24,0,0,0,628,371.12Z"/>
      <path id="path120" class="cls-22" d="M625.81,339.52s20.35-6,41.79,0C667.6,339.52,649.73,346.66,625.81,339.52Z"/>
      <path id="path122" class="cls-23" d="M659.63,293.08a26,26,0,0,1-5.78,21.16c-1.92,2.74-4.12,4.94-6,7.69a31.94,31.94,0,0,0-6,14c0,.54-.55,1.64-.55,2.19,0-1.37-.55-2.19-.55-3.57a25.38,25.38,0,0,1,5.77-16.76c1.65-2.2,3.58-4.4,5.22-6.32a35.48,35.48,0,0,0,8-16.49"/>
      <path id="path124" class="cls-24" d="M633.24,330.17a4,4,0,0,0-.55-1.92,18.5,18.5,0,0,1,4.95-13.74,52.12,52.12,0,0,0,4.94-6.59,22.77,22.77,0,0,0,3.58-9.35c.27-.55.27-2.2.27-1.1l.28.28c.27.82.27,1.92.55,2.75a20.56,20.56,0,0,1-4.4,12.36l-5,6.05a22.66,22.66,0,0,0-3.85,8.24,1.69,1.69,0,0,0-.27,1.1A7.1,7.1,0,0,1,633.24,330.17Z"/>
      <path id="path126" class="cls-25" d="M655.5,333.2a21,21,0,0,0-.55-2.48A18.6,18.6,0,0,1,659.9,317a50.84,50.84,0,0,0,5-6.59,22.91,22.91,0,0,0,3.57-9.34c.28-.28.55-2.2.28-.83v.28c.27.82.27,1.64.55,2.47a20.53,20.53,0,0,1-4.4,12.36l-5,6.05a22.82,22.82,0,0,0-3.85,8.24,1.69,1.69,0,0,0-.27,1.1,6.53,6.53,0,0,1-.55,2.2Z"/>
    </g>
  </g>
</svg>