<?xml version="1.0" encoding="utf-8"?>
<!-- Generator: Adobe Illustrator 25.3.1, SVG Export Plug-In . SVG Version: 6.00 Build 0)  -->
<svg version="1.1" id="Layer_1" xmlns="http://www.w3.org/2000/svg" xmlns:xlink="http://www.w3.org/1999/xlink" x="0px" y="0px"
	 viewBox="0 0 1235.5 776.4" style="enable-background:new 0 0 1235.5 776.4;" xml:space="preserve">
<style type="text/css">
	.st0{clip-path:url(#SVGID_2_);}
	.st1{fill:#4B5563;}
	.st2{fill:#6B7280;}
	.st3{fill:#5A5A5A;}
	.st4{fill:none;stroke:#374151;stroke-width:0.37;stroke-linecap:round;stroke-miterlimit:10;}
	.st5{fill:#E5E7EB;}
	.st6{fill:#374151;}
	.st7{fill:#4B44BE;}
	.st8{fill:url(#SVGID_3_);}
	.st9{fill:url(#SVGID_4_);}
	.st10{fill:url(#SVGID_5_);}
	.st11{fill:url(#SVGID_6_);}
	.st12{opacity:7.000000e-02;enable-background:new    ;}
	.st13{fill:url(#SVGID_7_);}
	.st14{fill:url(#SVGID_8_);}
	.st15{fill:url(#SVGID_9_);}
	.st16{fill:url(#SVGID_10_);}
	.st17{fill:url(#SVGID_11_);}
	.st18{fill:url(#SVGID_12_);}
	.st19{fill:url(#SVGID_13_);}
	.st20{fill:url(#SVGID_14_);}
	.st21{fill:url(#SVGID_15_);}
	.st22{fill:url(#SVGID_16_);}
	.st23{fill:#4A41BC;}
	.st24{fill:url(#SVGID_17_);}
	.st25{fill:url(#SVGID_18_);}
	.st26{fill:url(#SVGID_19_);}
</style>
<g>
	<defs>
		<rect id="SVGID_1_" x="-191" y="-126" width="1555" height="878"/>
	</defs>
	<clipPath id="SVGID_2_">
		<use xlink:href="#SVGID_1_"  style="overflow:visible;"/>
	</clipPath>
	<g class="st0">
		<path class="st1" d="M455.1,617.5c8.5-102-22.9-251.3,13.7-272.2c36.3-20.4,48.5-27.1,86.1-68.7C646.5,175.1,770.4,21.9,909,16.6
			c133.7-5,215.5,37.1,292.2,334.1c38.3,148.5,36.1,226.9,32.3,273.9c-2,25.9-4,59.5-5.2,60.7C1226.4,687.1,448.1,702.3,455.1,617.5
			z"/>
		<path class="st1" d="M240.2,234.6l-11,518c0,3.7,10,2.5,12.5,2.5h14.9l-2.5-519.7l88.9,2.4L304.4,19.6C302.4,8.3,292.5,0,281,0
			h-61.5c-14.7-0.1-27.3,10.4-29.9,24.9l-37.6,207.7L240.2,234.6z"/>
		<path class="st2" d="M50,626.6c0,0-0.5,20.4,3,22.6c1.5,1.2,3.2,2,5,2.5L75.2,744c0,0,50,9.2,75.2-1.2l17.2-91.1l5.7-2.2l2.2-22.9
			C175.5,626.6,114,606.2,50,626.6z"/>
		<path class="st3" d="M55.8,651.3c0,0,67.2,5.2,75.2,3s5.7-20.4,5.7-20.4l33.1-3.5c0,0,0,19.4-2.2,21.6c-2.5,3-4.5,6.5-5.7,10.2
			c0,1.2-13.7,82.1-13.7,82.1s-21.7,3.5-25.1,3.5s9.2-67.2,9.2-71.6s0-13.7-3.5-13.7s-69.2,2-69.7-5.5
			C58.6,654.8,57.4,652.8,55.8,651.3z"/>
		<path class="st3" d="M82.4,630.9c0,0-18.7-13.2-28.6-14.4s-21.4-2.5-31.4-4s-22.6-6-22.4-11.9s1.5-8.7,7.2-12
			c4.9-3.2,10.6-5.3,16.4-6c4.5-0.5,49.3,11.2,67.9,39.1l7.5,9.2L82.4,630.9z"/>
		<path class="st3" d="M17.4,598.5c0,0,17.2-0.2,26.6,2.7c7.4,2.7,14.6,6.1,21.4,10l28.1,19.7"/>
		<path class="st4" d="M17.4,598.5c0,0,17.2-0.2,26.6,2.7c7.4,2.7,14.6,6.1,21.4,10l28.1,19.7"/>
		<path class="st3" d="M102,630.1c0,0-21.9-29.6-30.4-37.8S53.3,574.4,45,565.7s-18.4-21.1-14.2-26.4s7.5-8.7,15.4-7.5
			c6.2,0.6,12.1,2.8,17.2,6.5c4.5,2.7,44,40.5,49.8,83.8l5.7,8.7L102,630.1z"/>
		<path class="st4" d="M50.8,549.3c0,0,16.9,10.2,23.7,19.9c6.2,9.2,16.2,25.4,16.2,25.4l11.4,31.1"/>
		<path class="st5" d="M113,631.6c0,0-25.4-55.2-30.1-66.2s-24.1-27.4-28.4-38.6s-7-19.2-2.5-25.4s16.2-11.2,23.6-7.5
			c7,3.5,16.2,13.9,20.2,19.2c3.2,4.2,23.9,79.1,22.1,96.5l4,22.1L113,631.6z"/>
		<path class="st4" d="M68.2,514.4c0,0,14.7,18.9,19.2,29.8c5,12.4,10,36.1,9.2,32.3l15.2,51.2"/>
		<path class="st5" d="M99.1,631.3c0,0-22.4-25.6-33.4-30.6s-23.4-10.5-34.1-15.9s-23.4-14.4-21.4-19.9s4.5-7.7,12.2-8.7
			c6.8-1.2,13.7-1,20.4,0.5c5,1.2,51.8,29.6,63.7,63.2l5.5,11.7L99.1,631.3z"/>
		<path class="st4" d="M30.9,569.7c0,0,19.4,6.5,29.1,12.9c7.3,5.5,14.3,11.4,20.9,17.7l21.4,31.3"/>
		<path class="st3" d="M157.5,631.8c0,0,20.4-12.4,31.1-13.7s23.1-2.2,34.1-3.7s24.4-5.7,24.1-11.2s-1.5-8.2-8-11.4
			c-5.5-3-11.5-5-17.7-5.7c-4.7-0.5-53.3,10.7-73.7,37.3l-8.2,8.7L157.5,631.8z"/>
		<path class="st3" d="M227.7,600.8c0,0-18.7-0.2-28.9,2.7c-8,2.5-15.7,5.7-23.2,9.5l-27.1,18.2"/>
		<path class="st4" d="M227.7,600.8c0,0-18.7-0.2-28.9,2.7c-8,2.5-15.7,5.7-23.2,9.5l-27.1,18.2"/>
		<path class="st3" d="M136.1,631.1c0,0,23.6-28.4,32.9-36.3s19.9-17.2,28.9-25.4s20.2-20.2,15.4-25.1s-8-8.2-16.7-7.2
			c-6.6,0.6-13,2.7-18.6,6.2c-4.7,2.7-47.5,38.8-53.8,80.1l-6.2,8.5L136.1,631.1z"/>
		<path class="st4" d="M191.6,554c0,0-18.4,9.7-25.6,18.9c-6.7,8.7-17.7,24.4-17.7,24.4l-12.2,29.6"/>
		<path class="st5" d="M124.4,632.6c0,0,27.6-52.7,32.6-63.2s26.1-26.1,30.9-36.8s7.7-18.4,2.7-24.1s-17.6-10.7-25.6-7.2
			c-7.7,3.2-17.4,13.2-21.9,18.4c-3.5,4-25.9,75.6-24.1,92.3l-4.2,21.2L124.4,632.6z"/>
		<path class="st3" d="M121.7,631.8c0,0,2.2-51.5,7.5-68.2c3.5-11.2,7-29.8,11.7-40.3s-2.5-24.4-7.2-30.4s-17.4-4.7-25.6-1.2
			c-7.7,3.2-12,13.9-12.9,19.7c-0.8,5.2,17.4,67.2,15.4,90.1l1.5,30.9L121.7,631.8z"/>
		<path class="st4" d="M173,520.7c0,0-15.7,17.9-20.7,28.6c-5.5,11.9-10.7,34.6-10,30.8l-17.9,50.3"/>
		<path class="st5" d="M139.6,632.1c0,0,24.4-24.4,36.1-29.1s25.4-10,36.8-15.2s25.4-13.7,23.1-18.9s-4.7-7.2-13.2-8.2
			c-7.3-1.1-14.7-0.9-21.9,0.5c-5.5,1.2-56,28.1-68.9,60.2l-6,11L139.6,632.1z"/>
		<path class="st4" d="M213,573.4c0,0-20.9,6-31.4,12.2c-7.9,5-15.5,10.6-22.6,16.7l-23.6,26.4"/>
		<path class="st4" d="M116.7,502.5c0,0,4.2,44,1.7,56c-1,5-0.5,36.1-0.5,36.1l-1,34.3"/>
		<path class="st5" d="M154.3,216.4l184.7,3.5l3.7,13.1l-190.6-5L154.3,216.4z"/>
		<path class="st5" d="M967.5,307l-1.5,362.7l230.5,0.5c0,0,1.7-191.1-7.5-373.9l-221-3.2L967.5,307z"/>
		<path class="st5" d="M750.5,354l-6,316.7h196.9L940.2,354H750.5z"/>
		<path class="st5" d="M464.5,539.8l283.2,1.5l-3.2,129.4l-279-0.2L464.5,539.8z"/>
		<path class="st6" d="M441.2,357.2l0.8,314.2c0,0,1.7,19.7,20.7,20.7s763.6,1.2,763.6,1.2s6.7-20.9,4-21.6S465.5,671,465.5,671
			s0.2-11.2,0.2-18.2c0-8-0.5-305-0.5-305C457.5,351.7,449.5,354.8,441.2,357.2z"/>
		<path class="st6" d="M457.6,388.3l753.4,4.7l4,16.2L457.6,413V388.3z"/>
		<path class="st6" d="M670.1,143.8v527.4l19.9,1.5V130.1L670.1,143.8z"/>
		<path class="st6" d="M1030,37.8l-0.5,633.4l18.4-1.5l3-619.5L1030,37.8z"/>
		<path class="st6" d="M690,130.1l430.1,2.7l-12.4-22.4l-393-0.2L690,130.1z"/>
		<path class="st6" d="M762.5,234.1c24.2,0,43.8-19.6,43.8-43.8c0-24.2-19.6-43.8-43.8-43.8c-24.2,0-43.8,19.6-43.8,43.8
			C718.7,214.5,738.3,234.1,762.5,234.1C762.5,234.1,762.5,234.1,762.5,234.1z"/>
		<path class="st6" d="M805,232.9c15.8,0,28.6-12.8,28.6-28.6s-12.8-28.6-28.6-28.6c-15.8,0-28.6,12.8-28.6,28.6
			C776.4,220.1,789.2,232.9,805,232.9C805,232.9,805,232.9,805,232.9z"/>
		<path class="st6" d="M1094.2,275.1c24.6,0,44.5-20,44.5-44.6c0-24.6-20-44.5-44.6-44.5c-24.6,0-44.5,19.9-44.5,44.5
			C1049.7,255.2,1069.6,275.1,1094.2,275.1C1094.2,275.1,1094.2,275.1,1094.2,275.1z"/>
		<path class="st6" d="M1048.2,265.5c16.1,0,29.1-13,29.1-29.1s-13-29.1-29.1-29.1c-16.1,0-29.1,13-29.1,29.1
			C1019.1,252.4,1032.1,265.5,1048.2,265.5z"/>
		<path class="st7" d="M936.7,744.2c-3.3-14-4.4-32.2-6.6-32.4h-2.5l-23.6,0.3c0,0-5,22.5-7.4,31.9c-0.3,0.5-0.6,2.2-1.1,3.3
			c-0.5,1.6-0.6,3.3-0.6,4.9c0.6,8.5,3.8,15.9,11.3,19.5c8.5,4.1,14.8,8.2,23.6,0C938.9,763.4,940,758.2,936.7,744.2z"/>
		<path class="st7" d="M862.2,714l-30,1.7c0,0-11.8,20.6-29.1,25.3c-16.2,4.7-43.2,15.9-31.1,22.5c8.8,5.2,66.3,0.5,80.3,1.7
			c10.4,0.8,13.5-5.5,12.4-19.5C863.8,734.9,862.2,714,862.2,714z"/>
		
			<linearGradient id="SVGID_3_" gradientUnits="userSpaceOnUse" x1="995.8423" y1="568.48" x2="1160.3324" y2="568.48" gradientTransform="matrix(1 0 0 1 -191 -40)">
			<stop  offset="0" style="stop-color:#4B45BD"/>
			<stop  offset="1" style="stop-color:#7A5BF5"/>
		</linearGradient>
		<path class="st8" d="M826.5,341.3c0,0-20.1,164.7-21.5,175.3s6.9,65.7,6.9,76.1s19.5,122.8,19.5,122.8l31.1-1.4
			c0,0-6.3-165.4-5.5-173.4S891.6,437,891.6,437s2.5,25.3,2.5,33.5s9.3,242.1,9.3,242.1h27.2L969.1,368l-0.6-6.6L826.5,341.3z"/>
		
			<linearGradient id="SVGID_4_" gradientUnits="userSpaceOnUse" x1="977.05" y1="256.58" x2="1208" y2="256.58" gradientTransform="matrix(1 0 0 1 -191 -40)">
			<stop  offset="0" style="stop-color:#F87B58"/>
			<stop  offset="0.41" style="stop-color:#F89453"/>
			<stop  offset="0.71" style="stop-color:#F8C548"/>
			<stop  offset="1" style="stop-color:#F89C51"/>
		</linearGradient>
		<path class="st9" d="M918,23.1c0,0-30,11.5-36.6,14.3s-10.4,11-10.4,11s-3.3-1.9-3.3,3.6s2.8,18.1,5,21.7c3.6,5.5,6.6,11.3,9.6,17
			c2.8,5.8,1.7,17.9-1.1,19.5s-53.3,47.3-53.3,47.3L786,286.4l5.5,40.7l8.5,40.1c0,0-1.7,3,1.7,6.3c3.6,3.3,18.7,28.3,18.7,28.3
			l5.2-36.8l-17-54.4l-6-45.9l40.1-81.9l138.8,24.7l15.1,89.3l-28.1,76.1l-4.9,37.1l23.6-20.6c1.4-1.1,4.1-6.9,5.2-9.9l14-39.6
			l10.4-63.2c0,0-87.7-158-92.1-167.4c-1.9-4.1,0.3-14.6,1.4-19.5c1.1-4.7,3.3-10.7,5.5-12.4c3.3-3.6,4.9-8.8,5.8-13.5
			c0-3.3,1.4-16.2-1.9-13.2c-0.6,0.8-3-3-4.1-8.2C929.6,34.4,924.1,28.1,918,23.1z"/>
		
			<linearGradient id="SVGID_5_" gradientUnits="userSpaceOnUse" x1="962.5412" y1="286.285" x2="1219.4012" y2="286.285" gradientTransform="matrix(1 0 0 1 -191 -40)">
			<stop  offset="0" style="stop-color:#4B45BD"/>
			<stop  offset="1" style="stop-color:#58CAEA"/>
		</linearGradient>
		<path class="st10" d="M906.7,152c-2.3,1.8-5.6,1.7-7.7-0.3c-1.6-2.4-3-4.8-4.1-7.4c-2.2-4.4-19.2-29.7-19.2-29.7
			s-40.7,10.4-47.3,14.6c-6.6,4.4-12.7,10.4-14.8,18.1s-33.5,99.2-35.2,105c-1.7,5.5-9.6,14.6-5.8,36.8c3.8,22.5,25,80.2,27.2,80.8
			s24.7-10.4,24.7-10.4s-17.9-71.7-17.9-78.9s15.9-27.5,22.5-41.2c6.3-13.7,11.3-25.8,13.5-31.9s-19.2,119-19.2,119
			s-0.5,22.8,3.8,25c4.1,1.9,52,20.3,63,24.5c1.1,0.5,2.5-0.3,3-1.4l7.1-20.3c0-0.3,0.3-0.5,0.6-0.3c0.1,0,0.3,0.1,0.3,0.3
			c0,0,0,0,0,0l6.6,22c0.3,1.1,1.7,1.6,2.8,1.6l59.1-12.6c0,0-0.8-108.8,0.3-127.2c0.8-17.9-1.4-27.8,1.9-22.8
			c3.6,5.2,18.4,54.4,18.4,62.6s-16.8,80.5-16.8,80.5l22,12.4c0,0,30-79.4,31.3-89.9c1.7-10.4,2.2-15.9-2.7-26.4S992,149,992,149
			s-2.8-11.5-22.8-17.6s-34.9-14.8-38.5-14.6s-14.6,21.2-19.5,27.5C908.9,147,909.5,148.1,906.7,152z"/>
		
			<linearGradient id="SVGID_6_" gradientUnits="userSpaceOnUse" x1="1053.22" y1="66.449" x2="1130.46" y2="66.449" gradientTransform="matrix(1 0 0 1 -191 -40)">
			<stop  offset="0" style="stop-color:#4B45BD"/>
			<stop  offset="1" style="stop-color:#339AF0"/>
		</linearGradient>
		<path class="st11" d="M917.7,23.4c0,0-33.5,12.4-40.4,17.3c-5.2,3.9-6.3,7.4-6.3,7.4s-3.6-1.6-3.3,3.6s-4.1-8-5.2-12.4
			c-0.8-4.1-1.1-15.9,8-24.7S889.7-0.5,898,0s15.4,3,22,9.3s8.2,6,9.6,6.6s8.2,8,9.1,15.9S937,51.7,937,51.7s-1.7-1.6-3.3-0.6
			c-1.7,1.4-2.2-7.7-8-18.4C921.9,25,917.7,23.4,917.7,23.4z"/>
		<path class="st12" d="M896.6,420.2c-3.8,11.3-18.7,33-28.6,46.2S828.1,507,830,540.8c1.9,33.5,22.3,120.1,22.3,128.1
			c0,7.7-7.7,44.5-13.5,55.8s-8.5,31.6-5.5,31.6c5.5-0.2,10.9-0.9,16.2-2.2c4.9-1,9.8-2.3,14.6-3.8c1.9-0.8,2.5-7.4,2.5-7.4
			c0.2-2.7-0.1-5.4-0.8-8c-1.4-4.1-2.4-8.3-3-12.6c-1.1-31.6-4.1-105-3.3-109.9c1.1-9.6-6.6-58,0.6-81.6
			C866.9,506.5,896.6,420.2,896.6,420.2z"/>
		<path class="st12" d="M824.3,360l-5.3,39.6c0,0,5.2,8.2,6.6,1.4c1.7-6.9,12.4-19.8,5.5-29.1C824.8,362.5,824.3,360,824.3,360z"/>
		<path class="st12" d="M969.1,371l-1.7,19l-2.2,18.1c0,0-7.7,5.5-7.4-1.7s-12.6-17.9-3-25S969.1,371,969.1,371z"/>
		<path class="st12" d="M875.4,115.2c1.4-0.3-6.3,1.6,0.6-0.6c11.8-3.9,6.9-26.1,6.9-26.1s1.1,8.2,12.4,11.5s14,0.8-2.8,8.8
			s-8,10.4-6.9,20.6"/>
		<path class="st12" d="M841.9,215.8l-18.7,113.5c0,0,0.3,20.3,3.8,23.1s15.7,5,18.2,6.9c2.8,1.9,31.6,11.5,23.9-4.7
			c-1.7-3.6-40.7-25.3-23.4-48.4c17.3-22.8,14.3-54.4,6-76.7c-5.1-12.8-7.3-26.6-6.6-40.4L841.9,215.8z"/>
		
			<linearGradient id="SVGID_7_" gradientUnits="userSpaceOnUse" x1="395.9174" y1="436.955" x2="959.5483" y2="436.955" gradientTransform="matrix(1 0 0 1 -191 -40)">
			<stop  offset="0" style="stop-color:#4B45BD"/>
			<stop  offset="1" style="stop-color:#58CAEA"/>
		</linearGradient>
		<path class="st13" d="M206.3,389.5c-0.7,0-1.3,0.5-1.4,1.2c0,0.1,0,0.1,0,0.2c0,4.1,0.8,14.3,9.4,14.3c9.9,0,515.2-0.3,545.7-0.3
			c1.1,0,2.8-1.9,3.8-3.3c2.5-2.9,4.1-6.4,4.7-10.2c0.3-1.2-0.5-2.4-1.7-2.7c-0.1,0-0.1,0-0.2,0H766L206.3,389.5z"/>
		
			<linearGradient id="SVGID_8_" gradientUnits="userSpaceOnUse" x1="395.73" y1="450.43" x2="959.2999" y2="450.43" gradientTransform="matrix(1 0 0 1 -191 -40)">
			<stop  offset="0" style="stop-color:#4B45BD"/>
			<stop  offset="1" style="stop-color:#58CAEA"/>
		</linearGradient>
		<path class="st14" d="M242.6,405.2c0,0-0.8,11,8.2,11c8.8,0,452.8-0.8,479.5-1.1c1,0,1.9-0.3,2.8-0.8c2.9-2.4,4.8-5.9,5.2-9.6
			L242.6,405.2z"/>
		
			<linearGradient id="SVGID_9_" gradientUnits="userSpaceOnUse" x1="839.63" y1="620.39" x2="898.61" y2="620.39" gradientTransform="matrix(1 0 0 1 -191 -40)">
			<stop  offset="0" style="stop-color:#4B45BD"/>
			<stop  offset="1" style="stop-color:#58CAEA"/>
		</linearGradient>
		<path class="st15" d="M648.6,414.8h5.2l53.9,330.9l-4.4,0.3L648.6,414.8z"/>
		
			<linearGradient id="SVGID_10_" gradientUnits="userSpaceOnUse" x1="552.33" y1="621.07" x2="480.28" y2="621.07" gradientTransform="matrix(1 0 0 1 -191 -40)">
			<stop  offset="0" style="stop-color:#4B45BD"/>
			<stop  offset="1" style="stop-color:#58CAEA"/>
		</linearGradient>
		<path class="st16" d="M358.3,415.6h-6l-66,330.6l5.2,0.3L358.3,415.6z"/>
		
			<linearGradient id="SVGID_11_" gradientUnits="userSpaceOnUse" x1="590.65" y1="609.12" x2="518.65" y2="609.12" gradientTransform="matrix(1 0 0 1 -191 -40)">
			<stop  offset="0" style="stop-color:#4B45BD"/>
			<stop  offset="1" style="stop-color:#339AF0"/>
		</linearGradient>
		<path class="st17" d="M396.8,415.6h-6l-66,306.7l5,0.3L396.8,415.6z"/>
		
			<linearGradient id="SVGID_12_" gradientUnits="userSpaceOnUse" x1="795.72" y1="607.61" x2="864.21" y2="607.61" gradientTransform="matrix(1 0 0 1 -191 -40)">
			<stop  offset="0" style="stop-color:#4B45BD"/>
			<stop  offset="1" style="stop-color:#58CAEA"/>
		</linearGradient>
		<path class="st18" d="M605.2,414.3h5.8l62.7,306.4l-5,0.3L605.2,414.3z"/>
		
			<linearGradient id="SVGID_13_" gradientUnits="userSpaceOnUse" x1="550.42" y1="384.6" x2="714" y2="384.6" gradientTransform="matrix(1 0 0 1 -191 -40)">
			<stop  offset="0" style="stop-color:#CD94EF"/>
			<stop  offset="1" style="stop-color:#7D5DF5"/>
		</linearGradient>
		<path class="st19" d="M361.9,396.4l140.2-5.8l20.9-97.8l-142.4,1.4l-21.2,102"/>
		<path class="st6" d="M443,356.6c5,0.3,9.3-3.5,9.6-8.5c0.3-5-3.5-9.3-8.5-9.6s-9.3,3.5-9.6,8.5c0,0.2,0,0.4,0,0.6
			C434.3,352.3,438.1,356.4,443,356.6z"/>
		
			<linearGradient id="SVGID_14_" gradientUnits="userSpaceOnUse" x1="473.17" y1="432.71" x2="552.74" y2="432.71" gradientTransform="matrix(1 0 0 1 -191 -40)">
			<stop  offset="0" style="stop-color:#7A5BF5"/>
			<stop  offset="1" style="stop-color:#8260F4"/>
		</linearGradient>
		<path class="st20" d="M360.8,389h-76.4c-0.5,0-0.8,0.3-1.1,0.8l-1.1,4.7c0,0.5,0.3,1.1,0.8,1.1h0.3l76.2,0.8
			c0.5,0,0.8-0.3,1.1-0.8l1.4-5.2C361.9,389.7,361.4,389.1,360.8,389z"/>
		
			<linearGradient id="SVGID_15_" gradientUnits="userSpaceOnUse" x1="550.41" y1="383.23" x2="713.95" y2="383.23" gradientTransform="matrix(1 0 0 1 -191 -40)">
			<stop  offset="0" style="stop-color:#7A5BF5"/>
			<stop  offset="0.71" style="stop-color:#8260F4"/>
		</linearGradient>
		<path class="st21" d="M378.4,291.4l142.4-1.1c0.3,0,0.3,0,0.5,0.3l1.9,2.2l-141.8,1.1c-0.3,0-0.5,0.3-0.5,0.5l-18.4,101.1
			c0,0.3-0.3,0.5-0.5,0.5h-1.4c-0.3,0-0.5-0.3-0.5-0.5l17.6-103C377.3,292,377.6,291.4,378.4,291.4z"/>
		
			<linearGradient id="SVGID_16_" gradientUnits="userSpaceOnUse" x1="867.4575" y1="393.0417" x2="776.8075" y2="424.5517" gradientTransform="matrix(1 0 0 1 -191 -40)">
			<stop  offset="0" style="stop-color:#59CFEE"/>
			<stop  offset="1" style="stop-color:#4A41BC"/>
		</linearGradient>
		<path class="st22" d="M625.5,344.5c-1.1-0.3-2.5-0.5-3.6-0.8c-2.6-0.6-5.3,0.3-7.1,2.2c-1.2,1.5-1.9,3.3-2.2,5.2
			c-1.1,5.8,0.8,11.7,5.2,15.7c3.1,3,6.5,5.7,10.2,8c1.1,0.5,1.8,1.6,1.9,2.8c1.1,4.1,2.5,8.2,4.1,12.1c0.3,0.5,0.5,0.5,0.8,0.8
			c7.3,2.1,15.1,2.2,22.5,0.3c1.7-0.5,1.7-0.5,2.5-2.2c3-7.9,5.2-16.1,6.3-24.5c1.1-7.6,1.6-15.4,1.4-23.1c0-1.4,0-1.4-1.4-1.9
			c-2.3-0.8-4.7-1.2-7.1-1.1c-6-0.5-12.4-0.5-18.7-0.5c-4,0.1-7.9,0.5-11.8,1.4l-2.5,0.8c-0.3,0.3-0.5,0.3-0.5,0.8V344.5z
			 M628,371.1c-6.6-3.3-10.7-8.2-11.3-15.7c-0.2-1.7,0-3.4,0.5-5c0.4-1.3,1.4-2.4,2.8-2.8c2.1-0.3,4.2,0.8,5.2,2.8v2.2
			c0.3,4.6,0.8,9.2,1.7,13.7C627.1,368,627.5,369.6,628,371.1z"/>
		<path class="st23" d="M625.8,339.5c0,0,20.3-6,41.8,0C667.6,339.5,649.7,346.7,625.8,339.5z"/>
		
			<linearGradient id="SVGID_17_" gradientUnits="userSpaceOnUse" x1="839.7335" y1="359.3651" x2="831.5834" y2="377.3751" gradientTransform="matrix(1 0 0 1 -191 -40)">
			<stop  offset="0" style="stop-color:#59CFEE"/>
			<stop  offset="1" style="stop-color:#4A41BC"/>
		</linearGradient>
		<path class="st24" d="M659.6,293.1c1.3,7.6-0.8,15.3-5.8,21.2c-1.9,2.7-4.1,4.9-6,7.7c-3.1,4.1-5.2,8.9-6,14
			c0,0.5-0.5,1.6-0.5,2.2c0-1.4-0.5-2.2-0.5-3.6c-0.2-6.1,1.9-12,5.8-16.8c1.7-2.2,3.6-4.4,5.2-6.3c4.1-4.7,6.8-10.4,8-16.5"/>
		
			<linearGradient id="SVGID_18_" gradientUnits="userSpaceOnUse" x1="830.2203" y1="355.8401" x2="825.1703" y2="369.5901" gradientTransform="matrix(1 0 0 1 -191 -40)">
			<stop  offset="0" style="stop-color:#59CFEE"/>
			<stop  offset="1" style="stop-color:#4A41BC"/>
		</linearGradient>
		<path class="st25" d="M633.2,330.2c0-0.7-0.2-1.3-0.5-1.9c-0.3-5.1,1.5-10,5-13.7c1.8-2.1,3.5-4.3,4.9-6.6c1.9-2.8,3.1-6,3.6-9.4
			c0.3-0.5,0.3-2.2,0.3-1.1l0.3,0.3c0.3,0.8,0.3,1.9,0.5,2.8c-0.1,4.5-1.6,8.8-4.4,12.4l-5,6c-1.8,2.5-3.1,5.3-3.8,8.2
			c-0.2,0.3-0.3,0.7-0.3,1.1C633.7,328.9,633.5,329.6,633.2,330.2z"/>
		
			<linearGradient id="SVGID_19_" gradientUnits="userSpaceOnUse" x1="852.2921" y1="358.5617" x2="847.1821" y2="372.4918" gradientTransform="matrix(1 0 0 1 -191 -40)">
			<stop  offset="0" style="stop-color:#59CFEE"/>
			<stop  offset="1" style="stop-color:#4A41BC"/>
		</linearGradient>
		<path class="st26" d="M655.5,333.2c-0.1-0.8-0.3-1.7-0.5-2.5c-0.3-5.1,1.5-10,5-13.7c1.8-2.1,3.5-4.3,5-6.6c1.9-2.8,3.1-6,3.6-9.3
			c0.3-0.3,0.5-2.2,0.3-0.8v0.3c0.3,0.8,0.3,1.6,0.5,2.5c-0.1,4.5-1.6,8.8-4.4,12.4l-5,6c-1.8,2.5-3.1,5.3-3.8,8.2
			c-0.2,0.3-0.3,0.7-0.3,1.1c-0.1,0.8-0.2,1.5-0.5,2.2L655.5,333.2z"/>
	</g>
</g>
</svg>
