<svg width="25" height="25" viewBox="0 0 25 25" fill="none" xmlns="http://www.w3.org/2000/svg">
<ellipse cx="12.7812" cy="12.3136" rx="11.8637" ry="12.3136" fill="#F08833"/>
<path d="M7.38818 6.71631V17.9105H18.1732V6.71631H7.38818ZM13.1659 15.4118C13.1659 16.5014 12.5457 17.0327 11.648 17.0327C10.8372 17.0327 10.3666 16.5969 10.1278 16.0709L10.953 15.5524C11.1122 15.8455 11.233 16.0934 11.5804 16.0934C11.8693 16.0934 12.1066 15.9582 12.1066 15.4323V11.9136H13.1659V15.4118ZM15.5576 17.0077C14.6166 17.0077 14.0085 16.5669 13.7116 15.9582L14.5381 15.4617C14.7547 15.8301 15.0376 16.0754 15.5371 16.0754C15.957 16.0754 16.2009 15.8825 16.2009 15.5819C16.2009 15.2214 15.9498 15.0937 15.4863 14.8823L15.2331 14.7694C14.5017 14.4465 14.0169 14.0407 14.0169 13.1839C14.0169 12.3951 14.5959 11.8189 15.5008 11.8189C16.1452 11.8189 16.6082 12.0268 16.9416 12.6355L16.151 13.1629C15.9772 12.8399 15.7899 12.7132 15.4996 12.7132C15.2028 12.7132 15.0145 12.9086 15.0145 13.1629C15.0145 13.4785 15.2028 13.6062 15.6371 13.8016L15.8903 13.9143C16.7519 14.2976 17.237 14.6889 17.237 15.5674C17.2372 16.5144 16.5206 17.0077 15.5576 17.0077Z" fill="white"/>
</svg>
