<svg width="30" height="30" viewBox="0 0 30 30" fill="none" xmlns="http://www.w3.org/2000/svg">
<path d="M16.6666 30H9.99998V10H16.6666V13.3333C18.0877 11.5254 20.2427 10.4476 22.5416 10.395C26.6759 10.418 30.0119 13.7823 30 17.9167V30H23.3333V18.75C23.0667 16.8877 21.4696 15.506 19.5883 15.51C18.7654 15.536 17.9887 15.8963 17.4374 16.5077C16.886 17.1191 16.6077 17.9288 16.6666 18.75V30ZM6.66665 30H0V10H6.66665V30ZM3.33333 6.66667C1.49238 6.66667 0 5.17428 0 3.33333C0 1.49238 1.49238 0 3.33333 0C5.17427 0 6.66665 1.49238 6.66665 3.33333C6.66665 4.21739 6.31546 5.06523 5.69034 5.69036C5.06522 6.31548 4.21738 6.66667 3.33333 6.66667Z" fill="#325AF0"/>
</svg>
