<svg xmlns="http://www.w3.org/2000/svg" xmlns:xlink="http://www.w3.org/1999/xlink" viewBox="0 0 386 259.94"><defs><style>.cls-1{fill:none;}.cls-2{clip-path:url(#clip-path);}.cls-3{fill:#e0e0e0;}.cls-4{fill:#ebebeb;}.cls-5{fill:#fafafa;}.cls-6{clip-path:url(#clip-path-2);}.cls-7{fill:#f5f5f5;}.cls-8{fill:#f0f0f0;}.cls-9{fill:#949494;}.cls-10{clip-path:url(#clip-path-3);}.cls-11{fill:#407bff;}.cls-12,.cls-16,.cls-25,.cls-36{fill:#fff;}.cls-12,.cls-13,.cls-14,.cls-16,.cls-19,.cls-21,.cls-23,.cls-25,.cls-31,.cls-33{isolation:isolate;}.cls-12,.cls-19,.cls-21,.cls-22{opacity:0.3;}.cls-13,.cls-21,.cls-31,.cls-33,.cls-35{fill:#66717b;}.cls-13,.cls-23,.cls-24,.cls-25{opacity:0.2;}.cls-14{fill:#5bd1ef;}.cls-14,.cls-16{opacity:0.5;}.cls-15{fill:#263238;}.cls-17{clip-path:url(#clip-path-4);}.cls-18{fill:#58cbeb;}.cls-19{fill:#4b46be;}.cls-20{clip-path:url(#clip-path-5);}.cls-23{fill:#b6c98e;}.cls-26{clip-path:url(#clip-path-6);}.cls-27{fill:#4b44be;}.cls-28{fill:url(#linear-gradient);}.cls-29{fill:url(#linear-gradient-2);}.cls-30{fill:url(#linear-gradient-3);}.cls-31{opacity:0.1;}.cls-32{fill:url(#linear-gradient-4);}.cls-33,.cls-34{opacity:0.07;}.cls-37{fill:url(#linear-gradient-5);}</style><clipPath id="clip-path" transform="translate(0)"><rect class="cls-1" x="49.84" width="84.04" height="190.56"/></clipPath><clipPath id="clip-path-2" transform="translate(0)"><rect class="cls-1" x="151.47" y="7.82" width="234.53" height="143.65"/></clipPath><clipPath id="clip-path-3" transform="translate(0)"><rect class="cls-1" x="155.38" y="100.65" width="43.97" height="33.23"/></clipPath><clipPath id="clip-path-4" transform="translate(0)"><rect class="cls-1" x="110.43" y="132.9" width="152.45" height="57.66"/></clipPath><clipPath id="clip-path-5" transform="translate(0)"><rect class="cls-1" x="85.02" y="114.33" width="47.88" height="76.22"/></clipPath><clipPath id="clip-path-6" transform="translate(0)"><rect class="cls-1" y="88.93" width="77.2" height="171.01"/></clipPath><linearGradient id="linear-gradient" x1="-50.06" y1="162.63" x2="-85.81" y2="162.63" gradientTransform="matrix(1, 0, 0, -1, 0, 262)" gradientUnits="userSpaceOnUse"><stop offset="0" stop-color="#4b45bd"/><stop offset="1" stop-color="#58caea"/></linearGradient><linearGradient id="linear-gradient-2" x1="23.44" y1="144.16" x2="53.06" y2="144.16" gradientTransform="matrix(1, 0, 0, -1, 0, 262)" gradientUnits="userSpaceOnUse"><stop offset="0" stop-color="#f87b58"/><stop offset="0.41" stop-color="#f89453"/><stop offset="0.71" stop-color="#f8c548"/><stop offset="1" stop-color="#f89c51"/></linearGradient><linearGradient id="linear-gradient-3" x1="7.53" y1="52.08" x2="64.09" y2="52.08" xlink:href="#linear-gradient"/><linearGradient id="linear-gradient-4" x1="29.38" y1="107.07" x2="93.82" y2="152.14" gradientTransform="matrix(1, 0, 0, -1, 0, 262)" gradientUnits="userSpaceOnUse"><stop offset="0" stop-color="#e5a4ed"/><stop offset="1" stop-color="#7a5bf5"/></linearGradient><linearGradient id="linear-gradient-5" x1="37.68" y1="91.24" x2="33.85" y2="91.24" gradientTransform="matrix(1, 0, 0, -1, 0, 262)" gradientUnits="userSpaceOnUse"><stop offset="0" stop-color="#59c2e9"/><stop offset="1" stop-color="#5bd3ef"/></linearGradient></defs><g id="Layer_2" data-name="Layer 2"><g id="Layer_1-2" data-name="Layer 1"><g class="cls-2"><path class="cls-3" d="M72.57,0H49.84V190.56H72.57Z" transform="translate(0)"/><path class="cls-4" d="M133.88,0H70.08V190.56h63.8Z" transform="translate(0)"/><path class="cls-5" d="M127.38,6.48H76.59V57.19h50.79Z" transform="translate(0)"/><path class="cls-3" d="M115.73,36.3H88.22a1.39,1.39,0,0,1-1-.41,1.36,1.36,0,0,1,0-2,1.39,1.39,0,0,1,1-.4h27.51a1.31,1.31,0,0,1,1,.41,1.27,1.27,0,0,1,.3.45,1.4,1.4,0,0,1,.11.53,1.38,1.38,0,0,1-1.39,1.37Z" transform="translate(0)"/><path class="cls-3" d="M115.73,41.9H88.22a1.39,1.39,0,0,1-1-.41,1.36,1.36,0,0,1-.41-1,1.4,1.4,0,0,1,.1-.54,1.37,1.37,0,0,1,.3-.45,1.47,1.47,0,0,1,1-.41h27.51a1.39,1.39,0,0,1,1,.41,1.39,1.39,0,0,1,0,2A1.39,1.39,0,0,1,115.73,41.9Z" transform="translate(0)"/><path class="cls-3" d="M115.73,47.47H88.22a1.4,1.4,0,0,1-1.29-1.92,1.42,1.42,0,0,1,1.29-.87h27.51a1.39,1.39,0,0,1,1.39,1.4,1.43,1.43,0,0,1-.41,1A1.38,1.38,0,0,1,115.73,47.47Z" transform="translate(0)"/><path class="cls-4" d="M107.39,26H96.58l-2.86-2.86V17.09l2.86-2.84h10.81l2.86,2.84v6.09Z" transform="translate(0)"/><path class="cls-5" d="M127.38,62.05H76.59v50.71h50.79Z" transform="translate(0)"/><path class="cls-3" d="M115.73,91.89H88.22a1.39,1.39,0,0,1-1-.41,1.34,1.34,0,0,1-.41-1,1.44,1.44,0,0,1,.1-.54,1.37,1.37,0,0,1,.3-.45,1.44,1.44,0,0,1,.46-.31,1.39,1.39,0,0,1,.53-.1h27.51a1.39,1.39,0,0,1,.53.1,1.44,1.44,0,0,1,.46.31,1.37,1.37,0,0,1,.3.45,1.44,1.44,0,0,1,.1.54,1.4,1.4,0,0,1-1.39,1.39Z" transform="translate(0)"/><path class="cls-3" d="M115.73,97.46H88.22a1.47,1.47,0,0,1-1-.41,1.37,1.37,0,0,1-.3-.45,1.39,1.39,0,0,1-.1-.53,1.37,1.37,0,0,1,.41-1,1.39,1.39,0,0,1,1-.41h27.51a1.39,1.39,0,0,1,1,.41,1.39,1.39,0,0,1,0,2A1.39,1.39,0,0,1,115.73,97.46Z" transform="translate(0)"/><path class="cls-3" d="M115.73,103H88.22a1.39,1.39,0,0,1-1-2.37,1.39,1.39,0,0,1,1-.41h27.51a1.39,1.39,0,0,1,1,2.37A1.34,1.34,0,0,1,115.73,103Z" transform="translate(0)"/><path class="cls-4" d="M107.39,81.6H96.58l-2.86-2.85V72.66l2.86-2.85h10.81l2.86,2.85v6.09Z" transform="translate(0)"/><path class="cls-5" d="M127.38,117.61H76.59v50.71h50.79Z" transform="translate(0)"/><path class="cls-3" d="M115.73,147.45H88.22a1.39,1.39,0,0,1-1-.41,1.34,1.34,0,0,1-.41-1,1.38,1.38,0,0,1,1.39-1.39h27.51a1.38,1.38,0,0,1,1,.4,1.43,1.43,0,0,1,.41,1,1.4,1.4,0,0,1-1.39,1.39Z" transform="translate(0)"/><path class="cls-3" d="M115.73,153H88.22a1.39,1.39,0,0,1-1-.41,1.39,1.39,0,0,1,0-2,1.39,1.39,0,0,1,1-.41h27.51a1.39,1.39,0,0,1,1,.41,1.39,1.39,0,0,1,0,2A1.39,1.39,0,0,1,115.73,153Z" transform="translate(0)"/><path class="cls-3" d="M115.73,158.6H88.22a1.4,1.4,0,0,1-1.29-1.92,1.42,1.42,0,0,1,1.29-.87h27.51a1.39,1.39,0,0,1,1.39,1.4,1.43,1.43,0,0,1-.41,1A1.38,1.38,0,0,1,115.73,158.6Z" transform="translate(0)"/><path class="cls-4" d="M107.39,137.16H96.58l-2.86-2.85v-6.08l2.86-2.85h10.81l2.86,2.85v6.08Z" transform="translate(0)"/></g><g class="cls-6"><path class="cls-3" d="M180.06,7.82a4.3,4.3,0,0,0-4.31,4.3V19.6h8.63V12.12a4.23,4.23,0,0,0-.33-1.65,4.29,4.29,0,0,0-4-2.65Zm0,6.29a1.38,1.38,0,0,1-.76-.23,1.49,1.49,0,0,1-.5-.61,1.42,1.42,0,0,1-.07-.79,1.3,1.3,0,0,1,.37-.69,1.36,1.36,0,0,1,.7-.37,1.33,1.33,0,0,1,.79.08,1.36,1.36,0,0,1,.61.5,1.3,1.3,0,0,1,.22.76,1.34,1.34,0,0,1-.1.52,1.28,1.28,0,0,1-.3.43,1.23,1.23,0,0,1-.44.3A1.5,1.5,0,0,1,180.06,14.11Z" transform="translate(0)"/><path class="cls-3" d="M357.4,7.82a4.32,4.32,0,0,0-4.32,4.3V19.6h8.63V12.12a4.35,4.35,0,0,0-1.26-3,4.39,4.39,0,0,0-1.4-.93A4.48,4.48,0,0,0,357.4,7.82Zm0,6.29a1.36,1.36,0,0,1-.76-.23,1.41,1.41,0,0,1-.5-.61,1.43,1.43,0,0,1-.08-.79,1.39,1.39,0,0,1,.38-.69,1.33,1.33,0,0,1,.7-.37,1.36,1.36,0,0,1,1.39.58,1.38,1.38,0,0,1,.23.76,1.35,1.35,0,0,1-.11.52,1.42,1.42,0,0,1-.29.43,1.43,1.43,0,0,1-.44.3A1.55,1.55,0,0,1,357.4,14.11Z" transform="translate(0)"/><path class="cls-4" d="M381.81,16.73H155.66V146H381.81Z" transform="translate(0)"/><path class="cls-7" d="M375.58,22.94H161.89V139.82H375.58Z" transform="translate(0)"/><path class="cls-8" d="M386,141.65H151.47v9.82H386Z" transform="translate(0)"/><path class="cls-9" d="M244.46,88.24a12.81,12.81,0,0,1-3.76-.55,7.83,7.83,0,0,1-2.86-1.47l1.08-2.42a8.84,8.84,0,0,0,2.52,1.34,9.43,9.43,0,0,0,3,.51,5.16,5.16,0,0,0,2.79-.6,1.82,1.82,0,0,0,.93-1.59,1.46,1.46,0,0,0-.52-1.17,3.51,3.51,0,0,0-1.3-.75q-.8-.26-2.16-.6a24.2,24.2,0,0,1-3.12-.91,5.28,5.28,0,0,1-2-1.41A3.94,3.94,0,0,1,238.2,76a4.51,4.51,0,0,1,.74-2.52,5.27,5.27,0,0,1,2.28-1.83A9.35,9.35,0,0,1,245,71a12.31,12.31,0,0,1,3,.38,8.5,8.5,0,0,1,2.57,1.11l-1,2.42a9.72,9.72,0,0,0-2.31-1,8.37,8.37,0,0,0-2.33-.34,4.9,4.9,0,0,0-2.76.63,1.91,1.91,0,0,0-.88,1.65,1.51,1.51,0,0,0,.5,1.18,4,4,0,0,0,1.32.72q.8.26,2.16.6a21.63,21.63,0,0,1,3.07.91,5,5,0,0,1,2,1.42,3.71,3.71,0,0,1,.87,2.59,4.38,4.38,0,0,1-.77,2.52,5.13,5.13,0,0,1-2.28,1.8A9.32,9.32,0,0,1,244.46,88.24Zm14.83-5.74-2.23,2.12V88h-3V70.19h3V80.94l6.22-5.76h3.6l-5.35,5.38L267.38,88h-3.65Zm9.91-7.32h3V88h-3Zm1.51-2.11a2,2,0,0,1-1.36-.5,1.73,1.73,0,0,1-.56-1.3,1.65,1.65,0,0,1,.56-1.27,1.89,1.89,0,0,1,1.36-.53,1.94,1.94,0,0,1,1.37.51,1.53,1.53,0,0,1,.55,1.22,1.8,1.8,0,0,1-.55,1.34A1.82,1.82,0,0,1,270.71,73.07Zm5.43-2.88h3V88h-3Zm6.94,0h3V88h-3Zm10.9,18a11.51,11.51,0,0,1-3.05-.41,7.68,7.68,0,0,1-2.38-1l1.15-2.28a7.9,7.9,0,0,0,2.07.93,8.75,8.75,0,0,0,2.4.34c1.79,0,2.69-.47,2.69-1.42a1,1,0,0,0-.7-.93,11.21,11.21,0,0,0-2.18-.51,18,18,0,0,1-2.6-.55,4.21,4.21,0,0,1-1.73-1.08,3.12,3.12,0,0,1-.72-2.18,3.4,3.4,0,0,1,1.52-2.91,7,7,0,0,1,4.13-1.1,11.31,11.31,0,0,1,2.63.31,7.27,7.27,0,0,1,2.17.79l-1.16,2.28a7.08,7.08,0,0,0-3.67-1,4,4,0,0,0-2,.41,1.17,1.17,0,0,0-.68,1,1.07,1.07,0,0,0,.72,1,13.59,13.59,0,0,0,2.28.55,16.91,16.91,0,0,1,2.52.55,3.8,3.8,0,0,1,1.68,1.06,2.9,2.9,0,0,1,.72,2.11,3.34,3.34,0,0,1-1.56,2.88A7.33,7.33,0,0,1,294,88.17Z" transform="translate(0)"/><g class="cls-10"><path class="cls-11" d="M169.16,100.65h-1.74a3.07,3.07,0,0,0-2,.8,3,3,0,0,0-1,1.91L163,120.23a2.4,2.4,0,0,0,.1,1,2.44,2.44,0,0,0,.51.9,2.37,2.37,0,0,0,.85.59,2.23,2.23,0,0,0,1,.19h1.73Z" transform="translate(0)"/><path class="cls-12" d="M169.16,100.65h-1.74a3.07,3.07,0,0,0-2,.8,3,3,0,0,0-1,1.91L163,120.23a2.4,2.4,0,0,0,.1,1,2.44,2.44,0,0,0,.51.9,2.37,2.37,0,0,0,.85.59,2.23,2.23,0,0,0,1,.19h1.73Z" transform="translate(0)"/><path class="cls-11" d="M194.89,122.94H166.63a2.37,2.37,0,0,1-1-.18,2.53,2.53,0,0,1-.85-.6,2.36,2.36,0,0,1-.61-1.92l1.5-16.88a3,3,0,0,1,1-1.92,3.08,3.08,0,0,1,2-.79h28.26a2.53,2.53,0,0,1,1,.19,2.4,2.4,0,0,1,.84.6,2.35,2.35,0,0,1,.52.89,2.39,2.39,0,0,1,.1,1l-1.51,16.87a3,3,0,0,1-3,2.71Z" transform="translate(0)"/><path class="cls-13" d="M194.89,122.94H166.63a2.37,2.37,0,0,1-1-.18,2.53,2.53,0,0,1-.85-.6,2.36,2.36,0,0,1-.61-1.92l1.5-16.88a3,3,0,0,1,1-1.92,3.08,3.08,0,0,1,2-.79h28.26a2.53,2.53,0,0,1,1,.19,2.4,2.4,0,0,1,.84.6,2.35,2.35,0,0,1,.52.89,2.39,2.39,0,0,1,.1,1l-1.51,16.87a3,3,0,0,1-3,2.71Z" transform="translate(0)"/><path class="cls-14" d="M182.25,110.17a1.52,1.52,0,0,1,.06-.42,2.14,2.14,0,0,0-2.54,1.23,2.16,2.16,0,0,0-.12,1.23,2.12,2.12,0,0,0,.59,1.1,2,2,0,0,0,1.09.58,2.13,2.13,0,0,0,2.2-.91,2.16,2.16,0,0,0,.36-1.18,1.64,1.64,0,0,1-1.64-1.63Z" transform="translate(0)"/><path class="cls-15" d="M180.46,131h2.18l-.87-9.81a1.06,1.06,0,0,0-1.07-1,1.13,1.13,0,0,0-.45.09,1.07,1.07,0,0,0-.37.27,1,1,0,0,0-.22.39,1,1,0,0,0,0,.45Z" transform="translate(0)"/><path class="cls-12" d="M180.46,131h2.18l-.87-9.81a1.06,1.06,0,0,0-1.07-1,1.13,1.13,0,0,0-.45.09,1.07,1.07,0,0,0-.37.27,1,1,0,0,0-.22.39,1,1,0,0,0,0,.45Z" transform="translate(0)"/><path class="cls-11" d="M187.32,133.88a5.71,5.71,0,0,0-11.41,0Z" transform="translate(0)"/><path class="cls-16" d="M187.32,133.88a5.71,5.71,0,0,0-11.41,0Z" transform="translate(0)"/><path class="cls-11" d="M173.92,133.88h-9a1.07,1.07,0,0,1-.76-.31,1.1,1.1,0,0,1-.31-.76,1.07,1.07,0,0,1,.31-.76,1.12,1.12,0,0,1,.77-.32h9a1.09,1.09,0,0,1,.76.32,1.07,1.07,0,0,1,.31.76,1,1,0,0,1-.08.41,1,1,0,0,1-.23.35,1.18,1.18,0,0,1-.35.23A1.15,1.15,0,0,1,173.92,133.88Z" transform="translate(0)"/><path class="cls-12" d="M173.92,133.88h-9a1.07,1.07,0,0,1-.76-.31,1.1,1.1,0,0,1-.31-.76,1.07,1.07,0,0,1,.31-.76,1.12,1.12,0,0,1,.77-.32h9a1.09,1.09,0,0,1,.76.32,1.07,1.07,0,0,1,.31.76,1,1,0,0,1-.08.41,1,1,0,0,1-.23.35,1.18,1.18,0,0,1-.35.23A1.15,1.15,0,0,1,173.92,133.88Z" transform="translate(0)"/><path class="cls-11" d="M165.47,133.88h-9a1.08,1.08,0,0,1-.76-.31,1.1,1.1,0,0,1-.31-.76h0a1.07,1.07,0,0,1,.31-.76,1.09,1.09,0,0,1,.76-.32h9a1.11,1.11,0,0,1,.76.32,1.07,1.07,0,0,1,.31.76,1.06,1.06,0,0,1-1.07,1.07Z" transform="translate(0)"/><path class="cls-16" d="M165.47,133.88h-9a1.08,1.08,0,0,1-.76-.31,1.1,1.1,0,0,1-.31-.76h0a1.07,1.07,0,0,1,.31-.76,1.09,1.09,0,0,1,.76-.32h9a1.11,1.11,0,0,1,.76.32,1.07,1.07,0,0,1,.31.76,1.06,1.06,0,0,1-1.07,1.07Z" transform="translate(0)"/></g></g><g class="cls-17"><path class="cls-15" d="M258.55,190.56a.89.89,0,0,0,.39-.09.86.86,0,0,0,.33-.23.92.92,0,0,0,.21-.34,1.12,1.12,0,0,0,.07-.4l-2.71-53.22H254l3.55,53.34a1,1,0,0,0,.32.68A1,1,0,0,0,258.55,190.56Z" transform="translate(0)"/><path class="cls-16" d="M258.55,190.56a.89.89,0,0,0,.39-.09.86.86,0,0,0,.33-.23.92.92,0,0,0,.21-.34,1.12,1.12,0,0,0,.07-.4l-2.71-53.22H254l3.55,53.34a1,1,0,0,0,.32.68A1,1,0,0,0,258.55,190.56Z" transform="translate(0)"/><path class="cls-13" d="M256.84,136.28H254l.23,3.54H257Z" transform="translate(0)"/><path class="cls-15" d="M218.65,190.56a1.24,1.24,0,0,1-.39-.09,1.08,1.08,0,0,1-.32-.24.9.9,0,0,1-.2-.34.86.86,0,0,1-.06-.39l2.68-53.22h2.85l-3.57,53.34a1,1,0,0,1-.32.67A1,1,0,0,1,218.65,190.56Z" transform="translate(0)"/><path class="cls-16" d="M218.65,190.56a1.24,1.24,0,0,1-.39-.09,1.08,1.08,0,0,1-.32-.24.9.9,0,0,1-.2-.34.86.86,0,0,1-.06-.39l2.68-53.22h2.85l-3.57,53.34a1,1,0,0,1-.32.67A1,1,0,0,1,218.65,190.56Z" transform="translate(0)"/><path class="cls-13" d="M220.17,139.82H223l.24-3.54h-2.85Z" transform="translate(0)"/><path class="cls-15" d="M155.1,190.56a1,1,0,0,0,.7-.32,1.13,1.13,0,0,0,.21-.35,1.27,1.27,0,0,0,.06-.39l-2.67-53.22h-2.85l3.57,53.34a1,1,0,0,0,1,.94Z" transform="translate(0)"/><path class="cls-16" d="M155.1,190.56a1,1,0,0,0,.7-.32,1.13,1.13,0,0,0,.21-.35,1.27,1.27,0,0,0,.06-.39l-2.67-53.22h-2.85l3.57,53.34a1,1,0,0,0,1,.94Z" transform="translate(0)"/><path class="cls-13" d="M153.4,136.28h-2.85l.23,3.54h2.8Z" transform="translate(0)"/><path class="cls-15" d="M115.2,190.56a1.24,1.24,0,0,1-.38-.09,1.09,1.09,0,0,1-.32-.23.84.84,0,0,1-.21-.35.86.86,0,0,1-.06-.39l2.68-53.22h2.86l-3.57,53.34a1,1,0,0,1-.32.67A1,1,0,0,1,115.2,190.56Z" transform="translate(0)"/><path class="cls-16" d="M115.2,190.56a1.24,1.24,0,0,1-.38-.09,1.09,1.09,0,0,1-.32-.23.84.84,0,0,1-.21-.35.86.86,0,0,1-.06-.39l2.68-53.22h2.86l-3.57,53.34a1,1,0,0,1-.32.67A1,1,0,0,1,115.2,190.56Z" transform="translate(0)"/><path class="cls-13" d="M116.73,139.82h2.8l.24-3.54h-2.86Z" transform="translate(0)"/><path class="cls-15" d="M259.14,134.59h-145v1.69h145Z" transform="translate(0)"/><path class="cls-12" d="M259.14,134.59h-145v1.69h145Z" transform="translate(0)"/><path class="cls-13" d="M259.14,134.59H217.6v1.69h41.54Z" transform="translate(0)"/><path class="cls-18" d="M262.87,132.9H110.43v1.69H262.87Z" transform="translate(0)"/><path class="cls-19" d="M262.87,134.59V132.9h-49v1.69Z" transform="translate(0)"/></g><g class="cls-20"><path class="cls-15" d="M98.86,190.44l12.21-5.23,12.38,5.23a.65.65,0,0,0,.31,0,.69.69,0,0,0,.29-.13.79.79,0,0,0,.2-.27.85.85,0,0,0,.08-.35.92.92,0,0,0-.1-.41A.75.75,0,0,0,124,189l-12.88-6.93L98.34,189a.69.69,0,0,0-.28.28.79.79,0,0,0-.1.4.86.86,0,0,0,.07.36.76.76,0,0,0,.22.28.64.64,0,0,0,.29.13A.59.59,0,0,0,98.86,190.44Z" transform="translate(0)"/><path class="cls-12" d="M98.86,190.44l12.21-5.23,12.38,5.23a.65.65,0,0,0,.31,0,.69.69,0,0,0,.29-.13.79.79,0,0,0,.2-.27.85.85,0,0,0,.08-.35.92.92,0,0,0-.1-.41A.75.75,0,0,0,124,189l-12.88-6.93L98.34,189a.69.69,0,0,0-.28.28.79.79,0,0,0-.1.4.86.86,0,0,0,.07.36.76.76,0,0,0,.22.28.64.64,0,0,0,.29.13A.59.59,0,0,0,98.86,190.44Z" transform="translate(0)"/><path class="cls-13" d="M114,186.43l-2.88-1.22-2.75,1.18v-2.78l2.75-1.5,2.88,1.56Z" transform="translate(0)"/><path class="cls-15" d="M111.15,190.56a1,1,0,0,0,.73-.32,1.37,1.37,0,0,0,.36-.81l.34-4.21v-34.9h-2.85v34.9l.34,4.21a1.37,1.37,0,0,0,.36.81A1,1,0,0,0,111.15,190.56Z" transform="translate(0)"/><path class="cls-12" d="M111.15,190.56a1,1,0,0,0,.73-.32,1.37,1.37,0,0,0,.36-.81l.34-4.21v-34.9h-2.85v34.9l.34,4.21a1.37,1.37,0,0,0,.36.81A1,1,0,0,0,111.15,190.56Z" transform="translate(0)"/><path class="cls-13" d="M109.73,150.3h2.85v4.07h-2.85Z" transform="translate(0)"/><path class="cls-11" d="M91.32,147.12a38.51,38.51,0,0,1,9.86-1.57c3.43-.1,16.26,0,19.31,0a38.58,38.58,0,0,1,11,1.59c2.26.67,1.56,4.46-.49,4.5H91.91C89.78,151.73,89,147.81,91.32,147.12Z" transform="translate(0)"/><path class="cls-21" d="M91.32,147.12a38.51,38.51,0,0,1,9.86-1.57c3.43-.1,16.26,0,19.31,0a38.58,38.58,0,0,1,11,1.59c2.26.67,1.56,4.46-.49,4.5H91.91C89.78,151.73,89,147.81,91.32,147.12Z" transform="translate(0)"/><path class="cls-11" d="M130.45,151.54a35.2,35.2,0,0,0-19.93,0c-2.46.73-3.51-3.69-1-4.42a39,39,0,0,1,22,0C134,147.85,132.9,152.27,130.45,151.54Z" transform="translate(0)"/><g class="cls-22"><path class="cls-12" d="M130.45,151.54a35.2,35.2,0,0,0-19.93,0c-2.46.73-3.51-3.69-1-4.42a39,39,0,0,1,22,0C134,147.85,132.9,152.27,130.45,151.54Z" transform="translate(0)"/></g><path class="cls-11" d="M101.68,114.33a1.12,1.12,0,0,1,.64.19,1.39,1.39,0,0,1,.46.55,55.61,55.61,0,0,1,5.28,33.77,1.36,1.36,0,0,1-.34.76,1,1,0,0,1-.68.34c-.79.06-14.87,0-15.38,0a1.19,1.19,0,0,1-.61-.14,1.37,1.37,0,0,1-.51-.42,1.72,1.72,0,0,1-.3-.64,1.93,1.93,0,0,1,0-.72,51.86,51.86,0,0,0-5-31.43,1.69,1.69,0,0,1-.16-.77,1.65,1.65,0,0,1,.19-.76,1.42,1.42,0,0,1,.49-.54,1.21,1.21,0,0,1,.66-.19Z" transform="translate(0)"/><path class="cls-23" d="M101.68,114.33a1.12,1.12,0,0,1,.64.19,1.39,1.39,0,0,1,.46.55,55.61,55.61,0,0,1,5.28,33.77,1.36,1.36,0,0,1-.34.76,1,1,0,0,1-.68.34c-.79.06-14.87,0-15.38,0a1.19,1.19,0,0,1-.61-.14,1.37,1.37,0,0,1-.51-.42,1.72,1.72,0,0,1-.3-.64,1.93,1.93,0,0,1,0-.72,51.86,51.86,0,0,0-5-31.43,1.69,1.69,0,0,1-.16-.77,1.65,1.65,0,0,1,.19-.76,1.42,1.42,0,0,1,.49-.54,1.21,1.21,0,0,1,.66-.19Z" transform="translate(0)"/><path class="cls-11" d="M105.51,148a51.85,51.85,0,0,0-5-31.42c-.87-1.69,1.4-3.23,2.28-1.55a55.65,55.65,0,0,1,5.28,33.78c-.31,1.93-2.84,1.12-2.55-.82Z" transform="translate(0)"/><g class="cls-24"><path class="cls-25" d="M105.51,148a51.85,51.85,0,0,0-5-31.42c-.87-1.69,1.4-3.23,2.28-1.55a55.65,55.65,0,0,1,5.28,33.78c-.31,1.93-2.84,1.12-2.55-.82Z" transform="translate(0)"/></g></g><g class="cls-26"><path class="cls-27" d="M58.76,240.74l-6,.06s-2.6,4.67-3.88,7.16c-.08.16-.32.56-.48.85a6.66,6.66,0,0,0-.45,1.37c-.47,2.44-.17,4.67,1.46,6.23,1.79,1.7,3.13,3.2,5.93,1.44s3.52-3.11,3.57-7.32-.14-9.8-.14-9.8" transform="translate(0)"/><path class="cls-27" d="M28.29,241.05l-5.47,2.43s-.5,5.31-.68,8.11c0,.19-.06.64-.09,1a6.24,6.24,0,0,0,.13,1.43c.55,2.43,1.72,4.36,3.84,5.13,2.32.85,4.16,1.68,6-1s2-4.27.32-8.13-4.06-8.9-4.06-8.9" transform="translate(0)"/><path class="cls-28" d="M29.61,109.8l17.14-3.27s1.43-7.12,1-8.39-.83-4-3.26-4.9S38.79,85.59,30.65,91s-3.75,11.84-3.75,11.84Z" transform="translate(0)"/><path class="cls-29" d="M41.71,95.53s-8.54,3.28-10.48,4.09a6.78,6.78,0,0,0-3,3.14s-1-.57-1,1A18.91,18.91,0,0,0,28.65,110a48.06,48.06,0,0,1,2.72,4.85,9.55,9.55,0,0,1,.43,5.09c-.36,1.73-8.36,13.89-8.36,13.89l3,3.44,3.32,2.92,23.34-1.78s-8.13-15.83-9.4-18.5c-.57-1.2,0-4.11.37-5.59s1-3.07,1.62-3.56A7.31,7.31,0,0,0,47.44,107c0-1,.19-4-.65-3.23-.22.22-1.34-1.51-1.66-3A10.05,10.05,0,0,0,41.71,95.53Z" transform="translate(0)"/><path class="cls-30" d="M7.71,182.71s-7.07,6.31-7.07,9,1.22,9.71,3.53,13.83S20.73,241,22.44,243.44c.29.41,6.38-1.27,6.38-1.27S26,229.3,25.51,226.39,18,206.25,18,204.55s1.22-4.13,5.13-4.85S35.29,198,38.21,199s15.55.84,17.79,3.64c1.42,1.8,0,3.85-1.46,10.68s-.49,16.28-1.71,19.19-1.13,9.19-.53,9.23c1.63.11,6.05.48,6.51.16.81-.58,5.49-11,6.29-12.75,1.27-2.77,5.29-18,5.77-21.88s2.93-10.92,2.44-12.86S62.1,180.55,54.05,178.85s-32.92-3.64-35.85-1.7S7.71,182.71,7.71,182.71Z" transform="translate(0)"/><path class="cls-31" d="M28.09,238.83s-2.21-10.89-2.84-13.48c-.72-3-6.45-16.32-7.3-20.8-.82-4.31-3.29,1.57-2.55,5.7s4.87,11.65,5.12,15.29S28.09,238.83,28.09,238.83Z" transform="translate(0)"/><path class="cls-32" d="M77.2,119.79H0v57.39H77.2Z" transform="translate(0)"/><path class="cls-33" d="M31.7,122.68c-.42-.54-1.61.28-.53-1.34,1.79-2.71.2-6.86.2-6.86s.89,1.89,4,1.64,3.67-1.17.22,2.45-4.45,3.52-3.92,4.13" transform="translate(0)"/><g class="cls-34"><path class="cls-35" d="M11,185.18l49-.76s-10.29,5.3-8.78,8.12c2,3.71-2,7.87-7.63,7.18-4.76-.58-5.74-1.55-8.69-1.3-7.66.65-12.92.2-13.68-1C14.94,187.82,11,185.18,11,185.18" transform="translate(0)"/></g><g class="cls-34"><path class="cls-35" d="M22.54,139.86c.84,1.51,1.65,2.35,1.15,3.64-1,2.57-1.21,5.6,1.84,8,2,1.64,1.68,4.25,3.24,4.27,1.21.71-2.33.5-2.33.5H22.9l-2.24-.12c0-.5-.68-7-.64-7.94a32.85,32.85,0,0,0-.09-6.37c-.44-2.34-.31-1.46.7-3.09.37-.6,1.49.53,1.92,1.08" transform="translate(0)"/></g><path class="cls-36" d="M9.44,158.62a2.15,2.15,0,0,1,2.06-2.23c2.1-.1,46.79,0,46.79,0s2,.23,2,1.82.06,25.07.06,25.07a1.79,1.79,0,0,1-.54,1.34,1.74,1.74,0,0,1-.63.4,1.81,1.81,0,0,1-.73.12c-1.93,0-47.49.07-47.49.07a2.26,2.26,0,0,1-1.67-2.13c0-1.67.11-24.44.11-24.44" transform="translate(0)"/><path class="cls-37" d="M37,168.84H33.11v3.84H37Z" transform="translate(0)"/></g></g></g></svg>