<svg width="386" height="260" viewBox="0 0 386 260" fill="none" xmlns="http://www.w3.org/2000/svg">
<g clip-path="url(#clip0_147:77)">
<path d="M72.5652 0H49.8379V190.557H72.5652V0Z" fill="#E0E0E0"/>
<path d="M133.879 0H70.0806V190.557H133.879V0Z" fill="#EBEBEB"/>
<path d="M127.383 6.48364H76.5854V57.1933H127.383V6.48364Z" fill="#FAFAFA"/>
<path d="M115.727 36.3005H88.2216C87.8519 36.3005 87.4973 36.1539 87.2359 35.8929C86.9745 35.6319 86.8276 35.278 86.8276 34.9089V34.9089C86.8329 34.5434 86.9821 34.1946 87.243 33.938C87.5038 33.6814 87.8554 33.5376 88.2216 33.5376H115.727C115.91 33.5376 116.091 33.5736 116.26 33.6435C116.429 33.7135 116.583 33.8159 116.712 33.9452C116.842 34.0744 116.944 34.2278 117.014 34.3966C117.085 34.5654 117.121 34.7464 117.121 34.9291V34.9291C117.115 35.2947 116.966 35.6434 116.705 35.9001C116.444 36.1567 116.093 36.3005 115.727 36.3005V36.3005Z" fill="#E0E0E0"/>
<path d="M115.727 41.8968H88.2216C87.8519 41.8968 87.4974 41.7502 87.236 41.4893C86.9745 41.2283 86.8277 40.8744 86.8277 40.5053V40.5053C86.8263 40.3222 86.8615 40.1407 86.931 39.9712C87.0006 39.8018 87.1032 39.6479 87.233 39.5184C87.3627 39.3889 87.5169 39.2865 87.6866 39.217C87.8563 39.1475 88.0382 39.1125 88.2216 39.1138H115.727C116.096 39.1138 116.451 39.2604 116.712 39.5214C116.974 39.7823 117.121 40.1363 117.121 40.5053V40.5053C117.121 40.8744 116.974 41.2283 116.712 41.4893C116.451 41.7502 116.096 41.8968 115.727 41.8968V41.8968Z" fill="#E0E0E0"/>
<path d="M115.727 47.4728H88.2216C87.8519 47.4728 87.4974 47.3262 87.236 47.0652C86.9745 46.8043 86.8277 46.4503 86.8277 46.0813V46.0813C86.8263 45.8977 86.8614 45.7157 86.9309 45.5457C87.0003 45.3757 87.1028 45.2211 87.2324 45.0908C87.3619 44.9605 87.5161 44.8571 87.6858 44.7866C87.8556 44.716 88.0377 44.6797 88.2216 44.6797H115.727C115.911 44.6797 116.093 44.716 116.262 44.7866C116.432 44.8571 116.586 44.9605 116.716 45.0908C116.846 45.2211 116.948 45.3757 117.017 45.5457C117.087 45.7157 117.122 45.8977 117.121 46.0813V46.0813C117.121 46.4503 116.974 46.8043 116.712 47.0652C116.451 47.3262 116.096 47.4728 115.727 47.4728V47.4728Z" fill="#E0E0E0"/>
<path d="M107.394 26.0354H96.5754L93.7168 23.1817V17.0913L96.5754 14.2478H107.394L110.252 17.0913V23.1817L107.394 26.0354Z" fill="#EBEBEB"/>
<path d="M127.383 62.0535H76.5854V112.763H127.383V62.0535Z" fill="#FAFAFA"/>
<path d="M115.727 91.8905H88.2216C87.8519 91.8905 87.4974 91.7439 87.236 91.483C86.9745 91.222 86.8277 90.8681 86.8277 90.499V90.499C86.8263 90.3154 86.8614 90.1334 86.9309 89.9634C87.0003 89.7934 87.1028 89.6388 87.2324 89.5085C87.3619 89.3783 87.5161 89.2749 87.6858 89.2043C87.8556 89.1337 88.0377 89.0974 88.2216 89.0974H115.727C115.911 89.0974 116.093 89.1337 116.262 89.2043C116.432 89.2749 116.586 89.3783 116.716 89.5085C116.846 89.6388 116.948 89.7934 117.017 89.9634C117.087 90.1334 117.122 90.3154 117.121 90.499V90.499C117.121 90.8681 116.974 91.222 116.712 91.483C116.451 91.7439 116.096 91.8905 115.727 91.8905V91.8905Z" fill="#E0E0E0"/>
<path d="M115.727 97.4566H88.2216C88.0382 97.458 87.8563 97.4229 87.6866 97.3534C87.5169 97.284 87.3627 97.1815 87.233 97.052C87.1032 96.9226 87.0006 96.7686 86.931 96.5992C86.8615 96.4298 86.8263 96.2482 86.8277 96.0651V96.0651C86.8277 95.696 86.9745 95.3421 87.236 95.0811C87.4974 94.8202 87.8519 94.6736 88.2216 94.6736H115.727C116.096 94.6736 116.451 94.8202 116.712 95.0811C116.974 95.3421 117.121 95.696 117.121 96.0651V96.0651C117.121 96.4341 116.974 96.7881 116.712 97.049C116.451 97.31 116.096 97.4566 115.727 97.4566V97.4566Z" fill="#E0E0E0"/>
<path d="M115.727 103.033H88.2216C87.8519 103.033 87.4973 102.886 87.2359 102.625C86.9745 102.364 86.8276 102.01 86.8276 101.641V101.641C86.8276 101.272 86.9745 100.918 87.2359 100.657C87.4973 100.396 87.8519 100.25 88.2216 100.25H115.727C116.096 100.25 116.451 100.396 116.712 100.657C116.974 100.918 117.121 101.272 117.121 101.641V101.641C117.121 102.01 116.974 102.364 116.712 102.625C116.451 102.886 116.096 103.033 115.727 103.033V103.033Z" fill="#E0E0E0"/>
<path d="M107.394 81.5952H96.5754L93.7168 78.7516V72.6612L96.5754 69.8076H107.394L110.252 72.6612V78.7516L107.394 81.5952Z" fill="#EBEBEB"/>
<path d="M127.383 117.613H76.5854V168.323H127.383V117.613Z" fill="#FAFAFA"/>
<path d="M115.727 147.45H88.2216C87.8519 147.45 87.4973 147.304 87.2359 147.043C86.9745 146.782 86.8276 146.428 86.8276 146.059V146.059C86.8276 145.69 86.9745 145.336 87.2359 145.075C87.4973 144.814 87.8519 144.667 88.2216 144.667H115.727C116.096 144.667 116.451 144.814 116.712 145.075C116.974 145.336 117.121 145.69 117.121 146.059V146.059C117.121 146.428 116.974 146.782 116.712 147.043C116.451 147.304 116.096 147.45 115.727 147.45V147.45Z" fill="#E0E0E0"/>
<path d="M115.727 153.026H88.2216C87.8519 153.026 87.4973 152.88 87.2359 152.619C86.9745 152.358 86.8276 152.004 86.8276 151.635V151.635C86.8276 151.266 86.9745 150.912 87.2359 150.651C87.4973 150.39 87.8519 150.243 88.2216 150.243H115.727C116.096 150.243 116.451 150.39 116.712 150.651C116.974 150.912 117.121 151.266 117.121 151.635V151.635C117.121 152.004 116.974 152.358 116.712 152.619C116.451 152.88 116.096 153.026 115.727 153.026V153.026Z" fill="#E0E0E0"/>
<path d="M115.727 158.602H88.2216C87.8519 158.602 87.4974 158.456 87.236 158.195C86.9745 157.934 86.8277 157.58 86.8277 157.211V157.211C86.8263 157.027 86.8614 156.845 86.9309 156.675C87.0003 156.505 87.1028 156.351 87.2324 156.22C87.3619 156.09 87.5161 155.987 87.6858 155.916C87.8556 155.846 88.0377 155.809 88.2216 155.809H115.727C115.911 155.809 116.093 155.846 116.262 155.916C116.432 155.987 116.586 156.09 116.716 156.22C116.846 156.351 116.948 156.505 117.017 156.675C117.087 156.845 117.122 157.027 117.121 157.211V157.211C117.121 157.58 116.974 157.934 116.712 158.195C116.451 158.456 116.096 158.602 115.727 158.602V158.602Z" fill="#E0E0E0"/>
<path d="M107.394 137.165H96.5754L93.7168 134.311V128.231L96.5754 125.377H107.394L110.252 128.231V134.311L107.394 137.165Z" fill="#EBEBEB"/>
</g>
<g clip-path="url(#clip1_147:77)">
<path d="M180.062 7.81764C178.918 7.81764 177.821 8.27068 177.012 9.0771C176.203 9.88351 175.749 10.9772 175.749 12.1177V19.5998H184.376V12.1177C184.377 11.5527 184.266 10.9929 184.05 10.4706C183.834 9.94837 183.516 9.47383 183.115 9.07429C182.714 8.67474 182.238 8.35805 181.714 8.14239C181.19 7.92674 180.629 7.81638 180.062 7.81764V7.81764ZM180.062 14.1053C179.792 14.1053 179.529 14.0254 179.305 13.8759C179.081 13.7264 178.906 13.5139 178.804 13.2654C178.701 13.0169 178.675 12.7436 178.728 12.4801C178.781 12.2166 178.912 11.9749 179.103 11.7855C179.294 11.5961 179.538 11.4677 179.802 11.4164C180.067 11.3651 180.341 11.3933 180.59 11.4975C180.838 11.6017 181.05 11.7771 181.199 12.0015C181.347 12.2259 181.425 12.4892 181.423 12.7579C181.423 12.9357 181.388 13.1117 181.319 13.2758C181.251 13.4398 181.151 13.5888 181.024 13.714C180.897 13.8393 180.747 13.9383 180.582 14.0055C180.417 14.0726 180.24 14.1065 180.062 14.1053Z" fill="#E0E0E0"/>
<path d="M357.397 7.81764C356.253 7.81764 355.155 8.27068 354.346 9.0771C353.537 9.88351 353.083 10.9772 353.083 12.1177V19.5998H361.71V12.1177C361.711 11.5527 361.601 10.9929 361.384 10.4706C361.168 9.94837 360.85 9.47383 360.449 9.07429C360.049 8.67474 359.573 8.35805 359.049 8.14239C358.525 7.92674 357.963 7.81638 357.397 7.81764V7.81764ZM357.397 14.1053C357.127 14.1053 356.863 14.0254 356.639 13.8759C356.415 13.7264 356.241 13.5139 356.138 13.2654C356.035 13.0169 356.009 12.7436 356.062 12.4801C356.116 12.2166 356.246 11.9749 356.438 11.7855C356.629 11.5961 356.872 11.4677 357.137 11.4164C357.402 11.3651 357.676 11.3933 357.924 11.4975C358.173 11.6017 358.385 11.7771 358.533 12.0015C358.681 12.2259 358.76 12.4892 358.758 12.7579C358.758 12.9357 358.722 13.1117 358.654 13.2758C358.585 13.4398 358.485 13.5888 358.358 13.714C358.232 13.8393 358.082 13.9383 357.917 14.0055C357.752 14.0726 357.575 14.1065 357.397 14.1053V14.1053Z" fill="#E0E0E0"/>
<path d="M381.811 16.7332H155.657V146.031H381.811V16.7332Z" fill="#EBEBEB"/>
<path d="M375.58 22.9443H161.888V139.82H375.58V22.9443Z" fill="#F5F5F5"/>
<path d="M386 141.645H151.468V151.468H386V141.645Z" fill="#F0F0F0"/>
<path d="M226.04 81.968L223.376 84.704V89H220.256V72.2H223.376V80.816L231.68 72.2H235.184L228.128 79.712L235.616 89H231.968L226.04 81.968ZM248.562 76.184L242.562 90.032C242.002 91.424 241.322 92.4 240.522 92.96C239.722 93.536 238.754 93.824 237.618 93.824C236.978 93.824 236.346 93.72 235.722 93.512C235.098 93.304 234.586 93.016 234.186 92.648L235.386 90.44C235.674 90.712 236.01 90.928 236.394 91.088C236.794 91.248 237.194 91.328 237.594 91.328C238.122 91.328 238.554 91.192 238.89 90.92C239.242 90.648 239.562 90.192 239.85 89.552L240.066 89.048L234.474 76.184H237.594L241.626 85.664L245.682 76.184H248.562ZM242.946 74.432C242.546 74.432 242.194 74.352 241.89 74.192C241.602 74.032 241.242 73.792 240.81 73.472C240.554 73.264 240.338 73.112 240.162 73.016C240.002 72.904 239.842 72.848 239.682 72.848C239.346 72.848 239.066 72.976 238.842 73.232C238.634 73.488 238.522 73.84 238.506 74.288H236.898C236.914 73.312 237.154 72.536 237.618 71.96C238.098 71.368 238.722 71.072 239.49 71.072C239.89 71.072 240.234 71.152 240.522 71.312C240.826 71.472 241.194 71.712 241.626 72.032C241.882 72.24 242.09 72.4 242.25 72.512C242.426 72.608 242.594 72.656 242.754 72.656C243.09 72.656 243.362 72.536 243.57 72.296C243.794 72.056 243.914 71.72 243.93 71.288H245.538C245.506 72.232 245.258 72.992 244.794 73.568C244.33 74.144 243.714 74.432 242.946 74.432ZM264.342 76.04C265.958 76.04 267.254 76.512 268.23 77.456C269.206 78.4 269.694 79.8 269.694 81.656V89H266.694V82.04C266.694 80.92 266.43 80.08 265.902 79.52C265.374 78.944 264.622 78.656 263.646 78.656C262.542 78.656 261.67 78.992 261.03 79.664C260.39 80.32 260.07 81.272 260.07 82.52V89H257.07V76.184H259.926V77.84C260.422 77.248 261.046 76.8 261.798 76.496C262.55 76.192 263.398 76.04 264.342 76.04ZM278.395 76.04C280.283 76.04 281.723 76.496 282.715 77.408C283.723 78.304 284.227 79.664 284.227 81.488V89H281.395V87.44C281.027 88 280.499 88.432 279.811 88.736C279.139 89.024 278.323 89.168 277.363 89.168C276.403 89.168 275.563 89.008 274.843 88.688C274.123 88.352 273.563 87.896 273.163 87.32C272.779 86.728 272.587 86.064 272.587 85.328C272.587 84.176 273.011 83.256 273.859 82.568C274.723 81.864 276.075 81.512 277.915 81.512H281.227V81.32C281.227 80.424 280.955 79.736 280.411 79.256C279.883 78.776 279.091 78.536 278.035 78.536C277.315 78.536 276.603 78.648 275.899 78.872C275.211 79.096 274.627 79.408 274.147 79.808L272.971 77.624C273.643 77.112 274.451 76.72 275.395 76.448C276.339 76.176 277.339 76.04 278.395 76.04ZM277.987 86.984C278.739 86.984 279.403 86.816 279.979 86.48C280.571 86.128 280.987 85.632 281.227 84.992V83.504H278.131C276.403 83.504 275.539 84.072 275.539 85.208C275.539 85.752 275.755 86.184 276.187 86.504C276.619 86.824 277.219 86.984 277.987 86.984ZM278.659 74.6C277.491 74.6 276.515 74.288 275.731 73.664C274.963 73.04 274.555 72.2 274.507 71.144H276.475C276.491 71.688 276.707 72.128 277.123 72.464C277.539 72.784 278.051 72.944 278.659 72.944C279.267 72.944 279.779 72.784 280.195 72.464C280.611 72.128 280.827 71.688 280.843 71.144H282.811C282.763 72.2 282.347 73.04 281.563 73.664C280.795 74.288 279.827 74.6 278.659 74.6ZM295.349 76.04C296.965 76.04 298.261 76.512 299.237 77.456C300.213 78.4 300.701 79.8 300.701 81.656V89H297.701V82.04C297.701 80.92 297.437 80.08 296.909 79.52C296.381 78.944 295.629 78.656 294.653 78.656C293.549 78.656 292.677 78.992 292.037 79.664C291.397 80.32 291.077 81.272 291.077 82.52V89H288.077V76.184H290.933V77.84C291.429 77.248 292.053 76.8 292.805 76.496C293.557 76.192 294.405 76.04 295.349 76.04ZM317.344 76.184V87.056C317.344 91.568 315.04 93.824 310.432 93.824C309.2 93.824 308.032 93.664 306.928 93.344C305.824 93.04 304.912 92.592 304.192 92L305.536 89.744C306.096 90.208 306.8 90.576 307.648 90.848C308.512 91.136 309.384 91.28 310.264 91.28C311.672 91.28 312.704 90.96 313.36 90.32C314.016 89.68 314.344 88.704 314.344 87.392V86.72C313.832 87.28 313.208 87.704 312.472 87.992C311.736 88.28 310.928 88.424 310.048 88.424C308.832 88.424 307.728 88.168 306.736 87.656C305.76 87.128 304.984 86.392 304.408 85.448C303.848 84.504 303.568 83.424 303.568 82.208C303.568 80.992 303.848 79.92 304.408 78.992C304.984 78.048 305.76 77.32 306.736 76.808C307.728 76.296 308.832 76.04 310.048 76.04C310.976 76.04 311.816 76.192 312.568 76.496C313.336 76.8 313.976 77.264 314.488 77.888V76.184H317.344ZM310.504 85.88C311.64 85.88 312.568 85.544 313.288 84.872C314.024 84.184 314.392 83.296 314.392 82.208C314.392 81.136 314.024 80.264 313.288 79.592C312.568 78.92 311.64 78.584 310.504 78.584C309.352 78.584 308.408 78.92 307.672 79.592C306.952 80.264 306.592 81.136 306.592 82.208C306.592 83.296 306.952 84.184 307.672 84.872C308.408 85.544 309.352 85.88 310.504 85.88Z" fill="#949494"/>
<g clip-path="url(#clip2_147:77)">
<path d="M169.157 100.653H167.423C166.684 100.665 165.975 100.948 165.431 101.446C164.887 101.945 164.544 102.625 164.469 103.358L162.965 120.227C162.92 120.573 162.951 120.925 163.056 121.258C163.161 121.592 163.338 121.898 163.573 122.156C163.809 122.415 164.098 122.619 164.421 122.755C164.743 122.891 165.092 122.955 165.442 122.944H167.169L169.157 100.653Z" fill="#407BFF"/>
<path opacity="0.3" d="M169.157 100.653H167.423C166.684 100.665 165.975 100.948 165.431 101.446C164.887 101.945 164.544 102.625 164.469 103.358L162.965 120.227C162.92 120.573 162.951 120.925 163.056 121.258C163.161 121.592 163.338 121.898 163.573 122.156C163.809 122.415 164.098 122.619 164.421 122.755C164.743 122.891 165.092 122.955 165.442 122.944H167.169L169.157 100.653Z" fill="white"/>
<path d="M194.887 122.944H166.626C166.277 122.955 165.93 122.891 165.608 122.756C165.286 122.621 164.998 122.417 164.762 122.16C164.527 121.903 164.35 121.598 164.244 121.267C164.138 120.935 164.106 120.584 164.149 120.239L165.647 103.358C165.722 102.624 166.066 101.943 166.611 101.444C167.157 100.946 167.867 100.664 168.607 100.653H196.868C197.217 100.642 197.565 100.706 197.886 100.841C198.208 100.976 198.496 101.18 198.732 101.437C198.967 101.694 199.144 101.999 199.25 102.33C199.356 102.662 199.388 103.013 199.345 103.358L197.841 120.227C197.769 120.962 197.428 121.645 196.883 122.146C196.338 122.647 195.628 122.931 194.887 122.944Z" fill="#407BFF"/>
<path opacity="0.2" d="M194.887 122.944H166.626C166.277 122.955 165.93 122.891 165.608 122.756C165.286 122.621 164.998 122.417 164.762 122.16C164.527 121.903 164.35 121.598 164.244 121.267C164.138 120.935 164.106 120.584 164.149 120.239L165.647 103.358C165.722 102.624 166.066 101.943 166.611 101.444C167.157 100.946 167.867 100.664 168.607 100.653H196.868C197.217 100.642 197.565 100.706 197.886 100.841C198.208 100.976 198.496 101.18 198.732 101.437C198.967 101.694 199.144 101.999 199.25 102.33C199.356 102.662 199.388 103.013 199.345 103.358L197.841 120.227C197.769 120.962 197.428 121.645 196.883 122.146C196.338 122.647 195.628 122.931 194.887 122.944Z" fill="#66717B"/>
<path opacity="0.5" d="M182.249 110.166C182.25 110.025 182.271 109.885 182.309 109.75C182.127 109.698 181.938 109.669 181.748 109.666C181.325 109.666 180.911 109.791 180.559 110.025C180.208 110.26 179.934 110.593 179.772 110.982C179.61 111.372 179.567 111.801 179.65 112.215C179.732 112.628 179.936 113.008 180.235 113.306C180.534 113.605 180.915 113.808 181.33 113.89C181.745 113.972 182.175 113.93 182.566 113.769C182.957 113.607 183.291 113.334 183.526 112.983C183.761 112.633 183.886 112.22 183.886 111.798C183.452 111.798 183.035 111.626 182.728 111.32C182.421 111.014 182.249 110.599 182.249 110.166V110.166Z" fill="#5BD1EF"/>
<path d="M180.461 131.035H182.636L181.772 121.227C181.749 120.958 181.626 120.707 181.427 120.524C181.228 120.341 180.967 120.24 180.696 120.239V120.239C180.543 120.238 180.391 120.269 180.251 120.331C180.111 120.393 179.985 120.484 179.883 120.598C179.781 120.712 179.704 120.847 179.658 120.992C179.611 121.138 179.597 121.292 179.615 121.444L180.461 131.035Z" fill="#263238"/>
<path opacity="0.3" d="M180.461 131.035H182.636L181.772 121.227C181.749 120.958 181.626 120.707 181.427 120.524C181.228 120.341 180.967 120.24 180.696 120.239V120.239C180.543 120.238 180.391 120.269 180.251 120.331C180.111 120.393 179.985 120.484 179.883 120.598C179.781 120.712 179.704 120.847 179.658 120.992C179.611 121.138 179.597 121.292 179.615 121.444L180.461 131.035Z" fill="white"/>
<path d="M187.323 133.878C187.275 132.401 186.653 131.001 185.588 129.973C184.523 128.945 183.099 128.37 181.617 128.37C180.135 128.37 178.711 128.945 177.646 129.973C176.582 131.001 175.959 132.401 175.911 133.878H187.323Z" fill="#407BFF"/>
<path opacity="0.5" d="M187.323 133.878C187.275 132.401 186.653 131.001 185.588 129.973C184.523 128.945 183.099 128.37 181.617 128.37C180.135 128.37 178.711 128.945 177.646 129.973C176.582 131.001 175.959 132.401 175.911 133.878H187.323Z" fill="white"/>
<path d="M173.918 133.879H164.91C164.625 133.879 164.352 133.766 164.15 133.565C163.948 133.363 163.835 133.091 163.835 132.806V132.806C163.837 132.521 163.951 132.249 164.154 132.048C164.356 131.847 164.631 131.734 164.916 131.734H173.918C174.203 131.734 174.477 131.847 174.678 132.048C174.88 132.249 174.993 132.522 174.993 132.806V132.806C174.994 132.947 174.967 133.087 174.913 133.218C174.859 133.348 174.78 133.467 174.68 133.566C174.58 133.666 174.461 133.745 174.33 133.799C174.2 133.852 174.059 133.879 173.918 133.879V133.879Z" fill="#407BFF"/>
<path opacity="0.3" d="M173.918 133.879H164.91C164.625 133.879 164.352 133.766 164.15 133.565C163.948 133.363 163.835 133.091 163.835 132.806V132.806C163.837 132.521 163.951 132.249 164.154 132.048C164.356 131.847 164.631 131.734 164.916 131.734H173.918C174.203 131.734 174.477 131.847 174.678 132.048C174.88 132.249 174.993 132.522 174.993 132.806V132.806C174.994 132.947 174.967 133.087 174.913 133.218C174.859 133.348 174.78 133.467 174.68 133.566C174.58 133.666 174.461 133.745 174.33 133.799C174.2 133.852 174.059 133.879 173.918 133.879V133.879Z" fill="white"/>
<path d="M165.466 133.879H156.452C156.167 133.879 155.894 133.766 155.692 133.565C155.49 133.363 155.377 133.091 155.377 132.806V132.806C155.377 132.522 155.49 132.249 155.692 132.048C155.894 131.847 156.167 131.734 156.452 131.734H165.466C165.751 131.734 166.025 131.847 166.226 132.048C166.428 132.249 166.541 132.522 166.541 132.806V132.806C166.541 133.091 166.428 133.363 166.226 133.565C166.025 133.766 165.751 133.879 165.466 133.879Z" fill="#407BFF"/>
<path opacity="0.5" d="M165.466 133.879H156.452C156.167 133.879 155.894 133.766 155.692 133.565C155.49 133.363 155.377 133.091 155.377 132.806V132.806C155.377 132.522 155.49 132.249 155.692 132.048C155.894 131.847 156.167 131.734 156.452 131.734H165.466C165.751 131.734 166.025 131.847 166.226 132.048C166.428 132.249 166.541 132.522 166.541 132.806V132.806C166.541 133.091 166.428 133.363 166.226 133.565C166.025 133.766 165.751 133.879 165.466 133.879Z" fill="white"/>
</g>
</g>
<g clip-path="url(#clip3_147:77)">
<path d="M258.549 190.557C258.685 190.557 258.818 190.528 258.942 190.474C259.066 190.42 259.178 190.341 259.271 190.242C259.364 190.143 259.436 190.026 259.483 189.898C259.53 189.77 259.551 189.634 259.545 189.498L256.84 136.276H253.985L257.544 189.62C257.556 189.879 257.668 190.122 257.856 190.298C258.044 190.473 258.293 190.566 258.549 190.557Z" fill="#263238"/>
<path opacity="0.5" d="M258.549 190.557C258.685 190.557 258.818 190.528 258.942 190.474C259.066 190.42 259.178 190.341 259.271 190.242C259.364 190.143 259.436 190.026 259.483 189.898C259.53 189.77 259.551 189.634 259.545 189.498L256.84 136.276H253.985L257.544 189.62C257.556 189.879 257.668 190.122 257.856 190.298C258.044 190.473 258.293 190.566 258.549 190.557Z" fill="white"/>
<path opacity="0.2" d="M256.84 136.276H253.99L254.223 139.822H257.025L256.84 136.276Z" fill="#66717B"/>
<path d="M218.648 190.557C218.515 190.553 218.384 190.523 218.262 190.467C218.141 190.412 218.032 190.332 217.942 190.234C217.851 190.135 217.781 190.019 217.736 189.893C217.69 189.766 217.67 189.632 217.676 189.498L220.357 136.276H223.207L219.638 189.62C219.621 189.874 219.509 190.112 219.325 190.286C219.142 190.459 218.899 190.556 218.648 190.557Z" fill="#263238"/>
<path opacity="0.5" d="M218.648 190.557C218.515 190.553 218.384 190.523 218.262 190.467C218.141 190.412 218.032 190.332 217.942 190.234C217.851 190.135 217.781 190.019 217.736 189.893C217.69 189.766 217.67 189.632 217.676 189.498L220.357 136.276H223.207L219.638 189.62C219.621 189.874 219.509 190.112 219.325 190.286C219.142 190.459 218.899 190.556 218.648 190.557Z" fill="white"/>
<path opacity="0.2" d="M220.172 139.822H222.969L223.207 136.276H220.357L220.172 139.822Z" fill="#66717B"/>
<path d="M155.095 190.557C155.229 190.554 155.36 190.524 155.482 190.469C155.603 190.413 155.712 190.334 155.803 190.235C155.894 190.136 155.964 190.02 156.009 189.893C156.054 189.767 156.074 189.632 156.067 189.498L153.401 136.276H150.546L154.124 189.62C154.142 189.87 154.252 190.105 154.431 190.278C154.611 190.451 154.847 190.55 155.095 190.557Z" fill="#263238"/>
<path opacity="0.5" d="M155.095 190.557C155.229 190.554 155.36 190.524 155.482 190.469C155.603 190.413 155.712 190.334 155.803 190.235C155.894 190.136 155.964 190.02 156.009 189.893C156.054 189.767 156.074 189.632 156.067 189.498L153.401 136.276H150.546L154.124 189.62C154.142 189.87 154.252 190.105 154.431 190.278C154.611 190.451 154.847 190.55 155.095 190.557Z" fill="white"/>
<path opacity="0.2" d="M153.401 136.276H150.546L150.784 139.822H153.581L153.401 136.276Z" fill="#66717B"/>
<path d="M115.203 190.557C115.07 190.554 114.938 190.524 114.817 190.469C114.695 190.413 114.586 190.334 114.495 190.235C114.405 190.136 114.335 190.02 114.29 189.893C114.244 189.767 114.225 189.632 114.232 189.498L116.912 136.276H119.767L116.198 189.62C116.18 189.874 116.067 190.112 115.883 190.286C115.698 190.46 115.455 190.557 115.203 190.557V190.557Z" fill="#263238"/>
<path opacity="0.5" d="M115.203 190.557C115.07 190.554 114.938 190.524 114.817 190.469C114.695 190.413 114.586 190.334 114.495 190.235C114.405 190.136 114.335 190.02 114.29 189.893C114.244 189.767 114.225 189.632 114.232 189.498L116.912 136.276H119.767L116.198 189.62C116.18 189.874 116.067 190.112 115.883 190.286C115.698 190.46 115.455 190.557 115.203 190.557V190.557Z" fill="white"/>
<path opacity="0.2" d="M116.732 139.822H119.529L119.767 136.276H116.912L116.732 139.822Z" fill="#66717B"/>
<path d="M259.137 134.589H114.159V136.276H259.137V134.589Z" fill="#263238"/>
<path opacity="0.3" d="M259.137 134.589H114.159V136.276H259.137V134.589Z" fill="white"/>
<path opacity="0.2" d="M259.137 134.589H217.599V136.276H259.137V134.589Z" fill="#66717B"/>
<path d="M262.871 132.901H110.425V134.589H262.871V132.901Z" fill="#58CBEB"/>
<path opacity="0.3" d="M262.871 134.589V132.901H238.368H213.865V134.589H262.871Z" fill="#4B46BE"/>
</g>
<g clip-path="url(#clip4_147:77)">
<path d="M98.8604 190.439L111.068 185.209L123.45 190.439C123.548 190.48 123.654 190.494 123.758 190.478C123.862 190.462 123.961 190.418 124.047 190.348C124.133 190.279 124.204 190.186 124.253 190.079C124.302 189.971 124.327 189.851 124.328 189.73V189.73C124.329 189.584 124.294 189.441 124.227 189.319C124.16 189.196 124.064 189.098 123.95 189.037L111.068 182.114L98.3364 189.037C98.224 189.099 98.1288 189.196 98.0618 189.317C97.9949 189.439 97.9589 189.58 97.9579 189.724V189.724C97.9575 189.849 97.9835 189.972 98.0337 190.083C98.0839 190.194 98.1567 190.289 98.2457 190.359C98.3348 190.43 98.4373 190.474 98.5445 190.488C98.6517 190.502 98.7601 190.485 98.8604 190.439V190.439Z" fill="#263238"/>
<path opacity="0.3" d="M98.8604 190.439L111.068 185.209L123.45 190.439C123.548 190.48 123.654 190.494 123.758 190.478C123.862 190.462 123.961 190.418 124.047 190.348C124.133 190.279 124.204 190.186 124.253 190.079C124.302 189.971 124.327 189.851 124.328 189.73V189.73C124.329 189.584 124.294 189.441 124.227 189.319C124.16 189.196 124.064 189.098 123.95 189.037L111.068 182.114L98.3364 189.037C98.224 189.099 98.1288 189.196 98.0618 189.317C97.9949 189.439 97.9589 189.58 97.9579 189.724V189.724C97.9575 189.849 97.9835 189.972 98.0337 190.083C98.0839 190.194 98.1567 190.289 98.2457 190.359C98.3348 190.43 98.4373 190.474 98.5445 190.488C98.6517 190.502 98.7601 190.485 98.8604 190.439V190.439Z" fill="white"/>
<path opacity="0.2" d="M113.969 186.431L111.087 185.209L108.336 186.386V183.611L111.087 182.114L113.969 183.667V186.431Z" fill="#66717B"/>
<path d="M111.155 190.557C111.423 190.558 111.682 190.443 111.882 190.235C112.082 190.027 112.208 189.741 112.237 189.431L112.582 185.221V150.321H109.729V185.221L110.073 189.431C110.102 189.741 110.228 190.027 110.428 190.235C110.628 190.443 110.887 190.558 111.155 190.557Z" fill="#263238"/>
<path opacity="0.3" d="M111.155 190.557C111.423 190.558 111.682 190.443 111.882 190.235C112.082 190.027 112.208 189.741 112.237 189.431L112.582 185.221V150.321H109.729V185.221L110.073 189.431C110.102 189.741 110.228 190.027 110.428 190.235C110.628 190.443 110.887 190.558 111.155 190.557Z" fill="white"/>
<path opacity="0.2" d="M109.729 150.304H112.582V154.368H109.729V150.304Z" fill="#66717B"/>
<path d="M91.3157 147.123C94.5442 146.172 97.8545 145.643 101.184 145.547C104.61 145.446 117.438 145.547 120.485 145.547C124.2 145.545 127.899 146.08 131.499 147.14C133.76 147.81 133.062 151.598 131.014 151.643C130.835 151.643 92.058 151.643 91.9125 151.643C89.7825 151.734 89.0013 147.81 91.3157 147.123Z" fill="#407BFF"/>
<path opacity="0.3" d="M91.3157 147.123C94.5442 146.172 97.8545 145.643 101.184 145.547C104.61 145.446 117.438 145.547 120.485 145.547C124.2 145.545 127.899 146.08 131.499 147.14C133.76 147.81 133.062 151.598 131.014 151.643C130.835 151.643 92.058 151.643 91.9125 151.643C89.7825 151.734 89.0013 147.81 91.3157 147.123Z" fill="#66717B"/>
<path d="M130.447 151.542C123.908 149.617 117.059 149.617 110.52 151.542C108.055 152.274 107.007 147.855 109.472 147.123C116.7 144.996 124.272 144.996 131.5 147.123C133.96 147.855 132.902 152.274 130.447 151.542Z" fill="#407BFF"/>
<g opacity="0.3">
<path opacity="0.3" d="M130.447 151.542C123.908 149.617 117.059 149.617 110.52 151.542C108.055 152.274 107.007 147.855 109.472 147.123C116.7 144.996 124.272 144.996 131.5 147.123C133.96 147.855 132.902 152.274 130.447 151.542Z" fill="white"/>
</g>
<path d="M101.684 114.334C101.906 114.329 102.126 114.395 102.318 114.524C102.51 114.653 102.669 114.84 102.776 115.066C107.995 125.215 109.87 137.212 108.055 148.84C108.024 149.133 107.906 149.403 107.72 149.604C107.535 149.804 107.294 149.923 107.041 149.938C106.25 150 92.1696 149.938 91.6601 149.938C91.4493 149.947 91.2393 149.902 91.0455 149.805C90.8517 149.708 90.6788 149.563 90.5394 149.379C90.4001 149.195 90.2977 148.978 90.2398 148.743C90.1819 148.507 90.1698 148.26 90.2045 148.018C91.8604 137.186 90.0892 126.024 85.2168 116.586C85.1056 116.351 85.0498 116.087 85.055 115.819C85.0602 115.552 85.1262 115.291 85.2463 115.062C85.3665 114.834 85.5365 114.646 85.7392 114.518C85.9418 114.39 86.17 114.327 86.4006 114.334C86.8082 114.334 100.787 114.334 101.684 114.334Z" fill="#407BFF"/>
<path opacity="0.2" d="M101.684 114.334C101.906 114.329 102.126 114.395 102.318 114.524C102.51 114.653 102.669 114.84 102.776 115.066C107.995 125.215 109.87 137.212 108.055 148.84C108.024 149.133 107.906 149.403 107.72 149.604C107.535 149.804 107.294 149.923 107.041 149.938C106.25 150 92.1696 149.938 91.6601 149.938C91.4493 149.947 91.2393 149.902 91.0455 149.805C90.8517 149.708 90.6788 149.563 90.5394 149.379C90.4001 149.195 90.2977 148.978 90.2398 148.743C90.1819 148.507 90.1698 148.26 90.2045 148.018C91.8604 137.186 90.0892 126.024 85.2168 116.586C85.1056 116.351 85.0498 116.087 85.055 115.819C85.0602 115.552 85.1262 115.291 85.2463 115.062C85.3665 114.834 85.5365 114.646 85.7392 114.518C85.9419 114.39 86.17 114.327 86.4006 114.334C86.8082 114.334 100.787 114.334 101.684 114.334Z" fill="#B6C98E"/>
<path d="M105.512 148.007C107.161 137.175 105.381 126.016 100.5 116.586C99.627 114.897 101.903 113.36 102.776 115.043C107.995 125.192 109.87 137.189 108.055 148.818C107.754 150.748 105.216 149.943 105.512 148.001V148.007Z" fill="#407BFF"/>
<g opacity="0.2">
<path opacity="0.2" d="M105.512 148.007C107.161 137.175 105.381 126.016 100.5 116.586C99.627 114.897 101.903 113.36 102.776 115.043C107.995 125.192 109.87 137.189 108.055 148.818C107.754 150.748 105.216 149.943 105.512 148.001V148.007Z" fill="white"/>
</g>
</g>
<g clip-path="url(#clip5_147:77)">
<path d="M58.7641 240.743L52.7786 240.797C52.7786 240.797 50.1839 245.467 48.8956 247.964C48.8151 248.124 48.5824 248.525 48.4214 248.814C48.2213 249.25 48.0712 249.707 47.974 250.176C47.4999 252.62 47.7996 254.851 49.4324 256.409C51.2218 258.114 52.5638 259.61 55.3553 257.851C58.1468 256.093 58.8759 254.735 58.9341 250.528C58.9923 246.321 58.7865 240.734 58.7865 240.734" fill="#4B44BE"/>
<path d="M28.2861 241.051L22.8239 243.478C22.8239 243.478 22.3184 248.793 22.144 251.593C22.144 251.776 22.0813 252.234 22.05 252.563C22.039 253.043 22.0825 253.523 22.1798 253.992C22.7255 256.419 23.8976 258.346 26.018 259.121C28.3442 259.967 30.1784 260.804 32.0259 258.084C33.8735 255.364 33.9943 253.814 32.3525 249.95C30.7107 246.086 28.2861 241.047 28.2861 241.047" fill="#4B44BE"/>
<path d="M29.6061 109.801L46.7486 106.529C46.7486 106.529 48.1801 99.4058 47.7506 98.1415C47.3212 96.8772 46.9185 94.0949 44.4894 93.2446C42.0603 92.3943 38.7947 85.5921 30.6485 90.9965C22.5022 96.4009 26.8952 102.838 26.8952 102.838L29.6061 109.801Z" fill="url(#paint0_linear_147:77)"/>
<path d="M41.7112 95.5327C41.7112 95.5327 33.1713 98.8136 31.2298 99.6194C29.2883 100.425 28.2371 102.758 28.2371 102.758C28.2371 102.758 27.2797 102.192 27.2797 103.804C27.2797 105.416 28.076 109.044 28.6531 109.97C29.6502 111.535 30.5582 113.155 31.373 114.822C32.1603 116.482 31.9858 118.984 31.798 119.906C31.4401 121.642 23.437 133.8 23.437 133.8L26.4029 137.241L29.7223 140.157L53.056 138.376C53.056 138.376 44.9321 122.546 43.6617 119.875C43.0891 118.677 43.6974 115.77 44.033 114.288C44.3372 112.93 45.0037 111.225 45.6524 110.726C46.301 110.228 47.4418 107.989 47.4418 107.018C47.4418 106.048 47.6296 102.98 46.7931 103.795C46.5694 104.013 45.451 102.277 45.1334 100.826C44.5874 98.7442 43.3886 96.89 41.7112 95.5327V95.5327Z" fill="url(#paint1_linear_147:77)"/>
<path d="M7.70825 182.711C7.70825 182.711 0.640137 189.023 0.640137 191.69C0.640137 194.356 1.85692 201.395 4.17419 205.521C6.49146 209.648 20.7261 241.019 22.4395 243.437C22.7347 243.855 28.8231 242.172 28.8231 242.172C28.8231 242.172 26.0004 229.302 25.5127 226.391C25.0251 223.48 17.9749 206.251 17.9749 204.551C17.9749 202.85 19.1917 200.424 23.0971 199.699C27.0024 198.973 35.2873 197.998 38.213 198.968C41.1386 199.939 53.7628 199.814 55.9996 202.61C57.4177 204.413 55.9996 206.461 54.5367 213.294C53.0739 220.127 54.0491 229.565 52.8323 232.481C51.6156 235.397 51.6961 241.674 52.2955 241.714C53.9283 241.816 58.3482 242.19 58.8089 241.865C59.6186 241.291 64.2979 230.892 65.1031 229.124C66.3736 226.347 70.3863 211.126 70.8739 207.244C71.3615 203.362 73.7996 196.324 73.312 194.383C72.8244 192.442 62.0969 180.552 54.0491 178.851C46.0013 177.151 21.1287 175.214 18.2031 177.155C15.2774 179.096 7.70825 182.711 7.70825 182.711Z" fill="url(#paint2_linear_147:77)"/>
<path opacity="0.1" d="M28.0941 238.829C28.0941 238.829 25.8797 227.94 25.249 225.345C24.5287 222.385 18.8027 209.029 17.9527 204.551C17.1296 200.237 14.6647 206.122 15.3983 210.249C16.132 214.376 20.2744 221.895 20.516 225.536C20.7576 229.178 28.0941 238.829 28.0941 238.829Z" fill="#66717B"/>
<path d="M77.1995 119.795H0.000488281V177.177H77.1995V119.795Z" fill="url(#paint3_linear_147:77)"/>
<path opacity="0.07" d="M31.6952 122.679C31.2836 122.141 30.0936 122.964 31.1673 121.344C32.9567 118.633 31.3686 114.484 31.3686 114.484C31.3686 114.484 32.2633 116.371 35.3947 116.117C38.5262 115.864 39.0585 114.947 35.6095 118.575C32.1604 122.203 31.1628 122.092 31.6862 122.697" fill="#66717B"/>
<g opacity="0.07">
<path d="M11.001 185.181L60.0259 184.42C60.0259 184.42 49.7369 189.718 51.2534 192.536C53.2441 196.248 49.2493 200.406 43.6217 199.721C38.8619 199.142 37.8777 198.171 34.9252 198.421C27.2711 199.066 22.0102 198.621 21.2497 197.464C14.9376 187.817 11.0144 185.181 11.0144 185.181" fill="#66717B"/>
</g>
<g opacity="0.07">
<path d="M22.5382 139.863C23.3792 141.368 24.1889 142.205 23.6923 143.504C22.7126 146.069 22.4845 149.105 25.5264 151.54C27.5798 153.183 27.2129 155.791 28.7742 155.813C29.982 156.521 26.439 156.312 26.439 156.312H22.896L20.6593 156.187C20.6861 155.693 19.9838 149.149 20.0151 148.254C20.1269 145.103 20.1896 143.255 19.9346 141.875C19.4872 139.542 19.617 140.419 20.628 138.786C20.9993 138.194 22.1221 139.324 22.5516 139.867" fill="#66717B"/>
</g>
<path d="M9.43535 158.618C9.43535 158.618 9.39956 156.495 11.5021 156.392C13.6046 156.29 58.2948 156.357 58.2948 156.357C58.2948 156.357 60.2587 156.588 60.3258 158.182C60.3929 159.776 60.3929 183.254 60.3929 183.254C60.3986 183.502 60.3531 183.749 60.2591 183.979C60.1651 184.209 60.0247 184.418 59.8465 184.592C59.6683 184.766 59.4561 184.902 59.223 184.991C58.99 185.08 58.7411 185.121 58.4916 185.11C56.5591 185.146 11.0011 185.177 11.0011 185.177C11.0011 185.177 9.30114 184.732 9.33246 183.054C9.36377 181.375 9.43535 158.614 9.43535 158.614" fill="white"/>
<path d="M36.9739 168.839H33.1133V172.681H36.9739V168.839Z" fill="url(#paint4_linear_147:77)"/>
</g>
<defs>
<linearGradient id="paint0_linear_147:77" x1="-50.0591" y1="-8.35964" x2="-85.8119" y2="-8.35964" gradientUnits="userSpaceOnUse">
<stop stop-color="#4B45BD"/>
<stop offset="1" stop-color="#58CAEA"/>
</linearGradient>
<linearGradient id="paint1_linear_147:77" x1="23.437" y1="117.845" x2="53.056" y2="117.845" gradientUnits="userSpaceOnUse">
<stop stop-color="#F87B58"/>
<stop offset="0.41" stop-color="#F89453"/>
<stop offset="0.71" stop-color="#F8C548"/>
<stop offset="1" stop-color="#F89C51"/>
</linearGradient>
<linearGradient id="paint2_linear_147:77" x1="7.53378" y1="223.075" x2="64.0921" y2="223.075" gradientUnits="userSpaceOnUse">
<stop stop-color="#4B45BD"/>
<stop offset="1" stop-color="#58CAEA"/>
</linearGradient>
<linearGradient id="paint3_linear_147:77" x1="46.0039" y1="178.704" x2="110.444" y2="133.634" gradientUnits="userSpaceOnUse">
<stop stop-color="#E5A4ED"/>
<stop offset="1" stop-color="#7A5BF5"/>
</linearGradient>
<linearGradient id="paint4_linear_147:77" x1="37.6803" y1="170.7" x2="33.8524" y2="170.7" gradientUnits="userSpaceOnUse">
<stop stop-color="#59C2E9"/>
<stop offset="1" stop-color="#5BD3EF"/>
</linearGradient>
<clipPath id="clip0_147:77">
<rect width="84.0405" height="190.557" fill="white" transform="translate(49.8379)"/>
</clipPath>
<clipPath id="clip1_147:77">
<rect width="234.532" height="143.651" fill="white" transform="translate(151.468 7.81763)"/>
</clipPath>
<clipPath id="clip2_147:77">
<rect width="43.9747" height="33.2253" fill="white" transform="translate(155.377 100.653)"/>
</clipPath>
<clipPath id="clip3_147:77">
<rect width="152.446" height="57.6557" fill="white" transform="translate(110.425 132.901)"/>
</clipPath>
<clipPath id="clip4_147:77">
<rect width="47.8835" height="76.2228" fill="white" transform="matrix(-1 0 0 1 132.901 114.334)"/>
</clipPath>
<clipPath id="clip5_147:77">
<rect width="77.2" height="171.013" fill="white" transform="translate(0 88.9265)"/>
</clipPath>
</defs>
</svg>
