<?xml version="1.0" encoding="utf-8"?>
<!-- Generator: Adobe Illustrator 25.3.1, SVG Export Plug-In . SVG Version: 6.00 Build 0)  -->
<svg version="1.1" id="Layer_1" xmlns="http://www.w3.org/2000/svg" xmlns:xlink="http://www.w3.org/1999/xlink" x="0px" y="0px"
	 viewBox="0 0 175 334" style="enable-background:new 0 0 175 334;" xml:space="preserve">
<style type="text/css">
	.st0{fill:#FFFFFF;}
	.st1{clip-path:url(#SVGID_2_);}
	.st2{fill:url(#SVGID_3_);}
	.st3{clip-path:url(#SVGID_5_);}
	.st4{fill:url(#SVGID_6_);}
	.st5{clip-path:url(#SVGID_8_);}
	.st6{fill:url(#SVGID_9_);}
	.st7{clip-path:url(#SVGID_11_);}
	.st8{fill:url(#SVGID_12_);}
	.st9{fill:#4B44BE;}
	.st10{opacity:7.000000e-02;}
	.st11{clip-path:url(#SVGID_14_);}
	.st12{clip-path:url(#SVGID_16_);}
	.st13{opacity:7.000000e-02;enable-background:new    ;}
	.st14{opacity:0.1;enable-background:new    ;}
</style>
<g id="Layer_2_1_">
	<g id="man_with_documents">
		<polygon class="st0" points="33.3,124.2 41.5,174.6 72,169.6 73.8,120.3 		"/>
		<g>
			<defs>
				<path id="SVGID_1_" d="M161,133.8L148.8,167l-2.1,16.2l10.3-9c0.6-0.5,1.7-3,2.3-4.4l6.2-17.3l4.5-27.5c0,0-6.9-12.5-15-27.1
					L161,133.8z M154.9,97.8l-0.5-2.9l-1.2-0.2L154.9,97.8 M113.4,14.2c-1.9-0.2-3.9-0.2-5.8,0.1c-0.6,0.1-2.3,3.8-3.6,6.4
					c-1.6,3.4-1.9,8.8-1.9,12.2c0,4.3,4.3,9.2,9.6,12.6c2.4,1.5,0.9,9.4-0.3,10.2c-1.2,0.8-24,17.6-24,17.6l-2.3,13.3l-13.4,74
					l-4.6,5.6c-0.8,0.7-1.3,1.7-1.5,2.7c-0.3,1.7-0.4,4.4,1.4,5c3.9,1.3,10.7,2.4,11.8,1.2c8.1-8.5-0.1-2.8-1.7-4.3l3.6-9.1
					l-5.2-5.8l4.9-2.1l13.6-69.6l59.3,10.6c-10.6-19.1-22.4-40.5-23.4-42.8c-0.9-1.8-1.1-3.9-0.6-5.8c0.8-2.7,1.8-5.3,3.2-7.7
					c0.9-1.3,1.4-3.8,1.7-5.2c0.3-1.4,0.3-1-1,0.3c-0.3,0.3-1.4,0.4-1.9-1.8c-0.5-2.2-7-5.3-10.2-8c0,0-3.4-0.9-6.8-2"/>
			</defs>
			<clipPath id="SVGID_2_">
				<use xlink:href="#SVGID_1_"  style="overflow:visible;"/>
			</clipPath>
			<g class="st1">
				
					<linearGradient id="SVGID_3_" gradientUnits="userSpaceOnUse" x1="-1209.616" y1="-147.7449" x2="-1206.483" y2="-147.7449" gradientTransform="matrix(54.31 0 0 -54.31 65691.2266 -7932.3701)">
					<stop  offset="0" style="stop-color:#F87B58"/>
					<stop  offset="0.63" style="stop-color:#F89453"/>
					<stop  offset="0.81" style="stop-color:#F8C548"/>
					<stop  offset="0.94" style="stop-color:#F89952"/>
					<stop  offset="1" style="stop-color:#F89C51"/>
				</linearGradient>
				<rect class="st2" width="170.1" height="183.3"/>
			</g>
		</g>
		<g>
			<defs>
				<path id="SVGID_4_" d="M131.3,4.2c1.2,0.9,4.5,4,5.7,4.9c1.2,0.9,2.1,2.6,3.3,4.5c0.8,1.6,1.4,3.2,2,4.9c2.5,6.4,0,9.1-1.9,13.7
					c-2.7,6.2-8.7,7.2-9.2,8.1c-4.8-1.6-5.4-1-7.5-0.3c-2.7-1.8-3.9-4.2-5.3-5.5c0.9-1.3,1.3-11.9-3.7-6.7c2-2-3.3-8.5-4.4-9.2
					c-1.1-0.8-2.3-1.7-2.2-2.1c0.6-2.6-3.7-2.1,0.1-4.9c3-2.2,4.2-7.2,8.1-7.6c2.4-0.2,5.6-0.5,8-0.9c1.8-0.3,3.2,0.6,4.7,0.8
					c0.8,0.1,1.6,0.3,2.3,0.8"/>
			</defs>
			<clipPath id="SVGID_5_">
				<use xlink:href="#SVGID_4_"  style="overflow:visible;"/>
			</clipPath>
			<g class="st3">
				
					<linearGradient id="SVGID_6_" gradientUnits="userSpaceOnUse" x1="-5251.4121" y1="-1826.9852" x2="-5160.5923" y2="-1826.9852" gradientTransform="matrix(-5.526296e-02 0.4567 -0.5162 -6.247117e-02 -1121.886 2409.3369)">
					<stop  offset="0" style="stop-color:#4B45BD"/>
					<stop  offset="1" style="stop-color:#58CAEA"/>
				</linearGradient>
				<polygon class="st4" points="100.6,39.4 105.3,0.9 147.1,5.9 142.5,44.5 				"/>
			</g>
		</g>
		<g>
			<defs>
				<path id="SVGID_7_" d="M77.5,230.1c-0.5,4.6,3,28.6,3,33.2s8.6,53.5,8.6,53.5l13.6-0.6c0,0-2.7-72-2.4-75.5s15.1-45.3,15.1-45.3
					s1.1,11.1,1.1,14.6s4.1,105.4,4.1,105.4h11.8l16.8-150l-0.3-2.9l-62-8.6C86.7,153.7,78,225.5,77.5,230.1"/>
			</defs>
			<clipPath id="SVGID_8_">
				<use xlink:href="#SVGID_7_"  style="overflow:visible;"/>
			</clipPath>
			<g class="st5">
				
					<linearGradient id="SVGID_9_" gradientUnits="userSpaceOnUse" x1="654.2108" y1="1327.6924" x2="780.6407" y2="1327.6924" gradientTransform="matrix(0.52 0 0 0.52 -191.15 -455.69)">
					<stop  offset="0" style="stop-color:#4B45BD"/>
					<stop  offset="1" style="stop-color:#58CAEA"/>
				</linearGradient>
				<rect x="77" y="153.2" class="st6" width="71.8" height="162.9"/>
			</g>
		</g>
		<g>
			<defs>
				<path id="SVGID_10_" d="M93.9,59.1c-7.1,4.4-10.6,9.8-12,14.3c-3.5,11.5-1.5,9.9-5,24.4c-4.4,18.2-3.2,29.5-3.8,35.9
					c-0.6,7.4-4.7,28.1-1.7,28.6c1.6,0.2,1.3,1,8.2,0.3c1.8-0.2,5.7-15.3,5.7-15.3s-0.2,9.9,1.7,10.8c1.7,0.9,21.6,6.6,26.4,8.5
					c3.5,0.5,7,0.8,10.5,1l25-3.5c0,0-0.3-47.5,0.1-55.4c0.4-7.8-0.5-12.1,0.8-10c1.5,2.3,8.1,23.7,8.1,27.3
					c0,3.6-7.2,35.2-7.2,35.2l9.6,5.3c0,0,13-34.7,13.7-39.2c0.7-4.6,1-7-1.2-11.5s-14-46-14-46s-2.6-3.8-9.9-7.7
					c-5-1.8-15.1-7.7-22.8-5c-6,0.8-12.1,1-18.2,0.6c-3.5-0.7-7.1-0.7-10.7-0.2"/>
			</defs>
			<clipPath id="SVGID_11_">
				<use xlink:href="#SVGID_10_"  style="overflow:visible;"/>
			</clipPath>
			<g class="st7">
				
					<linearGradient id="SVGID_12_" gradientUnits="userSpaceOnUse" x1="1478.0146" y1="2004.6344" x2="1622.5247" y2="1904.0543" gradientTransform="matrix(0.52 0 0 0.52 -707.09 -923.12)">
					<stop  offset="0" style="stop-color:#E5A4ED"/>
					<stop  offset="1" style="stop-color:#7A5BF5"/>
				</linearGradient>
				<rect x="16" y="21.5" class="st8" width="159" height="148.2"/>
			</g>
		</g>
		<path class="st9" d="M84.5,323.2c5.4-1,4.7-7.3,4.7-7.3l13.3-0.5c1,3.1,1.6,6.3,1.8,9.5c0.1,3.4,1.3,8.1-2.1,8.8
			c-4,0.8-26.7-0.4-28.9-3.1c-2.8-3.5,3.9-5.8,8.9-6.8"/>
		<path class="st9" d="M114.7,322.8c5.4-1,5.8-7.6,5.8-7.6l11.8-0.2c0.6,3,1,6,1.1,9c0.1,3.4,1.4,8.1-1.5,8.7
			c-4,0.9-26.2,0.2-28.4-2.4c-2.8-3.5,3.9-5.8,8.9-6.8"/>
		<g class="st10">
			<g>
				<defs>
					<rect id="SVGID_13_" x="88.7" y="187.2" width="29.1" height="146.5"/>
				</defs>
				<clipPath id="SVGID_14_">
					<use xlink:href="#SVGID_13_"  style="overflow:visible;"/>
				</clipPath>
				<g class="st11">
					<path d="M117.4,187.8c-1.7,4.9-8.2,14.4-12.4,20c-4.2,5.6-17.3,17.7-16.5,32.4s9.8,52.3,9.8,55.7s-3.3,19.4-5.8,24.3
						s-2,10-0.8,10c1.8,0.4,3.7,0.4,5.5,0c2.2-0.6,5,1.8,6.3,1.2c0.9-0.4,1-3.2,1-3.2c0.1-1.2-0.1-2.4-0.4-3.5
						c-0.6-1.8-1.1-3.7-1.4-5.5c-0.5-13.8-1.7-45.7-1.5-47.9c0.4-4.2-2.9-25.2,0.1-35.6C104.3,225.3,117.4,187.8,117.4,187.8"/>
				</g>
			</g>
		</g>
		<g class="st10">
			<g>
				<defs>
					
						<rect id="SVGID_15_" x="99.4" y="112.8" transform="matrix(0.1103 -0.9939 0.9939 0.1103 -5.486 254.1031)" width="79.7" height="34.6"/>
				</defs>
				<clipPath id="SVGID_16_">
					<use xlink:href="#SVGID_15_"  style="overflow:visible;"/>
				</clipPath>
				<g class="st12">
					<path d="M148.8,103.3l-0.1,48.9c0,0,1.2,10.4-0.5,11.5c-1.7,1.1-8.7,2-10.8,2c-1.4,0-20.8,2.2-13.9-1.2
						c3.1-1.5,22.4-12.4,16.2-23c-6.2-10.6-3.3-24.3,1.2-33.5s7.9-15.4,7.9-15.4L148.8,103.3z"/>
				</g>
			</g>
		</g>
		<path class="st13" d="M111.1,45c1.2,0.3,2.5,0.1,3.6-0.5c0.6-0.3,2.7-1.8,3.8-2.7c2.2-1.8-2.5,4-3.4,7.3c-1,3.7-2-2.3-2.8-3.2
			C111.9,45.5,111.5,45.2,111.1,45z"/>
		<path class="st13" d="M141,183.3c0,0-4.5,18.2-8.5,23.6c-4.3,5.8,0.4,32.1-3.6,43.7c-3.8,11,1.3,34.8,0.4,42.4
			c-0.7,6.2-0.9,19.6-4.1,27.1c-1.1,2.5-3.5,4.4-3.5,5.6c0,6.7,9,2.4,9,2.4l0.5-5.9l6.2-52.4l11.4-103.9L141,183.3z"/>
		<path class="st14" d="M91.9,120.2c0,0,4.5-12.2,4.7-18.6s1,17.8,1,17.8S93.8,118.2,91.9,120.2"/>
		<path class="st0" d="M102.3,170.2l-4.7-50.8c0,0-5.7-0.9-5.7,0.8c0,2.8-2.1,10.8-3.1,15.3c-1,4.2-2.6,8.7-5.3,18
			c-1,2.9-2.2,5.8-3.5,8.6l-2.9,8.5c0,0-0.8,0.9,4.5-0.4l0,0c0,0,0.7-0.2,0.8,0.4l0,0L102.3,170.2z"/>
	</g>
</g>
</svg>
