<svg xmlns="http://www.w3.org/2000/svg" xmlns:xlink="http://www.w3.org/1999/xlink" viewBox="0 0 175 333.97"><defs><style>.cls-1{fill:none;}.cls-2{fill:#fafafa;}.cls-3{clip-path:url(#clip-path);}.cls-4{fill:url(#linear-gradient);}.cls-5{clip-path:url(#clip-path-2);}.cls-6{fill:url(#linear-gradient-2);}.cls-7{clip-path:url(#clip-path-3);}.cls-8{fill:url(#linear-gradient-3);}.cls-9{clip-path:url(#clip-path-4);}.cls-10{fill:url(#linear-gradient-4);}.cls-11{fill:#4b44be;}.cls-12,.cls-15{opacity:0.07;}.cls-13{clip-path:url(#clip-path-5);}.cls-14{clip-path:url(#clip-path-6);}.cls-15,.cls-16{isolation:isolate;}.cls-16{opacity:0.1;}</style><clipPath id="clip-path" transform="translate(33.27 2.96)"><path class="cls-1" d="M127.7,130.81,115.48,164l-2.12,16.18,10.29-9c.57-.48,1.71-3,2.31-4.39l6.16-17.26L136.65,122s-6.9-12.48-15-27.12Zm-6.09-35.95L121.12,92l-1.23-.22,1.72,3.14M80.18,11.2a21.94,21.94,0,0,0-5.78.14c-.58.11-2.34,3.8-3.59,6.44-1.6,3.36-1.92,8.75-1.92,12.19,0,4.33,4.31,9.16,9.64,12.56,2.36,1.52.89,9.42-.35,10.18s-24,17.56-24,17.56L51.84,83.56l-13.37,74-4.6,5.57a4.88,4.88,0,0,0-1.52,2.73c-.31,1.66-.39,4.41,1.43,5,3.91,1.33,10.66,2.37,11.75,1.23,8.14-8.53-.12-2.79-1.74-4.33l3.6-9.06-5.19-5.83,4.86-2.14,13.55-69.6,59.28,10.62C109.34,72.67,97.53,51.27,96.47,49a8.34,8.34,0,0,1-.63-5.83A36.64,36.64,0,0,1,99,35.43c.91-1.32,1.4-3.82,1.71-5.24s.26-1-1,.27c-.35.34-1.44.39-1.93-1.82s-7-5.32-10.23-8c0,0-3.4-.87-6.8-2"/></clipPath><linearGradient id="linear-gradient" x1="-995.63" y1="707.58" x2="-992.5" y2="707.58" gradientTransform="translate(54069.65 -38335.21) scale(54.31)" gradientUnits="userSpaceOnUse"><stop offset="0" stop-color="#f87b58"/><stop offset="0.63" stop-color="#f89453"/><stop offset="0.81" stop-color="#f8c548"/><stop offset="0.94" stop-color="#f89952"/><stop offset="1" stop-color="#f89c51"/></linearGradient><clipPath id="clip-path-2" transform="translate(33.27 2.96)"><path class="cls-1" d="M98.07,1.23c1.15.86,4.46,4,5.69,4.94s2.14,2.58,3.33,4.51a45.37,45.37,0,0,1,2,4.93c2.49,6.37,0,9.14-1.89,13.65-2.67,6.22-8.73,7.18-9.21,8.07-4.8-1.57-5.35-1-7.46-.31-2.69-1.79-3.87-4.23-5.31-5.49.88-1.26,1.28-11.93-3.66-6.71,2-2.05-3.28-8.45-4.38-9.25S74.9,13.88,75,13.43c.57-2.57-3.66-2.15.08-4.89,3-2.19,4.16-7.2,8.1-7.6,2.44-.24,5.56-.52,8-.89C93-.22,94.38.63,95.89.81a5.71,5.71,0,0,1,2.27.76"/></clipPath><linearGradient id="linear-gradient-2" x1="-5468.54" y1="1910.01" x2="-5377.72" y2="1910.01" gradientTransform="matrix(-0.46, 0, 0, 0.52, -2528.29, -979.79)" gradientUnits="userSpaceOnUse"><stop offset="0" stop-color="#4b45bd"/><stop offset="1" stop-color="#58caea"/></linearGradient><clipPath id="clip-path-3" transform="translate(33.27 2.96)"><path class="cls-1" d="M44.25,227.12c-.52,4.59,3,28.6,3,33.19s8.57,53.49,8.57,53.49l13.56-.61s-2.7-72-2.44-75.55S82,192.32,82,192.32s1.07,11.06,1.07,14.56,4.11,105.37,4.11,105.37H99l16.79-150-.32-2.89-62-8.6s-8.74,71.82-9.28,76.4"/></clipPath><linearGradient id="linear-gradient-3" x1="452.98" y1="-323.19" x2="579.41" y2="-323.19" gradientTransform="matrix(0.52, 0, 0, -0.52, -86.51, 65.59)" xlink:href="#linear-gradient-2"/><clipPath id="clip-path-4" transform="translate(33.27 2.96)"><path class="cls-1" d="M60.59,56.19C53.47,60.63,50,66,48.62,70.49c-3.51,11.52-1.51,9.91-5,24.37-4.4,18.2-3.22,29.47-3.75,35.91-.61,7.43-4.71,28.14-1.65,28.62,1.57.24,1.31,1,8.25.3,1.78-.17,5.7-15.34,5.7-15.34s-.24,9.86,1.68,10.82c1.7.85,21.59,6.65,26.4,8.49a104.06,104.06,0,0,0,10.54,1l25-3.48s-.35-47.45.09-55.37c.43-7.76-.53-12.09.83-10,1.54,2.35,8.09,23.67,8.09,27.28s-7.24,35.15-7.24,35.15l9.62,5.3s13-34.65,13.71-39.22,1-7-1.19-11.54-14-45.95-14-45.95-2.62-3.82-9.86-7.7c-5-1.81-15.13-7.69-22.82-5a89.75,89.75,0,0,1-18.17.58,33,33,0,0,0-10.67-.25"/></clipPath><linearGradient id="linear-gradient-4" x1="1271.2" y1="-994.15" x2="1415.71" y2="-893.57" gradientTransform="matrix(0.52, 0, 0, -0.52, -602.45, -401.84)" gradientUnits="userSpaceOnUse"><stop offset="0" stop-color="#e5a4ed"/><stop offset="1" stop-color="#7a5bf5"/></linearGradient><clipPath id="clip-path-5" transform="translate(33.27 2.96)"><rect class="cls-1" x="55.41" y="184.23" width="29.1" height="146.46"/></clipPath><clipPath id="clip-path-6" transform="translate(33.27 2.96)"><rect class="cls-1" x="66.08" y="109.86" width="79.66" height="34.6" transform="translate(-32.15 218.4) rotate(-83.67)"/></clipPath></defs><g id="Layer_2" data-name="Layer 2"><g id="man_with_documents" data-name="man with documents"><polygon class="cls-2" points="33.27 124.24 41.47 174.58 72.04 169.62 73.83 120.35 33.27 124.24"/><g class="cls-3"><rect class="cls-4" width="170.15" height="183.31"/></g><g class="cls-5"><rect class="cls-6" x="71.24" y="-1.36" width="38.79" height="42.14" transform="translate(93.44 110.28) rotate(-83.1)"/></g><g class="cls-7"><rect class="cls-8" x="77.04" y="153.24" width="71.77" height="162.94"/></g><g class="cls-9"><rect class="cls-10" x="16" y="21.49" width="159" height="148.24"/></g><path class="cls-11" d="M51.2,320.24c5.39-1.05,4.71-7.29,4.71-7.29l13.29-.49A37.1,37.1,0,0,1,71,322c.12,3.43,1.3,8.1-2.09,8.75-4,.76-26.72-.41-28.85-3.08-2.78-3.48,3.86-5.83,8.89-6.8" transform="translate(33.27 2.96)"/><path class="cls-11" d="M81.4,319.81c5.39-1.05,5.76-7.56,5.76-7.56L99,312a52.12,52.12,0,0,1,1.11,9c.11,3.44,1.43,8.06-1.49,8.72-4,.91-26.25.24-28.38-2.43-2.78-3.47,3.86-5.83,8.89-6.8" transform="translate(33.27 2.96)"/><g class="cls-12"><g class="cls-13"><path d="M84.09,184.8c-1.67,4.89-8.19,14.38-12.37,20s-17.32,17.72-16.49,32.4S65,289.54,65,292.94s-3.33,19.42-5.83,24.31-2,10-.79,10a12,12,0,0,0,5.47,0c2.16-.58,5,1.77,6.28,1.2.85-.4,1-3.17,1-3.17a9.54,9.54,0,0,0-.41-3.52,34.24,34.24,0,0,1-1.38-5.54c-.52-13.79-1.69-45.7-1.46-47.93.43-4.19-2.88-25.23.14-35.59s16.09-47.89,16.09-47.89" transform="translate(33.27 2.96)"/></g></g><g class="cls-12"><g class="cls-14"><path d="M115.54,100.36l-.12,48.88s1.23,10.36-.47,11.51-8.69,2-10.8,2c-1.44,0-20.76,2.25-13.88-1.19,3.09-1.54,22.39-12.37,16.23-23s-3.33-24.28,1.2-33.47,7.94-15.39,7.94-15.39Z" transform="translate(33.27 2.96)"/></g></g><path class="cls-15" d="M77.8,42.07a5.08,5.08,0,0,0,3.6-.53c.58-.34,2.7-1.85,3.75-2.68,2.24-1.79-2.48,4-3.36,7.29-1,3.67-2-2.35-2.83-3.2A3.23,3.23,0,0,0,77.8,42.07Z" transform="translate(33.27 2.96)"/><path class="cls-15" d="M107.77,180.34s-4.52,18.21-8.54,23.55c-4.32,5.76.45,32.12-3.57,43.72-3.79,11,1.34,34.8.45,42.39-.73,6.22-.89,19.65-4.15,27.12-1.11,2.55-3.48,4.42-3.48,5.63,0,6.69,9,2.37,9,2.37l.47-5.93,6.19-52.38,11.38-103.92Z" transform="translate(33.27 2.96)"/><path class="cls-16" d="M58.63,117.24S63.1,105,63.31,98.64s1,17.79,1,17.79-3.77-1.14-5.66.81" transform="translate(33.27 2.96)"/><path class="cls-2" d="M69,167.26,64.3,116.44s-5.66-.86-5.66.8c0,2.81-2.06,10.76-3.14,15.34-1,4.19-2.62,8.66-5.31,18a74.86,74.86,0,0,1-3.51,8.62l-2.89,8.54s-.75.89,4.49-.38h0s.67-.25.78.4h0Z" transform="translate(33.27 2.96)"/></g></g></svg>