<svg width="24" height="24" viewBox="0 0 24 24" fill="none" xmlns="http://www.w3.org/2000/svg">
<path d="M13.0852 21.9906L11.0853 22.0081L11.0591 19.0082L13.0591 18.9908L13.0852 21.9906ZM18.4297 19.7219L16.2902 17.6195L17.6918 16.1932L19.8323 18.2966L18.4317 19.7219L18.4297 19.7219ZM5.70213 19.833L4.27485 18.4314L6.37625 16.291L7.80354 17.6926L5.70213 19.833ZM12.0417 17.0066C9.27678 17.0296 7.01659 14.807 6.9932 12.0421C6.9698 9.27717 9.19206 7.01669 11.957 6.99292C14.7219 6.96916 16.9827 9.19112 17.0068 11.956C17.0282 14.7209 14.8065 16.9808 12.0417 17.0066ZM11.9718 8.99287C10.3114 9.00847 8.97792 10.3669 8.99314 12.0273C9.00837 13.6877 10.3665 15.0215 12.0269 15.0066C13.6873 14.9918 15.0214 13.6339 15.0069 11.9735C14.9908 10.3128 13.6325 8.97893 11.9718 8.99287ZM22.0064 12.9125L19.0065 12.9386L18.989 10.9387L21.9889 10.9125L22.0064 12.9125ZM5.00701 13.0608L2.00712 13.087L1.98967 11.0871L4.98956 11.0609L5.00701 13.0608ZM17.6168 7.70856L16.1915 6.30594L18.2939 4.16552L19.7212 5.56811L17.6178 7.70755L17.6168 7.70856ZM6.30421 7.80728L4.16579 5.70486L5.56839 4.27857L7.70683 6.38199L6.30521 7.80627L6.30421 7.80728ZM12.9369 4.9913L10.937 5.00875L10.9108 2.00886L12.9107 1.99141L12.9369 4.9913Z" fill="#2E3A59"/>
</svg>
