<svg width="24" height="25" viewBox="0 0 24 25" fill="none" xmlns="http://www.w3.org/2000/svg">
<ellipse cx="11.8637" cy="12.3136" rx="11.8637" ry="12.3136" fill="#339BF0"/>
<path d="M15.4269 10.5886C15.2971 10.5443 15.1663 10.503 15.0346 10.4647C15.0565 10.3758 15.0766 10.2865 15.0951 10.1966C15.3921 8.75186 15.1979 7.58796 14.5349 7.20481C13.9002 6.83716 12.8592 7.2203 11.809 8.1364C11.7057 8.22679 11.6046 8.31989 11.5056 8.41569C11.4396 8.35205 11.3719 8.28976 11.3025 8.22882C10.2018 7.24925 9.09855 6.83665 8.43637 7.22106C7.8016 7.58948 7.61295 8.68356 7.88031 10.0529C7.90706 10.1883 7.9371 10.3231 7.97045 10.4574C7.81871 10.5004 7.66825 10.5478 7.51926 10.5995C6.23043 11.0502 5.40625 11.7568 5.40625 12.4896C5.40625 13.2468 6.29086 14.0059 7.63478 14.4663C7.7438 14.5033 7.85382 14.5378 7.96486 14.5696C7.92881 14.7133 7.8969 14.8586 7.86914 15.0056C7.61523 16.3513 7.81328 17.4195 8.44678 17.7856C9.10109 18.1637 10.1987 17.7752 11.2687 16.8383C11.3533 16.7641 11.438 16.6858 11.5226 16.6034C11.6296 16.7068 11.7396 16.8072 11.8527 16.9045C12.8886 17.7978 13.9116 18.1586 14.5441 17.7914C15.1979 17.4121 15.4104 16.2644 15.1344 14.8682C15.1133 14.7616 15.0889 14.6527 15.0613 14.5417C15.1385 14.5188 15.2141 14.4952 15.288 14.4708C16.6845 14.007 17.5943 13.2569 17.5943 12.4904C17.5937 11.7541 16.7432 11.0429 15.4269 10.5886V10.5886ZM12.1515 8.52995C13.0511 7.74513 13.8921 7.43536 14.2754 7.65677C14.6835 7.89265 14.8422 8.84378 14.5857 10.0912C14.5688 10.1725 14.5505 10.2535 14.5309 10.3342C13.994 10.2121 13.4496 10.1259 12.9013 10.0762C12.5874 9.624 12.2432 9.1935 11.8712 8.78767C11.9623 8.69931 12.0555 8.6134 12.151 8.52995H12.1515ZM9.00486 13.1158C9.11506 13.329 9.23025 13.5397 9.35043 13.7477C9.47281 13.96 9.60036 14.1691 9.73307 14.3751C9.35578 14.3341 8.98086 14.2737 8.60978 14.1941C8.71744 13.8457 8.84998 13.4839 9.00486 13.1158V13.1158ZM9.00486 11.8886C8.85252 11.5283 8.72353 11.1739 8.61766 10.8316C8.96551 10.7537 9.33621 10.6899 9.72266 10.6417C9.59316 10.8438 9.46858 11.0489 9.34891 11.2569C9.22923 11.4649 9.1143 11.6755 9.0041 11.8886H9.00486ZM9.28162 12.5023C9.44209 12.1677 9.61492 11.8394 9.8001 11.5177C9.98511 11.1961 10.1821 10.8818 10.3909 10.5749C10.7535 10.5475 11.1252 10.533 11.5008 10.533C11.8763 10.533 12.2503 10.5475 12.6126 10.5752C12.8193 10.8814 13.0151 11.1945 13.1999 11.5146C13.3847 11.8347 13.5599 12.1614 13.7252 12.4947C13.5621 12.8305 13.3874 13.1601 13.2012 13.4834C13.0165 13.805 12.8218 14.1202 12.6172 14.429C12.2554 14.4543 11.8809 14.4683 11.5 14.4683C11.1191 14.4683 10.7517 14.4564 10.3965 14.4333C10.1861 14.1254 9.98756 13.8098 9.80086 13.4865C9.61415 13.1631 9.44082 12.8351 9.28086 12.5023H9.28162ZM13.6519 13.7442C13.7746 13.5312 13.8924 13.3155 14.0053 13.097C14.1601 13.4479 14.2967 13.8065 14.4146 14.1715C14.0392 14.256 13.6596 14.3209 13.2773 14.3657C13.4063 14.1611 13.5312 13.9539 13.6519 13.7442V13.7442ZM14.0002 11.8889C13.8878 11.6747 13.7709 11.4632 13.6496 11.2541C13.5311 11.0479 13.4076 10.8443 13.2791 10.6432C13.6679 10.6925 14.0408 10.758 14.3905 10.838C14.2781 11.1946 14.1478 11.5453 14.0002 11.8889V11.8889ZM11.5058 9.16065C11.7594 9.43769 11.9988 9.72734 12.2231 10.0285C11.7432 10.0057 11.263 10.0057 10.7825 10.0285C11.0194 9.71519 11.2618 9.42446 11.5058 9.16065V9.16065ZM8.6984 7.67226C9.10617 7.43562 10.0078 7.77382 10.9582 8.61856C11.0188 8.67265 11.08 8.72927 11.141 8.78792C10.7671 9.19369 10.4205 9.62382 10.1035 10.0755C9.55641 10.1248 9.01309 10.2096 8.47699 10.3294C8.44602 10.2048 8.41809 10.0794 8.3932 9.9531C8.16342 8.77929 8.31551 7.89442 8.6984 7.67226ZM8.104 14.0669C8.00244 14.0379 7.90215 14.0065 7.80312 13.9727C7.20898 13.7696 6.71818 13.5045 6.38125 13.2158C6.07961 12.9571 5.92676 12.6988 5.92676 12.4896C5.92676 12.045 6.58844 11.4778 7.69191 11.0931C7.83055 11.0449 7.97036 11.0008 8.11137 10.9608C8.27525 11.4875 8.47373 12.0028 8.70551 12.5033C8.47097 13.0108 8.27003 13.5331 8.104 14.0669V14.0669ZM10.9257 16.4452C10.4526 16.8596 9.97885 17.1534 9.56117 17.3014C9.1859 17.4342 8.88705 17.438 8.70652 17.3336C8.32211 17.1115 8.16215 16.2535 8.38025 15.1028C8.40615 14.9674 8.43577 14.832 8.46912 14.6966C9.01059 14.8132 9.55936 14.8929 10.1116 14.935C10.4317 15.389 10.7811 15.8216 11.1577 16.2299C11.0821 16.3043 11.0046 16.3759 10.9257 16.4452ZM11.5203 15.8557C11.2735 15.5888 11.0272 15.2935 10.787 14.9761C11.0205 14.9853 11.2581 14.9898 11.5 14.9898C11.7483 14.9898 11.9941 14.9845 12.2363 14.9736C12.0128 15.2796 11.7738 15.574 11.5203 15.8557V15.8557ZM14.682 16.5816C14.6093 16.9736 14.4633 17.2351 14.2828 17.3397C13.8987 17.5627 13.0773 17.273 12.1916 16.509C12.0901 16.4216 11.9885 16.3279 11.8852 16.2297C12.2544 15.8197 12.5957 15.3854 12.9066 14.9297C13.462 14.8826 14.0134 14.7973 14.557 14.6745C14.5819 14.775 14.6039 14.8735 14.623 14.97C14.7452 15.587 14.7627 16.1451 14.682 16.5816V16.5816ZM15.1237 13.9755C15.0572 13.9976 14.9887 14.0189 14.9191 14.0397C14.7486 13.5106 14.5424 12.9936 14.3019 12.4924C14.5334 11.9979 14.7315 11.4884 14.895 10.9675C15.0196 11.0038 15.1408 11.0418 15.2573 11.0822C16.3852 11.4712 17.0732 12.0471 17.0732 12.4896C17.0732 12.9619 16.3301 13.5748 15.1237 13.9755V13.9755Z" fill="white"/>
<path d="M11.5004 13.5803C11.7164 13.581 11.9279 13.5176 12.1079 13.398C12.2879 13.2785 12.4284 13.1082 12.5116 12.9088C12.5948 12.7094 12.6169 12.4897 12.5752 12.2777C12.5334 12.0657 12.4297 11.8708 12.2772 11.7178C12.1246 11.5647 11.9301 11.4604 11.7182 11.418C11.5063 11.3756 11.2866 11.397 11.0869 11.4795C10.8872 11.562 10.7165 11.702 10.5964 11.8816C10.4762 12.0612 10.4121 12.2724 10.4121 12.4885C10.4118 12.6317 10.4397 12.7735 10.4943 12.9059C10.5488 13.0382 10.6289 13.1586 10.73 13.2599C10.831 13.3613 10.9511 13.4418 11.0833 13.4968C11.2155 13.5518 11.3572 13.5801 11.5004 13.5803Z" fill="white"/>
</svg>
