<svg width="30" height="22" viewBox="0 0 30 22" fill="none" xmlns="http://www.w3.org/2000/svg">
<path d="M26.4662 3.349C27.7518 2.67911 28.7138 1.6243 29.1725 0.3815C27.9644 1.00625 26.6427 1.44635 25.2644 1.68275C23.3534 -0.0790912 20.3258 -0.507843 17.8732 0.636069C15.4206 1.77998 14.1503 4.21336 14.772 6.5765C9.82351 6.35997 5.21317 4.32264 2.08815 0.9715C0.457271 3.42328 1.29069 6.55748 3.99273 8.134C3.01565 8.10662 2.06023 7.87605 1.20614 7.4615C1.20614 7.484 1.20614 7.5065 1.20614 7.529C1.2067 10.0829 3.27188 12.2829 6.14399 12.789C5.23769 13.0039 4.28703 13.0355 3.36457 12.8815C4.17229 15.0656 6.48181 16.5619 9.11416 16.6065C6.93398 18.0979 4.24153 18.9067 1.47003 18.9028C0.97878 18.9034 0.48792 18.8787 0 18.829C2.8144 20.4053 6.09002 21.2419 9.43541 21.239C14.0897 21.2669 18.5625 19.6676 21.8535 16.799C25.1445 13.9304 26.979 10.0318 26.9466 5.97525C26.9466 5.74275 26.9404 5.5115 26.928 5.2815C28.1334 4.52225 29.1737 3.58169 30 2.504C28.8771 2.93783 27.6859 3.22265 26.4662 3.349Z" fill="#325AF0"/>
</svg>
