<svg width="30" height="20" viewBox="0 0 30 20" fill="none" xmlns="http://www.w3.org/2000/svg">
<path d="M1.63587 0H28.3587C29.2609 0.00520833 29.9946 0.713542 29.9946 1.57812V18.4167C29.9946 19.2812 29.2609 19.9896 28.3587 19.9948H1.63587C0.733696 19.9948 0 19.2865 0 18.4219V1.57812C0 0.713542 0.733696 0.00520833 1.63587 0Z" fill="#DA251D"/>
<path d="M15 6L13.7119 9.80208L16.3587 10.625L15 6Z" fill="#FFFF00"/>
<path d="M14.9998 6L16.2879 9.80208L13.6411 10.625L14.9998 6Z" fill="#FFFF00"/>
<path d="M18.9674 8.76562H14.7935V11.4323L18.9674 8.76562Z" fill="#FFFF00"/>
<path d="M18.9674 8.76562L15.5924 11.1146L13.9565 8.95833L18.9674 8.76562Z" fill="#FFFF00"/>
<path d="M17.4509 13.2344L16.1629 9.4323L13.5161 10.2552L17.4509 13.2344Z" fill="#FFFF00"/>
<path d="M17.4512 13.2344L14.0762 10.8854L15.712 8.72917L17.4512 13.2344Z" fill="#FFFF00"/>
<path d="M11.0327 8.76562H15.2066V11.4323L11.0327 8.76562Z" fill="#FFFF00"/>
<path d="M11.0327 8.76562L14.4077 11.1146L16.0436 8.95833L11.0327 8.76562Z" fill="#FFFF00"/>
<path d="M12.5488 13.2344L13.8369 9.4323L16.4836 10.2552L12.5488 13.2344Z" fill="#FFFF00"/>
<path d="M12.5488 13.2344L15.9238 10.8854L14.288 8.72917L12.5488 13.2344Z" fill="#FFFF00"/>
</svg>
